<svg width="168" height="71" viewBox="0 0 168 71" fill="none" xmlns="http://www.w3.org/2000/svg">
<mask id="mask0_2_9176" style="mask-type:alpha" maskUnits="userSpaceOnUse" x="0" y="0" width="168" height="71">
<rect width="168" height="71" transform="matrix(-1 0 0 1 168 0)" fill="#C4C4C4"/>
</mask>
<g mask="url(#mask0_2_9176)">
<path d="M34.7281 9.83438L48.375 19.8994L31.4261 42.8799L17.7792 32.8149L34.7281 9.83438Z" fill="white"/>
<path d="M31.8931 42.5577L48.7539 20.2286L34.991 10.2163L17.7803 31.7298L31.8931 42.5577Z" stroke="black" stroke-width="2" stroke-linecap="round" stroke-linejoin="round"/>
<path d="M29.2747 100.904C30.3416 100.289 32.8853 100.155 34.3288 100.515C35.881 100.904 38.6046 102.067 44.0436 103.235L45.6 102.846C45.6 102.846 42.1023 99.7369 40.1611 97.0175C38.2198 94.298 35.8852 90.407 35.4961 85.3571C35.409 84.1434 35.698 82.9323 36.3239 81.8887C36.9498 80.8451 37.882 80.0197 38.9938 79.5249C40.9392 78.7467 44.0478 78.7467 45.6042 79.1358L46.7673 77.9727C47.9919 75.8393 48.6609 73.4324 48.7128 70.9731C48.7073 69.0241 48.5774 67.0774 48.3237 65.145L47.5748 63.4088C47.5748 63.4088 44.2277 61.3168 40.9392 56.5933C38.7385 53.4387 37.8307 49.987 37.4416 48.4306C37.0525 46.8743 36.6634 41.8244 36.6634 40.6571L40.9434 39.6697C40.9434 39.6697 41.7132 38.5443 41.7174 39.8789C41.7216 41.2136 42.8764 44.4351 44.2277 46.2551C45.6377 48.142 49.1019 51.5392 50.2691 51.9283L51.8214 52.7065C50.5695 51.0256 49.5257 49.1993 48.7128 47.2675C47.7798 44.958 48.3739 42.6653 49.1019 41.0504C49.7671 39.5902 51.4323 38.72 52.2105 38.72L53.9133 38.0004C53.9133 38.0004 55.1684 37.1636 55.5868 36.3268C56.2225 35.2751 56.9123 34.257 57.6536 33.2768C58.1808 32.2225 59.9589 30.2728 61.0509 29.1306C61.1651 29.0098 61.3047 28.9159 61.4596 28.8558C61.6146 28.7956 61.781 28.7706 61.9467 28.7826C62.1125 28.7946 62.2736 28.8433 62.4182 28.9252C62.5628 29.0071 62.6874 29.1202 62.783 29.2562C63.0788 29.6531 63.3142 30.0915 63.4817 30.5573C63.9252 31.8878 63.4817 33.6659 63.4817 33.6659C64.6614 33.8587 65.8292 34.1185 66.9794 34.4441C68.0699 34.8447 69.1125 35.3653 70.088 35.9963L72.4226 34.055L74.6023 31.8752C74.8215 31.6559 75.0878 31.4891 75.3809 31.3878C75.674 31.2864 75.9863 31.253 76.2942 31.2901C76.6021 31.3271 76.8976 31.4337 77.1582 31.6018C77.4189 31.7699 77.6379 31.995 77.7988 32.2601C78.3846 33.165 78.8013 34.1687 79.0288 35.2223C79.4137 37.5192 78.2506 41.8285 78.2506 41.8285L78.8824 45.0376C78.9309 45.2898 79.0368 45.5274 79.192 45.7321C80.2505 47.1169 81.1166 48.0709 81.4638 48.7696C81.8822 49.6063 81.8822 51.6104 80.9743 53.0998C79.807 55.0411 76.3093 56.5975 76.3093 56.5975L75.9202 57.7648C77.4766 58.1539 80.627 57.974 83.5557 57.5556C86.4007 57.1372 88.296 55.6938 89.8022 53.9993L88.5763 52.535C88.5763 52.535 88.158 51.6982 87.6015 50.5435C86.4091 48.075 83.836 42.2679 85.8987 36.1929L86.0033 35.921L86.1162 35.6072C88.4508 29.39 95.0571 23.1729 103.998 22.3947C114.094 21.5161 121.875 23.562 128.482 27.0597C135.088 30.5573 140.347 37.6196 141.309 43.3766C142.088 48.0416 140.531 52.3174 136.644 53.8738C135.159 54.4679 129.712 54.5934 127.381 53.8152L126.808 52.9199C128.992 57.1141 130.477 61.6361 131.205 66.3081C131.979 71.7471 131.205 78.3534 126.93 84.9639C122.947 91.1183 114.085 95.7581 107.496 97.0133C102.575 97.9504 97.2327 97.6158 93.7643 97.2016L93.7015 97.1555C94.1868 102.272 92.7476 106.226 90.6892 108.285C89.0868 109.887 86.0242 111.782 82.5265 111.782L84.0829 112.56C86.1625 112.519 88.2419 112.649 90.3001 112.949C93.4086 113.334 97.2954 114.113 99.2409 116.447C101.186 118.782 100.797 120.334 100.797 120.723L98.8518 121.886C97.81 122.233 96.9105 121.497 94.1869 120.723C91.4632 119.949 86.0242 119.556 83.3089 119.167C80.5936 118.778 75.9244 119.167 74.3681 118.388C73.7329 118.088 73.2266 117.57 72.9417 116.928C72.6568 116.286 72.6121 115.563 72.8158 114.891C73.2049 113.723 73.594 111.782 73.2049 111.004C72.8158 110.226 68.54 106.728 64.2641 104.398C59.9882 102.067 56.4696 101.933 55.0262 102.511C53.4363 103.151 53.5242 106.829 54.2731 108.59C54.8254 109.879 55.499 112.025 55.1099 113.192C54.7208 114.359 53.3485 114.866 52.1812 114.866C51.0139 114.866 49.4952 113.723 45.9975 111.393C42.6504 109.171 36.6842 107.431 33.1698 106.728C31.2243 106.339 29.2831 105.561 28.5049 104.787C27.2665 103.557 28.3208 101.465 29.2747 100.904ZM83.6896 74.4708C83.6896 74.4708 85.246 76.8054 86.4091 78.7467C88.4978 82.1647 90.2909 85.755 91.7686 89.4782C94.5759 88.3778 97.1113 86.2775 98.9355 84.194C101.655 81.0854 102.822 77.5878 102.044 72.9228C101.295 68.4377 98.7263 64.8438 96.9356 62.5762L95.4755 60.819C94.5843 62.7086 93.3805 64.4343 91.915 65.9233C88.6056 69.3163 82.9072 72.5337 82.9072 72.5337L83.6896 74.4708Z" fill="white"/>
<path d="M89.2495 89.7504C91.3414 89.332 94.6885 87.579 95.1068 87.2401C100.617 82.7425 104.311 78.8724 100.546 67.5761C99.9141 65.6892 97.2783 63.1663 96.0106 61.6811C94.4416 59.836 92.8267 58.5097 91.3414 56.6981C89.2907 54.2259 87.7289 51.3862 86.7392 48.3305C85.484 44.9834 84.5929 39.5779 85.0656 38.2893C85.0656 37.0341 86.3752 33.7205 87.1283 32.4779C89.6386 28.3276 92.5965 26.1562 97.1988 24.4826C98.5878 23.7044 100.659 23.2275 102.219 22.8091C105.24 21.9723 109.072 22.466 112.181 22.4451C117.283 22.3382 122.334 23.468 126.904 25.7378C128.121 26.1562 129.761 27.4573 130.866 28.0347C136.723 31.0889 140.489 38.1135 142.024 44.2847C143.066 48.4685 138.74 49.3388 136.527 45.8202C134.037 41.8664 133.381 36.3396 128.996 34.1054C125.35 32.4685 121.249 32.1505 117.394 33.2059C115.796 33.6536 113.516 35.779 112.679 37.4525C111.005 40.7996 112.625 45.7281 114.352 48.7488C116.026 51.6775 117.796 53.9368 119.294 57.2127C121.917 62.9488 124.339 68.5802 122.687 74.9856C121.57 79.3243 118.888 82.8513 115.49 85.5917C113.814 86.8485 112.034 87.9598 110.169 88.9136C105.219 91.7879 94.4793 92.3444 88.8311 92.6791C87.6764 92.746 85.2581 90.5495 89.2495 89.7504Z" fill="#FBB03B"/>
<path d="M53.6877 37.4527C55.7796 35.7792 55.7796 34.524 57.0348 33.2689C57.4992 32.8003 58.9844 33.8337 59.5451 32.4321C60.3818 30.3402 61.2772 29.6206 61.637 29.0851C62.4737 27.8299 62.7792 27.9387 63.3105 29.5034C63.6829 30.608 63.7289 32.156 63.7289 33.2689C63.7289 33.5952 65.712 33.4195 66.6576 33.6873C67.214 33.8421 68.7704 34.8085 69.6699 35.2395C70.2808 35.5323 70.8749 35.4989 71.2598 34.9424C71.6447 34.386 72.243 33.6873 72.5149 33.2689C73.6237 31.5954 77.9539 29.5034 76.6988 32.0137C76.3892 32.6329 75.0252 35.3608 74.6069 36.616C74.3148 37.4586 74.3218 38.3761 74.6266 39.2142C74.9313 40.0523 75.5153 40.7599 76.2804 41.2182C76.4185 41.3018 76.6402 41.4483 76.8954 41.6365C77.0691 41.7344 77.265 41.7858 77.4644 41.7858C77.6637 41.7858 77.8598 41.7344 78.0334 41.6365C78.1004 41.6031 78.6987 45.197 78.548 45.1552C77.8511 44.8031 77.2244 44.3267 76.6988 43.7494C76.2385 42.9126 74.9667 41.3772 74.6069 41.2391C73.8245 40.4693 71.1008 39.984 70.423 39.9296C69.4285 39.8629 68.433 40.0444 67.526 40.4578C66.619 40.8711 65.8289 41.5033 65.2267 42.2976C64.9784 42.6158 64.6735 42.8853 64.3272 43.0925C63.941 43.3617 63.4991 43.5405 63.0344 43.6155C62.5345 43.6638 62.0305 43.5866 61.568 43.3908C61.1055 43.195 60.6992 42.8868 60.386 42.4943C60.1852 42.2181 60.2814 41.6031 60.3274 41.2391C60.4948 40.0258 60.5701 38.8041 59.7543 37.6535C58.2188 35.4905 56.3444 36.0511 54.5287 37.8711C53.2735 39.1262 52.4367 38.7079 52.0184 38.2895C51.9431 38.2184 53.6668 37.4527 53.6877 37.4527Z" fill="#FBB03B"/>
<path d="M36.5326 80.9647C38.068 79.1113 39.0136 78.3708 41.5155 78.4544H41.5866C42.3857 78.3122 44.3145 78.4544 45.5529 78.4544C45.8333 78.4542 46.107 78.3689 46.3378 78.2098C46.5687 78.0507 46.7458 77.8252 46.8457 77.5633C47.2892 76.4211 48.1009 74.6639 48.2473 74.2873C49.607 70.2374 48.2766 63.9658 47.034 62.6145C47.0064 62.5874 46.9737 62.566 46.9378 62.5517C45.783 62.0496 41.7958 57.3177 40.775 56.0291C38.8462 53.6025 37.2187 46.8749 37.1267 46.4691C36.746 44.8248 36.2648 43.3186 36.5326 41.6535C36.6455 40.9506 37.7501 40.3983 38.2061 40.3983C38.911 40.2996 39.6094 40.1599 40.298 39.9799C41.1348 39.9799 41.1348 38.7248 41.5532 39.5616C42.2477 40.9506 43.6158 44.511 44.4568 45.7996C44.4736 45.8254 44.4932 45.8493 44.5153 45.8708C44.9044 46.2557 48.787 50.0546 51.6278 52.9121C51.678 52.9623 51.7492 53.0502 51.8203 53.1297C51.9449 53.2707 52.0555 53.4235 52.1508 53.5858C52.5687 54.3289 52.9458 55.0943 53.2805 55.8785C53.8002 58.1087 54.1553 60.374 54.3431 62.6563C54.5356 65.0829 53.9248 68.8358 53.6988 70.5219C53.5691 71.48 51.0588 79.9522 50.5819 81.6258C49.9334 83.9101 49.515 88.5124 49.9334 90.1859C50.9124 94.1103 51.6404 96.0433 54.1172 97.2984C55.7908 98.1352 59.7236 98.9259 63.74 100.645C66.6687 101.901 70.5973 103.49 70.8525 103.574C73.3628 104.411 76.5969 104.055 77.5467 103.156C80.1992 100.645 80.8937 97.2649 80.8937 93.533C80.8937 86.0021 79.0152 76.7558 76.7099 71.7771C76.7099 71.7771 76.0572 70.5219 76.0488 70.5219C74.5803 66.9698 72.8231 63.5349 71.706 59.8489C71.4124 58.9753 71.3761 58.0357 71.6014 57.142C71.6999 56.7345 71.9117 56.3632 72.2123 56.0709C72.437 55.8693 72.673 55.6807 72.9193 55.5061C73.8398 54.8116 75.8731 54.2175 77.2538 53.9121C78.2339 53.711 79.1741 53.3491 80.036 52.841C80.1158 52.8029 80.2056 52.791 80.2926 52.807C80.3795 52.8231 80.4592 52.8662 80.52 52.9304C80.5809 52.9945 80.6199 53.0763 80.6314 53.164C80.6429 53.2516 80.6264 53.3407 80.5841 53.4184C80.3122 53.8368 80.0863 54.1505 80.057 54.2175C79.9315 54.4727 78.2286 55.8157 76.8271 56.6441C76.7599 56.6888 76.707 56.752 76.6749 56.826C76.6428 56.9 76.6327 56.9817 76.646 57.0613C76.6593 57.1409 76.6952 57.215 76.7496 57.2746C76.804 57.3342 76.8745 57.3768 76.9525 57.3972C78.0571 57.6106 79.6428 57.9829 80.057 57.9829C82.1489 57.9829 86.3076 56.7278 86.3327 56.7278C88.843 55.4726 90.5165 52.9623 92.6085 49.6153C92.7716 49.3517 94.8635 40.5196 95.1188 40.4108C95.5622 40.1222 96.9973 41.4903 97.6291 41.666C98.5052 42.0004 99.3461 42.4209 100.139 42.9211C101.014 42.7705 99.3026 46.6866 98.8842 47.9417C98.4658 49.1969 98.562 52.7364 98.4658 52.9623C98.0474 53.9121 96.8467 57.4014 96.7923 57.5645C94.9847 62.6564 91.6174 67.0485 87.1695 70.116C87.1695 70.116 83.0275 72.2958 83.404 73.0447C84.2408 74.7182 87.9142 80.8183 88.0062 80.994C89.7091 84.3118 91.1065 85.7719 92.1901 89.3616C93.2486 92.8802 93.8971 97.8883 93.4452 101.495C93.0687 104.499 91.9432 107.352 89.2614 109.026C86.5796 110.699 84.3036 112.176 81.3121 111.954C80.8352 111.921 77.417 112.193 77.1283 111.954C72.183 111.536 70.3505 107.176 65.832 105.26C65.6939 105.202 64.2756 104.49 64.1584 104.423C63.4639 104.273 62.9033 103.587 61.9535 103.39C59.8365 102.972 56.4267 101.424 54.5356 102.332C53.5231 102.817 54.7281 106.03 53.6988 106.097C53.1928 105.8 52.6118 105.654 52.0253 105.679H51.5651C49.5108 105.26 49.2891 103.884 45.7496 103.168C44.076 102.75 38.817 96.4742 37.3191 92.3698C37.3094 92.3413 37.2953 92.3145 37.2773 92.2903C36.0598 90.5791 35.8841 88.7299 35.7084 86.8513C35.4783 84.5168 35.2774 82.2199 36.5326 80.9647ZM81.2661 93.7756C81.3036 93.7283 81.332 93.6744 81.3498 93.6166C81.3958 93.4367 81.4335 93.2526 81.4711 93.0644C81.3456 93.3907 81.2075 93.7087 81.0527 94.0224L81.2661 93.7756Z" fill="#FBB03B"/>
<path d="M72.4642 33.825L74.644 31.6453C74.8635 31.4253 75.1302 31.2582 75.4239 31.1567C75.7177 31.0552 76.0306 31.0219 76.3391 31.0594C76.6477 31.0969 76.9436 31.2042 77.2044 31.3731C77.4653 31.5421 77.6842 31.7682 77.8446 32.0344C78.4284 32.9383 78.8437 33.9405 79.0705 34.9923C79.4554 37.2935 78.2964 41.5986 78.2964 41.5986L78.924 44.8118C78.9732 45.0625 79.0791 45.2987 79.2337 45.5021C80.2922 46.887 81.1582 47.8409 81.5096 48.5396C81.928 49.3764 81.928 51.3804 81.0159 52.8698C79.8486 54.8153 76.351 56.3675 76.351 56.3675" stroke="black" stroke-width="2" stroke-linecap="round" stroke-linejoin="round"/>
<path d="M70.1348 35.779C69.1593 35.1468 68.1167 34.6248 67.0262 34.2226C65.8745 33.8973 64.7053 33.6375 63.5243 33.4444C63.5243 33.4444 63.9678 31.6663 63.5243 30.3358C63.3553 29.8707 63.1199 29.4324 62.8256 29.0346C62.7295 28.8993 62.6047 28.7869 62.4601 28.7054C62.3155 28.624 62.1547 28.5755 61.9891 28.5635C61.8236 28.5515 61.6574 28.5763 61.5026 28.636C61.3478 28.6958 61.208 28.789 61.0935 28.9091C60.0015 30.0555 58.2234 32.001 57.6962 33.0553" stroke="black" stroke-width="2" stroke-linecap="round" stroke-linejoin="round"/>
<path d="M68.1895 35.771L66.2482 38.1014" stroke="black" stroke-width="2" stroke-linecap="round" stroke-linejoin="round"/>
<path d="M64.6914 34.6035L63.5241 37.323" stroke="black" stroke-width="2" stroke-linecap="round" stroke-linejoin="round"/>
<path d="M76.752 35.3818C76.752 35.3818 75.9738 37.3231 75.9738 38.4904" stroke="black" stroke-width="2" stroke-linecap="round" stroke-linejoin="round"/>
<path d="M72.4645 42.377C72.5911 42.5163 72.6726 42.6906 72.6983 42.8771C72.724 43.0635 72.6927 43.2535 72.6085 43.4218C72.5244 43.5902 72.3912 43.7291 72.2266 43.8204C72.062 43.9117 71.8737 43.9511 71.6863 43.9334C71.2972 43.9334 70.1341 43.1552 70.5232 42.377C70.9123 41.5988 72.0754 41.9879 72.4645 42.377Z" stroke="black" stroke-width="2" stroke-linecap="round" stroke-linejoin="round"/>
<path d="M57.607 39.7119C57.2933 40.7662 55.9 40.6407 55.8707 39.7705C55.8462 39.6139 55.8607 39.4536 55.913 39.304C55.9653 39.1544 56.0537 39.02 56.1705 38.9127C56.2872 38.8055 56.4287 38.7288 56.5822 38.6894C56.7358 38.65 56.8967 38.6491 57.0506 38.6869C57.1627 38.7031 57.2694 38.7454 57.3623 38.8101C57.4551 38.8749 57.5316 38.9605 57.5856 39.06C57.6397 39.1595 57.6697 39.2702 57.6734 39.3834C57.6772 39.4966 57.6544 39.6091 57.607 39.7119V39.7119Z" stroke="black" stroke-width="2" stroke-linecap="round" stroke-linejoin="round"/>
<path d="M62.7503 42.3768C61.9721 41.9877 60.8047 41.9877 60.4156 42.3768C60.307 42.5279 60.2305 42.6998 60.1912 42.8817C60.1518 43.0636 60.1504 43.2517 60.1869 43.4342C60.2234 43.6167 60.2971 43.7898 60.4034 43.9426C60.5097 44.0953 60.6463 44.2246 60.8048 44.3223C61.1648 44.5114 61.5654 44.6102 61.9721 44.6102C62.3787 44.6102 62.7793 44.5114 63.1393 44.3223C63.9133 43.9332 63.5243 42.7659 62.7503 42.3768Z" fill="black" stroke="black" stroke-width="2" stroke-linecap="round" stroke-linejoin="round"/>
<path d="M54.5235 44.5654C56.0632 46.8289 58.3727 47.582 60.6445 48.2807C62.8033 48.9417 66.368 48.9794 67.7988 48.2807" stroke="black" stroke-width="2" stroke-linecap="round" stroke-linejoin="round"/>
<path d="M52.252 38.4902C51.4779 38.4902 49.8086 39.3647 49.1434 40.8207C48.4154 42.4231 47.8255 44.7284 48.7543 47.042C49.569 48.9729 50.6126 50.799 51.8629 52.481" stroke="black" stroke-width="2" stroke-linecap="round" stroke-linejoin="round"/>
<path d="M75.9624 57.5353C77.5188 57.9244 80.6734 57.7445 83.6021 57.3261C87.0161 56.8366 89.0704 54.8158 90.7146 52.7239C93.6433 48.9585 94.8984 40.5908 94.8984 40.5908" stroke="black" stroke-width="2" stroke-linecap="round" stroke-linejoin="round"/>
<path d="M50.3105 51.7068C49.1433 51.3177 45.679 47.9163 44.2733 46.0294C42.9177 44.2136 41.763 41.0088 41.763 39.6574C41.763 38.3061 41.763 36.825 42.1813 35.5698" stroke="black" stroke-width="2" stroke-linecap="round" stroke-linejoin="round"/>
<path d="M36.7035 40.4355C36.7035 41.5987 37.0926 46.6527 37.4817 48.2091C37.8708 49.7655 38.7787 53.2297 40.9794 56.3676C44.2721 61.0911 47.6191 63.183 47.6191 63.183" stroke="black" stroke-width="2" stroke-linecap="round" stroke-linejoin="round"/>
<path d="M48.3648 64.9194C48.6184 66.8533 48.7484 68.8013 48.7539 70.7517C48.7017 73.2091 48.0343 75.6142 46.8126 77.7471" stroke="black" stroke-width="2" stroke-linecap="round" stroke-linejoin="round"/>
<path d="M91.8135 89.2487C94.6209 88.1484 97.1563 86.0523 98.9804 83.9645C101.704 80.856 102.867 77.3583 102.089 72.6933C101.344 68.2082 98.7754 64.6143 96.9848 62.3467" stroke="black" stroke-width="2" stroke-linecap="round" stroke-linejoin="round"/>
<path d="M121.143 37.7119C119.469 39.3854 120.754 43.1509 123.473 47.0419C126.193 50.9328 130.092 57.9993 131.247 66.0866C132.025 71.5256 131.247 78.1361 126.971 84.7424C122.988 90.901 114.126 95.5366 107.537 96.7918C102.617 97.7289 97.274 97.3943 93.8056 96.9842" stroke="black" stroke-width="2" stroke-linecap="round" stroke-linejoin="round"/>
<path d="M86.044 35.6952C86.0816 35.5906 86.1193 35.486 86.1611 35.3814C88.4915 29.1601 95.0978 22.9429 104.039 22.1647C114.134 21.2861 121.916 23.332 128.527 26.8297C135.137 30.3274 140.392 37.3897 141.35 43.1466C142.128 47.8116 140.576 52.0874 136.689 53.6396C135.2 54.2337 131.635 54.8069 129.301 54.0288" stroke="black" stroke-width="2" stroke-linecap="round" stroke-linejoin="round"/>
<path d="M85.9568 35.9634C83.8649 42.0425 86.4714 47.8497 87.6638 50.3139C88.2203 51.4687 88.6387 52.3054 88.6387 52.3054" stroke="black" stroke-width="2" stroke-linecap="round" stroke-linejoin="round"/>
<path d="M104.102 37.6616C103.265 38.4984 103.164 38.4105 102.428 39.3352C101.293 40.8422 100.442 42.5435 99.9177 44.3557C99.4993 46.4477 99.081 48.1923 98.6626 50.2131C98.3028 51.9996 97.6794 55.0831 96.9891 56.9072C96.1983 58.9992 95.282 62.3002 91.9685 65.6933C88.6549 69.0864 82.9565 72.3038 82.9565 72.3038" stroke="black" stroke-width="2" stroke-linecap="round" stroke-linejoin="round"/>
<path d="M102.353 57.1961C102.353 57.2254 100.679 56.192 100.679 56.2213C100.562 56.4263 105.867 63.953 105.75 64.1706C105.725 64.2124 103.562 62.836 103.537 62.8778C103.44 63.041 107.105 69.4129 107.009 69.5719C107.009 69.6054 105.156 68.4465 105.139 68.48C105.06 68.6138 107.152 74.1699 107.072 74.2996C107.072 74.3289 105.399 73.2788 105.373 73.3081C105.302 73.4252 106.478 78.5755 106.407 78.6968C106.407 78.7219 104.813 77.7262 104.796 77.7555C104.737 77.8601 105.043 82.479 104.984 82.5836C104.984 82.6087 103.432 81.6423 103.415 81.6674C103.361 81.7594 102.746 85.7843 102.692 85.8763C102.692 85.9014 101.106 84.9098 101.089 84.9391C101.072 84.9684 99.6039 88.5163 99.5537 88.6C99.5035 88.6837 98.1353 87.7632 98.1228 87.7632" stroke="black" stroke-width="2" stroke-linecap="round" stroke-linejoin="round"/>
<path d="M104.985 50.4682C104.985 50.4933 103.755 49.3595 103.73 49.3887C103.588 49.6063 108.567 58.2124 108.429 58.4342C108.395 58.4844 106.433 56.6267 106.404 56.6769C106.278 56.8736 110.638 64.6639 110.512 64.8647C110.487 64.9024 108.81 63.325 108.784 63.3669C108.68 63.53 111.537 70.5338 111.433 70.697C111.412 70.7304 110.065 69.4669 110.044 69.5004C109.968 69.6217 111.366 75.1528 111.299 75.2741C111.299 75.2992 110.044 74.1612 110.044 74.1863C109.977 74.2951 110.491 79.345 110.42 79.4537C110.42 79.4537 109.278 78.4245 109.261 78.4496C109.203 78.5416 108.843 82.8175 108.797 82.9096C108.797 82.9347 107.676 81.9013 107.659 81.9264C107.642 81.9515 106.621 85.6458 106.567 85.7253C106.513 85.8048 105.442 84.7128 105.425 84.7379" stroke="black" stroke-width="2" stroke-linecap="round" stroke-linejoin="round"/>
<path d="M95.9983 37.8708C96.8978 36.0383 105.876 37.6366 105.052 38.0424C103.91 38.8691 102.841 39.7915 101.856 40.7995C101.019 41.6363 100.404 41.9543 99.7637 42.8914C99.3453 43.4855 98.5086 42.6069 98.0902 42.4731C96.835 42.0547 95.9983 41.6363 95.5799 40.7995C95.3163 40.2724 95.5799 40.3811 95.1615 39.9628C94.5716 39.3728 95.4837 38.921 95.9983 37.8708Z" fill="white"/>
<path d="M95.3695 38.9167C95.3695 38.4984 94.9511 37.147 94.9511 36.4064C94.9511 35.9881 94.9511 34.7329 94.9511 34.3145C94.9888 33.1305 93.7504 31.6955 93.9177 30.888C94.0851 30.0805 94.9511 30.1307 95.6205 30.8169C96.1979 31.411 97.0431 33.8961 99.135 33.4778C99.5868 33.2526 100.008 32.9714 100.39 32.641C101.277 31.754 102.9 30.5491 103.959 29.6789C105.31 28.566 106.762 27.5493 107.084 28.0388C107.406 28.5283 103.373 32.5113 102.8 33.2351C102.227 33.9589 101.57 35.0885 102.549 34.4484C103.528 33.8083 106.101 32.4653 107.344 31.6452C108.808 30.6871 110.946 29.6412 111.268 30.1307C111.59 30.6202 108.222 33.5154 107.247 34.1555L104.783 35.7789C104.298 36.101 103.808 36.419 104.699 36.1973C105.591 35.9755 107.498 35.2643 108.758 34.9421C109.653 34.7036 111.343 33.871 111.686 34.3605C112.03 34.8501 110.23 36.0843 107.871 37.2892C106.288 38.1598 104.767 39.1383 103.319 40.2179C103.319 40.2179 101.047 42.1634 100.39 43.1466" fill="white"/>
<path d="M95.3695 38.9167C95.3695 38.4984 94.9511 37.147 94.9511 36.4064C94.9511 35.9881 94.9511 34.7329 94.9511 34.3145C94.9888 33.1305 93.7504 31.6955 93.9177 30.888C94.0851 30.0805 94.9511 30.1307 95.6205 30.8169C96.1979 31.411 97.0431 33.8961 99.135 33.4778C99.5868 33.2526 100.008 32.9714 100.39 32.641C101.277 31.754 102.9 30.5491 103.959 29.6789C105.31 28.566 106.762 27.5493 107.084 28.0388C107.406 28.5283 103.373 32.5113 102.8 33.2351C102.227 33.9589 101.57 35.0885 102.549 34.4484C103.528 33.8083 106.101 32.4653 107.344 31.6452C108.808 30.6871 110.946 29.6412 111.268 30.1307C111.59 30.6202 108.222 33.5154 107.247 34.1555L104.783 35.7789C104.298 36.101 103.808 36.419 104.699 36.1973C105.591 35.9755 107.498 35.2643 108.758 34.9421C109.653 34.7036 111.343 33.871 111.686 34.3605C112.03 34.8501 110.23 36.0843 107.871 37.2892C106.288 38.1598 104.767 39.1383 103.319 40.2179C103.319 40.2179 101.047 42.1634 100.39 43.1466" stroke="black" stroke-width="2" stroke-linecap="round" stroke-linejoin="round"/>
<path d="M39.1857 38.9505C39.1857 38.9505 37.9306 37.277 37.9306 36.0219C37.897 34.7853 38.3474 33.5844 39.1857 32.6748C40.0225 31.838 40.5915 31.3736 40.8593 30.5829C41.2776 29.3277 40.8593 28.491 40.8593 26.8174C40.8593 25.1439 42.1144 26.8174 42.5328 28.0726C42.8051 28.7366 42.9471 29.4468 42.9512 30.1645C42.9512 31.4866 42.9512 32.6748 42.5328 33.5116L41.696 32.9635L39.1857 38.9505Z" fill="white"/>
<path d="M42.3414 33.1727C42.7598 32.3359 42.7598 31.1519 42.7598 29.8256C42.7557 29.1079 42.6137 28.3977 42.3414 27.7337C41.923 26.4786 40.6679 24.805 40.6679 26.4786C40.6679 28.1521 41.0862 28.9889 40.6679 30.244C40.4043 31.0389 39.8311 31.4992 38.9943 32.3359C38.1559 33.2455 37.7056 34.4464 37.7392 35.683C37.7392 36.9381 38.9943 38.6117 38.9943 38.6117" stroke="black" stroke-width="2" stroke-linecap="round" stroke-linejoin="round"/>
<path d="M35.2305 10.4492L34.0011 26.4307L18.0197 31.9627" stroke="black" stroke-width="2"/>
</g>
</svg>
