<svg width="151" height="153" viewBox="0 0 151 153" fill="none" xmlns="http://www.w3.org/2000/svg">
<path d="M45.3318 60.9009C45.4051 60.7102 45.4887 60.521 45.5826 60.3333C46.5683 58.3663 48.4473 57.0637 48.4473 56.2453C48.4473 55.4268 47.6288 55.4268 46.8103 55.836C46.0798 56.2012 43.95 57.8822 43.5408 58.7007" stroke="black" stroke-width="2" stroke-linecap="round" stroke-linejoin="round"/>
<path d="M42.3135 57.4728C42.3135 57.4728 39.8624 53.794 38.6347 52.5663C37.407 51.3386 35.7744 49.2968 35.3652 49.706C34.956 50.1153 38.6347 55.4266 39.044 56.2451C39.4532 57.0636 39.8624 58.2913 39.044 57.4728C38.2255 56.6543 35.9989 54.8325 34.956 53.794C33.7282 52.5663 31.2772 50.9294 30.868 51.3386C30.4587 51.7478 33.7282 55.4266 34.5467 56.2451L36.5885 58.2913C36.9978 58.7005 37.407 59.1054 36.5885 58.7005C35.77 58.2957 34.0671 57.2308 32.9098 56.6543C32.0957 56.2451 30.0495 55.0174 29.6402 55.4266C29.231 55.8358 31.2772 57.4728 33.319 59.1054C35.3608 60.7379 38.2255 64.0118 38.6347 64.8259" stroke="black" stroke-width="2" stroke-linecap="round" stroke-linejoin="round"/>
<path d="M31.3991 129.407C32.5212 128.764 35.1967 128.619 36.7104 128.997C38.3474 129.407 41.2077 130.634 46.9326 131.858L48.5652 131.453C48.5652 131.453 44.8864 128.179 42.8446 125.319C40.8028 122.458 38.3342 118.379 37.9249 113.055C37.8358 111.781 38.1411 110.51 38.7992 109.416C39.4574 108.322 40.4366 107.456 41.6037 106.938C43.6499 106.12 46.9194 106.12 48.552 106.529L49.7797 105.301C51.0676 103.059 51.7712 100.529 51.8259 97.9436C51.8201 95.8923 51.6834 93.8434 51.4167 91.8094L50.629 89.9833C50.629 89.9833 47.1087 87.783 43.6499 82.815C41.3353 79.497 40.376 75.8667 39.9712 74.2341C39.5663 72.6016 39.1527 67.2814 39.1527 66.0581L44.1604 64.694L44.9084 60.9272C44.4684 62.2473 44.4684 63.8183 44.4684 65.2264C44.4684 66.6346 45.6873 70.0185 47.1087 71.9283C48.5872 73.9129 52.2352 77.4904 53.4585 77.8997L55.0954 78.7137C53.7771 76.9469 52.6792 75.0258 51.8259 72.9932C50.8446 70.5598 51.4695 68.1527 52.2352 66.4498C52.9304 64.9184 54.6862 63.9987 55.5047 63.9987L57.3617 63.3739C57.3617 63.3739 58.6818 62.4938 59.1218 61.6137C59.5619 60.7336 61.2252 58.2738 61.2252 58.2738C61.7797 57.1648 63.6543 55.1186 64.7984 53.9129C64.9193 53.7866 65.0666 53.6884 65.2298 53.6256C65.393 53.5627 65.5681 53.5366 65.7425 53.5493C65.917 53.5619 66.0865 53.6128 66.2389 53.6985C66.3914 53.7842 66.5231 53.9025 66.6246 54.0449C66.9309 54.4654 67.1781 54.9259 67.3594 55.4135C67.8259 56.8128 67.3594 58.683 67.3594 58.683C68.6001 58.8862 69.8284 59.1595 71.0382 59.5015C72.1852 59.9245 73.2818 60.4735 74.3077 61.1384L76.7632 59.0922L79.0558 56.7996C79.2862 56.5683 79.5664 56.3925 79.875 56.2857C80.1836 56.179 80.5125 56.144 80.8367 56.1834C81.1608 56.2229 81.4717 56.3358 81.7457 56.5134C82.0197 56.6911 82.2495 56.929 82.4177 57.2089C83.033 58.1594 83.4713 59.2134 83.7114 60.32C84.1119 62.7402 82.893 67.2682 82.893 67.2682L83.553 70.6478C83.6042 70.9125 83.7173 71.1613 83.883 71.3738C84.9964 72.8304 85.9073 73.8337 86.2725 74.5686C86.7125 75.4486 86.7125 77.5564 85.7532 79.123C84.5299 81.1692 80.8512 82.8018 80.8512 82.8018L80.4419 84.0295C82.0745 84.4387 85.3924 84.2495 88.4727 83.8095C91.4606 83.3694 93.4584 81.8557 95.0381 80.0735L93.7532 78.5289C93.7532 78.5289 93.3132 77.6488 92.7279 76.4343C91.4738 73.8425 88.7675 67.7347 90.9325 61.3409L91.047 61.0592L91.1658 60.7292C93.6168 54.1858 100.569 47.6467 109.969 46.8282C120.591 45.9041 128.776 48.056 135.725 51.7347C142.673 55.4135 148.204 62.8414 149.216 68.8964C150.035 73.8029 148.398 78.3001 144.31 79.9327C142.743 80.5575 137.018 80.6895 134.567 79.8711L133.964 78.9294C136.259 83.341 137.82 88.0971 138.585 93.0108C139.403 98.7313 138.585 105.684 134.088 112.632C129.898 119.11 120.583 123.985 113.648 125.306C108.477 126.291 102.858 125.939 99.2054 125.508L99.1437 125.46C99.6498 130.837 98.1405 134.995 95.9754 137.16C94.2901 138.846 91.069 140.839 87.3902 140.839L89.0448 141.671C91.232 141.627 93.4191 141.764 95.5838 142.08C98.8533 142.489 102.941 143.308 104.988 145.759C107.034 148.21 106.62 149.847 106.62 150.256L104.578 151.484C103.478 151.849 102.532 151.074 99.6718 150.256C96.8115 149.437 91.0866 149.028 88.2307 148.619C85.3748 148.21 80.4639 148.619 78.827 147.805C78.1523 147.495 77.6125 146.951 77.3068 146.274C77.0012 145.597 76.9503 144.833 77.1636 144.122C77.5728 142.898 77.9821 140.852 77.5728 140.034C77.1636 139.215 72.6751 135.541 68.1779 133.085C63.6807 130.63 59.9755 130.498 58.4574 131.105C56.7896 131.774 56.882 135.647 57.6697 137.495C58.2505 138.85 58.959 141.107 58.5498 142.335C58.1405 143.563 56.6972 144.095 55.4695 144.095C54.2418 144.095 52.64 142.898 48.9612 140.443C45.4409 138.111 39.1703 136.28 35.4739 135.541C33.4277 135.132 31.3859 134.313 30.5674 133.495C29.2737 132.201 30.3826 129.983 31.3991 129.407ZM88.6047 101.609C88.6047 101.609 90.2373 104.06 91.465 106.106C93.662 109.7 95.5478 113.475 97.1019 117.389C100.05 116.232 102.721 114.027 104.64 111.831C107.5 108.562 108.728 104.883 107.909 99.9766C107.122 95.2594 104.42 91.4794 102.536 89.0944L101.001 87.2506C100.061 89.2354 98.7953 91.0486 97.256 92.6147C93.7708 96.1835 87.7818 99.5674 87.7818 99.5674L88.6047 101.609Z" fill="white"/>
<path d="M94.3264 117.939C96.5266 117.499 100.047 115.655 100.487 115.299C106.282 110.568 110.168 106.498 106.208 94.6168C105.548 92.6322 102.771 89.9788 101.438 88.4166C99.7873 86.476 98.0888 85.0811 96.5266 83.1757C94.3698 80.5755 92.7271 77.5888 91.6861 74.3749C90.366 70.8545 89.4287 65.1692 89.926 63.8138C89.926 62.4937 91.3033 59.0086 92.0954 57.7016C94.7356 53.3364 97.8468 51.0526 102.687 49.2924C104.148 48.4739 106.326 47.9723 107.968 47.5322C111.145 46.6741 115.18 47.1714 118.445 47.1494C123.811 47.037 129.124 48.2252 133.93 50.6125C135.211 51.0526 136.936 52.4211 138.102 53.0284C144.263 56.2407 148.223 63.629 149.833 70.1196C150.929 74.5201 146.379 75.4354 144.051 71.7346C141.437 67.5762 140.742 61.7632 136.131 59.4134C132.296 57.6917 127.982 57.3572 123.928 58.4673C122.247 58.9381 119.849 61.1736 118.969 62.9337C117.209 66.4541 118.912 71.6378 120.729 74.8149C122.489 77.8952 124.351 80.2714 125.926 83.717C128.685 89.75 131.233 95.6729 129.495 102.41C128.32 106.973 125.499 110.683 121.926 113.565C120.163 114.887 118.29 116.056 116.329 117.059C111.123 120.082 99.827 120.667 93.8864 121.019C92.6763 121.09 90.1284 118.78 94.3264 117.939Z" fill="#FBB03B"/>
<path d="M57.3623 62.9335C59.5625 61.1733 59.5625 59.8532 60.8827 58.5331C61.3755 58.0402 62.9333 59.1271 63.5229 57.653C64.403 55.4528 65.3447 54.6959 65.7231 54.1326C66.6032 52.8125 66.9244 52.9269 67.4833 54.5727C67.8793 55.7344 67.9233 57.3625 67.9233 58.5331C67.9233 58.8763 70.0091 58.6915 71.0036 58.9731C71.5889 59.1359 73.2303 60.1524 74.172 60.6057C74.8144 60.9137 75.4393 60.8785 75.8441 60.2932C76.249 59.708 76.8782 58.9731 77.1643 58.5331C78.3304 56.7729 82.8848 54.5727 81.5647 57.2129C81.239 57.8642 79.8045 60.7333 79.3645 62.0534C79.0573 62.9397 79.0646 63.9046 79.3852 64.7861C79.7057 65.6676 80.32 66.4119 81.1246 66.8939C81.2699 66.9819 81.5031 67.1359 81.7715 67.3119C81.9542 67.4149 82.1603 67.469 82.37 67.469C82.5796 67.469 82.7858 67.4149 82.9684 67.3119C83.0388 67.2767 83.6681 71.0567 83.5097 71.0127C82.7774 70.6412 82.1185 70.1403 81.5647 69.5341C81.0806 68.654 79.7429 67.0391 79.3645 66.8939C78.5416 66.0842 75.6813 65.5737 74.964 65.5165C73.9186 65.446 72.8721 65.6368 71.9187 66.0716C70.9654 66.5064 70.1352 67.1716 69.5031 68.0072C69.2394 68.341 68.9174 68.6243 68.5526 68.8433C68.1468 69.1271 67.6819 69.3152 67.1929 69.3933C66.6664 69.4449 66.1354 69.3641 65.6481 69.1581C65.1609 68.9521 64.7328 68.6276 64.403 68.214C64.1918 67.9236 64.293 67.2767 64.3458 66.9159C64.5218 65.6398 64.5966 64.3548 63.7429 63.1447C62.1236 60.8697 60.1566 61.4593 58.2424 63.3735C56.9223 64.6937 56.0422 64.2536 55.6021 63.8136C55.5273 63.7388 57.3403 62.9335 57.3623 62.9335Z" fill="#FBB03B"/>
<path d="M39.3221 108.699C40.9371 106.749 41.9316 105.97 44.563 106.058H44.6378C45.4783 105.909 47.5069 106.058 48.8095 106.058C49.1047 106.057 49.3927 105.967 49.636 105.8C49.8793 105.633 50.0666 105.396 50.1736 105.121C50.6136 103.92 51.4937 102.071 51.6433 101.675C53.0735 97.4158 51.6741 90.8196 50.3672 89.3982C50.3382 89.3697 50.3038 89.3473 50.266 89.3322C49.0515 88.8041 44.8623 83.8273 43.7842 82.4719C41.76 79.9197 40.0482 72.8438 39.947 72.4169C39.5465 70.6876 39.0405 69.1034 39.3221 67.352C39.4409 66.6128 40.6026 66.0319 41.0823 66.0319C41.8236 65.9281 42.5583 65.7812 43.2825 65.5919C44.1626 65.5919 44.1626 64.2717 44.6026 65.1518C45.3331 66.6128 46.7765 70.3576 47.6565 71.7129C47.6743 71.74 47.6949 71.7651 47.7181 71.7877C48.1318 72.1925 52.211 76.1881 55.1989 79.1936C55.2517 79.2464 55.3265 79.3388 55.4013 79.4224C55.5323 79.5708 55.6487 79.7314 55.7489 79.9021C56.1834 80.6783 56.5756 81.4774 56.9238 82.2959C57.4704 84.6416 57.844 87.0242 58.0416 89.4246C58.244 91.9769 57.6059 95.9373 57.3639 97.6974C57.2275 98.7051 54.5872 107.616 54.0856 109.376C53.4035 111.779 52.9635 116.619 53.4035 118.379C54.4332 122.507 55.1989 124.54 57.8039 125.86C59.5641 126.74 63.7005 127.572 67.9249 129.381C71.0052 130.701 75.1416 132.373 75.4057 132.461C78.0459 133.341 81.4474 132.967 82.4463 132.021C85.2406 129.381 85.9667 125.825 85.9667 121.9C85.9667 113.979 83.9909 104.254 81.5663 99.0176C81.5663 98.9956 80.8798 97.6974 80.871 97.6974C79.3264 93.9615 77.4783 90.3487 76.3034 86.4719C75.9942 85.553 75.9575 84.5642 76.1977 83.6248C76.298 83.1959 76.5195 82.8049 76.8358 82.4983C77.0721 82.2863 77.3204 82.0879 77.5795 81.9043C78.5476 81.1738 80.6862 80.5489 82.1383 80.2277C83.1692 80.0163 84.158 79.6356 85.0646 79.1012C85.1485 79.0611 85.243 79.0485 85.3344 79.0654C85.4259 79.0823 85.5096 79.1277 85.5737 79.1952C85.6377 79.2626 85.6787 79.3487 85.6908 79.4409C85.7029 79.5331 85.6855 79.6268 85.6411 79.7085C85.355 80.1485 85.1218 80.4785 85.0866 80.5489C84.959 80.8174 83.168 82.2299 81.6939 83.1012C81.6232 83.1482 81.5676 83.2146 81.5339 83.2925C81.5001 83.3703 81.4895 83.4563 81.5035 83.54C81.5174 83.6237 81.5553 83.7016 81.6125 83.7642C81.6697 83.8269 81.7438 83.8717 81.8259 83.8933C82.9876 84.1177 84.651 84.5093 85.0866 84.5093C87.2868 84.5093 91.6608 83.1892 91.6873 83.1892C94.3275 81.8691 96.0877 79.2288 98.2879 75.7085C98.4595 75.4312 100.66 66.1419 100.928 66.0275C101.395 65.7239 102.904 67.1628 103.568 67.3477C104.49 67.6994 105.374 68.1416 106.209 68.6678C107.128 68.5094 105.329 72.6282 104.889 73.9483C104.449 75.2684 104.554 78.9912 104.449 79.2288C104.008 80.2277 102.746 83.8977 102.688 84.0693C100.787 89.4247 97.2456 94.0442 92.5673 97.2706C92.5673 97.2706 88.2153 99.5632 88.607 100.351C89.487 102.111 93.355 108.527 93.4474 108.712C95.2428 112.201 96.7125 113.737 97.8479 117.513C98.9612 121.213 99.6432 126.481 99.168 130.274C98.7719 133.433 97.5882 136.434 94.7676 138.195C91.9469 139.955 89.553 141.508 86.4067 141.275C85.9051 141.24 82.3099 141.526 82.0063 141.275C76.805 140.835 74.8776 136.25 70.1251 134.234C69.9799 134.173 68.4882 133.425 68.365 133.354C67.6389 133.196 67.0448 132.474 66.0459 132.267C63.8193 131.827 60.233 130.199 58.244 131.154C57.1791 131.664 58.4464 135.044 57.3639 135.114C56.8325 134.799 56.2208 134.646 55.6037 134.674H55.1197C52.9591 134.234 52.7258 132.786 49.0031 132.034C47.2429 131.594 41.7116 124.971 40.1362 120.676C40.126 120.646 40.1111 120.618 40.0922 120.593C38.8161 118.793 38.6313 116.848 38.442 114.872C38.2132 112.434 38.002 110.019 39.3221 108.699ZM86.3759 122.173C86.4141 122.123 86.4425 122.066 86.4595 122.005C86.5079 121.816 86.5476 121.623 86.5872 121.425C86.4595 121.768 86.3099 122.102 86.1471 122.432L86.3759 122.173Z" fill="#FBB03B"/>
<path d="M102.309 148.575C103.519 149.266 104.694 150.573 104.333 151.488" stroke="black" stroke-width="2" stroke-linecap="round" stroke-linejoin="round"/>
<path d="M104.311 147.118C105.504 147.84 106.643 149.182 106.256 150.089" stroke="black" stroke-width="2" stroke-linecap="round" stroke-linejoin="round"/>
<path d="M77.1118 59.1187L79.4088 56.8261C79.6393 56.5947 79.9195 56.419 80.2281 56.3122C80.5367 56.2054 80.8656 56.1704 81.1897 56.2099C81.5139 56.2493 81.8248 56.3622 82.0987 56.5399C82.3727 56.7176 82.6025 56.9554 82.7708 57.2353C83.3843 58.1868 83.8224 59.2405 84.0645 60.3464C84.4649 62.7666 83.246 67.2947 83.246 67.2947L83.9061 70.6742C83.9578 70.9379 84.0692 71.1863 84.2317 71.4003C85.3494 72.8568 86.2603 73.8601 86.6256 74.595C87.0656 75.4751 87.0656 77.5829 86.1063 79.1495C84.8786 81.1957 81.1998 82.8282 81.1998 82.8282" stroke="black" stroke-width="2" stroke-linecap="round" stroke-linejoin="round"/>
<path d="M74.6611 61.1736C73.6352 60.5087 72.5387 59.9597 71.3916 59.5367C70.1818 59.1947 68.9536 58.9214 67.7128 58.7182C67.7128 58.7182 68.1793 56.848 67.7128 55.4487C67.5316 54.9611 67.2843 54.5006 66.978 54.0801C66.8765 53.9377 66.7448 53.8194 66.5924 53.7337C66.4399 53.648 66.2704 53.5971 66.096 53.5845C65.9215 53.5718 65.7464 53.5979 65.5832 53.6608C65.42 53.7236 65.2727 53.8218 65.1518 53.9481C64.0077 55.1538 62.1331 57.2 61.5786 58.309" stroke="black" stroke-width="2" stroke-linecap="round" stroke-linejoin="round"/>
<path d="M72.6191 61.1648L70.5729 63.6158" stroke="black" stroke-width="2" stroke-linecap="round" stroke-linejoin="round"/>
<path d="M68.9395 59.9374L67.7117 62.8021" stroke="black" stroke-width="2" stroke-linecap="round" stroke-linejoin="round"/>
<path d="M81.6094 60.7555C81.6094 60.7555 80.7909 62.7973 80.7909 64.025" stroke="black" stroke-width="2" stroke-linecap="round" stroke-linejoin="round"/>
<path d="M77.1115 68.1129C77.2442 68.2591 77.3298 68.442 77.3569 68.6376C77.384 68.8333 77.3515 69.0326 77.2636 69.2094C77.1756 69.3862 77.0363 69.5324 76.864 69.6289C76.6916 69.7253 76.4941 69.7674 76.2974 69.7498C75.8882 69.7498 74.6604 68.9313 75.0697 68.1129C75.4789 67.2944 76.7023 67.7036 77.1115 68.1129Z" stroke="black" stroke-width="2" stroke-linecap="round" stroke-linejoin="round"/>
<path d="M61.4868 65.3098C61.1611 66.4187 59.6914 66.2867 59.6606 65.3714C59.6398 65.2102 59.6581 65.0463 59.714 64.8937C59.7698 64.741 59.8617 64.6041 59.9817 64.4945C60.1017 64.3848 60.2463 64.3057 60.4034 64.2638C60.5604 64.2219 60.7252 64.2184 60.8839 64.2537C61.0005 64.2694 61.1118 64.3118 61.2093 64.3776C61.3068 64.4434 61.3879 64.5307 61.4462 64.6328C61.5045 64.735 61.5385 64.8492 61.5455 64.9666C61.5525 65.0839 61.5324 65.2014 61.4868 65.3098V65.3098Z" stroke="black" stroke-width="2" stroke-linecap="round" stroke-linejoin="round"/>
<path d="M66.8936 68.113C66.0752 67.7037 64.8474 67.7037 64.4382 68.113C64.3245 68.2721 64.2447 68.4529 64.2036 68.6441C64.1626 68.8353 64.1612 69.0329 64.1996 69.2247C64.2379 69.4165 64.3152 69.5984 64.4266 69.7591C64.5381 69.9198 64.6813 70.056 64.8474 70.1592C65.2261 70.3581 65.6474 70.462 66.0752 70.462C66.5029 70.462 66.9242 70.3581 67.3029 70.1592C68.1214 69.7499 67.7121 68.5222 66.8936 68.113Z" fill="black" stroke="black" stroke-width="2" stroke-linecap="round" stroke-linejoin="round"/>
<path d="M58.243 70.4147C59.8624 72.7953 62.2958 73.5874 64.6808 74.3223C66.9515 75.0175 70.7006 75.0571 72.21 74.3223" stroke="black" stroke-width="2" stroke-linecap="round" stroke-linejoin="round"/>
<path d="M55.8564 64.0249C55.038 64.0249 53.2822 64.9446 52.5825 66.4759C51.8169 68.1613 51.1964 70.586 52.1733 73.0194C53.0294 75.0515 54.1287 76.9724 55.4472 78.74" stroke="black" stroke-width="2" stroke-linecap="round" stroke-linejoin="round"/>
<path d="M80.7907 84.0559C82.4276 84.4651 85.7456 84.2759 88.8259 83.8359C92.4166 83.321 94.5772 81.2176 96.3066 78.9954C99.3869 75.035 100.707 66.2341 100.707 66.2341" stroke="black" stroke-width="2" stroke-linecap="round" stroke-linejoin="round"/>
<path d="M88.1664 99.589C88.1664 99.589 94.1554 96.2051 97.6405 92.6364C101.126 89.0676 102.094 85.5957 102.921 83.3954C103.647 81.4769 104.307 78.2337 104.681 76.3548C105.121 74.1545 105.121 71.5143 106.441 68.874" stroke="black" stroke-width="2" stroke-linecap="round" stroke-linejoin="round"/>
<path d="M88.966 101.658C88.966 101.658 90.6029 104.109 91.8307 106.155C93.8989 109.605 97.9605 116.782 99.1882 123.317C100.394 129.754 98.7789 134.758 96.3279 137.213C94.6425 138.898 91.4214 140.892 87.7427 140.892" stroke="black" stroke-width="2" stroke-linecap="round" stroke-linejoin="round"/>
<path d="M53.8125 77.9258C52.5848 77.5166 48.9412 73.939 47.4627 71.9544C46.0369 70.0447 44.8224 66.6739 44.8224 65.2526C44.8224 63.8313 44.8224 62.2735 45.2625 60.9534" stroke="black" stroke-width="2" stroke-linecap="round" stroke-linejoin="round"/>
<path d="M39.5061 66.071C39.5061 67.2944 39.9109 72.6101 40.3202 74.247C40.7294 75.884 41.6887 79.5276 43.9989 82.8279C47.4621 87.796 50.9824 89.9962 50.9824 89.9962" stroke="black" stroke-width="2" stroke-linecap="round" stroke-linejoin="round"/>
<path d="M51.77 91.8223C52.0338 93.8565 52.169 95.9053 52.1748 97.9565C52.1226 100.542 51.4204 103.072 50.133 105.314" stroke="black" stroke-width="2" stroke-linecap="round" stroke-linejoin="round"/>
<path d="M48.9053 106.542C47.2727 106.133 43.9988 106.133 41.957 106.951C40.7835 107.47 39.7996 108.34 39.1407 109.441C38.4819 110.542 38.1806 111.82 38.2782 113.099C38.6875 118.415 41.1385 122.503 43.1847 125.363C45.2309 128.223 48.9053 131.497 48.9053 131.497" stroke="black" stroke-width="2" stroke-linecap="round" stroke-linejoin="round"/>
<path d="M47.2714 131.884C41.5508 130.66 38.6861 129.433 37.0492 129.024C35.5354 128.645 32.8599 128.79 31.7334 129.433C30.7301 130.009 29.6256 132.227 30.9194 133.521C31.7334 134.339 33.7796 135.158 35.8214 135.567C39.5178 136.306 45.8104 138.137 49.3132 140.469C52.9919 142.924 54.5937 144.121 55.8214 144.121C57.0491 144.121 58.4925 143.589 58.9017 142.361C59.3109 141.134 58.5981 138.876 58.0216 137.521C57.2339 135.673 57.1415 131.8 58.8093 131.131C60.3274 130.524 64.0326 130.66 68.5254 133.112C73.0183 135.563 77.5199 139.246 77.9292 140.06C78.3384 140.874 77.9292 142.924 77.5199 144.148C77.3048 144.856 77.3518 145.618 77.6524 146.294C77.953 146.971 78.487 147.516 79.1569 147.831C80.7894 148.645 85.6959 148.236 88.5606 148.645C91.4253 149.054 97.1414 149.464 100.002 150.282C102.862 151.1 103.808 151.875 104.908 151.51" stroke="black" stroke-width="2" stroke-linecap="round" stroke-linejoin="round"/>
<path d="M89.3759 141.701C91.5646 141.657 93.7532 141.794 95.9194 142.111C99.1889 142.52 103.277 143.338 105.319 145.789C107.36 148.24 106.956 149.877 106.956 150.287" stroke="black" stroke-width="2" stroke-linecap="round" stroke-linejoin="round"/>
<path d="M97.4692 117.411C100.422 116.254 103.089 114.049 105.007 111.854C107.872 108.584 109.095 104.905 108.281 99.9988C107.493 95.2815 104.792 91.5015 102.908 89.1165" stroke="black" stroke-width="2" stroke-linecap="round" stroke-linejoin="round"/>
<path d="M128.31 63.2068C126.55 64.967 127.901 68.9274 130.761 73.0198C133.621 77.1122 137.722 84.5445 138.937 93.0505C139.755 98.7711 138.937 105.724 134.44 112.672C130.251 119.149 120.935 124.025 114 125.345C108.825 126.331 103.206 125.979 99.5575 125.548" stroke="black" stroke-width="2" stroke-linecap="round" stroke-linejoin="round"/>
<path d="M91.4001 61.0857C91.4353 60.9772 91.4749 60.8672 91.5189 60.7557C93.9699 54.2122 100.918 47.6732 110.322 46.8547C120.945 45.9306 129.129 48.0824 136.078 51.7612C143.026 55.44 148.557 62.8679 149.569 68.9229C150.383 73.8294 148.751 78.3266 144.663 79.9592C143.096 80.584 139.347 81.1869 136.896 80.3684" stroke="black" stroke-width="2" stroke-linecap="round" stroke-linejoin="round"/>
<path d="M91.2848 61.3674C89.0846 67.7612 91.826 73.869 93.0802 76.4608C93.6654 77.6754 94.1055 78.5555 94.1055 78.5555" stroke="black" stroke-width="2" stroke-linecap="round" stroke-linejoin="round"/>
<path d="M34.6699 132.113C33.5786 132.597 32.4697 133.609 32.6941 134.419" stroke="black" stroke-width="2" stroke-linecap="round" stroke-linejoin="round"/>
<path d="M33.0947 130.7C32.021 131.211 30.9297 132.253 31.1805 133.054" stroke="black" stroke-width="2" stroke-linecap="round" stroke-linejoin="round"/>
<path d="M108.549 83.6997C108.549 83.7305 106.815 82.6435 106.789 82.6743C106.661 82.89 112.245 90.8063 112.118 91.0352C112.091 91.0792 109.816 89.6314 109.79 89.6754C109.693 89.8471 113.544 96.5489 113.442 96.7161C113.42 96.7513 111.497 95.5324 111.475 95.5676C111.392 95.7084 113.592 101.552 113.508 101.689C113.508 101.719 111.748 100.615 111.722 100.646C111.651 100.769 112.884 106.186 112.809 106.313C112.809 106.34 111.132 105.293 111.115 105.323C111.053 105.433 111.374 110.291 111.313 110.401C111.313 110.428 109.68 109.411 109.662 109.438C109.605 109.535 108.958 113.768 108.906 113.865C108.906 113.891 107.233 112.848 107.216 112.879C107.198 112.91 105.654 116.641 105.601 116.729C105.548 116.817 104.109 115.827 104.096 115.849" stroke="black" stroke-width="2" stroke-linecap="round" stroke-linejoin="round"/>
<path d="M111.317 76.6236C111.317 76.65 110.023 75.4575 109.996 75.4883C109.847 75.7171 115.083 84.7688 114.938 85.002C114.903 85.0548 112.844 83.101 112.808 83.1538C112.676 83.3606 117.262 91.5542 117.13 91.7654C117.103 91.8051 115.339 90.1461 115.312 90.1901C115.202 90.3617 118.208 97.728 118.098 97.8996C118.098 97.9349 116.659 96.6059 116.641 96.6411C116.557 96.7687 118.027 102.586 117.961 102.714C117.961 102.74 116.641 101.543 116.641 101.57C116.571 101.684 117.112 106.995 117.037 107.11C117.037 107.132 115.836 106.027 115.823 106.054C115.761 106.15 115.383 110.648 115.33 110.745C115.33 110.771 114.15 109.684 114.137 109.71C114.124 109.737 113.042 113.622 112.989 113.706C112.936 113.79 111.801 112.641 111.783 112.667" stroke="black" stroke-width="2" stroke-linecap="round" stroke-linejoin="round"/>
<path d="M101.806 63.3738C102.752 61.4464 112.196 63.1273 111.329 63.5542C110.128 64.4237 109.003 65.3938 107.967 66.4541C107.087 67.3341 106.44 67.6686 105.766 68.6543C105.326 69.2791 104.424 68.355 104.006 68.2142C102.686 67.7742 101.806 67.3341 101.366 66.4541C101.089 65.8996 101.366 66.014 100.926 65.574C100.306 64.9535 101.265 64.4783 101.806 63.3738Z" fill="white"/>
<path d="M101.148 64.4742C101.148 64.0341 100.708 62.6128 100.708 61.8339C100.708 61.3939 100.708 60.0737 100.708 59.6337C100.747 58.3884 99.4448 56.879 99.6208 56.0297C99.7968 55.1805 100.708 55.2333 101.412 55.9549C102.019 56.5798 102.908 59.1937 105.108 58.7536C105.583 58.5168 106.027 58.2211 106.428 57.8735C107.361 56.9406 109.069 55.6733 110.182 54.758C111.603 53.5875 113.13 52.5182 113.469 53.033C113.808 53.5479 109.566 57.7371 108.963 58.4984C108.36 59.2597 107.669 60.4478 108.699 59.7745C109.729 59.1012 112.435 57.6887 113.742 56.8262C115.282 55.8185 117.531 54.7184 117.869 55.2333C118.208 55.7481 114.666 58.7932 113.641 59.4665L111.049 61.1738C110.538 61.5127 110.023 61.8471 110.961 61.6139C111.898 61.3807 113.905 60.6326 115.229 60.2938C116.171 60.0429 117.949 59.1672 118.287 59.6821C118.626 60.197 116.756 61.4951 114.274 62.7624C112.609 63.678 111.01 64.7072 109.487 65.8427C109.487 65.8427 107.097 67.8889 106.406 68.923" fill="white"/>
<path d="M101.148 64.4742C101.148 64.0341 100.708 62.6128 100.708 61.8339C100.708 61.3939 100.708 60.0737 100.708 59.6337C100.747 58.3884 99.4448 56.879 99.6208 56.0297C99.7968 55.1805 100.708 55.2333 101.412 55.9549C102.019 56.5798 102.908 59.1937 105.108 58.7536C105.583 58.5168 106.027 58.2211 106.428 57.8735C107.361 56.9406 109.069 55.6733 110.182 54.758C111.603 53.5875 113.13 52.5182 113.469 53.033C113.808 53.5479 109.566 57.7371 108.963 58.4984C108.36 59.2597 107.669 60.4478 108.699 59.7745C109.729 59.1012 112.435 57.6887 113.742 56.8262C115.282 55.8185 117.531 54.7184 117.869 55.2333C118.208 55.7481 114.666 58.7932 113.641 59.4665L111.049 61.1738C110.538 61.5127 110.023 61.8471 110.961 61.6139C111.898 61.3807 113.905 60.6326 115.229 60.2938C116.171 60.0429 117.949 59.1672 118.287 59.6821C118.626 60.197 116.756 61.4951 114.274 62.7624C112.609 63.678 111.01 64.7072 109.487 65.8427C109.487 65.8427 107.097 67.8889 106.406 68.923" stroke="black" stroke-width="2" stroke-linecap="round" stroke-linejoin="round"/>
<path d="M132.192 46.4075C132.192 46.4075 126.147 55.6683 121.992 59.0719C116.553 63.5241 94.1372 66.8206 65.8307 63.2216C37.5242 59.6226 22.3101 53.9015 19.5229 50.2196C16.7357 46.5377 10.3431 34.056 10.3431 34.056" fill="white"/>
<path d="M10.6509 25.6904C8.58769 37.0227 28.9645 42.5005 67.0036 46.0138C100.822 49.1433 131.929 51.623 132.829 42.5631C133.729 33.5032 118.008 24.5168 84.207 21.1592C50.4064 17.8016 12.3873 16.1343 10.6509 25.6904Z" stroke="black" stroke-width="2" stroke-linecap="round" stroke-linejoin="round"/>
<path d="M132.357 46.9342C132.357 46.9342 126.312 56.1949 122.157 59.5985C116.718 64.0507 94.3022 67.3472 65.9958 63.7482C37.6893 60.1493 22.4752 54.4281 19.688 50.7462C16.9008 47.0644 10.5081 34.5826 10.5081 34.5826C9.57212 32.6948 8.00777 28.1428 9.23844 25.0373" stroke="black" stroke-width="2" stroke-linecap="round" stroke-linejoin="round"/>
<path d="M136.297 39.8716C135.853 41.6715 136.064 44.8454 131.378 47.0111C131.378 47.0111 119.117 51.3163 98.9886 50.1039C79.6468 48.9432 56.2553 46.1243 39.9512 43.4523C23.6471 40.7802 12.9075 35.2427 10.5908 31.8552C9.00947 29.5224 8.96302 26.8292 9.08775 25.3955C9.14274 24.741 9.29752 24.0987 9.5467 23.491C10.0615 22.2422 10.8111 21.1037 11.7548 20.1373C13.1975 18.7019 15.9283 17.9207 15.9283 17.9207" stroke="black" stroke-width="2" stroke-linecap="round" stroke-linejoin="round"/>
<path d="M118.31 53.1667C116.152 53.7395 114.847 53.6099 113.521 53.7434" stroke="black" stroke-width="2" stroke-linecap="round" stroke-linejoin="round"/>
<path d="M115.92 56.0824C114.042 56.4221 112.974 56.5813 111.673 56.4521" stroke="black" stroke-width="2" stroke-linecap="round" stroke-linejoin="round"/>
<path d="M112.739 58.9285C111.595 59.1469 110.439 59.2949 109.277 59.3717" stroke="black" stroke-width="2" stroke-linecap="round" stroke-linejoin="round"/>
<path d="M101.639 54.6326C99.4601 54.9733 98.1446 54.6392 96.8118 54.7456" stroke="black" stroke-width="2" stroke-linecap="round" stroke-linejoin="round"/>
<path d="M99.2363 57.5425C97.3339 57.6852 96.2551 57.7284 94.9772 57.46" stroke="black" stroke-width="2" stroke-linecap="round" stroke-linejoin="round"/>
<path d="M96.5469 60.4728C95.1791 60.6199 94.4294 60.4659 93.0948 60.4129" stroke="black" stroke-width="2" stroke-linecap="round" stroke-linejoin="round"/>
<path d="M22.4172 46.5332C24.1871 47.2352 25.2036 47.5971 26.5085 47.7267" stroke="black" stroke-width="2" stroke-linecap="round" stroke-linejoin="round"/>
<path d="M24.66 50.4352C25.7395 50.8731 26.8437 51.2471 27.9671 51.5553" stroke="black" stroke-width="2" stroke-linecap="round" stroke-linejoin="round"/>
<path d="M35.1396 47.766C37.2085 48.5287 38.5646 48.4556 39.8504 48.8221" stroke="black" stroke-width="2" stroke-linecap="round" stroke-linejoin="round"/>
<path d="M37.1611 51.3761C38.9939 51.8898 40.0432 52.1444 41.3532 52.133" stroke="black" stroke-width="2" stroke-linecap="round" stroke-linejoin="round"/>
<path d="M39.7139 55.0876C41.026 55.501 41.7909 55.5018 43.106 55.7076" stroke="black" stroke-width="2" stroke-linecap="round" stroke-linejoin="round"/>
<path d="M86.4434 54.2908C84.5862 54.3558 82.7271 54.2319 80.895 53.9209" stroke="black" stroke-width="2" stroke-linecap="round" stroke-linejoin="round"/>
<path d="M84.5518 57.1675C82.9647 57.2556 81.3729 57.148 79.8122 56.847" stroke="black" stroke-width="2" stroke-linecap="round" stroke-linejoin="round"/>
<path d="M82.8742 60.4278C81.5011 60.4506 80.2517 60.1187 78.9165 59.9374" stroke="black" stroke-width="2" stroke-linecap="round" stroke-linejoin="round"/>
<path d="M52.3263 50.2737C53.9415 50.6698 55.5886 50.9222 57.2483 51.028" stroke="black" stroke-width="2" stroke-linecap="round" stroke-linejoin="round"/>
<path d="M52.5525 53.4713C54.3996 53.929 55.6294 54.3253 56.9386 54.3227" stroke="black" stroke-width="2" stroke-linecap="round" stroke-linejoin="round"/>
<path d="M53.1893 57.479C54.2891 57.7772 55.4133 57.9762 56.5486 58.0736" stroke="black" stroke-width="2" stroke-linecap="round" stroke-linejoin="round"/>
<path d="M71.0254 53.2851C69.5549 53.39 68.0771 53.3041 66.6287 53.0297" stroke="black" stroke-width="2" stroke-linecap="round" stroke-linejoin="round"/>
<path d="M70.5225 56.0346C69.273 56.1572 68.0121 56.0841 66.7852 55.8181" stroke="black" stroke-width="2" stroke-linecap="round" stroke-linejoin="round"/>
<path d="M69.5148 59.6268C68.4264 59.6779 67.4397 59.3721 66.3979 59.2199" stroke="black" stroke-width="2" stroke-linecap="round" stroke-linejoin="round"/>
<path d="M23.0436 43.6944C20.8815 43.2011 19.772 42.485 18.5351 41.9819" stroke="black" stroke-width="2" stroke-linecap="round" stroke-linejoin="round"/>
<path d="M108.262 20.3216C107.025 21.5854 106.524 22.8047 105.502 24.5609L104.962 25.2497L105.094 26.3259C105.113 26.4796 105.63 26.8846 105.84 27.327C106.05 27.7695 106.853 29.2319 106.872 29.3856C106.887 29.5086 109.396 31.314 110.649 32.2013L114.62 34.0569L117.087 31.2589C117.549 31.2028 118.348 29.8813 118.495 29.6435C119.092 28.6756 118.895 26.1706 118.815 24.9624C118.638 22.2882 117.737 21.53 117.416 18.8995C117.299 17.9431 117.53 18.5655 116.643 18.6739L114.951 18.8804C113.802 19.0208 112.578 19.1003 111.415 19.3123C110.458 19.4867 108.913 19.6555 108.262 20.3216Z" fill="#E29949" stroke="black" stroke-width="2" stroke-linecap="round"/>
<path d="M108.952 29.8335C106.364 29.1844 105.403 26.1567 105.562 23.772C105.573 23.6146 104.455 25.3016 103.885 25.8839C103.302 26.4796 103.43 28.3011 103.525 29.0791C103.672 30.2803 103.972 31.3259 104.236 32.4435C104.433 33.2789 106.039 34.7477 105.75 35.5599C105.423 36.4784 103.492 37.6245 102.684 38.035C101.384 38.6963 101.244 39.12 102.624 39.9932C103.698 40.673 105.233 41.3905 106.024 40.2615C106.599 39.4413 106.589 38.1718 107.178 37.4196C108.098 36.2432 108.3 37.6494 109.505 37.5022L112.758 37.105C114.552 36.8859 117.213 35.0182 117.204 32.9607C117.198 31.7345 117.782 31.0894 116.248 31.2767C115.093 31.4178 114.103 31.5384 112.974 31.3598C111.625 31.1467 110.283 30.167 108.952 29.8335Z" fill="#623218" stroke="black" stroke-width="2" stroke-linecap="round"/>
<path d="M129.205 32.5822C128.955 30.8317 128.293 29.6921 127.521 27.8126L127.303 26.9649L126.369 26.4141C126.236 26.3355 125.6 26.4997 125.121 26.397C124.642 26.2944 122.993 26.0412 122.859 25.9625C122.753 25.8996 119.793 26.7915 118.327 27.2453L114.437 29.267L115.155 32.9275C114.919 33.3276 115.481 34.7661 115.58 35.0273C115.985 36.0906 118.092 37.4588 119.1 38.1308C121.329 39.6182 122.479 39.3648 124.762 40.711C125.592 41.2004 124.957 41.005 125.411 40.2348L126.277 38.7672C126.865 37.7696 127.547 36.7505 128.087 35.6987C128.531 34.8331 129.337 33.5047 129.205 32.5822Z" fill="#E29949" stroke="black" stroke-width="2" stroke-linecap="round"/>
<path d="M121.237 27.3402C123.327 25.6813 126.314 26.7618 128.11 28.3396C128.228 28.4437 127.57 26.5301 127.455 25.7235C127.337 24.8984 125.814 23.8911 125.139 23.493C124.096 22.8782 123.084 22.4799 122.037 22.0093C121.254 21.6575 119.111 22.0378 118.642 21.314C118.113 20.4953 118.378 18.2657 118.544 17.375C118.811 15.9404 118.561 15.5714 117.028 16.1348C115.835 16.5733 114.331 17.3547 114.745 18.6697C115.046 19.625 116.059 20.39 116.298 21.3147C116.671 22.761 115.432 22.0655 114.815 23.1112L113.151 25.9338C112.233 27.4907 112.095 30.7386 113.733 31.9837C114.709 32.7258 114.866 33.5812 115.651 32.2502C116.242 31.2476 116.749 30.3894 117.578 29.6016C118.568 28.6614 120.162 28.1926 121.237 27.3402Z" fill="#623218" stroke="black" stroke-width="2" stroke-linecap="round"/>
<path d="M130.857 49.2501C131.908 47.8279 132.236 46.5513 133.006 44.671L133.446 43.9144L133.167 42.8665C133.127 42.7168 132.559 42.3871 132.29 41.9778C132.021 41.5685 131.024 40.2307 130.984 40.081C130.953 39.9613 128.219 38.5189 126.856 37.8127L122.666 36.5221L120.608 39.6333C120.159 39.7525 119.55 41.1715 119.437 41.4272C118.978 42.4683 119.519 44.9222 119.765 46.1079C120.308 48.7322 121.305 49.359 121.986 51.9201C122.233 52.8513 121.919 52.2667 122.783 52.037L124.43 51.5994C125.549 51.3019 126.75 51.0546 127.873 50.6844C128.796 50.3797 130.303 49.9997 130.857 49.2501Z" fill="#E29949" stroke="black" stroke-width="2" stroke-linecap="round"/>
<path d="M128.862 39.9239C131.516 40.21 132.885 43.0764 133.056 45.4603C133.067 45.6176 133.942 43.7927 134.426 43.1375C134.921 42.4671 134.543 40.6805 134.342 39.9231C134.031 38.7536 133.59 37.7593 133.174 36.6887C132.863 35.8886 131.07 34.6551 131.245 33.8108C131.442 32.8559 133.197 31.4547 133.94 30.9368C135.137 30.1026 135.218 29.6636 133.731 28.9889C132.573 28.4637 130.954 27.9645 130.325 29.1918C129.869 30.0834 130.054 31.3395 129.575 32.1655C128.825 33.4576 128.431 32.0927 127.258 32.4045L124.091 33.2462C122.344 33.7104 119.966 35.927 120.259 37.9636C120.433 39.1773 119.944 39.8966 121.437 39.4997C122.562 39.2008 123.525 38.945 124.669 38.9662C126.034 38.9915 127.499 39.7768 128.862 39.9239Z" fill="#623218" stroke="black" stroke-width="2" stroke-linecap="round"/>
<path d="M114.082 32.1941C112.53 33.0426 111.696 34.0629 110.207 35.4452L109.489 35.9466L109.301 37.0144C109.274 37.1669 109.651 37.7051 109.723 38.1896C109.795 38.6741 110.137 40.307 110.11 40.4595C110.089 40.5815 111.963 43.0398 112.902 44.2537L116.16 47.1864L119.336 45.2291C119.794 45.3098 120.943 44.2787 121.153 44.094C122.007 43.3424 122.548 40.8886 122.824 39.7095C123.434 37.0999 122.793 36.112 123.253 33.5021C123.42 32.5533 123.46 33.216 122.579 33.061L120.901 32.7656C119.76 32.5648 118.567 32.2842 117.392 32.1479C116.426 32.0358 114.899 31.747 114.082 32.1941Z" fill="#E29949" stroke="black" stroke-width="2" stroke-linecap="round"/>
<path d="M111.969 41.4949C109.682 40.1195 109.646 36.9431 110.493 34.7084C110.549 34.5609 108.988 35.8488 108.273 36.2397C107.542 36.6397 107.133 38.4194 106.998 39.1912C106.788 40.383 106.77 41.4707 106.697 42.6168C106.642 43.4735 107.751 45.3466 107.237 46.0392C106.656 46.8226 104.475 47.356 103.583 47.5133C102.146 47.7667 101.889 48.1312 102.954 49.3687C103.783 50.332 105.043 51.4659 106.129 50.6166C106.918 49.9995 107.279 48.7823 108.061 48.2343C109.284 47.3772 109.067 48.7813 110.263 48.9918L113.49 49.5599C115.271 49.8733 118.36 48.8623 118.951 46.8915C119.303 45.717 120.049 45.2699 118.528 45.002C117.381 44.8002 116.4 44.6273 115.371 44.1271C114.143 43.5301 113.145 42.2016 111.969 41.4949Z" fill="#623218" stroke="black" stroke-width="2" stroke-linecap="round"/>
<path d="M93.6093 38.4877C93.9639 40.2201 94.6935 41.3178 95.5765 43.1477L95.8447 43.9808L96.8099 44.4746C96.9478 44.5451 97.5731 44.3431 98.0574 44.4168C98.5416 44.4905 100.203 44.6444 100.341 44.7149C100.451 44.7713 103.352 43.7036 104.788 43.1626L108.55 40.9113L107.613 37.3005C107.825 36.8869 107.178 35.4848 107.063 35.23C106.596 34.1928 104.41 32.9535 103.364 32.3431C101.049 30.992 99.9167 31.314 97.5574 30.1071C96.6997 29.6683 97.3448 29.8253 96.9375 30.6213L96.1616 32.1382C95.6341 33.1693 95.0148 34.2275 94.5391 35.3098C94.1477 36.2004 93.4224 37.5747 93.6093 38.4877Z" fill="#E29949" stroke="black" stroke-width="2" stroke-linecap="round"/>
<path d="M101.876 43.2422C99.8887 45.0234 96.8421 44.124 94.9556 42.6566C94.8311 42.5598 95.6027 44.4306 95.7661 45.2288C95.9332 46.0453 97.514 46.9595 98.2117 47.3164C99.289 47.8675 100.323 48.2045 101.397 48.6114C102.2 48.9156 104.316 48.4075 104.827 49.1019C105.405 49.8873 105.273 52.1289 105.161 53.0279C104.98 54.476 105.253 54.8292 106.749 54.175C107.914 53.6657 109.368 52.7956 108.876 51.5078C108.518 50.5722 107.461 49.8693 107.167 48.9606C106.708 47.5392 107.986 48.1593 108.539 47.0784L110.032 44.1611C110.855 42.5519 110.797 39.3017 109.088 38.157C108.069 37.4748 107.861 36.6304 107.157 38.006C106.627 39.0422 106.173 39.9293 105.392 40.7654C104.461 41.7632 102.897 42.3268 101.876 43.2422Z" fill="#623218" stroke="black" stroke-width="2" stroke-linecap="round"/>
<path d="M99.1707 41.3459C98.7838 39.6204 98.0337 38.5365 97.1167 36.7235L96.8329 35.8955L95.8586 35.4199C95.7194 35.3519 95.098 35.5657 94.6125 35.501C94.127 35.4363 92.4633 35.3136 92.3241 35.2456C92.2127 35.1913 89.3324 36.3131 87.9062 36.8808L84.1875 39.2021L85.1914 42.7947C84.9874 43.2122 85.6609 44.602 85.7804 44.8546C86.2669 45.8829 88.4756 47.0811 89.5326 47.6719C91.8721 48.9794 92.9986 48.6363 95.38 49.7989C96.2458 50.2215 95.5978 50.0767 95.9901 49.2731L96.7376 47.742C97.2457 46.7012 97.8451 45.6316 98.3005 44.5406C98.6752 43.6428 99.3746 42.2552 99.1707 41.3459Z" fill="#E29949" stroke="black" stroke-width="2" stroke-linecap="round"/>
<path d="M90.8152 36.7471C92.7689 34.9289 95.8317 35.7712 97.7454 37.2031C97.8716 37.2975 97.0651 35.4415 96.8869 34.6465C96.7045 33.8332 95.1069 32.9488 94.4027 32.605C93.3152 32.0741 92.2748 31.7566 91.1934 31.3698C90.3852 31.0807 88.2788 31.6283 87.755 30.9435C87.1625 30.1691 87.2524 27.9255 87.3477 27.0245C87.5012 25.5733 87.222 25.2252 85.7383 25.9073C84.5834 26.4382 83.1456 27.3355 83.6619 28.6138C84.037 29.5426 85.1072 30.2255 85.4178 31.1286C85.9036 32.5411 84.614 31.9451 84.0814 33.0361L82.6438 35.9808C81.8508 37.6051 81.969 40.8537 83.6998 41.9662C84.7313 42.6292 84.9549 43.4697 85.6328 42.0811C86.1434 41.0351 86.5807 40.1398 87.3457 39.2892C88.2586 38.2741 89.8112 37.6813 90.8152 36.7471Z" fill="#623218" stroke="black" stroke-width="2" stroke-linecap="round"/>
<path d="M87.6179 43.0787C87.231 41.3533 86.481 40.2693 85.5639 38.4563L85.2802 37.6284L84.3059 37.1527C84.1667 37.0848 83.5453 37.2985 83.0597 37.2338C82.5742 37.1692 80.9105 37.0464 80.7713 36.9785C80.66 36.9241 77.7797 38.046 76.3534 38.6137L72.6348 40.935L73.6387 44.5276C73.4347 44.9451 74.1081 46.3349 74.2276 46.5875C74.7141 47.6158 76.9229 48.8139 77.9799 49.4047C80.3193 50.7122 81.4458 50.3691 83.8272 51.5317C84.693 51.9544 84.0451 51.8095 84.4374 51.0059L85.1849 49.4748C85.6929 48.4341 86.2924 47.3645 86.7477 46.2735C87.1225 45.3757 87.8218 43.988 87.6179 43.0787Z" fill="#E29949" stroke="black" stroke-width="2" stroke-linecap="round"/>
<path d="M79.2624 38.4799C81.2161 36.6618 84.279 37.5041 86.1926 38.9359C86.3189 39.0304 85.5124 37.1744 85.3341 36.3794C85.1518 35.5661 83.5542 34.6817 82.85 34.3379C81.7625 33.807 80.7221 33.4894 79.6407 33.1027C78.8324 32.8136 76.726 33.3612 76.2022 32.6764C75.6098 31.9019 75.6996 29.6583 75.7949 28.7573C75.9484 27.3061 75.6693 26.958 74.1855 27.6401C73.0306 28.1711 71.5929 29.0683 72.1092 30.3467C72.4842 31.2754 73.5545 31.9584 73.865 32.8614C74.3508 34.274 73.0612 33.678 72.5286 34.769L71.091 37.7137C70.2981 39.338 70.4163 42.5866 72.1471 43.6991C73.1786 44.3621 73.4022 45.2025 74.08 43.814C74.5907 42.768 75.028 41.8726 75.7929 41.022C76.7059 40.0069 78.2585 39.4142 79.2624 38.4799Z" fill="#623218" stroke="black" stroke-width="2" stroke-linecap="round"/>
<path d="M104.946 28.6386C104.559 26.9132 103.809 25.8293 102.892 24.0163L102.608 23.1883L101.634 22.7127C101.495 22.6447 100.873 22.8584 100.388 22.7938C99.9024 22.7291 98.2387 22.6064 98.0995 22.5384C97.9881 22.4841 95.1078 23.6059 93.6816 24.1736L89.9629 26.4949L90.9668 30.0875C90.7628 30.505 91.4363 31.8948 91.5558 32.1474C92.0423 33.1757 94.251 34.3739 95.308 34.9646C97.6475 36.2722 98.774 35.9291 101.155 37.0917C102.021 37.5143 101.373 37.3694 101.766 36.5659L102.513 35.0348C103.021 33.994 103.62 32.9244 104.076 31.8334C104.451 30.9356 105.15 29.548 104.946 28.6386Z" fill="#E29949" stroke="black" stroke-width="2" stroke-linecap="round"/>
<path d="M96.5915 24.0392C98.5452 22.2211 101.608 23.0633 103.522 24.4952C103.648 24.5896 102.841 22.7336 102.663 21.9387C102.481 21.1254 100.883 20.241 100.179 19.8972C99.0916 19.3662 98.0512 19.0487 96.9698 18.6619C96.1615 18.3728 94.0551 18.9204 93.5313 18.2357C92.9389 17.4612 93.0287 15.2176 93.124 14.3166C93.2775 12.8654 92.9984 12.5173 91.5147 13.1994C90.3597 13.7304 88.922 14.6276 89.4383 15.906C89.8133 16.8347 90.8836 17.5177 91.1941 18.4207C91.6799 19.8332 90.3903 19.2372 89.8577 20.3282L88.4201 23.273C87.6272 24.8973 87.7454 28.1459 89.4762 29.2583C90.5077 29.9213 90.7313 30.7618 91.4091 29.3732C91.9198 28.3272 92.3571 27.4319 93.122 26.5813C94.035 25.5662 95.5876 24.9734 96.5915 24.0392Z" fill="#623218" stroke="black" stroke-width="2" stroke-linecap="round"/>
<path d="M69.5605 16.8559C68.3238 18.1197 67.8228 19.339 66.8013 21.0952L66.2613 21.784L66.3927 22.8602C66.4115 23.0139 66.929 23.4189 67.1391 23.8613C67.3492 24.3038 68.1519 25.7662 68.1707 25.9199C68.1857 26.0429 70.6948 27.8483 71.9475 28.7356L75.919 30.5912L78.3861 27.7932C78.8474 27.7371 79.6465 26.4156 79.7934 26.1778C80.3911 25.2099 80.1937 22.7049 80.1138 21.4967C79.937 18.8225 79.036 18.0643 78.7147 15.4338C78.5979 14.4774 78.8291 15.0998 77.9415 15.2082L76.2503 15.4147C75.1007 15.5551 73.8771 15.6346 72.7141 15.8466C71.757 16.021 70.2122 16.1898 69.5605 16.8559Z" fill="#E29949" stroke="black" stroke-width="2" stroke-linecap="round"/>
<path d="M70.2512 26.3677C67.6625 25.7187 66.7016 22.6909 66.8609 20.3062C66.8714 20.1489 65.7536 21.8358 65.1838 22.4181C64.6008 23.0139 64.7287 24.8354 64.8237 25.6133C64.9704 26.8146 65.2704 27.8601 65.5347 28.9778C65.7322 29.8131 67.3382 31.2819 67.049 32.0941C66.7219 33.0127 64.791 34.1587 63.9833 34.5693C62.6825 35.2306 62.5424 35.6542 63.9223 36.5275C64.9964 37.2072 66.5318 37.9248 67.323 36.7958C67.8979 35.9755 67.8882 34.706 68.4766 33.9539C69.397 32.7774 69.5991 34.1836 70.8042 34.0364L74.0569 33.6392C75.8511 33.4201 78.5118 31.5524 78.5027 29.4949C78.4973 28.2687 79.0806 27.6237 77.5468 27.811C76.3914 27.9521 75.4023 28.0727 74.2724 27.8941C72.9239 27.6809 71.5814 26.7012 70.2512 26.3677Z" fill="#623218" stroke="black" stroke-width="2" stroke-linecap="round"/>
<path d="M94.546 26.2284C94.296 24.4779 93.6335 23.3383 92.8618 21.4588L92.6441 20.6111L91.7102 20.0603C91.5768 19.9816 90.9405 20.1458 90.4615 20.0432C89.9826 19.9406 88.3337 19.6874 88.2003 19.6087C88.0936 19.5458 85.134 20.4377 83.6675 20.8915L79.7778 22.9132L80.4962 26.5736C80.26 26.9738 80.822 28.4122 80.9213 28.6734C81.3255 29.7368 83.4332 31.1049 84.4404 31.777C86.6698 33.2644 87.8198 33.0109 90.1025 34.3572C90.9323 34.8466 90.2978 34.6512 90.7521 33.881L91.6176 32.4134C92.2059 31.4158 92.8876 30.3967 93.4273 29.3448C93.8715 28.4793 94.6778 27.1509 94.546 26.2284Z" fill="#E29949" stroke="black" stroke-width="2" stroke-linecap="round"/>
<path d="M86.5794 20.9863C88.67 19.3274 91.6572 20.4079 93.4523 21.9858C93.5707 22.0899 92.9127 20.1762 92.7975 19.3696C92.6796 18.5445 91.1565 17.5373 90.4815 17.1391C89.4391 16.5244 88.4269 16.126 87.3793 15.6554C86.5963 15.3037 84.4533 15.684 83.985 14.9601C83.4553 14.1414 83.7212 11.9119 83.8871 11.0212C84.1542 9.58653 83.9033 9.21756 82.3705 9.78089C81.1774 10.2194 79.6736 11.0008 80.0878 12.3158C80.3887 13.2712 81.4019 14.0362 81.6405 14.9608C82.0137 16.4072 80.775 15.7116 80.1582 16.7573L78.4936 19.5799C77.5753 21.1369 77.4377 24.3847 79.0757 25.6298C80.0519 26.3719 80.2087 27.2273 80.9937 25.8963C81.585 24.8937 82.0913 24.0355 82.9208 23.2477C83.9107 22.3076 85.5051 21.8387 86.5794 20.9863Z" fill="#623218" stroke="black" stroke-width="2" stroke-linecap="round"/>
<path d="M92.1548 45.7844C93.2055 44.3621 93.5337 43.0855 94.3034 41.2052L94.7434 40.4486L94.4649 39.4008C94.4252 39.2511 93.8567 38.9214 93.5877 38.5121C93.3186 38.1028 92.322 36.765 92.2822 36.6153C92.2504 36.4955 89.5165 35.0531 88.1535 34.3469L83.9641 33.0563L81.9061 36.1675C81.457 36.2867 80.8476 37.7058 80.7349 37.9615C80.2763 39.0025 80.817 41.4564 81.0626 42.6421C81.6062 45.2665 82.6032 45.8932 83.2838 48.4544C83.5313 49.3855 83.2166 48.8009 84.0808 48.5712L85.7274 48.1336C86.8467 47.8361 88.0476 47.5888 89.1704 47.2186C90.0943 46.9139 91.601 46.5339 92.1548 45.7844Z" fill="#E29949" stroke="black" stroke-width="2" stroke-linecap="round"/>
<path d="M90.1612 36.4581C92.8146 36.7442 94.1836 39.6107 94.3544 41.9946C94.3657 42.1519 95.2403 40.327 95.7245 39.6717C96.2197 39.0013 95.8421 37.2148 95.6408 36.4574C95.33 35.2878 94.8887 34.2935 94.473 33.223C94.1622 32.4228 92.3691 31.1894 92.5437 30.3451C92.7411 29.3902 94.4956 27.989 95.239 27.471C96.4363 26.6368 96.5166 26.1979 95.0295 25.5231C93.872 24.9979 92.2524 24.4987 91.6243 25.726C91.168 26.6176 91.3526 27.8737 90.8734 28.6998C90.1239 29.9919 89.7299 28.6269 88.5566 28.9387L85.3896 29.7804C83.6428 30.2447 81.2649 32.4612 81.5574 34.4978C81.7317 35.7116 81.2429 36.4308 82.7362 36.034C83.8612 35.735 84.8242 35.4792 85.968 35.5004C87.333 35.5257 88.7977 36.3111 90.1612 36.4581Z" fill="#623218" stroke="black" stroke-width="2" stroke-linecap="round"/>
<path d="M75.3814 28.7284C73.83 29.5769 72.9955 30.5972 71.5064 31.9795L70.789 32.4809L70.601 33.5487C70.5742 33.7012 70.9513 34.2394 71.0232 34.7239C71.0952 35.2084 71.4368 36.8413 71.41 36.9938C71.3885 37.1158 73.2624 39.5741 74.202 40.788L77.4603 43.7207L80.6357 41.7634C81.0934 41.8441 82.243 40.813 82.4528 40.6283C83.3067 39.8767 83.848 37.4229 84.1238 36.2438C84.7342 33.6342 84.0932 32.6463 84.5527 30.0364C84.7197 29.0876 84.7595 29.7503 83.8788 29.5953L82.2008 29.2999C81.0602 29.0991 79.8666 28.8185 78.6923 28.6822C77.7259 28.5701 76.199 28.2813 75.3814 28.7284Z" fill="#E29949" stroke="black" stroke-width="2" stroke-linecap="round"/>
<path d="M73.2692 38.0291C70.9822 36.6537 70.9455 33.4773 71.793 31.2426C71.8489 31.0952 70.2879 32.383 69.5731 32.774C68.8419 33.1739 68.4332 34.9536 68.2973 35.7254C68.0875 36.9173 68.0697 38.0049 67.9967 39.1511C67.9422 40.0077 69.0504 41.8809 68.537 42.5735C67.9563 43.3568 65.7752 43.8903 64.8829 44.0476C63.4458 44.3009 63.1884 44.6654 64.2538 45.9029C65.0832 46.8662 66.3427 48.0002 67.4286 47.1508C68.2176 46.5338 68.5784 45.3165 69.3604 44.7686C70.5838 43.9115 70.3673 45.3155 71.5629 45.526L74.7902 46.0942C76.5704 46.4076 79.6599 45.3965 80.2509 43.4257C80.6032 42.2512 81.3491 41.8042 79.8274 41.5363C78.681 41.3345 77.6997 41.1615 76.6709 40.6613C75.4431 40.0643 74.4445 38.7359 73.2692 38.0291Z" fill="#623218" stroke="black" stroke-width="2" stroke-linecap="round"/>
<path d="M54.9081 35.0225C55.2627 36.7548 55.9923 37.8526 56.8753 39.6825L57.1435 40.5156L58.1088 41.0094C58.2467 41.0799 58.872 40.8779 59.3562 40.9516C59.8404 41.0253 61.5015 41.1792 61.6394 41.2497C61.7497 41.3061 64.6505 40.2384 66.0871 39.6974L69.8486 37.4461L68.912 33.8353C69.1238 33.4217 68.4765 32.0196 68.3617 31.7648C67.8945 30.7275 65.7086 29.4883 64.6628 28.8779C62.3482 27.5268 61.2155 27.8488 58.8563 26.6418C57.9985 26.2031 58.6436 26.36 58.2364 27.1561L57.4604 28.673C56.9329 29.704 56.3136 30.7622 55.8379 31.8445C55.4465 32.7352 54.7213 34.1095 54.9081 35.0225Z" fill="#E29949" stroke="black" stroke-width="2" stroke-linecap="round"/>
<path d="M63.1749 39.7769C61.1875 41.5582 58.1409 40.6588 56.2544 39.1914C56.1299 39.0945 56.9016 40.9653 57.0649 41.7635C57.2321 42.5801 58.8128 43.4942 59.5105 43.8511C60.5879 44.4023 61.6221 44.7392 62.6961 45.1461C63.4988 45.4503 65.6151 44.9422 66.126 45.6366C66.7038 46.4221 66.572 48.6636 66.4599 49.5626C66.2793 51.0107 66.5519 51.364 68.0481 50.7097C69.2128 50.2005 70.667 49.3303 70.1748 48.0425C69.8171 47.1069 68.7598 46.404 68.4662 45.4954C68.0069 44.074 69.2852 44.694 69.8381 43.6132L71.3305 40.6958C72.1537 39.0866 72.0963 35.8364 70.3866 34.6917C69.3676 34.0095 69.1598 33.1651 68.4561 34.5407C67.926 35.577 67.472 36.464 66.6913 37.3001C65.7595 38.298 64.1961 38.8616 63.1749 39.7769Z" fill="#623218" stroke="black" stroke-width="2" stroke-linecap="round"/>
<path d="M60.4705 37.8802C60.0836 36.1547 59.3335 35.0708 58.4165 33.2578L58.1327 32.4298L57.1584 31.9542C57.0192 31.8862 56.3978 32.1 55.9123 32.0353C55.4268 31.9706 53.7631 31.8479 53.6239 31.7799C53.5125 31.7256 50.6322 32.8474 49.206 33.4151L45.4873 35.7364L46.4912 39.329C46.2872 39.7465 46.9607 41.1363 47.0802 41.3889C47.5667 42.4172 49.7754 43.6154 50.8324 44.2062C53.1719 45.5137 54.2984 45.1706 56.6798 46.3332C57.5456 46.7558 56.8976 46.611 57.2899 45.8074L58.0374 44.2763C58.5455 43.2355 59.1449 42.1659 59.6003 41.0749C59.975 40.1771 60.6744 38.7895 60.4705 37.8802Z" fill="#E29949" stroke="black" stroke-width="2" stroke-linecap="round"/>
<path d="M52.114 33.2813C54.0677 31.4632 57.1306 32.3054 59.0442 33.7373C59.1705 33.8318 58.3639 31.9758 58.1857 31.1808C58.0033 30.3675 56.4058 29.4831 55.7015 29.1393C54.614 28.6084 53.5736 28.2908 52.4922 27.904C51.684 27.615 49.5776 28.1626 49.0538 27.4778C48.4614 26.7033 48.5512 24.4597 48.6465 23.5587C48.8 22.1075 48.5208 21.7594 47.0371 22.4415C45.8822 22.9725 44.4444 23.8697 44.9607 25.1481C45.3358 26.0768 46.406 26.7598 46.7166 27.6628C47.2024 29.0754 45.9128 28.4794 45.3802 29.5703L43.9426 32.5151C43.1496 34.1394 43.2678 37.388 44.9987 38.5005C46.0302 39.1635 46.2537 40.0039 46.9316 38.6153C47.4422 37.5694 47.8795 36.674 48.6445 35.8234C49.5574 34.8083 51.1101 34.2156 52.114 33.2813Z" fill="#623218" stroke="black" stroke-width="2" stroke-linecap="round"/>
<path d="M48.9168 39.613C48.5299 37.8876 47.7798 36.8036 46.8627 34.9906L46.579 34.1627L45.6047 33.687C45.4655 33.6191 44.8441 33.8328 44.3586 33.7681C43.8731 33.7035 42.2094 33.5807 42.0702 33.5128C41.9588 33.4584 39.0785 34.5803 37.6523 35.148L33.9336 37.4693L34.9375 41.0619C34.7335 41.4794 35.407 42.8692 35.5265 43.1218C36.013 44.1501 38.2217 45.3482 39.2787 45.939C41.6182 47.2465 42.7447 46.9034 45.1261 48.066C45.9919 48.4887 45.3439 48.3438 45.7362 47.5402L46.4837 46.0091C46.9918 44.9684 47.5912 43.8988 48.0466 42.8078C48.4213 41.91 49.1207 40.5223 48.9168 39.613Z" fill="#E29949" stroke="black" stroke-width="2" stroke-linecap="round"/>
<path d="M40.5613 35.0142C42.515 33.196 45.5778 34.0383 47.4915 35.4702C47.6177 35.5646 46.8112 33.7086 46.633 32.9136C46.4506 32.1003 44.853 31.2159 44.1488 30.8721C43.0613 30.3412 42.0209 30.0237 40.9395 29.6369C40.1313 29.3478 38.0249 29.8954 37.5011 29.2106C36.9086 28.4361 36.9985 26.1926 37.0938 25.2916C37.2473 23.8404 36.9681 23.4923 35.4844 24.1744C34.3295 24.7053 32.8917 25.6026 33.408 26.8809C33.7831 27.8097 34.8533 28.4926 35.1639 29.3957C35.6497 30.8082 34.3601 30.2122 33.8275 31.3032L32.3899 34.2479C31.5969 35.8722 31.7151 39.1208 33.4459 40.2333C34.4774 40.8963 34.701 41.7368 35.3789 40.3482C35.8895 39.3022 36.3268 38.4069 37.0918 37.5563C38.0047 36.5412 39.5573 35.9484 40.5613 35.0142Z" fill="#623218" stroke="black" stroke-width="2" stroke-linecap="round"/>
<path d="M66.2449 25.1729C65.858 23.4475 65.108 22.3636 64.1909 20.5506L63.9072 19.7226L62.9328 19.247C62.7936 19.179 62.1722 19.3927 61.6867 19.3281C61.2012 19.2634 59.5375 19.1407 59.3983 19.0727C59.2869 19.0184 56.4066 20.1402 54.9804 20.7079L51.2617 23.0292L52.2657 26.6218C52.0617 27.0393 52.7351 28.4291 52.8546 28.6817C53.3411 29.71 55.5498 30.9082 56.6068 31.4989C58.9463 32.8065 60.0728 32.4634 62.4542 33.626C63.32 34.0486 62.6721 33.9037 63.0644 33.1002L63.8118 31.5691C64.3199 30.5283 64.9193 29.4587 65.3747 28.3677C65.7494 27.4699 66.4488 26.0823 66.2449 25.1729Z" fill="#E29949" stroke="black" stroke-width="2" stroke-linecap="round"/>
<path d="M57.8904 20.5734C59.8441 18.7553 62.9069 19.5976 64.8206 21.0294C64.9468 21.1239 64.1403 19.2679 63.9621 18.4729C63.7797 17.6596 62.1821 16.7752 61.4779 16.4314C60.3904 15.9005 59.35 15.5829 58.2686 15.1962C57.4604 14.9071 55.354 15.4547 54.8302 14.7699C54.2377 13.9954 54.3276 11.7518 54.4229 10.8508C54.5764 9.39965 54.2972 9.05156 52.8135 9.73366C51.6586 10.2646 50.2208 11.1618 50.7371 12.4402C51.1122 13.369 52.1824 14.0519 52.493 14.9549C52.9788 16.3675 51.6892 15.7715 51.1566 16.8625L49.719 19.8072C48.926 21.4315 49.0442 24.6801 50.775 25.7926C51.8065 26.4556 52.0301 27.296 52.708 25.9075C53.2186 24.8615 53.6559 23.9661 54.4209 23.1155C55.3338 22.1004 56.8864 21.5077 57.8904 20.5734Z" fill="#623218" stroke="black" stroke-width="2" stroke-linecap="round"/>
<path d="M41.2653 12.0104C39.7706 12.9551 39.002 14.026 37.6031 15.4994L36.9188 16.0451L36.7985 17.1226C36.7814 17.2766 37.1916 17.7899 37.294 18.2689C37.3964 18.7479 37.8404 20.3559 37.8232 20.5099C37.8094 20.633 39.8347 22.9682 40.849 24.1204L44.2858 26.8417L47.3314 24.688C47.7932 24.7397 48.8756 23.6381 49.0732 23.4406C49.878 22.6366 50.2635 20.1535 50.4644 18.9594C50.9089 16.3165 50.2069 15.371 50.5008 12.7373C50.6077 11.7798 50.6892 12.4387 49.8005 12.3395L48.1072 12.1506C46.9562 12.0221 45.7473 11.8174 44.5667 11.7555C43.5951 11.7045 42.0531 11.5126 41.2653 12.0104Z" fill="#E29949" stroke="black" stroke-width="2" stroke-linecap="round"/>
<path d="M39.7429 21.4254C37.3736 20.197 37.1367 17.0293 37.8415 14.7456C37.888 14.5949 36.4114 15.9787 35.7227 16.4139C35.0181 16.8592 34.7225 18.6611 34.6356 19.44C34.5014 20.6427 34.5522 21.7293 34.5517 22.8777C34.5513 23.7361 35.7754 25.5356 35.3067 26.2593C34.7766 27.0777 32.6335 27.7476 31.7529 27.9609C30.3347 28.3044 30.1007 28.6844 31.2421 29.8523C32.1306 30.7613 33.4591 31.8136 34.4893 30.8974C35.2378 30.2318 35.5211 28.9942 36.267 28.3981C37.4339 27.4655 37.3063 28.8804 38.5129 29.0151L41.7696 29.3785C43.566 29.579 46.5856 28.3751 47.0511 26.3709C47.3286 25.1765 48.0448 24.6833 46.5092 24.5119C45.3524 24.3828 44.3621 24.2721 43.3038 23.8378C42.0408 23.3195 40.9604 22.0567 39.7429 21.4254Z" fill="#623218" stroke="black" stroke-width="2" stroke-linecap="round"/>
<path d="M61.7627 33.473C61.923 31.712 61.5411 30.4504 61.2235 28.4436L61.2071 27.5686L60.4253 26.8173C60.3136 26.71 59.6566 26.723 59.2143 26.5127C58.7719 26.3024 57.2258 25.6759 57.1141 25.5686C57.0248 25.4827 53.9393 25.6682 52.4077 25.7717L48.1567 26.8422L48.0117 30.5696C47.6896 30.9045 47.9049 32.4338 47.9413 32.7108C48.0894 33.8388 49.8248 35.656 50.65 36.5421C52.4764 38.5035 53.6539 38.522 55.5646 40.3583C56.2593 41.0258 55.6869 40.6894 56.3065 40.0447L57.4871 38.8162C58.2896 37.9811 59.1878 37.1466 59.9555 36.2476C60.5873 35.5077 61.6782 34.4011 61.7627 33.473Z" fill="#E29949" stroke="black" stroke-width="2" stroke-linecap="round"/>
<path d="M55.2184 26.5352C57.6352 25.4031 60.2927 27.1432 61.6757 29.0924C61.7669 29.221 61.5678 27.2072 61.6417 26.3958C61.7172 25.5657 60.4674 24.2345 59.9024 23.6914C59.0298 22.8529 58.1367 22.2319 57.2258 21.5324C56.545 21.0096 54.3721 20.8856 54.0833 20.0733C53.7566 19.1545 54.5295 17.0463 54.8962 16.2179C55.4869 14.8835 55.3278 14.4666 53.7065 14.6613C52.4444 14.8129 50.8009 15.2266 50.9007 16.6016C50.9733 17.6006 51.7828 18.5786 51.8018 19.5334C51.8315 21.0268 50.7865 20.0644 49.9453 20.9398L47.6747 23.3025C46.4222 24.6058 45.5395 27.7344 46.8463 29.3236C47.6251 30.2707 47.5804 31.1393 48.6511 30.0251C49.4576 29.1859 50.1482 28.4676 51.137 27.8922C52.317 27.2056 53.9765 27.117 55.2184 26.5352Z" fill="#623218" stroke="black" stroke-width="2" stroke-linecap="round"/>
<path d="M59.5284 50.0729C60.8787 48.9312 61.4923 47.7647 62.6749 46.1125L63.2775 45.4778L63.2481 44.3939C63.2439 44.2391 62.7668 43.7872 62.5994 43.3269C62.4319 42.8666 61.7706 41.335 61.7664 41.1802C61.7631 41.0563 59.4354 39.0225 58.2719 38.0211L54.4929 35.7993L51.7731 38.3522C51.3086 38.3647 50.3884 39.6049 50.2198 39.8278C49.5335 40.735 49.4939 43.2475 49.4595 44.4579C49.3834 47.1369 50.209 47.9766 50.2808 50.6257C50.3069 51.5887 50.1354 50.9474 51.0293 50.9231L52.7325 50.8769C53.8902 50.8455 55.1158 50.8818 56.2937 50.7804C57.2629 50.697 58.8167 50.6746 59.5284 50.0729Z" fill="#E29949" stroke="black" stroke-width="2" stroke-linecap="round"/>
<path d="M59.7375 40.5379C62.2534 41.4281 62.9247 44.533 62.5412 46.892C62.516 47.0477 63.7878 45.4736 64.41 44.9476C65.0465 44.4095 65.0909 42.584 65.0697 41.8006C65.0369 40.5909 64.8368 39.5217 64.679 38.3841C64.5612 37.5339 63.1007 35.9202 63.4652 35.1389C63.8775 34.2553 65.9078 33.2963 66.7506 32.9638C68.108 32.4281 68.2873 32.0195 66.9959 31.02C65.9907 30.2421 64.5298 29.383 63.6356 30.4323C62.986 31.1947 62.876 32.4595 62.2193 33.1528C61.1921 34.2373 61.1235 32.8183 59.9099 32.8512L56.6342 32.94C54.8273 32.989 52.0024 34.5976 51.8175 36.6468C51.7073 37.868 51.0658 38.4552 52.6104 38.4133C53.774 38.3818 54.77 38.3549 55.8781 38.6393C57.2005 38.9786 58.4446 40.0805 59.7375 40.5379Z" fill="#623218" stroke="black" stroke-width="2" stroke-linecap="round"/>
<path d="M47.139 29.6096C45.4338 30.0775 44.3865 30.8779 42.6188 31.8796L41.8052 32.2021L41.3761 33.1978C41.3148 33.34 41.5576 33.9506 41.5159 34.4387C41.4743 34.9267 41.4302 36.5943 41.3689 36.7366C41.3199 36.8504 42.5765 39.6745 43.2109 41.0723L45.7052 44.6772L49.2464 43.5048C49.6731 43.6888 51.0295 42.9505 51.2762 42.8192C52.2804 42.2847 53.3729 40.0219 53.9131 38.9381C55.1087 36.5396 54.7128 35.4305 55.7616 32.9969C56.1429 32.1121 56.0288 32.7661 55.2076 32.4122L53.6429 31.7379C52.5793 31.2795 51.4826 30.7313 50.3713 30.3279C49.4568 29.996 48.0377 29.3629 47.139 29.6096Z" fill="#E29949" stroke="black" stroke-width="2" stroke-linecap="round"/>
<path d="M42.9378 38.1719C41.0294 36.3063 41.7261 33.2071 43.066 31.2279C43.1544 31.0974 41.3386 31.9906 40.5529 32.2062C39.7491 32.4268 38.9411 34.0643 38.631 34.784C38.152 35.8954 37.884 36.9496 37.5487 38.048C37.2981 38.869 37.9445 40.9472 37.2852 41.5028C36.5396 42.1311 34.2943 42.1473 33.3898 42.0947C31.933 42.0099 31.5985 42.3052 32.3499 43.755C32.9347 44.8836 33.8989 46.2774 35.1514 45.7013C36.0614 45.2828 36.6931 44.1815 37.5804 43.8286C38.9685 43.2767 38.434 44.593 39.5489 45.0735L42.5583 46.3704C44.2182 47.0858 47.4576 46.8143 48.4871 45.0329C49.1007 43.9712 49.9296 43.7082 48.5106 43.0967C47.4417 42.636 46.5267 42.2415 45.6409 41.5175C44.5838 40.6535 43.9184 39.1306 42.9378 38.1719Z" fill="#623218" stroke="black" stroke-width="2" stroke-linecap="round"/>
<path d="M25.7665 31.0125C25.7121 32.78 26.1689 34.0164 26.6063 36.0005L26.6751 36.873L27.5005 37.5761C27.6185 37.6765 28.2735 37.6241 28.7277 37.8074C29.1819 37.9908 30.7627 38.5235 30.8807 38.624C30.975 38.7043 34.0438 38.3341 35.5664 38.139L39.7456 36.8155L39.6668 33.0861C39.9682 32.7325 39.6616 31.2189 39.6087 30.9445C39.3932 29.8275 37.5519 28.1176 36.6751 27.2825C34.7344 25.4342 33.5579 25.4863 31.5405 23.768C30.807 23.1433 31.3986 23.4447 30.8187 24.1255L29.714 25.4225C28.963 26.3042 28.1164 27.1911 27.404 28.1346C26.8177 28.911 25.7952 30.0811 25.7665 31.0125Z" fill="#E29949" stroke="black" stroke-width="2" stroke-linecap="round"/>
<path d="M32.7134 37.545C30.3689 38.8201 27.6117 37.2425 26.1144 35.3796C26.0156 35.2567 26.3351 37.255 26.31 38.0694C26.2844 38.9025 27.6118 40.1564 28.2084 40.6646C29.1297 41.4493 30.0584 42.0156 31.0096 42.6592C31.7205 43.1402 33.8969 43.1337 34.2339 43.9273C34.6151 44.8248 33.9701 46.9755 33.6537 47.8245C33.1441 49.1919 33.3279 49.5985 34.9346 49.3069C36.1853 49.0799 37.8011 48.5684 37.619 47.2018C37.4867 46.209 36.6199 45.2813 36.5437 44.3294C36.4245 42.8404 37.5253 43.7384 38.3126 42.8142L40.4374 40.3195C41.6095 38.9435 42.303 35.7676 40.9032 34.2596C40.069 33.3609 40.0615 32.4912 39.0596 33.6676C38.3048 34.5537 37.6586 35.3121 36.7061 35.9457C35.5694 36.7018 33.9181 36.8898 32.7134 37.545Z" fill="#623218" stroke="black" stroke-width="2" stroke-linecap="round"/>
<path d="M30.5175 35.0763C30.5389 33.3082 30.059 32.0805 29.5846 30.1049L29.4994 29.2339L28.661 28.5464C28.5412 28.4482 27.8873 28.5129 27.4298 28.338C26.9722 28.1631 25.3817 27.6601 25.2619 27.5619C25.1661 27.4833 22.1047 27.9108 20.586 28.1344L16.4323 29.5358L16.5809 33.2631C16.2861 33.6223 16.621 35.1299 16.679 35.4032C16.9153 36.516 18.7883 38.1912 19.6806 39.0097C21.6556 40.8214 22.8308 40.7473 24.88 42.4276C25.625 43.0385 25.028 42.7481 25.595 42.0567L26.6753 40.7392C27.4097 39.8436 28.2395 38.941 28.9342 37.9844C29.5058 37.1972 30.5063 36.0082 30.5175 35.0763Z" fill="#E29949" stroke="black" stroke-width="2" stroke-linecap="round"/>
<path d="M23.4481 28.6742C25.7683 27.3555 28.5545 28.8813 30.0864 30.7158C30.1875 30.8368 29.8306 28.8449 29.8405 28.0302C29.8505 27.1968 28.4999 25.9679 27.8939 25.4709C26.9581 24.7036 26.019 24.1547 25.0559 23.529C24.3361 23.0614 22.1602 23.1086 21.8084 22.3215C21.4105 21.4313 22.0152 19.2688 22.3156 18.4141C22.7996 17.0374 22.6082 16.6343 21.0072 16.956C19.761 17.2063 18.1551 17.7479 18.3627 19.1108C18.5136 20.1011 19.3975 21.0124 19.4915 21.9627C19.6385 23.4492 18.5211 22.5719 17.7513 23.5107L15.6735 26.0446C14.5274 27.4423 13.8934 30.6307 15.3211 32.1122C16.1719 32.9952 16.1957 33.8645 17.1755 32.6697C17.9135 31.7696 18.5455 30.9992 19.4859 30.3479C20.6083 29.5707 22.2558 29.3518 23.4481 28.6742Z" fill="#623218" stroke="black" stroke-width="2" stroke-linecap="round"/>
<path d="M25.9238 29.7024C25.9451 27.9343 25.4652 26.7066 24.9909 24.731L24.9057 23.86L24.0673 23.1725C23.9475 23.0743 23.2935 23.139 22.836 22.9641C22.3785 22.7892 20.7879 22.2862 20.6681 22.188C20.5723 22.1094 17.511 22.5369 15.9923 22.7605L11.8386 24.1619L11.9871 27.8892C11.6924 28.2484 12.0272 29.756 12.0853 30.0293C12.3216 31.1421 14.1946 32.8173 15.0869 33.6358C17.0618 35.4475 18.2371 35.3734 20.2863 37.0537C21.0313 37.6646 20.4342 37.3742 21.0012 36.6828L22.0816 35.3653C22.8159 34.4697 23.6458 33.5671 24.3404 32.6105C24.9121 31.8233 25.9125 30.6343 25.9238 29.7024Z" fill="#E29949" stroke="black" stroke-width="2" stroke-linecap="round"/>
<path d="M18.8553 23.3005C21.1755 21.9818 23.9617 23.5076 25.4936 25.3421C25.5947 25.4631 25.2379 23.4711 25.2477 22.6565C25.2577 21.823 23.9072 20.5941 23.3011 20.0972C22.3653 19.3299 21.4262 18.781 20.4631 18.1553C19.7433 17.6877 17.5674 17.7349 17.2156 16.9478C16.8177 16.0576 17.4224 13.8951 17.7229 13.0404C18.2068 11.6637 18.0154 11.2606 16.4144 11.5822C15.1682 11.8326 13.5623 12.3742 13.7699 13.7371C13.9208 14.7273 14.8047 15.6386 14.8987 16.5889C15.0457 18.0754 13.9283 17.1982 13.1585 18.137L11.0807 20.6709C9.9346 22.0686 9.30061 25.2569 10.7283 26.7385C11.5792 27.6215 11.6029 28.4908 12.5827 27.296C13.3207 26.3959 13.9527 25.6255 14.8931 24.9742C16.0155 24.1969 17.663 23.9781 18.8553 23.3005Z" fill="#623218" stroke="black" stroke-width="2" stroke-linecap="round"/>
<path d="M39.0683 24.0427C39.0897 22.2746 38.6098 21.0469 38.1354 19.0713L38.0502 18.2002L37.2118 17.5128C37.092 17.4145 36.4381 17.4792 35.9805 17.3044C35.523 17.1295 33.9324 16.6265 33.8127 16.5283C33.7169 16.4497 30.6555 16.8772 29.1368 17.1008L24.9831 18.5022L25.1317 22.2295C24.8369 22.5887 25.1718 24.0963 25.2298 24.3696C25.4661 25.4824 27.3391 27.1575 28.2314 27.9761C30.2063 29.7878 31.3816 29.7137 33.4308 31.394C34.1758 32.0049 33.5788 31.7145 34.1458 31.023L35.2261 29.7055C35.9604 28.81 36.7903 27.9074 37.485 26.9508C38.0566 26.1635 39.0571 24.9745 39.0683 24.0427Z" fill="#E29949" stroke="black" stroke-width="2" stroke-linecap="round"/>
<path d="M31.9979 17.6405C34.3181 16.3218 37.1043 17.8476 38.6362 19.6821C38.7373 19.8031 38.3804 17.8112 38.3903 16.9965C38.4003 16.1631 37.0497 14.9342 36.4437 14.4372C35.5079 13.6699 34.5688 13.121 33.6057 12.4954C32.8859 12.0277 30.71 12.0749 30.3582 11.2878C29.9603 10.3976 30.565 8.23515 30.8654 7.38042C31.3494 6.00372 31.158 5.60064 29.557 5.92227C28.3108 6.17263 26.7049 6.7142 26.9125 8.07716C27.0634 9.06736 27.9473 9.97867 28.0413 10.929C28.1883 12.4155 27.0709 11.5382 26.3011 12.477L24.2233 15.0109C23.0772 16.4086 22.4432 19.597 23.8709 21.0785C24.7217 21.9615 24.7455 22.8308 25.7253 21.636C26.4633 20.7359 27.0953 19.9655 28.0357 19.3142C29.1581 18.537 30.8056 18.3181 31.9979 17.6405Z" fill="#623218" stroke="black" stroke-width="2" stroke-linecap="round"/>
<path d="M132.829 46.3067C132.829 46.3067 132.664 46.5682 132.372 47.0206C123.9 52.2105 3.5236 46.5272 9.21545 24.3568C7.98477 27.4294 9.95861 32.8223 10.8946 34.6901C10.8946 34.6901 17.2873 47.0401 20.0745 50.6831C22.8617 54.3261 38.0758 59.9868 66.3823 63.5478C94.6887 67.1087 117.105 63.8471 122.544 59.4418C126.018 56.6253 130.875 49.3321 132.372 47.0206C132.729 46.8018 132.887 46.5637 132.829 46.3067Z" fill="white"/>
<path d="M132.743 45.9882C132.743 45.9882 126.698 55.2489 122.544 58.6525C117.105 63.1047 94.689 66.4012 66.3825 62.8023C38.076 59.2033 22.8619 53.4821 20.0747 49.8003C17.2875 46.1184 10.8948 33.6366 10.8948 33.6366C9.95883 31.7488 8.39448 27.1968 9.62516 24.0914" stroke="black" stroke-width="2" stroke-linecap="round" stroke-linejoin="round"/>
<path d="M132.54 46.3067C132.54 46.3067 119.507 50.3703 99.3787 49.1579C80.0368 47.9972 56.6454 45.1783 40.3412 42.5062C24.0371 39.8342 13.2976 34.2967 10.9808 30.9091C9.3995 28.5764 9.35306 25.8832 9.47778 24.4495" stroke="black" stroke-width="2" stroke-linecap="round" stroke-linejoin="round"/>
<path d="M118.696 52.2208C116.539 52.7936 115.234 52.664 113.907 52.7975" stroke="black" stroke-width="2" stroke-linecap="round" stroke-linejoin="round"/>
<path d="M116.305 55.1364C114.427 55.4761 113.359 55.6353 112.058 55.5061" stroke="black" stroke-width="2" stroke-linecap="round" stroke-linejoin="round"/>
<path d="M113.126 57.9825C111.982 58.201 110.826 58.349 109.664 58.4257" stroke="black" stroke-width="2" stroke-linecap="round" stroke-linejoin="round"/>
<path d="M102.025 53.6866C99.8468 54.0274 98.5313 53.6933 97.1985 53.7997" stroke="black" stroke-width="2" stroke-linecap="round" stroke-linejoin="round"/>
<path d="M99.6221 56.5966C97.7197 56.7393 96.6408 56.7825 95.363 56.514" stroke="black" stroke-width="2" stroke-linecap="round" stroke-linejoin="round"/>
<path d="M96.9336 59.5269C95.5658 59.674 94.8161 59.5199 93.4815 59.4669" stroke="black" stroke-width="2" stroke-linecap="round" stroke-linejoin="round"/>
<path d="M22.803 45.5872C24.5728 46.2893 25.5893 46.6512 26.8943 46.7808" stroke="black" stroke-width="2" stroke-linecap="round" stroke-linejoin="round"/>
<path d="M25.0468 49.4893C26.1262 49.9272 27.2304 50.3012 28.3538 50.6094" stroke="black" stroke-width="2" stroke-linecap="round" stroke-linejoin="round"/>
<path d="M35.5263 46.8201C37.5953 47.5828 38.9513 47.5096 40.2371 47.8762" stroke="black" stroke-width="2" stroke-linecap="round" stroke-linejoin="round"/>
<path d="M37.5478 50.4302C39.3806 50.9439 40.4299 51.1985 41.7399 51.1871" stroke="black" stroke-width="2" stroke-linecap="round" stroke-linejoin="round"/>
<path d="M40.1006 54.1422C41.4127 54.5556 42.1776 54.5564 43.4927 54.7622" stroke="black" stroke-width="2" stroke-linecap="round" stroke-linejoin="round"/>
<path d="M86.8301 53.3444C84.9729 53.4094 83.1139 53.2854 81.2817 52.9745" stroke="black" stroke-width="2" stroke-linecap="round" stroke-linejoin="round"/>
<path d="M84.9385 56.2216C83.3514 56.3097 81.7596 56.2021 80.1989 55.9011" stroke="black" stroke-width="2" stroke-linecap="round" stroke-linejoin="round"/>
<path d="M83.2619 59.4819C81.8888 59.5047 80.6394 59.1727 79.3042 58.9915" stroke="black" stroke-width="2" stroke-linecap="round" stroke-linejoin="round"/>
<path d="M52.713 49.3278C54.3282 49.7239 55.9753 49.9763 57.635 50.0821" stroke="black" stroke-width="2" stroke-linecap="round" stroke-linejoin="round"/>
<path d="M52.9401 52.5254C54.7873 52.983 56.0171 53.3794 57.3263 53.3768" stroke="black" stroke-width="2" stroke-linecap="round" stroke-linejoin="round"/>
<path d="M53.5761 56.5331C54.6758 56.8313 55.8 57.0303 56.9353 57.1277" stroke="black" stroke-width="2" stroke-linecap="round" stroke-linejoin="round"/>
<path d="M71.4131 52.3392C69.9426 52.444 68.4648 52.3582 67.0164 52.0837" stroke="black" stroke-width="2" stroke-linecap="round" stroke-linejoin="round"/>
<path d="M70.9092 55.0886C69.6597 55.2112 68.3988 55.1382 67.1719 54.8721" stroke="black" stroke-width="2" stroke-linecap="round" stroke-linejoin="round"/>
<path d="M69.9025 58.6809C68.8141 58.7319 67.8274 58.4261 66.7856 58.274" stroke="black" stroke-width="2" stroke-linecap="round" stroke-linejoin="round"/>
<path d="M23.4293 42.7485C21.2673 42.2552 20.1577 41.5391 18.9208 41.0359" stroke="black" stroke-width="2" stroke-linecap="round" stroke-linejoin="round"/>
</svg>
