<svg width="262" height="17" viewBox="0 0 262 17" fill="none" xmlns="http://www.w3.org/2000/svg">
<g clip-path="url(#clip0_87_102)">
<path d="M4.69985 16.5887V3.29035H0V0.411316H12.6433V3.29035H7.94341V16.5202H4.69985V16.5887Z" fill="black"/>
<path d="M27.3384 16.5887V9.87099H20.3217V16.5887H17.0781V0.411316H20.3217V6.92341H27.3384V0.411316H30.5819V16.5887H27.3384Z" fill="black"/>
<path d="M46.2698 16.5887H35.9434V0.411316H46.2698V3.29035H39.1869V7.06051H45.8726V9.7339H39.1869V13.6412H46.2698V16.5887Z" fill="black"/>
<path d="M68.7097 16.5887H58.5156V0.411316H61.7592V13.6412H68.7097V16.5887Z" fill="black"/>
<path d="M80.0306 0C81.1559 0 82.2151 0.205645 83.1418 0.616935C84.0685 1.02823 84.8629 1.57661 85.5248 2.33065C86.1868 3.08468 86.6501 3.97581 87.0473 5.00403C87.3783 6.03226 87.5769 7.19758 87.5769 8.5C87.5769 9.80242 87.3783 10.9677 87.0473 12.0645C86.7163 13.0927 86.1868 13.9839 85.5248 14.7379C84.8629 15.4919 84.0685 16.0403 83.1418 16.4516C82.2151 16.8629 81.1559 17.0685 80.0306 17.0685C78.8391 17.0685 77.8462 16.8629 76.9194 16.4516C75.9927 16.0403 75.1984 15.4919 74.5364 14.7379C73.8745 13.9839 73.4111 13.0927 73.0139 12.0645C72.683 11.0363 72.4844 9.80242 72.4844 8.5C72.4844 7.19758 72.683 6.03226 73.0139 5.00403C73.3449 3.97581 73.8745 3.08468 74.5364 2.33065C75.1984 1.57661 75.9927 1.02823 76.9194 0.616935C77.8462 0.205645 78.9053 0 80.0306 0ZM80.0306 2.94758C79.3687 2.94758 78.8391 3.08468 78.3096 3.35887C77.78 3.63306 77.3828 3.97581 76.9856 4.45565C76.6547 4.93548 76.3237 5.48387 76.1251 6.16935C75.9265 6.85484 75.8603 7.60887 75.8603 8.43145C75.8603 9.25403 75.9265 10.0081 76.1251 10.6935C76.3237 11.379 76.5885 11.9274 76.9856 12.4073C77.3166 12.8871 77.78 13.2298 78.3096 13.504C78.8391 13.7782 79.4349 13.9153 80.0306 13.9153C80.6926 13.9153 81.2221 13.7782 81.7517 13.504C82.2813 13.2298 82.6784 12.8871 83.0756 12.4073C83.4066 11.9274 83.7376 11.379 83.9361 10.6935C84.1347 10.0081 84.2009 9.25403 84.2009 8.43145C84.2009 7.60887 84.0685 6.85484 83.8699 6.16935C83.6714 5.48387 83.4066 4.93548 83.0094 4.45565C82.6784 3.97581 82.2151 3.63306 81.6855 3.35887C81.2221 3.08468 80.6926 2.94758 80.0306 2.94758Z" fill="black"/>
<path d="M98.7637 17C97.6384 17 96.6454 16.7944 95.7187 16.3831C94.792 15.9718 94.0638 15.4234 93.4019 14.6694C92.7399 13.9153 92.2765 13.0242 91.9456 11.996C91.6146 10.9678 91.416 9.73388 91.416 8.43146C91.416 7.12904 91.6146 5.96372 91.9456 4.86695C92.2765 3.83872 92.7399 2.94759 93.4019 2.19356C94.0638 1.43953 94.792 0.891141 95.7187 0.479851C96.6454 0.0685602 97.6384 -0.137085 98.7637 -0.137085C99.6904 -0.137085 100.551 1.18017e-05 101.345 0.342754C102.14 0.616947 102.868 1.09679 103.464 1.57662C104.059 2.12501 104.523 2.74195 104.92 3.49598C105.317 4.25001 105.516 5.07259 105.582 5.89517H102.404C102.338 5.41533 102.206 5.00404 101.941 4.6613C101.742 4.25001 101.478 3.97582 101.147 3.70162C100.816 3.42743 100.485 3.22179 100.088 3.08469C99.6904 2.94759 99.227 2.87904 98.7637 2.87904C98.1679 2.87904 97.5722 3.01614 97.1088 3.29033C96.6454 3.56453 96.1821 3.90727 95.8511 4.38711C95.5201 4.86695 95.2553 5.41533 95.0568 6.10082C94.8582 6.7863 94.792 7.54033 94.792 8.36292C94.792 9.1855 94.8582 10.0081 95.0568 10.6936C95.2553 11.379 95.5201 11.9274 95.8511 12.4073C96.1821 12.8871 96.6454 13.2299 97.1088 13.504C97.5722 13.7782 98.1679 13.9153 98.7637 13.9153C99.227 13.9153 99.6904 13.8468 100.088 13.7097C100.485 13.5726 100.816 13.3669 101.147 13.0928C101.478 12.8186 101.742 12.5444 101.941 12.2016C102.14 11.8589 102.272 11.4476 102.404 10.9678H105.582C105.516 11.8589 105.317 12.6129 104.92 13.3669C104.589 14.121 104.059 14.7379 103.464 15.2178C102.868 15.7661 102.14 16.1089 101.345 16.4516C100.551 16.8629 99.6904 17 98.7637 17Z" fill="black"/>
<path d="M118.953 12.6814H113.459L112.267 16.5201H109.023L114.451 0.342712H118.291L123.719 16.5201H120.21L118.953 12.6814ZM114.187 10.0766H118.291L116.371 3.77013H116.173L114.187 10.0766Z" fill="black"/>
<path d="M138.083 16.5887H127.889V0.411316H131.132V13.6412H138.083V16.5887Z" fill="black"/>
<path d="M156.352 0.411316C157.147 0.411316 157.875 0.548413 158.537 0.822606C159.199 1.0968 159.795 1.43954 160.258 1.91938C160.721 2.39922 161.118 3.01615 161.383 3.70164C161.648 4.38712 161.78 5.14115 161.78 5.96374C161.78 6.78632 161.648 7.54035 161.383 8.22583C161.118 8.91132 160.721 9.4597 160.258 10.0081C159.795 10.4879 159.199 10.8992 158.471 11.1049C157.809 11.3791 157.014 11.5162 156.22 11.5162H153.109V16.5202H149.865V0.411316H156.352ZM153.109 8.77422H155.492C156.419 8.77422 157.147 8.56857 157.676 8.08874C158.206 7.6089 158.471 6.92341 158.471 6.03228C158.471 5.14115 158.206 4.38712 157.676 3.90728C157.147 3.42744 156.419 3.2218 155.492 3.2218H153.109V8.77422Z" fill="black"/>
<path d="M169.525 16.5887H166.281V0.411316H172.835C173.695 0.411316 174.489 0.548413 175.151 0.754058C175.813 0.959703 176.409 1.30244 176.872 1.78228C177.336 2.26212 177.733 2.74196 177.998 3.42744C178.263 4.04438 178.395 4.79841 178.395 5.62099C178.395 6.16938 178.329 6.64922 178.196 7.12906C178.064 7.6089 177.865 8.02019 177.667 8.43148C177.402 8.84277 177.137 9.18551 176.806 9.4597C176.475 9.7339 176.078 10.0081 175.615 10.2137L178.924 16.5887H175.218L172.305 10.7621H169.657V16.5887H169.525ZM169.525 8.08873H172.371C173.232 8.08873 173.827 7.88309 174.291 7.4718C174.754 7.06051 174.953 6.44357 174.953 5.62099C174.953 5.2097 174.887 4.86696 174.754 4.59277C174.622 4.25003 174.489 4.04438 174.225 3.77019C174.026 3.56454 173.695 3.3589 173.364 3.29035C173.033 3.15325 172.702 3.0847 172.239 3.0847H169.392V8.08873H169.525Z" fill="black"/>
<path d="M189.98 0C191.105 0 192.164 0.205645 193.091 0.616935C194.018 1.02823 194.812 1.57661 195.474 2.33065C196.136 3.08468 196.599 3.97581 196.996 5.00403C197.327 6.03226 197.526 7.19758 197.526 8.5C197.526 9.80242 197.327 10.9677 196.996 12.0645C196.666 13.0927 196.136 13.9839 195.474 14.7379C194.812 15.4919 194.018 16.0403 193.091 16.4516C192.164 16.8629 191.105 17.0685 189.98 17.0685C188.788 17.0685 187.795 16.8629 186.869 16.4516C185.942 16.0403 185.148 15.4919 184.486 14.7379C183.824 13.9839 183.36 13.0927 182.963 12.0645C182.632 11.0363 182.434 9.80242 182.434 8.5C182.434 7.19758 182.632 6.03226 182.963 5.00403C183.294 3.97581 183.824 3.08468 184.486 2.33065C185.148 1.57661 185.942 1.02823 186.869 0.616935C187.795 0.205645 188.855 0 189.98 0ZM189.98 2.94758C189.318 2.94758 188.788 3.08468 188.259 3.35887C187.729 3.63306 187.332 3.97581 186.935 4.45565C186.604 4.93548 186.273 5.48387 186.074 6.16935C185.876 6.85484 185.81 7.60887 185.81 8.43145C185.81 9.25403 185.876 10.0081 186.074 10.6935C186.273 11.379 186.538 11.9274 186.935 12.4073C187.266 12.8871 187.729 13.2298 188.259 13.504C188.788 13.7782 189.384 13.9153 189.98 13.9153C190.642 13.9153 191.171 13.7782 191.701 13.504C192.23 13.2298 192.628 12.8871 193.025 12.4073C193.356 11.9274 193.687 11.379 193.885 10.6935C194.084 10.0081 194.15 9.25403 194.15 8.43145C194.15 7.60887 194.084 6.85484 193.885 6.16935C193.687 5.48387 193.422 4.93548 193.025 4.45565C192.694 3.97581 192.23 3.63306 191.701 3.35887C191.238 3.08468 190.642 2.94758 189.98 2.94758Z" fill="black"/>
<path d="M204.213 11.7903C204.213 12.4758 204.411 12.9557 204.808 13.367C205.205 13.7783 205.669 13.9153 206.331 13.9153C206.993 13.9153 207.522 13.7097 207.853 13.2984C208.184 12.8871 208.383 12.2702 208.383 11.5162V0.411316H211.626V11.5162C211.626 12.4073 211.494 13.1613 211.295 13.8468C211.031 14.5323 210.7 15.0807 210.236 15.5605C209.773 16.0403 209.243 16.3831 208.581 16.5887C207.919 16.7944 207.191 16.9315 206.331 16.9315C205.536 16.9315 204.808 16.7944 204.146 16.5887C203.484 16.3831 202.955 16.0403 202.491 15.5605C202.028 15.0807 201.697 14.6008 201.432 13.9153C201.168 13.2984 201.035 12.5444 201.035 11.7903H204.213Z" fill="black"/>
<path d="M227.315 16.5887H216.988V0.411316H227.315V3.29035H220.232V7.06051H226.917V9.7339H220.232V13.6412H227.315V16.5887Z" fill="black"/>
<path d="M238.898 17C237.773 17 236.78 16.7944 235.853 16.3831C234.927 15.9718 234.199 15.4234 233.537 14.6694C232.875 13.9153 232.411 13.0242 232.08 11.996C231.749 10.9678 231.551 9.73388 231.551 8.43146C231.551 7.12904 231.749 5.96372 232.08 4.86695C232.411 3.83872 232.875 2.94759 233.537 2.19356C234.199 1.43953 234.927 0.891141 235.853 0.479851C236.78 0.0685602 237.773 -0.137085 238.898 -0.137085C239.825 -0.137085 240.686 1.18017e-05 241.48 0.342754C242.274 0.616947 243.003 1.09679 243.598 1.57662C244.194 2.12501 244.657 2.74195 245.055 3.49598C245.452 4.25001 245.65 5.07259 245.717 5.89517H242.539C242.473 5.41533 242.341 5.00404 242.076 4.6613C241.877 4.25001 241.612 3.97582 241.281 3.70162C240.95 3.42743 240.62 3.22179 240.222 3.08469C239.825 2.94759 239.362 2.87904 238.898 2.87904C238.303 2.87904 237.707 3.01614 237.244 3.29033C236.78 3.56453 236.317 3.90727 235.986 4.38711C235.655 4.9355 235.39 5.48388 235.192 6.16937C234.993 6.85485 234.927 7.60888 234.927 8.43146C234.927 9.25404 234.993 10.0766 235.192 10.7621C235.39 11.4476 235.655 11.996 235.986 12.4758C236.317 12.9557 236.78 13.2984 237.244 13.5726C237.707 13.8468 238.303 13.9839 238.898 13.9839C239.362 13.9839 239.825 13.9153 240.222 13.7782C240.62 13.6411 240.95 13.4355 241.281 13.1613C241.612 12.8871 241.877 12.6129 242.076 12.2702C242.274 11.9274 242.407 11.5161 242.539 11.0363H245.717C245.65 11.9274 245.452 12.6815 245.055 13.4355C244.724 14.1895 244.194 14.8065 243.598 15.2863C243.003 15.8347 242.274 16.1774 241.48 16.5202C240.752 16.8629 239.825 17 238.898 17Z" fill="black"/>
<path d="M254.057 16.5887V3.29035H249.357V0.411316H262.001V3.29035H257.301V16.5202H254.057V16.5887Z" fill="black"/>
</g>
<defs>
<clipPath id="clip0_87_102">
<rect width="262" height="17" fill="white"/>
</clipPath>
</defs>
</svg>
