<svg width="282" height="74" viewBox="0 0 282 74" fill="none" xmlns="http://www.w3.org/2000/svg">
<line x1="1" y1="-1" x2="281" y2="-1" transform="matrix(-1 0 0 1 282 10)" stroke="black" stroke-width="2" stroke-linecap="round"/>
<line x1="1" y1="-1" x2="281" y2="-1" transform="matrix(1 7.44024e-08 1.02722e-07 -1 0 64)" stroke="black" stroke-width="2" stroke-linecap="round"/>
<line x1="1" y1="-1" x2="229" y2="-1" transform="matrix(-1 0 0 1 256 6)" stroke="black" stroke-width="2" stroke-linecap="round"/>
<line x1="1" y1="-1" x2="229" y2="-1" transform="matrix(1 7.44024e-08 1.02722e-07 -1 26 68)" stroke="black" stroke-width="2" stroke-linecap="round"/>
<line x1="1" y1="-1" x2="187" y2="-1" transform="matrix(-1 0 0 1 235 2)" stroke="black" stroke-width="2" stroke-linecap="round"/>
<line x1="1" y1="-1" x2="187" y2="-1" transform="matrix(1 7.44024e-08 1.02722e-07 -1 47 72)" stroke="black" stroke-width="2" stroke-linecap="round"/>
<path d="M74.5182 22.182C73.5062 22.182 72.4942 22.226 71.5042 22.358C70.5802 22.468 68.7102 22.644 68.7102 23.942C68.7102 24.624 68.7542 25.262 68.7762 25.922L68.9302 29.464C69.0182 31.532 69.0842 33.556 69.1502 35.624C69.1722 36.592 69.1942 37.56 69.2382 38.55C69.2822 39.188 69.4582 39.694 70.1842 39.694C70.7562 39.694 71.2842 39.188 71.2842 38.594C71.2842 37.362 71.2182 36.108 71.1742 34.854C71.1522 34.04 71.1082 33.226 71.0862 32.412C71.3722 32.412 71.6582 32.412 71.9442 32.412L75.5302 32.39C76.1242 32.39 76.7402 32.39 77.3342 32.39C77.6862 32.39 78.5442 32.412 78.8522 32.302C79.2702 32.148 79.6002 31.752 79.6002 31.268C79.6002 30.718 79.1822 30.366 78.6762 30.366C78.0822 30.366 77.4662 30.366 76.8722 30.366L73.2862 30.388C72.6922 30.388 72.0762 30.388 71.4822 30.388C71.3722 30.388 71.1962 30.388 70.9982 30.388C70.9102 28.408 70.8222 26.428 70.7562 24.448C71.9222 24.228 73.1322 24.184 74.3202 24.184C75.1562 24.184 76.0142 24.184 76.8502 24.228C77.3342 24.25 77.8402 24.316 78.3242 24.316C78.8962 24.316 79.4242 23.81 79.4242 23.216C79.4242 22.842 79.2482 22.6 78.9622 22.424C78.5882 22.182 75.2002 22.182 74.5182 22.182ZM80.9726 31.378C80.9726 36.35 82.4246 39.782 87.7266 39.782C92.6546 39.782 94.0186 34.678 94.0186 30.454C94.0186 29.464 93.9966 28.496 93.7986 27.55C93.1386 24.382 90.8286 21.918 87.6166 21.918C82.2046 21.918 80.9726 26.67 80.9726 31.378ZM82.9966 31.202C82.9966 29.156 83.2166 25.922 84.9546 24.646C85.6806 24.096 86.5386 23.92 87.4186 23.92C89.7506 23.92 91.3566 25.9 91.8186 28.144C91.9946 28.958 91.9726 29.816 91.9726 30.652C91.9726 32.676 91.5766 36.02 89.8386 37.23C89.2666 37.604 88.5846 37.78 87.9026 37.78C83.6786 37.78 82.9966 34.964 82.9966 31.202ZM102.804 39.738C105.598 39.738 107.688 38.154 108.348 35.294C108.656 33.974 108.656 32.566 108.7 31.224C108.766 29.244 108.81 27.22 108.81 25.24V23.436C108.81 22.732 108.7 22.094 107.864 22.094C107.072 22.094 106.742 22.732 106.742 23.48C106.742 23.634 106.742 23.766 106.742 23.92L106.764 24.822C106.764 26.978 106.742 29.156 106.676 31.312C106.632 32.368 106.61 33.446 106.456 34.502C106.39 34.92 106.302 35.338 106.148 35.734C105.576 37.186 104.454 37.714 103.002 37.714C99.482 37.714 99.284 32.94 99.042 30.278C98.888 28.452 98.778 26.648 98.646 24.822C98.624 24.404 98.536 22.754 98.426 22.512C98.272 22.16 97.942 21.962 97.568 21.962C96.996 21.962 96.468 22.468 96.468 23.062C96.468 23.722 96.556 24.404 96.6 25.064C96.622 25.372 96.644 25.68 96.666 25.988L96.776 27.814C96.798 28.122 96.82 28.43 96.842 28.738C96.908 29.772 96.996 30.806 97.106 31.84C97.194 32.786 97.304 33.71 97.524 34.634C98.206 37.494 99.724 39.738 102.804 39.738ZM113.642 38.704C113.642 34.678 113.598 30.63 113.51 26.604C115.314 29.596 117.184 32.566 119.098 35.514C119.648 36.35 120.22 37.164 120.77 38.022C121.1 38.528 121.386 39.078 121.804 39.518C122.046 39.76 122.354 39.914 122.706 39.914C123.212 39.914 123.696 39.562 123.894 39.1C124.026 38.814 124.07 38.506 124.092 38.176C124.224 36.988 124.202 35.8 124.202 34.612C124.224 31.202 124.202 27.814 124.202 24.404C124.202 23.92 124.224 23.436 124.224 22.974C124.224 22.226 124.224 21.412 123.278 21.412C122.816 21.412 122.442 21.698 122.244 22.116C122.134 22.358 122.156 22.842 122.156 23.128C122.156 25.746 122.178 28.408 122.178 31.048C122.178 32.786 122.156 34.546 122.134 36.284C120.154 33.292 118.196 30.212 116.304 27.154C115.754 26.252 115.226 25.372 114.698 24.448C114.434 23.986 114.192 23.458 113.84 23.04C113.576 22.71 113.268 22.49 112.85 22.49C111.574 22.49 111.442 24.008 111.442 24.998C111.442 26.362 111.486 27.726 111.508 29.068C111.53 30.278 111.53 38.858 111.662 39.188C111.816 39.584 112.124 39.804 112.542 39.804C113.114 39.804 113.642 39.298 113.642 38.704ZM130.167 39.628C132.081 39.628 134.919 39.584 136.393 38.132C136.943 37.582 137.295 36.9 137.581 36.174C138.065 34.964 138.307 33.644 138.307 32.346C138.307 29.816 137.669 26.142 136.041 24.184C135.469 23.48 134.699 22.952 133.863 22.644C132.697 22.226 130.475 22.138 129.199 22.138C128.759 22.138 128.297 22.116 127.879 22.226C127.131 22.446 126.691 23.106 126.691 23.898C126.691 24.91 126.757 25.922 126.801 26.912C126.889 28.936 127.021 30.96 127.153 32.962L127.395 36.878C127.439 37.516 127.417 38.198 127.505 38.836C127.527 38.99 127.571 39.122 127.659 39.232C127.989 39.672 128.341 39.628 128.803 39.628H130.167ZM129.485 37.626C129.221 33.138 128.913 28.65 128.737 24.14C128.825 24.14 128.935 24.14 129.023 24.14C129.969 24.14 132.323 24.228 133.115 24.558C133.533 24.756 133.907 24.998 134.237 25.328C135.711 26.802 136.283 30.454 136.283 32.522C136.283 33.468 136.129 34.37 135.821 35.272C135.667 35.756 135.381 36.46 135.029 36.812C134.193 37.648 131.443 37.626 130.321 37.626C130.035 37.626 129.771 37.626 129.485 37.626ZM157.286 39.43C157.858 39.43 158.386 38.946 158.386 38.352C158.386 37.164 156.934 37.428 156.208 37.428C154.558 37.428 152.908 37.384 151.258 37.34C150.444 37.318 149.586 37.34 148.794 37.142C148.574 36.328 148.662 35.338 148.64 34.502C148.64 34.172 148.618 33.864 148.618 33.534L148.552 31.598C148.552 31.268 148.53 30.938 148.53 30.63C148.486 28.21 148.53 25.812 148.53 23.37C148.53 22.666 148.398 22.072 147.584 22.072C146.858 22.072 146.462 22.688 146.462 23.392C146.462 23.81 146.462 24.228 146.462 24.646L146.484 27.154C146.484 29.684 146.528 32.236 146.616 34.766C146.638 35.668 146.572 37.604 147.012 38.308C147.254 38.704 147.562 38.924 148.002 39.078C148.794 39.32 150.356 39.298 151.236 39.32C153.238 39.386 155.262 39.43 157.286 39.43ZM159.756 31.378C159.756 36.35 161.208 39.782 166.51 39.782C171.438 39.782 172.802 34.678 172.802 30.454C172.802 29.464 172.78 28.496 172.582 27.55C171.922 24.382 169.612 21.918 166.4 21.918C160.988 21.918 159.756 26.67 159.756 31.378ZM161.78 31.202C161.78 29.156 162 25.922 163.738 24.646C164.464 24.096 165.322 23.92 166.202 23.92C168.534 23.92 170.14 25.9 170.602 28.144C170.778 28.958 170.756 29.816 170.756 30.652C170.756 32.676 170.36 36.02 168.622 37.23C168.05 37.604 167.368 37.78 166.686 37.78C162.462 37.78 161.78 34.964 161.78 31.202ZM181.037 21.918C176.593 21.918 175.031 27.396 175.031 31.18C175.031 33.358 175.427 36.196 176.945 37.802C177.429 38.308 178.221 38.77 178.859 39.056C179.849 39.474 180.971 39.716 182.049 39.716C184.227 39.716 186.141 39.166 186.933 36.834C187.065 36.416 187.219 35.866 187.219 35.426C187.219 34.876 186.801 34.524 186.295 34.524C186.097 34.524 185.899 34.59 185.723 34.7C184.403 35.58 186.185 37.692 182.247 37.692C181.015 37.692 179.167 37.208 178.353 36.196C177.363 34.964 177.055 32.544 177.055 31.004C177.055 28.606 177.869 23.92 180.861 23.92C182.687 23.92 184.293 24.8 184.887 26.67C185.107 27.374 185.041 28.276 186.009 28.276C186.581 28.276 187.109 27.77 187.109 27.176C187.109 26.736 186.889 26.054 186.735 25.636C185.789 23.128 183.567 21.918 181.037 21.918ZM191.977 33.402C192.945 33.38 193.891 33.292 194.859 33.248C195.739 33.204 196.663 33.226 197.565 33.138C197.983 34.326 198.401 35.492 198.819 36.68C199.017 37.23 199.897 39.826 200.139 40.134C200.337 40.376 200.579 40.508 200.909 40.508C201.481 40.508 202.009 40.002 202.009 39.408C202.009 39.32 201.987 39.21 201.965 39.122C201.789 38.55 201.525 38 201.305 37.428C200.865 36.262 200.469 35.096 200.051 33.93C199.017 31.004 198.093 28.056 196.949 25.174C196.641 24.426 196.311 23.656 195.871 22.974C195.497 22.38 194.969 21.808 194.221 21.808C193.583 21.808 193.055 22.226 192.747 22.776C192.571 23.106 192.439 23.458 192.329 23.832C191.977 25.02 191.735 26.23 191.449 27.418C190.657 30.586 189.887 33.754 189.007 36.9C188.897 37.34 188.479 38.638 188.479 38.99C188.479 39.54 188.897 39.892 189.403 39.892C189.821 39.892 190.151 39.65 190.371 39.298C190.547 39.034 191.009 37.098 191.141 36.614C191.427 35.536 191.691 34.48 191.977 33.402ZM194.243 24.338C195.079 25.746 195.563 27.396 196.113 28.958C196.377 29.684 196.619 30.41 196.883 31.136C196.135 31.18 195.365 31.246 194.617 31.268C193.935 31.29 193.209 31.312 192.505 31.334C192.791 30.168 193.099 29.002 193.385 27.836C193.671 26.67 193.935 25.504 194.243 24.338ZM214.284 39.43C214.856 39.43 215.384 38.946 215.384 38.352C215.384 37.164 213.932 37.428 213.206 37.428C211.556 37.428 209.906 37.384 208.256 37.34C207.442 37.318 206.584 37.34 205.792 37.142C205.572 36.328 205.66 35.338 205.638 34.502C205.638 34.172 205.616 33.864 205.616 33.534L205.55 31.598C205.55 31.268 205.528 30.938 205.528 30.63C205.484 28.21 205.528 25.812 205.528 23.37C205.528 22.666 205.396 22.072 204.582 22.072C203.856 22.072 203.46 22.688 203.46 23.392C203.46 23.81 203.46 24.228 203.46 24.646L203.482 27.154C203.482 29.684 203.526 32.236 203.614 34.766C203.636 35.668 203.57 37.604 204.01 38.308C204.252 38.704 204.56 38.924 205 39.078C205.792 39.32 207.354 39.298 208.234 39.32C210.236 39.386 212.26 39.43 214.284 39.43Z" fill="black"/>
<path d="M117.399 59.246V55.704C117.399 54.78 117.385 53.842 117.371 52.918C117.623 52.904 117.889 52.904 118.141 52.89L118.771 52.862C119.121 52.848 119.429 52.862 119.639 52.54C119.709 52.428 119.751 52.316 119.751 52.19C119.751 51.854 119.485 51.63 119.163 51.63C118.715 51.63 118.281 51.658 117.833 51.672L117.343 51.7C117.315 50.72 117.273 49.726 117.203 48.746C117.189 48.536 117.189 48.102 117.105 47.934C117.007 47.724 116.797 47.612 116.559 47.612C116.209 47.612 115.859 47.906 115.859 48.27C115.859 48.648 115.915 49.012 115.943 49.376C115.999 50.188 116.027 51 116.055 51.812C116.139 54.192 116.097 56.586 116.111 58.966C116.111 59.134 116.083 59.302 116.111 59.456C116.167 59.736 116.419 59.904 116.699 59.904C117.049 59.904 117.399 59.61 117.399 59.246ZM114.193 48.578C114.193 48.242 113.927 48.018 113.605 48.018C113.325 48.018 113.045 48.06 112.765 48.074C112.625 48.074 112.499 48.088 112.359 48.088L111.533 48.13C111.393 48.13 111.267 48.13 111.127 48.144L108.887 48.228C108.551 48.242 108.215 48.228 107.879 48.27C107.823 48.27 107.753 48.284 107.683 48.312C107.431 48.41 107.235 48.648 107.235 48.928C107.235 49.264 107.501 49.488 107.823 49.488C108.033 49.488 108.257 49.488 108.467 49.474C108.481 50.384 108.523 51.294 108.551 52.204C108.579 52.792 108.593 54.836 108.691 55.914H108.481C108.341 55.914 108.187 55.914 108.047 55.914C107.697 55.914 107.347 56.222 107.347 56.586C107.347 57.104 107.809 57.146 108.215 57.146C108.691 57.146 109.167 57.16 109.629 57.16C109.867 57.16 110.105 57.16 110.343 57.16L111.785 57.118C112.023 57.118 112.261 57.118 112.499 57.118C112.639 57.118 112.765 57.118 112.905 57.118L113.717 57.146C113.857 57.146 113.983 57.146 114.123 57.146C114.473 57.146 114.823 56.838 114.823 56.474C114.823 55.942 114.347 55.914 113.941 55.914C113.829 55.914 113.731 55.914 113.619 55.914L112.989 55.9C112.989 55.676 112.989 55.48 112.989 55.27C112.989 54.766 112.989 54.262 112.989 53.758L112.947 50.748C112.947 50.258 112.947 49.768 112.947 49.278C113.353 49.25 113.661 49.222 113.745 49.194C113.997 49.096 114.193 48.858 114.193 48.578ZM111.687 55.914C111.127 55.928 110.567 55.928 110.021 55.928C109.965 55.55 109.923 55.158 109.923 54.78C109.895 54.248 109.825 50.818 109.769 49.404C110.161 49.39 110.917 49.376 111.645 49.348C111.645 51.35 111.701 53.38 111.701 55.382C111.701 55.466 111.701 55.564 111.701 55.648L111.687 55.914ZM125.949 47.262C124.521 47.262 122.771 47.766 122.225 49.25C122.127 49.544 122.057 49.852 122.057 50.16C122.057 50.496 122.239 50.902 122.435 51.182C123.359 52.498 125.011 52.652 126.481 52.652C128.273 52.652 130.471 52.092 130.471 49.894C130.471 49.572 130.373 49.25 130.233 48.956C130.093 48.648 129.869 48.354 129.603 48.13C128.721 47.43 127.055 47.262 125.949 47.262ZM125.823 48.494C126.607 48.494 128.105 48.606 128.721 49.11C128.861 49.222 128.973 49.39 129.057 49.558C129.113 49.712 129.169 49.866 129.169 50.034C129.169 50.314 129.099 50.622 128.889 50.846C128.455 51.294 127.209 51.42 126.593 51.42C125.585 51.42 124.213 51.378 123.555 50.468C123.485 50.37 123.345 50.132 123.345 50.02C123.345 49.754 123.471 49.39 123.639 49.194C123.737 49.068 123.863 48.998 124.003 48.914C124.605 48.578 125.137 48.494 125.823 48.494ZM126.033 56.978C126.033 57.314 126.299 57.538 126.621 57.538C126.943 57.538 127.265 57.286 127.321 56.964C127.349 56.81 127.335 56.642 127.335 56.488C127.349 55.97 127.349 55.396 127.349 54.878C127.405 54.878 127.475 54.878 127.531 54.878L130.177 54.906C130.611 54.906 131.059 54.906 131.493 54.906C131.857 54.906 132.193 54.598 132.193 54.234C132.193 53.982 132.053 53.814 131.829 53.716C131.661 53.646 128.903 53.646 128.553 53.646C128.077 53.646 127.601 53.646 127.111 53.646L124.213 53.66C123.737 53.66 123.247 53.66 122.757 53.66C122.155 53.66 121.539 53.618 120.937 53.66C120.867 53.66 120.797 53.674 120.741 53.702C120.475 53.8 120.265 54.038 120.265 54.332C120.265 54.962 120.951 54.892 121.371 54.892C121.777 54.892 122.169 54.892 122.575 54.892L125.011 54.878C125.361 54.878 125.697 54.878 126.047 54.878C126.033 55.564 126.033 56.292 126.033 56.978ZM122.351 57.944C122.351 58.238 122.351 58.532 122.421 58.826C122.645 59.722 123.443 60.016 124.339 60.016C126.173 60.016 128.021 59.946 129.855 59.946C130.023 59.946 130.191 59.946 130.345 59.89C130.597 59.792 130.793 59.554 130.793 59.274C130.793 58.938 130.527 58.714 130.205 58.714C128.287 58.714 126.369 58.798 124.451 58.798C124.297 58.798 124.101 58.798 123.961 58.742C123.849 58.686 123.751 58.602 123.709 58.49C123.597 58.224 123.653 57.104 123.653 56.712C123.653 56.264 123.611 55.83 123.051 55.83C122.617 55.83 122.337 56.18 122.337 56.586L122.351 57.944ZM142.83 47.99C142.578 47.99 142.312 47.99 142.06 47.99L140.52 48.018H138.644L136.46 47.99C136.096 47.99 135.718 47.99 135.354 47.99C134.794 47.99 134.626 48.48 134.626 48.956C134.626 50.258 134.654 52.764 135.046 53.926C135.144 54.22 135.298 54.5 135.536 54.682C135.928 54.99 136.446 55.018 136.922 55.018C138.168 55.018 139.4 54.976 140.646 54.948L141.92 54.934C142.116 54.92 142.326 54.934 142.536 54.906C142.592 54.906 142.662 54.892 142.732 54.864C142.984 54.766 143.18 54.528 143.18 54.248C143.18 53.912 142.914 53.688 142.592 53.688C140.744 53.688 138.91 53.786 137.062 53.786C136.922 53.786 136.544 53.8 136.432 53.716C135.998 53.394 135.942 49.922 135.928 49.222C136.796 49.236 137.65 49.236 138.518 49.236C139.848 49.236 141.178 49.222 142.522 49.222C142.942 49.222 143.418 49.054 143.418 48.55C143.418 48.214 143.152 47.99 142.83 47.99ZM144.51 59.442C144.86 59.442 145.21 59.134 145.21 58.77C145.21 58.504 145.07 58.35 144.846 58.252C144.608 58.154 139.4 58.154 138.672 58.154C137.062 58.154 135.452 58.028 133.842 58.028C133.492 58.028 133.142 58.336 133.142 58.7C133.142 59.008 133.38 59.232 133.674 59.26C134.262 59.302 134.864 59.288 135.466 59.302C136.81 59.344 138.154 59.372 139.498 59.372C141.164 59.372 142.844 59.442 144.51 59.442ZM158.42 49.166C158.56 49.39 158.616 50.734 158.63 51.084C158.574 51.084 158.518 51.084 158.448 51.084C156.362 51.084 154.276 51.042 152.176 51.042C152.05 51.042 151.924 51.084 151.812 51.154C151.49 51.35 151.476 51.602 151.448 51.952C151.434 52.148 151.434 52.344 151.434 52.526C151.434 52.988 151.448 53.45 151.476 53.912C151.49 54.136 151.49 54.346 151.546 54.556C151.728 55.326 152.442 55.564 153.142 55.564C153.744 55.564 154.346 55.564 154.948 55.55C154.934 55.858 154.948 56.208 154.948 56.404C154.948 56.6 154.948 56.796 154.948 56.992L154.934 58.154H153.744C153.268 58.154 152.778 58.154 152.302 58.154C151.7 58.154 151.098 58.126 150.496 58.154C150.44 58.168 150.37 58.168 150.3 58.196C150.034 58.294 149.824 58.532 149.824 58.826C149.824 59.456 150.496 59.386 150.93 59.386C151.336 59.386 151.728 59.386 152.134 59.386L154.528 59.372C154.934 59.372 155.34 59.372 155.732 59.372C156.166 59.372 156.614 59.372 157.048 59.372L159.68 59.4C160.114 59.4 160.562 59.4 160.996 59.4C161.346 59.4 161.696 59.092 161.696 58.728C161.696 58.476 161.556 58.308 161.332 58.21C161.164 58.14 158.406 58.14 158.056 58.14C157.58 58.14 157.09 58.14 156.614 58.14H156.25C156.25 57.916 156.236 57.692 156.236 57.552C156.236 57.356 156.236 57.16 156.236 56.964L156.25 55.802C156.25 55.704 156.25 55.606 156.25 55.508C156.628 55.494 157.006 55.494 157.384 55.48L158.84 55.438C159.064 55.424 159.302 55.438 159.54 55.41C159.596 55.41 159.666 55.396 159.736 55.368C159.988 55.27 160.184 55.032 160.184 54.752C160.184 54.416 159.918 54.192 159.596 54.192C159.064 54.192 158.518 54.234 157.972 54.248C156.432 54.29 154.878 54.346 153.338 54.346C153.198 54.346 152.988 54.346 152.862 54.276C152.722 54.192 152.722 52.666 152.722 52.414V52.274C154.598 52.288 156.46 52.316 158.336 52.316C159.274 52.316 159.932 52.008 159.932 50.958C159.932 50.314 159.862 48.788 159.442 48.312C159.246 48.088 158.994 48.004 158.728 47.948C158 47.794 157.062 47.864 156.32 47.864C154.976 47.864 153.646 47.822 152.316 47.822C151.966 47.822 151.616 48.13 151.616 48.494C151.616 49.194 152.568 49.068 153.03 49.068C153.73 49.068 154.36 49.068 155.004 49.068L155.97 49.082C156.292 49.082 156.6 49.082 156.922 49.082C157.174 49.096 158.21 49.096 158.42 49.166ZM168.315 48.858C168.315 49.152 168.175 49.474 168.063 49.768C168.049 49.768 168.035 49.768 168.007 49.768L167.881 49.782C167.867 49.782 167.839 49.782 167.811 49.782C167.335 49.796 166.873 49.81 166.411 49.824L165.109 49.866C164.899 49.866 164.675 49.866 164.465 49.88C164.395 49.894 164.339 49.908 164.269 49.936C164.017 50.034 163.821 50.272 163.821 50.552C163.821 50.888 164.087 51.098 164.409 51.098C165.151 51.098 165.893 51.07 166.635 51.042C166.901 51.028 167.181 51.028 167.447 51.028C167.181 51.462 166.873 51.868 166.509 52.232C166.369 52.358 166.229 52.484 166.075 52.596C165.935 52.694 165.781 52.764 165.669 52.89C165.571 53.002 165.501 53.156 165.501 53.31C165.501 53.646 165.767 53.87 166.089 53.87C166.383 53.87 166.677 53.632 166.901 53.45C167.741 52.806 168.343 51.98 168.819 51.07H172.207C172.207 51.35 172.193 51.63 172.179 51.924L172.137 52.792C172.123 53.03 172.095 53.254 172.095 53.478C172.095 53.814 172.361 54.038 172.683 54.038C172.949 54.038 173.201 53.87 173.327 53.632C173.355 53.562 173.369 53.506 173.383 53.45C173.467 52.96 173.439 52.442 173.453 51.952L173.495 50.958C173.509 50.622 173.523 50.3 173.523 49.978C173.523 49.558 173.495 49.152 173.481 48.746C173.467 48.522 173.481 48.032 173.425 47.822C173.355 47.542 173.117 47.388 172.851 47.388C172.501 47.388 172.151 47.696 172.151 48.06C172.151 48.662 172.221 49.236 172.235 49.824L169.477 49.838C169.435 49.838 169.407 49.838 169.365 49.838C169.505 49.474 169.603 49.082 169.603 48.69C169.603 48.102 169.407 47.626 168.749 47.626C168.189 47.626 167.629 47.654 167.055 47.668C166.061 47.696 165.053 47.71 164.045 47.71C163.695 47.71 163.345 48.004 163.345 48.382C163.345 48.872 163.793 48.942 164.199 48.942C165.571 48.942 166.943 48.872 168.315 48.858ZM171.997 55.718C172.025 55.802 172.025 55.9 172.025 55.998C172.025 56.18 172.011 56.362 171.997 56.544C170.303 56.586 168.609 56.614 166.901 56.614C166.761 56.614 166.621 56.614 166.481 56.628C165.725 56.698 165.221 57.23 165.221 57.972C165.221 58.196 165.277 58.392 165.305 58.602C165.347 58.854 165.389 59.12 165.529 59.344C165.935 60.044 167.139 60.058 167.853 60.058C169.533 60.058 171.227 60.03 172.921 60.03C173.271 60.03 173.621 59.722 173.621 59.358C173.621 58.84 173.173 58.798 172.767 58.798H170.667L168.875 58.826C168.581 58.826 168.273 58.826 167.979 58.826C167.671 58.826 166.929 58.812 166.677 58.672C166.579 58.42 166.537 58.126 166.523 57.846C166.999 57.818 167.489 57.832 167.979 57.832C169.421 57.832 170.863 57.748 172.319 57.748C173.173 57.748 173.229 57.328 173.285 56.614C173.299 56.432 173.313 56.25 173.313 56.054C173.313 55.2 173.159 54.486 172.137 54.486C171.465 54.486 170.793 54.486 170.121 54.486C169.589 54.486 166.061 54.472 165.753 54.598C165.501 54.696 165.305 54.934 165.305 55.214C165.305 55.55 165.571 55.774 165.893 55.774C166.663 55.774 167.447 55.732 168.231 55.718C169.491 55.704 170.737 55.718 171.997 55.718Z" fill="black"/>
<mask id="mask0_473_2" style="mask-type:alpha" maskUnits="userSpaceOnUse" x="9" y="30" width="59" height="34">
<rect x="9" y="30" width="59" height="34" fill="#C4C4C4"/>
</mask>
<g mask="url(#mask0_473_2)">
<path d="M56.5576 43.518C56.5576 43.518 57.7894 42.1876 58.3614 41.767C58.9333 41.3464 59.7375 40.6214 59.8906 40.8044C60.0437 40.9875 58.2206 42.9021 58.0059 43.2048C57.7912 43.5074 57.5572 43.972 57.9461 43.6922C58.335 43.4124 59.368 42.8123 59.8607 42.4481C60.4432 42.0275 61.5641 41.5083 61.7172 41.6914C61.8703 41.8744 60.3094 43.1625 59.9135 43.4511L58.9456 44.155C58.752 44.2958 58.5567 44.4366 58.9245 44.3169C59.2923 44.1973 60.0666 43.8699 60.5857 43.701C60.9535 43.5813 61.8809 43.2048 62.034 43.3878C62.1871 43.5708 61.2386 44.1128 60.2918 44.653C59.3451 45.1933 57.9742 46.1963 57.7595 46.499" fill="white"/>
<path d="M56.5576 43.518C56.5576 43.518 57.7894 42.1876 58.3614 41.767C58.9333 41.3464 59.7375 40.6214 59.8906 40.8044C60.0437 40.9875 58.2206 42.9021 58.0059 43.2048C57.7912 43.5074 57.5572 43.972 57.9461 43.6922C58.335 43.4124 59.368 42.8123 59.8607 42.4481C60.4432 42.0275 61.5641 41.5083 61.7172 41.6914C61.8703 41.8744 60.3094 43.1625 59.9135 43.4511L58.9456 44.155C58.752 44.2958 58.5567 44.4366 58.9245 44.3169C59.2923 44.1973 60.0666 43.8699 60.5857 43.701C60.9535 43.5813 61.8809 43.2048 62.034 43.3878C62.1871 43.5708 61.2386 44.1128 60.2918 44.653C59.3451 45.1933 57.9742 46.1963 57.7595 46.499" stroke="black" stroke-width="0.5" stroke-linecap="round" stroke-linejoin="round"/>
<path d="M60.3539 72.6245C59.9034 72.3658 58.8334 72.3095 58.2281 72.4608C57.5734 72.6245 56.4296 73.1137 54.1402 73.6047L53.4873 73.441C53.4873 73.441 54.9584 72.1335 55.775 70.9897C56.5915 69.8458 57.5734 68.2092 57.7371 66.0852C57.7745 65.5746 57.6532 65.0648 57.3899 64.6257C57.1266 64.1866 56.734 63.8396 56.2659 63.6321C55.4494 63.3048 54.1402 63.3048 53.4873 63.4684L52.9963 62.9792C52.4815 62.0819 52.2007 61.0695 52.1798 60.0352C52.182 59.2155 52.2361 58.3967 52.3417 57.5838L52.6567 56.8535C52.6567 56.8535 54.0645 55.9736 55.4494 53.9869C56.3733 52.66 56.7569 51.2082 56.9206 50.5536C57.0842 49.8989 57.2461 47.7749 57.2461 47.2839L55.4459 46.8757C55.4459 46.8757 55.1221 46.4023 55.1221 46.9637C55.1221 47.525 54.6346 48.88 54.0662 49.6455C53.475 50.4392 52.0179 51.8681 51.5269 52.0318L50.8723 52.3591C51.3989 51.6518 51.8385 50.8837 52.1815 50.0714C52.5722 49.1 52.3241 48.1357 52.0179 47.4564C51.7381 46.8422 51.0359 46.4762 50.7086 46.4762L49.9924 46.1735C49.9924 46.1735 49.4645 45.8216 49.2885 45.4696C49.0216 45.0274 48.732 44.5992 48.4209 44.1868C48.1992 43.7433 47.4495 42.9233 46.992 42.4411C46.9435 42.3906 46.8845 42.3515 46.8192 42.3265C46.7538 42.3015 46.6838 42.2913 46.614 42.2965C46.5443 42.3017 46.4765 42.3222 46.4156 42.3567C46.3547 42.3911 46.3021 42.4385 46.2617 42.4956C46.1385 42.6633 46.0396 42.8476 45.9678 43.0429C45.7813 43.6008 45.9678 44.3504 45.9678 44.3504C45.4716 44.4317 44.9805 44.541 44.4967 44.6777C44.0382 44.8467 43.5997 45.0656 43.1892 45.3306L42.209 44.5141L41.2904 43.5972C41.1982 43.505 41.0862 43.4349 40.9629 43.3922C40.8396 43.3496 40.7083 43.3355 40.5788 43.3511C40.4493 43.3667 40.325 43.4116 40.2153 43.4822C40.1057 43.5529 40.0136 43.6476 39.9459 43.7591C39.7003 44.1401 39.525 44.5621 39.4286 45.005C39.2684 45.9712 39.7559 47.7837 39.7559 47.7837L39.4919 49.1334C39.471 49.2394 39.4265 49.3392 39.3617 49.4256C38.9147 50.008 38.5504 50.4093 38.4044 50.7032C38.2284 51.0551 38.2284 51.898 38.612 52.5245C39.103 53.341 40.5742 53.9957 40.5742 53.9957L40.7378 54.4866C40.0832 54.6503 38.7563 54.5746 37.5245 54.3986C36.3296 54.2227 35.5307 53.6156 34.8989 52.9029L35.4128 52.2869C35.4128 52.2869 35.5888 51.935 35.8228 51.4493C36.3244 50.411 37.4066 47.9685 36.5408 45.4133L36.4968 45.2919C36.4827 45.2485 36.4669 45.2045 36.4493 45.1599C35.4691 42.5449 32.6904 39.9299 28.9298 39.6026C24.6818 39.233 21.4086 40.0936 18.63 41.5647C15.8513 43.0359 13.6393 46.0064 13.2345 48.4278C12.909 50.3899 13.5618 52.1884 15.1967 52.843C15.8231 53.0929 18.1126 53.1457 19.0945 52.8184L19.3339 52.4418C18.4168 54.2063 17.7927 56.1082 17.4861 58.073C17.1588 60.3607 17.4861 63.1394 19.2846 65.9198C20.9599 68.5084 24.6853 70.46 27.4587 70.9879C29.5282 71.3821 31.7754 71.2413 33.2342 71.0671L33.2588 71.0477C33.0565 73.1982 33.6601 74.8611 34.5259 75.7287C35.1999 76.4027 36.488 77.1999 37.9592 77.1999L37.3063 77.5272C36.431 77.5096 35.5558 77.5643 34.6895 77.6908C33.382 77.8527 31.7472 78.18 30.9307 79.162C30.1142 80.1439 30.2761 80.7968 30.2761 80.9587L31.0926 81.4497C31.5325 81.5957 31.9109 81.286 33.0547 80.9587C34.1985 80.6314 36.488 80.4695 37.6301 80.3058C38.7722 80.1422 40.7378 80.3058 41.3907 79.9785C41.6582 79.8526 41.8715 79.6348 41.9917 79.3647C42.1118 79.0946 42.1309 78.7903 42.0453 78.5074C41.8817 78.0164 41.718 77.1999 41.8817 76.8725C42.0453 76.5452 43.8438 75.0741 45.6423 74.0939C47.4407 73.1137 48.9207 73.0574 49.5278 73.3002C50.1948 73.5695 50.1578 75.1163 49.8428 75.8572C49.6123 76.3992 49.3272 77.3019 49.4909 77.7929C49.6545 78.2839 50.2317 78.4968 50.7227 78.4968C51.2137 78.4968 51.8542 78.0164 53.3254 77.0362C54.7332 76.1018 57.2426 75.3697 58.7208 75.0741C59.5373 74.9104 60.3556 74.5831 60.6812 74.2575C61.1968 73.7419 60.7551 72.8532 60.3539 72.6245ZM37.4664 61.5063C37.4664 61.5063 36.8118 62.4883 36.3208 63.3048C35.4424 64.7419 34.6882 66.2514 34.0666 67.8168C32.8858 67.354 31.8194 66.4706 31.0521 65.5942C29.9065 64.2867 29.4173 62.8156 29.7428 60.8534C30.0578 58.967 31.1383 57.4554 31.8915 56.5016L32.5057 55.7625C32.8818 56.5565 33.3879 57.2821 34.0032 57.9094C35.3969 59.3365 37.792 60.6898 37.792 60.6898L37.4664 61.5063Z" fill="white"/>
<path d="M35.2646 67.9923C34.3847 67.8163 32.9769 67.079 32.8009 66.9364C30.4833 65.0447 28.9295 63.4169 30.5133 58.6656C30.7772 57.8719 31.8876 56.8108 32.4208 56.186C33.0807 55.41 33.76 54.8522 34.3847 54.0902C35.2473 53.0503 35.9042 51.8559 36.3205 50.5707C36.8484 49.1629 37.2232 46.8892 37.0244 46.3472C37.0244 45.8193 36.4736 44.4256 36.1568 43.9029C35.1009 42.1572 33.8568 41.2439 31.9211 40.54C31.3368 40.2127 30.4657 40.0121 29.8093 39.8361C28.5388 39.4842 26.9251 39.6918 25.6194 39.683C23.4736 39.6381 21.3489 40.1133 19.4268 41.068C18.9147 41.2439 18.2249 41.7912 17.7585 42.0341C15.2949 43.3187 13.7111 46.2733 13.067 48.869C12.6288 50.6287 14.4484 50.9948 15.3793 49.5148C16.4246 47.8518 16.7027 45.5272 18.5469 44.5875C20.0803 43.899 21.8055 43.7652 23.4267 44.2091C24.0989 44.3974 25.058 45.2914 25.41 45.9953C26.1139 47.4031 25.4328 49.4761 24.706 50.7466C24.0021 51.9785 23.2578 52.9287 22.6278 54.3066C21.5244 56.7193 20.5055 59.0879 21.2006 61.7821C21.6705 63.607 22.7985 65.0904 24.2274 66.2431C24.9324 66.7717 25.6812 67.2392 26.4658 67.6403C28.5476 68.8493 33.0649 69.0833 35.4406 69.2241C35.9245 69.2523 36.9434 68.3284 35.2646 67.9923Z" fill="#FBB03B"/>
<path d="M50.0468 45.9954C49.1669 45.2915 49.1669 44.7636 48.639 44.2357C48.4419 44.0386 47.8189 44.4732 47.5831 43.8837C47.2311 43.0038 46.8546 42.7012 46.7032 42.4759C46.3513 41.948 46.2228 41.9937 45.9993 42.6519C45.8409 43.1165 45.8233 43.7676 45.8233 44.2357C45.8233 44.3729 44.9892 44.299 44.5915 44.4117C44.3575 44.4768 43.7011 44.8833 43.3245 45.0645C43.0676 45.1877 42.8177 45.1736 42.6558 44.9396C42.4939 44.7055 42.2422 44.4117 42.1278 44.2357C41.6615 43.5318 39.8402 42.6519 40.3681 43.7077C40.4983 43.9682 41.072 45.1156 41.248 45.6435C41.3708 45.9979 41.3679 46.3838 41.2397 46.7363C41.1115 47.0888 40.8659 47.3865 40.5441 47.5792C40.486 47.6144 40.3927 47.676 40.2854 47.7552C40.2123 47.7964 40.1299 47.818 40.0461 47.818C39.9622 47.818 39.8798 47.7964 39.8067 47.7552C39.7786 47.7411 39.5269 49.2527 39.5903 49.2351C39.8838 49.084 40.1474 48.8806 40.3681 48.6351C40.5617 48.2831 41.0966 47.6373 41.248 47.5792C41.577 47.2554 42.7209 47.0513 43.0077 47.0284C43.4258 47.0002 43.8443 47.0765 44.2256 47.2504C44.6068 47.4242 44.9388 47.6903 45.1916 48.0244C45.2971 48.1579 45.4258 48.2712 45.5717 48.3588C45.734 48.4723 45.9199 48.5475 46.1155 48.5788C46.326 48.5994 46.5384 48.5671 46.7332 48.4847C46.9281 48.4023 47.0992 48.2725 47.2311 48.1071C47.3156 47.991 47.2751 47.7323 47.254 47.5792C47.1836 47.0689 47.1537 46.555 47.4951 46.0711C48.1427 45.1613 48.9293 45.3971 49.6948 46.1626C50.2227 46.6905 50.5747 46.5146 50.7507 46.3386C50.7806 46.3175 50.0556 45.9954 50.0468 45.9954Z" fill="#FBB03B"/>
<path d="M57.2617 64.297C56.6159 63.5175 56.2182 63.206 55.1658 63.2412H55.1359C54.7998 63.1814 53.9886 63.2412 53.4677 63.2412C53.3496 63.2407 53.2344 63.2047 53.1371 63.1379C53.0398 63.071 52.9649 62.9764 52.9222 62.8664C52.7462 62.3859 52.3942 61.6468 52.3344 61.4885C51.7625 59.785 52.3221 57.1471 52.8447 56.5787C52.8563 56.5674 52.8701 56.5584 52.8852 56.5523C53.3709 56.3412 55.0462 54.3509 55.4773 53.8089C56.2868 52.7882 56.9714 49.9585 57.0118 49.7878C57.172 49.0962 57.3743 48.4627 57.2617 47.7623C57.2142 47.4667 56.7496 47.2344 56.5578 47.2344C56.2614 47.1929 55.9676 47.1341 55.6779 47.0584C55.326 47.0584 55.326 46.5305 55.15 46.8825C54.8579 47.4667 54.2807 48.9643 53.9287 49.5063C53.9217 49.5171 53.9134 49.5271 53.9041 49.5362C53.7387 49.6981 52.1074 51.2959 50.9125 52.4979C50.8914 52.519 50.8615 52.5559 50.8316 52.5894C50.7792 52.6487 50.7326 52.7129 50.6925 52.7812C50.5188 53.0916 50.3619 53.4112 50.2227 53.7385C50.0041 54.6765 49.8547 55.6294 49.7757 56.5893C49.6948 57.61 49.9517 59.1885 50.0467 59.8976C50.1013 60.3006 51.1571 63.8641 51.3577 64.568C51.6305 65.5289 51.8065 67.4646 51.6305 68.1685C51.2187 69.8192 50.9125 70.6322 49.8707 71.1601C49.1668 71.5121 47.5127 71.8447 45.8233 72.5679C44.5915 73.0958 42.9373 73.7645 42.8317 73.7997C41.7758 74.1517 40.4155 74.0021 40.0161 73.6238C38.8986 72.5679 38.6083 71.146 38.6083 69.5763C38.6083 66.4088 39.3984 62.5197 40.368 60.4256C40.368 60.4256 40.6425 59.8976 40.6461 59.8976C41.2637 58.4036 42.0028 56.9588 42.4727 55.4085C42.5963 55.041 42.611 54.6456 42.5149 54.2699C42.4748 54.0984 42.3863 53.942 42.2598 53.8194C42.1653 53.7346 42.066 53.6553 41.9624 53.5819C41.5752 53.2897 40.72 53.0399 40.1393 52.9114C39.727 52.8268 39.3316 52.6746 38.969 52.4609C38.9355 52.4448 38.8977 52.4398 38.8611 52.4466C38.8246 52.4533 38.7911 52.4715 38.7655 52.4985C38.7398 52.5255 38.7234 52.5599 38.7186 52.5967C38.7138 52.6336 38.7207 52.6711 38.7385 52.7037C38.8529 52.8797 38.9461 53.0117 38.9602 53.0399C39.0113 53.1472 39.7275 53.7121 40.317 54.0605C40.3453 54.0793 40.3675 54.1059 40.381 54.137C40.3945 54.1681 40.3987 54.2025 40.3931 54.236C40.3876 54.2695 40.3724 54.3006 40.3495 54.3257C40.3267 54.3507 40.297 54.3687 40.2642 54.3773C39.7996 54.467 39.1344 54.6236 38.9602 54.6236C38.0803 54.6236 36.3311 54.0957 36.3206 54.0957C35.2647 53.5678 34.5608 52.5119 33.6809 51.1041C33.6123 50.9933 32.7324 47.2784 32.6251 47.2327C32.4386 47.1112 31.835 47.6867 31.5692 47.7606C31.2007 47.9013 30.847 48.0781 30.5134 48.2885C30.1456 48.2252 30.8653 49.8723 31.0413 50.4002C31.2173 50.9282 31.1751 52.4169 31.2173 52.5119C31.3933 52.9114 31.8983 54.379 31.9212 54.4477C32.6815 56.5893 34.0978 58.4367 35.9686 59.727C35.9686 59.727 37.709 60.6438 37.5524 60.9588C37.2005 61.6627 35.6536 64.2284 35.6167 64.3023C34.8987 65.6978 34.3109 66.312 33.8569 67.8218C33.4117 69.3018 33.1389 71.4082 33.329 72.9251C33.4874 74.1887 33.9607 75.3888 35.0888 76.0927C36.2168 76.7966 37.1741 77.4178 38.4323 77.3245C38.6329 77.3105 40.0706 77.4249 40.1921 77.3245C42.2721 77.1486 43.0429 75.3149 44.9434 74.5089C45.0015 74.4843 45.598 74.1851 45.6473 74.157C45.9377 74.0936 46.1752 73.805 46.5747 73.7223C47.4651 73.5463 48.8993 72.8952 49.6948 73.2771C50.1206 73.4812 49.6138 74.8327 50.0467 74.8609C50.2592 74.735 50.5039 74.6738 50.7506 74.6849H50.9442C51.8082 74.5089 51.9015 73.93 53.3903 73.6291C54.0942 73.4531 56.3062 70.8134 56.9362 69.0871C56.9403 69.0751 56.9462 69.0638 56.9538 69.0537C57.4641 68.3339 57.538 67.5561 57.6137 66.766C57.7052 65.7911 57.7897 64.825 57.2617 64.297ZM38.4446 69.6854C38.4293 69.6654 38.418 69.6428 38.4112 69.6186C38.3918 69.5429 38.376 69.4655 38.3601 69.3863C38.4112 69.5235 38.471 69.6573 38.5361 69.7893L38.4446 69.6854Z" fill="#FBB03B"/>
<path d="M42.1485 44.4698L41.2299 43.553C41.1377 43.4605 41.0257 43.3902 40.9023 43.3475C40.7789 43.3048 40.6473 43.2908 40.5177 43.3066C40.3881 43.3224 40.2638 43.3675 40.1542 43.4386C40.0446 43.5096 39.9527 43.6047 39.8854 43.7167C39.6401 44.0972 39.4649 44.5185 39.3681 44.9608C39.2079 45.9287 39.6954 47.7395 39.6954 47.7395L39.4314 49.091C39.4108 49.1964 39.3662 49.2957 39.3012 49.3813C38.8542 49.9638 38.4899 50.365 38.3439 50.6589C38.1679 51.0109 38.1679 51.8538 38.5516 52.4803C39.0425 53.2985 40.5137 53.9514 40.5137 53.9514" stroke="black" stroke-width="0.5" stroke-linecap="round" stroke-linejoin="round"/>
<path d="M43.1289 45.2918C43.5392 45.0259 43.9777 44.8064 44.4364 44.6372C44.9202 44.5004 45.4114 44.3911 45.9076 44.3099C45.9076 44.3099 45.721 43.562 45.9076 43.0024C45.9801 42.8074 46.079 42.6232 46.2015 42.4551C46.242 42.3981 46.2947 42.3508 46.3557 42.3165C46.4166 42.2823 46.4844 42.2619 46.5542 42.2569C46.6239 42.2518 46.694 42.2622 46.7592 42.2874C46.8245 42.3125 46.8834 42.3518 46.9318 42.4023C47.3893 42.8845 48.139 43.7027 48.3607 44.1462" stroke="black" stroke-width="0.5" stroke-linecap="round" stroke-linejoin="round"/>
<path d="M43.9473 45.2864L44.7638 46.2683" stroke="black" stroke-width="0.5" stroke-linecap="round" stroke-linejoin="round"/>
<path d="M45.418 44.7971L45.9072 45.941" stroke="black" stroke-width="0.5" stroke-linecap="round" stroke-linejoin="round"/>
<path d="M40.3506 45.1245C40.3506 45.1245 40.6779 45.941 40.6779 46.432" stroke="black" stroke-width="0.5" stroke-linecap="round" stroke-linejoin="round"/>
<path d="M42.1487 48.0667C42.0957 48.1251 42.0614 48.1983 42.0506 48.2765C42.0397 48.3547 42.0528 48.4344 42.0879 48.5052C42.1231 48.5759 42.1788 48.6344 42.2477 48.6729C42.3167 48.7115 42.3956 48.7283 42.4743 48.7213C42.638 48.7213 43.1289 48.394 42.9653 48.0667C42.8016 47.7393 42.3124 47.903 42.1487 48.0667Z" stroke="black" stroke-width="0.5" stroke-linecap="round" stroke-linejoin="round"/>
<path d="M48.3981 46.9459C48.5283 47.3894 49.116 47.3366 49.1284 46.9705C49.1367 46.9061 49.1294 46.8405 49.107 46.7795C49.0847 46.7185 49.048 46.6637 49 46.6199C48.952 46.576 48.8941 46.5444 48.8313 46.5276C48.7685 46.5108 48.7026 46.5095 48.6391 46.5236C48.5925 46.5299 48.548 46.5468 48.509 46.5731C48.47 46.5994 48.4376 46.6343 48.4143 46.6752C48.391 46.716 48.3774 46.7617 48.3746 46.8086C48.3718 46.8556 48.3798 46.9026 48.3981 46.9459V46.9459Z" stroke="black" stroke-width="0.5" stroke-linecap="round" stroke-linejoin="round"/>
<path d="M46.2346 48.0668C46.562 47.9032 47.0529 47.9032 47.2166 48.0668C47.2621 48.1305 47.294 48.2028 47.3104 48.2792C47.3268 48.3557 47.3274 48.4347 47.312 48.5114C47.2967 48.5881 47.2658 48.6609 47.2212 48.7251C47.1767 48.7894 47.1194 48.8439 47.0529 48.8851C46.9015 48.9647 46.733 49.0062 46.562 49.0062C46.3909 49.0062 46.2224 48.9647 46.071 48.8851C45.7437 48.7215 45.9073 48.2305 46.2346 48.0668Z" fill="black" stroke="black" stroke-width="0.5" stroke-linecap="round" stroke-linejoin="round"/>
<path d="M49.6948 48.9871C49.0473 49.9391 48.0741 50.2558 47.1203 50.5497C46.2123 50.8278 44.713 50.8436 44.1094 50.5497" stroke="black" stroke-width="0.5" stroke-linecap="round" stroke-linejoin="round"/>
<path d="M50.6484 46.4321C50.9758 46.4321 51.6779 46.7999 51.9577 47.4123C52.2639 48.0863 52.512 49.0559 52.1214 50.0291C51.779 50.8417 51.3394 51.6099 50.8121 52.3168" stroke="black" stroke-width="0.5" stroke-linecap="round" stroke-linejoin="round"/>
<path d="M40.6776 54.4425C40.0229 54.6061 38.6961 54.5304 37.4642 54.3545C36.0283 54.1486 35.1642 53.2986 34.4727 52.4187C33.2408 50.8349 32.7129 47.3154 32.7129 47.3154" stroke="black" stroke-width="0.5" stroke-linecap="round" stroke-linejoin="round"/>
<path d="M37.4076 61.4814C37.4076 61.4814 36.7529 62.4616 36.2619 63.2799C35.4349 64.6596 33.8106 67.5297 33.3196 70.143C32.8374 72.7175 33.4833 74.7184 34.4635 75.7003C35.1374 76.3743 36.4256 77.1715 37.8968 77.1715" stroke="black" stroke-width="0.5" stroke-linecap="round" stroke-linejoin="round"/>
<path d="M51.4668 51.991C51.9578 51.8273 53.4149 50.3967 54.0061 49.603C54.5763 48.8393 55.062 47.4913 55.062 46.9229C55.062 46.3545 55.062 45.7315 54.886 45.2036" stroke="black" stroke-width="0.5" stroke-linecap="round" stroke-linejoin="round"/>
<path d="M57.1881 47.2505C57.1881 47.7397 57.0262 49.8655 56.8625 50.5201C56.6989 51.1748 56.3152 52.6318 55.3914 53.9517C54.0064 55.9384 52.5986 56.8183 52.5986 56.8183" stroke="black" stroke-width="0.5" stroke-linecap="round" stroke-linejoin="round"/>
<path d="M52.283 57.5483C52.1775 58.3618 52.1234 59.1812 52.1211 60.0014C52.142 61.0352 52.4228 62.0471 52.9376 62.9438" stroke="black" stroke-width="0.5" stroke-linecap="round" stroke-linejoin="round"/>
<path d="M53.4287 63.4346C54.0816 63.271 55.3908 63.271 56.2074 63.5983C56.6755 63.8053 57.0681 64.152 57.3315 64.5908C57.5949 65.0297 57.7161 65.5392 57.6785 66.0497C57.5149 68.1754 56.5347 69.8103 55.7164 70.9541C54.8981 72.0979 53.4287 73.4072 53.4287 73.4072" stroke="black" stroke-width="0.5" stroke-linecap="round" stroke-linejoin="round"/>
<path d="M34.0085 67.7816C32.8277 67.3187 31.7613 66.4371 30.9941 65.559C29.8484 64.2515 29.3592 62.7803 29.6848 60.8182C29.9998 58.9317 31.0803 57.4201 31.8335 56.4663" stroke="black" stroke-width="0.5" stroke-linecap="round" stroke-linejoin="round"/>
<path d="M21.6736 46.1047C22.3775 46.8086 21.8373 48.3924 20.6934 50.029C19.5496 51.6656 17.9095 54.6378 17.4238 58.0394C17.0965 60.3271 17.4238 63.1075 19.2223 65.8862C20.8976 68.4766 24.623 70.4264 27.3964 70.9543C29.4658 71.3485 31.7131 71.2077 33.1719 71.0352" stroke="black" stroke-width="0.5" stroke-linecap="round" stroke-linejoin="round"/>
<path d="M36.4343 45.2565C36.4202 45.2131 36.4044 45.1691 36.3868 45.1246C35.4066 42.5078 32.628 39.8928 28.8674 39.5655C24.6193 39.1959 21.3461 40.0564 18.5675 41.5276C15.7888 42.9988 13.5768 45.9692 13.172 48.3907C12.8465 50.3528 13.4994 52.1513 15.1342 52.8041C15.7607 53.054 17.26 53.2951 18.2402 52.9678" stroke="black" stroke-width="0.5" stroke-linecap="round" stroke-linejoin="round"/>
<path d="M36.4806 45.3691C37.3604 47.9261 36.2641 50.3686 35.7626 51.4051C35.5285 51.8908 35.3525 52.2428 35.3525 52.2428" stroke="black" stroke-width="0.5" stroke-linecap="round" stroke-linejoin="round"/>
<path d="M28.8418 46.0835C29.1937 46.4354 29.2342 46.3985 29.5457 46.7874C30.0231 47.4213 30.3809 48.1369 30.6016 48.8991C30.7775 49.779 30.9535 50.5128 31.1295 51.3628C31.2791 52.1142 31.543 53.4111 31.8334 54.1784C32.1642 55.0583 32.5514 56.4467 33.9451 57.8739C35.3388 59.301 37.7286 60.6543 37.7286 60.6543" stroke="black" stroke-width="0.5" stroke-linecap="round" stroke-linejoin="round"/>
<path d="M29.577 54.2999C29.577 54.3123 30.2703 53.8776 30.2809 53.8899C30.3319 53.9761 28.0987 57.1419 28.1498 57.2334C28.1603 57.251 29.0701 56.6721 29.0807 56.6897C29.1194 56.7583 27.5796 59.4384 27.6201 59.5053C27.6201 59.5194 28.3979 59.0319 28.4067 59.046C28.4401 59.1023 27.5603 61.4393 27.5937 61.4938C27.5937 61.5061 28.2976 61.0644 28.3082 61.0768C28.3363 61.126 27.8436 63.2923 27.8735 63.3433C27.8735 63.3539 28.544 62.9351 28.551 62.9474C28.5756 62.9914 28.4472 64.9342 28.4718 64.9782C28.4718 64.9887 29.1247 64.5822 29.1317 64.5928C29.1546 64.6315 29.4133 66.3244 29.4344 66.3631C29.4344 66.3736 30.1031 65.9566 30.1101 65.9689C30.1172 65.9812 30.7349 67.4735 30.756 67.5087C30.7771 67.5439 31.3526 67.1479 31.3578 67.1567" stroke="black" stroke-width="0.5" stroke-linecap="round" stroke-linejoin="round"/>
<path d="M28.4698 51.4704C28.4698 51.4809 28.9872 51.004 28.9977 51.0163C29.0576 51.1079 26.9635 54.7277 27.0215 54.8209C27.0356 54.8421 27.8592 54.0607 27.8732 54.0818C27.926 54.1646 26.0924 57.4412 26.1452 57.5257C26.1557 57.5415 26.8614 56.8781 26.872 56.8957C26.916 56.9643 25.714 59.9102 25.758 59.9788C25.758 59.9929 26.3335 59.4614 26.3405 59.4755C26.3739 59.5265 25.7862 61.8529 25.8126 61.904C25.8126 61.9145 26.3405 61.4359 26.3405 61.4464C26.3687 61.4922 26.1522 63.6162 26.1821 63.662C26.1821 63.6708 26.6625 63.2291 26.6678 63.2396C26.6925 63.2783 26.8438 65.0768 26.8649 65.1155C26.8649 65.1261 27.3365 64.6914 27.3418 64.702C27.3471 64.7126 27.78 66.2664 27.8011 66.2999C27.8222 66.3333 28.2762 65.874 28.2833 65.8846" stroke="black" stroke-width="0.5" stroke-linecap="round" stroke-linejoin="round"/>
<path d="M37.9288 50.3088C38.0801 49.8671 38.469 49.8178 38.96 49.1632L39.282 47.7554C39.2991 47.7298 39.3106 47.7009 39.3158 47.6706C39.321 47.6403 39.3196 47.6092 39.3119 47.5794C39.2116 47.1923 38.8438 45.693 38.9846 44.8553C39.0884 44.2271 39.5829 43.576 40.0158 43.0058C40.234 42.7172 40.9907 42.7489 41.2477 43.0058L42.3194 43.9666L42.3352 43.986L42.9212 44.718C42.9523 44.7564 42.9955 44.7832 43.0437 44.794C43.0919 44.8049 43.1423 44.7992 43.1869 44.7779C43.5358 44.6045 43.8955 44.454 44.2639 44.3274C44.6158 44.2112 45.0927 44.081 45.3373 44.0159C45.3822 44.005 45.4223 43.9797 45.4512 43.9437C45.4802 43.9077 45.4965 43.8632 45.4975 43.817C45.5078 43.453 45.567 43.0919 45.6735 42.7436C45.7722 42.441 45.9445 42.1677 46.175 41.9482C46.351 41.7722 47.1305 41.9922 47.2308 42.1242C47.6286 42.6521 48.2339 43.1167 48.4873 43.6217L48.8305 44.3115L48.8481 44.3379C49.0098 44.579 49.1861 44.81 49.376 45.0295C49.5354 45.2128 49.7065 45.3856 49.8881 45.5469L49.9215 45.568L50.2559 45.7334C50.5877 45.9041 50.9438 46.0228 51.3117 46.0854L51.903 46.1083C51.937 46.1083 51.9705 46.1006 52.001 46.0856C52.0315 46.0707 52.0582 46.0489 52.079 46.022C53.6293 43.9877 53.4868 41.7863 52.1863 40.6565C51.6074 40.1497 50.6219 39.3736 49.1789 39.1396H49.1525L48.1512 39.0763H48.1266C47.2027 39.1079 46.0677 39.481 44.7074 39.9825C44.6563 40.0019 44.5998 40.0012 44.5492 39.9806C44.4986 39.9601 44.4577 39.9211 44.4346 39.8717L44.285 39.5532C44.2729 39.5285 44.2568 39.5059 44.2375 39.4863C43.8179 39.1204 43.3257 38.8474 42.7931 38.6851C42.2605 38.5229 41.6997 38.475 41.1474 38.5448C40.4276 38.6627 39.6956 39.1959 39.1764 39.5144C38.3089 40.0424 37.707 40.0987 37.3691 40.646C36.975 41.2847 36.9187 42.2104 36.9908 42.7577C36.9947 42.7878 37.005 42.8168 37.0211 42.8427C37.0372 42.8685 37.0587 42.8905 37.0841 42.9073C37.112 42.9273 37.1348 42.9537 37.1506 42.9843C37.1663 43.0149 37.1745 43.0488 37.1745 43.0832C37.1745 43.1176 37.1663 43.1515 37.1506 43.1821C37.1348 43.2128 37.112 43.2392 37.0841 43.2592C35.7942 44.2024 34.7964 45.3709 34.2315 46.8069C32.6231 50.8262 35.4633 51.7342 37.0471 51.7342L37.5346 51.7166C37.5896 51.714 37.6416 51.6909 37.6804 51.6518C37.7191 51.6127 37.7418 51.5605 37.744 51.5054C37.7605 51.1009 37.8225 50.6995 37.9288 50.3088Z" fill="white"/>
<path d="M49.251 39.1992C50.6993 39.4297 51.69 40.2111 52.2707 40.7179C53.5818 41.8653 53.7173 44.1142 52.0948 46.1731" stroke="black" stroke-width="0.5" stroke-linecap="round" stroke-linejoin="round"/>
<path d="M37.137 51.8028C35.5532 51.8028 32.7129 50.8948 34.3213 46.8755C35.3772 44.2359 37.8409 42.4761 41.0084 41.4203C44.176 40.3644 46.5446 39.1836 48.2234 39.1326" stroke="black" stroke-width="0.5" stroke-linecap="round" stroke-linejoin="round"/>
<path d="M37.0896 42.9177C36.9981 42.3898 37.0368 41.3797 37.4539 40.704C37.7918 40.1567 38.3936 40.1057 39.2612 39.5724C39.7891 39.2539 40.5124 38.7207 41.2321 38.6028C42.332 38.4268 43.657 38.8879 44.3522 39.5724" stroke="black" stroke-width="0.5" stroke-linecap="round" stroke-linejoin="round"/>
<path d="M41.0088 39.4843C41.1704 39.3892 41.3503 39.3292 41.5367 39.3083" stroke="black" stroke-width="0.5" stroke-linecap="round" stroke-linejoin="round"/>
<path d="M42.2402 39.6603C42.3594 39.5804 42.4968 39.532 42.6397 39.5195" stroke="black" stroke-width="0.5" stroke-linecap="round" stroke-linejoin="round"/>
<path d="M48.8584 40.0671C49.1578 40.1188 49.4486 40.2118 49.7224 40.3434" stroke="black" stroke-width="0.5" stroke-linecap="round" stroke-linejoin="round"/>
<path d="M47.8711 40.7163C47.8219 40.7163 48.3991 40.7163 48.575 40.8923" stroke="black" stroke-width="0.5" stroke-linecap="round" stroke-linejoin="round"/>
<path d="M43.8242 41.4203C44.0776 41.327 44.2518 41.1352 44.4736 41.1845" stroke="black" stroke-width="0.5" stroke-linecap="round" stroke-linejoin="round"/>
<path d="M43.2959 42.4761C43.5258 42.4057 43.749 42.315 43.9629 42.2051" stroke="black" stroke-width="0.5" stroke-linecap="round" stroke-linejoin="round"/>
<path d="M48.125 41.6173C48.2346 41.6002 48.3465 41.6053 48.4541 41.6322C48.5617 41.6591 48.6628 41.7073 48.7515 41.7739" stroke="black" stroke-width="0.5" stroke-linecap="round" stroke-linejoin="round"/>
<path d="M51.5234 41.3198C51.7434 41.4219 52.039 41.6947 52.0707 41.8636" stroke="black" stroke-width="0.5" stroke-linecap="round" stroke-linejoin="round"/>
<path d="M50.335 41.5962C50.5109 41.5962 50.8629 41.9481 50.8629 41.9481" stroke="black" stroke-width="0.5" stroke-linecap="round" stroke-linejoin="round"/>
<path d="M50.1592 42.6521C50.2982 42.8281 50.5111 42.8281 50.6871 43.0041" stroke="black" stroke-width="0.5" stroke-linecap="round" stroke-linejoin="round"/>
<path d="M34.9582 49.3603C34.8051 49.1439 34.974 48.6195 35.0655 48.4382" stroke="black" stroke-width="0.5" stroke-linecap="round" stroke-linejoin="round"/>
<path d="M36.0566 48.1793C36.1182 47.9154 36.1569 47.4754 36.3206 47.3118" stroke="black" stroke-width="0.5" stroke-linecap="round" stroke-linejoin="round"/>
<path d="M37.0329 49.1789C37.0329 48.9888 36.9801 48.7636 37.0646 48.6228" stroke="black" stroke-width="0.5" stroke-linecap="round" stroke-linejoin="round"/>
<path d="M31.5692 41.7335C31.5692 41.7335 31.8596 42.1928 31.7293 42.3564C31.5991 42.5201 29.3237 45.5134 28.7677 46.2455C28.7271 46.2992 28.6735 46.3416 28.6119 46.3688C28.5502 46.3959 28.4827 46.4067 28.4157 46.4004C28.2132 46.3711 28.0213 46.2912 27.8579 46.1681C27.71 46.0302 27.608 45.8502 27.5657 45.6525C27.5381 45.5636 27.5318 45.4695 27.5474 45.3778C27.563 45.286 27.6001 45.1993 27.6555 45.1245C28.238 44.3256 30.2423 41.5733 30.3532 41.4079C30.4113 41.3366 30.4845 41.2792 30.5677 41.2399C30.6508 41.2007 30.7417 41.1805 30.8336 41.1809" fill="white"/>
<path d="M31.5692 41.7335C31.5692 41.7335 31.8596 42.1928 31.7293 42.3564C31.5991 42.5201 29.3237 45.5134 28.7677 46.2455C28.7271 46.2992 28.6735 46.3416 28.6119 46.3688C28.5502 46.3959 28.4827 46.4067 28.4157 46.4004C28.2132 46.3711 28.0213 46.2912 27.8579 46.1681C27.71 46.0302 27.608 45.8502 27.5657 45.6525C27.5381 45.5636 27.5318 45.4695 27.5474 45.3778C27.563 45.286 27.6001 45.1993 27.6555 45.1245C28.238 44.3256 30.2423 41.5733 30.3532 41.4079C30.4113 41.3366 30.4845 41.2792 30.5677 41.2399C30.6508 41.2007 30.7417 41.1805 30.8336 41.1809" stroke="black" stroke-width="0.5" stroke-linecap="round" stroke-linejoin="round"/>
<path d="M31.4675 41.6525C31.5906 41.4466 31.8511 40.9698 32.071 40.4893C32.518 39.5197 32.8841 37.6104 33.3029 37.415C33.7217 37.2197 34.2092 37.4274 34.7001 37.8198C35.1911 38.2122 35.7824 39.0023 36.254 39.9174C36.7256 40.8325 37.3943 42.1717 37.3943 42.1717C37.3943 42.1717 38.3974 37.0789 38.0718 35.4846C37.7463 33.8902 36.5567 33.8674 36.0657 34.1436C35.5747 34.4199 34.2795 36.5017 34.2795 36.5017L33.7375 36.5616C33.1744 36.4401 32.833 36.6601 32.6922 37.042C32.5303 37.4801 32.1643 38.5149 31.83 39.5919C31.6019 40.2839 31.2817 40.9421 30.8779 41.5487C30.8615 41.5736 30.8551 41.6037 30.86 41.6331C30.8649 41.6625 30.8807 41.6889 30.9043 41.7071L31.0187 41.8004C31.0187 41.8004 31.0627 41.8778 31.244 41.8883C31.4252 41.8989 31.4675 41.6525 31.4675 41.6525Z" fill="#B3B3B3"/>
<path d="M31.0255 41.7935L30.9112 41.7003C30.8876 41.6821 30.8717 41.6556 30.8668 41.6263C30.8619 41.5969 30.8683 41.5667 30.8848 41.5419C31.2885 40.9353 31.6087 40.2771 31.8368 39.585C32.1659 38.5081 32.5407 37.4733 32.6991 37.0351C32.8399 36.6533 33.1812 36.4333 33.7444 36.5547" stroke="black" stroke-width="0.5" stroke-linecap="round" stroke-linejoin="round"/>
<path d="M34.2857 36.4929C34.2857 36.4929 35.5827 34.4111 36.0719 34.1348C36.5611 33.8585 37.7542 33.8761 38.078 35.4757C38.4018 37.0754 37.4005 42.1628 37.4005 42.1628C37.4005 42.1628 36.7336 40.8237 36.2602 39.9086C35.7868 38.9935 35.1955 38.2034 34.7063 37.8109C34.2171 37.4185 33.7332 37.2109 33.3091 37.4062C32.885 37.6015 32.5172 39.5179 32.0772 40.4805C31.8573 40.9609 31.5968 41.4378 31.4736 41.6437" stroke="black" stroke-width="0.5" stroke-linecap="round" stroke-linejoin="round"/>
<path d="M32.6598 46.768C32.5578 46.3791 32.1759 45.5608 32.2568 44.2868C32.2991 43.6497 32.2445 43.0127 31.7887 42.5393C31.4526 42.1874 30.3317 42.0395 30.747 42.879C30.8754 43.1376 29.934 42.4214 29.9041 42.3194C29.7721 41.8689 29.1825 41.5679 28.8816 41.9216C28.088 42.8526 27.1958 43.6568 28.2886 44.7478C28.4734 44.9238 29.3849 45.0998 29.633 45.4676C29.7386 45.6259 29.1843 46.0835 29.2811 46.1715C29.3163 46.2031 29.7826 46.6589 29.809 46.6994C30.0702 47.0942 30.3054 47.5057 30.5129 47.9312C30.5657 48.0632 30.7382 48.2691 30.8649 48.1917C31.0303 48.0861 31.1939 48.1195 31.4509 48.1741C31.5705 48.1741 31.7747 47.9207 32.0914 47.7992C32.1726 47.7464 32.242 47.6775 32.2953 47.5966C32.3486 47.5158 32.3846 47.4248 32.4011 47.3294C32.4381 46.9757 32.7672 47.1798 32.6598 46.768Z" fill="white"/>
<path d="M29.3567 44.565C29.779 44.8853 29.9039 45.1316 29.7667 45.2689C29.6294 45.4062 29.0364 45.2953 28.8076 45.1651C28.487 44.9832 28.202 44.7447 27.9665 44.4612C27.8429 44.2777 27.7352 44.084 27.6444 43.8822C27.5652 43.7361 27.7306 43.4528 28.1002 43.5303C28.2309 43.5585 28.3496 43.6268 28.4398 43.7256C28.723 44.0289 29.0296 44.3096 29.3567 44.565V44.565Z" stroke="black" stroke-width="0.5" stroke-linecap="round" stroke-linejoin="round"/>
<path d="M28.9083 42.8828C29.1037 42.9901 29.4979 43.4494 29.8304 43.7327C30.163 44.0161 30.8317 44.5493 30.6646 44.7164C30.4974 44.8836 29.9607 44.7675 29.2726 44.3522C28.7834 44.0548 28.1974 43.5233 28.083 43.1203C28.0662 43.0757 28.0596 43.0279 28.0637 42.9803C28.0677 42.9328 28.0823 42.8868 28.1065 42.8457C28.1306 42.8045 28.1636 42.7693 28.2031 42.7425C28.2425 42.7157 28.2875 42.6981 28.3347 42.691C28.5951 42.6716 28.5951 42.7121 28.9083 42.8828Z" stroke="black" stroke-width="0.5" stroke-linecap="round" stroke-linejoin="round"/>
<path d="M28.6989 42.1487C28.6915 42.2175 28.6997 42.287 28.7229 42.3522C28.746 42.4174 28.7836 42.4766 28.8327 42.5253C29.0579 42.7664 29.4327 43.3119 29.9132 43.5565C30.5696 43.8926 30.8388 44.0545 31.0165 43.8908C31.1943 43.7272 31.1168 43.421 30.3355 42.8491C30.0979 42.6731 29.4556 41.9498 29.2797 41.9076C29.0139 41.8442 28.72 41.9885 28.6989 42.1487Z" stroke="black" stroke-width="0.5" stroke-linecap="round" stroke-linejoin="round"/>
<path d="M32.2727 44.0598C32.3774 44.5577 32.3774 45.0718 32.2727 45.5697C32.1838 45.8008 32.1838 46.0566 32.2727 46.2877L32.4223 46.6783" stroke="black" stroke-width="0.5" stroke-linecap="round" stroke-linejoin="round"/>
<path d="M30.7928 44.8571C30.9836 44.6071 31.1099 44.314 31.1606 44.0036C31.2363 43.3261 30.9846 43.2663 30.6221 42.5782C30.3951 42.1523 31.2644 42.1576 31.6973 42.6855C31.9678 43.0156 32.1528 43.4073 32.2358 43.8259C32.2517 43.9033 32.2658 43.9807 32.2798 44.0564" stroke="black" stroke-width="0.5" stroke-linecap="round" stroke-linejoin="round"/>
<path d="M30.3149 46.5481C30.3149 46.5059 30.3008 46.4619 30.2955 46.4179C30.2691 46.188 30.2822 45.9553 30.3342 45.7298C30.3641 45.5996 30.4103 45.4737 30.4715 45.355" stroke="black" stroke-width="0.5" stroke-linecap="round" stroke-linejoin="round"/>
<path d="M58.3329 38.6872C57.5287 38.3968 56.267 38.2771 55.593 38.9159C54.919 39.5547 54.245 40.2885 54.3295 41.2951C54.4139 42.3017 54.5459 43.4209 56.7315 44.1759C58.5846 44.8164 59.6809 44.3518 60.779 44.0844C61.8771 43.8169 62.3381 43.5811 62.5898 42.8525C62.8414 42.124 63.269 41.2564 62.7658 40.2006C62.3029 39.2397 61.9651 38.8737 61.2066 38.6907C60.4482 38.5077 59.7742 38.4179 59.4363 38.5147C59.2198 38.5622 58.5846 38.7804 58.3329 38.6872Z" fill="#C69C6D"/>
<path d="M58.3329 38.7807C57.5287 38.4903 56.267 38.3706 55.593 39.0094C54.919 39.6482 54.245 40.3821 54.3295 41.3886C54.4139 42.3952 54.5459 43.5144 56.7315 44.2694C58.5846 44.9099 59.6809 44.4453 60.779 44.1779C61.8771 43.9104 62.3381 43.6746 62.5898 42.946C62.8414 42.2175 63.269 41.3499 62.7658 40.2941C62.3029 39.3332 61.9651 38.9672 61.2066 38.7842C60.4482 38.6012 59.7742 38.5097 59.4363 38.6082C59.2198 38.654 58.5846 38.8704 58.3329 38.7807Z" stroke="black" stroke-width="0.5" stroke-linecap="round" stroke-linejoin="round"/>
<path d="M57.6592 40.3345C57.9108 40.609 58.2487 40.609 58.3332 40.7005" stroke="black" stroke-width="0.5" stroke-linecap="round" stroke-linejoin="round"/>
<path d="M59.7656 42.2543C60.1017 42.2543 60.3551 42.3458 60.693 42.1646" stroke="black" stroke-width="0.5" stroke-linecap="round" stroke-linejoin="round"/>
<path d="M60.1016 39.8767C60.1016 40.0527 60.355 40.0527 60.4394 40.1512" stroke="black" stroke-width="0.5" stroke-linecap="round" stroke-linejoin="round"/>
<path d="M56.5209 45.5697C56.535 45.0496 56.3456 44.5445 55.993 44.1619C55.641 43.81 55.4017 43.6146 55.2891 43.2821C55.1131 42.7541 55.2891 42.4022 55.2891 41.6983C55.2891 40.9944 54.7611 41.6983 54.5852 42.2262C54.4706 42.5055 54.4109 42.8042 54.4092 43.1061C54.4092 43.6622 54.4092 44.1619 54.5852 44.5139L54.9371 44.2834C54.9371 44.2834 56.5209 46.0977 56.5209 45.5697Z" fill="white"/>
<path d="M56.6019 45.4272C56.6161 44.907 56.4266 44.4019 56.074 44.0194C55.7221 43.6674 55.481 43.4738 55.3701 43.1395C55.1941 42.6115 55.3701 42.2596 55.3701 41.5557C55.3701 40.8518 54.8422 41.5557 54.6662 42.0836C54.5517 42.3629 54.4919 42.6616 54.4902 42.9635C54.5104 43.4368 54.5693 43.9076 54.6662 44.3713C54.7211 44.6533 54.7946 44.9314 54.8862 45.2037" stroke="black" stroke-width="0.5" stroke-linecap="round" stroke-linejoin="round"/>
</g>
<mask id="mask1_473_2" style="mask-type:alpha" maskUnits="userSpaceOnUse" x="216" y="35" width="63" height="29">
<rect x="216" y="35" width="63" height="29" fill="#C4C4C4"/>
</mask>
<g mask="url(#mask1_473_2)">
<path d="M229.759 44.6371C229.759 44.6371 228.588 43.3723 228.044 42.9725C227.5 42.5727 226.736 41.8834 226.59 42.0574C226.445 42.2314 228.178 44.0515 228.382 44.3393C228.586 44.627 228.809 45.0687 228.439 44.8027C228.069 44.5367 227.087 43.9662 226.619 43.6199C226.065 43.2201 224.999 42.7266 224.854 42.9006C224.708 43.0745 226.192 44.2991 226.569 44.5735L227.489 45.2427C227.673 45.3765 227.857 45.5103 227.509 45.3966C227.161 45.2828 226.423 44.9717 225.929 44.8111C225.58 44.6973 224.698 44.3393 224.553 44.5133C224.407 44.6873 225.309 45.2025 226.209 45.7161C227.109 46.2297 228.412 47.1833 228.616 47.471" fill="white"/>
<path d="M229.759 44.6371C229.759 44.6371 228.588 43.3723 228.044 42.9725C227.5 42.5727 226.736 41.8834 226.59 42.0574C226.445 42.2314 228.178 44.0515 228.382 44.3393C228.586 44.627 228.809 45.0687 228.439 44.8027C228.069 44.5367 227.087 43.9662 226.619 43.6199C226.065 43.2201 224.999 42.7266 224.854 42.9006C224.708 43.0745 226.192 44.2991 226.569 44.5735L227.489 45.2427C227.673 45.3765 227.857 45.5103 227.509 45.3966C227.161 45.2828 226.423 44.9717 225.929 44.8111C225.58 44.6973 224.698 44.3393 224.553 44.5133C224.407 44.6873 225.309 45.2025 226.209 45.7161C227.109 46.2297 228.412 47.1833 228.616 47.471" stroke="black" stroke-width="0.5" stroke-linecap="round" stroke-linejoin="round"/>
<path d="M226.102 72.3609C226.529 72.115 227.546 72.0614 228.121 72.2053C228.744 72.3609 229.831 72.826 232.008 73.2927L232.628 73.1372C232.628 73.1372 231.23 71.8942 230.453 70.8068C229.677 69.7193 228.744 68.1635 228.588 66.1443C228.553 65.659 228.669 65.1747 228.919 64.7574C229.169 64.3401 229.542 64.0101 229.987 63.8122C230.765 63.5011 232.008 63.5011 232.628 63.6566L233.095 63.1899C233.585 62.3376 233.852 61.3756 233.873 60.3927C233.871 59.6134 233.819 58.835 233.717 58.0623L233.418 57.3664C233.418 57.3664 232.079 56.5299 230.765 54.6429C229.885 53.3798 229.52 52.0013 229.366 51.379C229.212 50.7566 229.055 48.7374 229.055 48.2707L230.763 47.8759C230.763 47.8759 231.071 47.4258 231.071 47.9595C231.071 48.4932 231.534 49.7813 232.074 50.5074C232.637 51.2619 234.023 52.622 234.488 52.7776L235.112 53.0887C234.612 52.4166 234.195 51.6863 233.869 50.9139C233.496 49.9904 233.734 49.0737 234.025 48.4279C234.289 47.8441 234.957 47.4961 235.268 47.4961L235.949 47.2067C235.949 47.2067 236.451 46.8721 236.618 46.5375C236.872 46.1171 237.147 45.71 237.443 45.3179C237.654 44.8964 238.366 44.1168 238.801 43.6584C238.847 43.6104 238.903 43.5732 238.966 43.5495C239.028 43.5257 239.094 43.516 239.161 43.5209C239.227 43.5259 239.291 43.5454 239.349 43.5781C239.407 43.6109 239.457 43.656 239.496 43.7103C239.613 43.8697 239.707 44.0448 239.775 44.2305C239.952 44.7608 239.775 45.4735 239.775 45.4735C240.247 45.5508 240.714 45.6547 241.174 45.7847C241.609 45.9453 242.026 46.1534 242.417 46.4053L243.35 45.6291L244.222 44.7558C244.309 44.6682 244.416 44.6016 244.533 44.5612C244.65 44.5208 244.775 44.5076 244.899 44.5226C245.022 44.5376 245.14 44.5804 245.244 44.6478C245.348 44.7151 245.436 44.8053 245.5 44.9114C245.734 45.2728 245.9 45.6735 245.992 46.0942C246.144 47.0143 245.68 48.7374 245.68 48.7374L245.931 50.0206C245.951 50.1215 245.994 50.2166 246.057 50.2983C246.48 50.852 246.826 51.2334 246.965 51.5111C247.133 51.8457 247.133 52.6487 246.768 53.2443C246.303 54.0205 244.904 54.6429 244.904 54.6429L244.749 55.1096C245.369 55.2652 246.631 55.1916 247.802 55.0243C248.938 54.857 249.697 54.2815 250.298 53.604L249.809 53.0168C249.809 53.0168 249.642 52.6822 249.419 52.2221C248.943 51.2351 247.914 48.9131 248.737 46.484L248.78 46.3752L248.826 46.2498C249.757 43.7638 252.401 41.2778 255.974 40.9666C260.012 40.6153 263.124 41.4317 265.766 42.832C268.407 44.2322 270.51 47.0544 270.895 49.3564C271.206 51.2217 270.584 52.9315 269.03 53.5538C268.434 53.7913 266.257 53.8415 265.326 53.5304L265.096 53.1724C265.969 54.8495 266.562 56.6577 266.853 58.5257C267.164 60.7006 266.853 63.3438 265.143 65.987C263.551 68.4479 260.009 70.3015 257.373 70.8051C255.407 71.1781 253.27 71.046 251.884 70.8804L251.859 70.862C252.051 72.9063 251.477 74.4872 250.654 75.312C250.013 75.9527 248.789 76.7105 247.39 76.7105L248.012 77.0217C248.844 77.0052 249.675 77.0567 250.498 77.1756C251.741 77.3312 253.296 77.6424 254.074 78.5759C254.851 79.5094 254.694 80.13 254.694 80.2839L253.918 80.7507C253.5 80.8895 253.14 80.5951 252.053 80.2839C250.965 79.9728 248.789 79.8189 247.703 79.6633C246.617 79.5077 244.75 79.6633 244.128 79.3521C243.874 79.2325 243.671 79.0253 243.557 78.7686C243.442 78.5118 243.424 78.2225 243.506 77.9535C243.661 77.4868 243.817 76.7105 243.661 76.3994C243.506 76.0882 241.804 74.6913 240.089 73.7595C238.375 72.8277 236.971 72.7741 236.394 73.005C235.76 73.2593 235.795 74.7315 236.094 75.4341C236.315 75.951 236.585 76.8092 236.429 77.2743C236.273 77.7394 235.725 77.9435 235.258 77.9435C234.791 77.9435 234.182 77.4884 232.784 76.5566C231.445 75.6683 229.061 74.9724 227.656 74.6913C226.878 74.5357 226.102 74.2246 225.791 73.9151C225.299 73.4249 225.721 72.5784 226.102 72.3609ZM247.86 61.7913C247.86 61.7913 248.481 62.7248 248.948 63.5011C249.783 64.8678 250.5 66.3034 251.091 67.7921C252.212 67.3521 253.227 66.5123 253.956 65.6792C255.044 64.4362 255.511 63.0377 255.199 61.1723C254.9 59.3789 253.873 57.9419 253.157 57.0335L252.573 56.3325C252.216 57.0871 251.734 57.7764 251.149 58.3718C249.824 59.7303 247.547 61.0168 247.547 61.0168L247.86 61.7913Z" fill="white"/>
<path d="M249.834 67.9042C250.67 67.7369 252.009 67.0359 252.176 66.9004C254.379 65.102 255.856 63.5546 254.351 59.0376C254.1 58.2831 253.044 57.2744 252.537 56.6805C251.91 55.9427 251.264 55.4124 250.67 54.688C249.85 53.6995 249.226 52.564 248.83 51.3421C248.328 50.0038 247.972 47.8424 248.161 47.3271C248.161 46.8252 248.685 45.5003 248.986 45.0034C249.99 43.3438 251.172 42.4756 253.012 41.8064C253.568 41.4953 254.396 41.3045 255.02 41.1372C256.228 40.8027 257.762 41.0001 259.003 40.9917C261.043 40.949 263.063 41.4007 264.89 42.3083C265.377 42.4756 266.033 42.9959 266.476 43.2267C268.818 44.448 270.324 47.2568 270.936 49.7244C271.353 51.3973 269.623 51.7453 268.738 50.3384C267.744 48.7575 267.48 46.5475 265.727 45.6542C264.269 44.9996 262.629 44.8725 261.088 45.2945C260.449 45.4735 259.537 46.3233 259.202 46.9925C258.533 48.3309 259.181 50.3016 259.872 51.5094C260.541 52.6805 261.248 53.5839 261.847 54.8938C262.896 57.1874 263.865 59.4391 263.204 62.0004C262.757 63.7352 261.685 65.1455 260.327 66.2413C259.656 66.7438 258.944 67.1882 258.199 67.5696C256.22 68.7189 251.925 68.9414 249.667 69.0752C249.207 69.102 248.238 68.2237 249.834 67.9042Z" fill="#FBB03B"/>
<path d="M235.781 46.9925C236.618 46.3233 236.618 45.8214 237.12 45.3195C237.307 45.1322 237.899 45.5454 238.123 44.9849C238.458 44.1485 238.816 43.8607 238.96 43.6466C239.294 43.1447 239.416 43.1882 239.629 43.8139C239.78 44.2555 239.796 44.8745 239.796 45.3195C239.796 45.45 240.589 45.3798 240.967 45.4868C241.19 45.5487 241.814 45.9352 242.172 46.1075C242.416 46.2246 242.654 46.2112 242.808 45.9887C242.961 45.7662 243.201 45.4868 243.309 45.3195C243.753 44.6504 245.484 43.8139 244.982 44.8176C244.859 45.0652 244.313 46.156 244.146 46.6579C244.029 46.9948 244.032 47.3617 244.154 47.6968C244.276 48.0319 244.509 48.3149 244.815 48.4981C244.87 48.5316 244.959 48.5901 245.061 48.6654C245.13 48.7045 245.209 48.7251 245.288 48.7251C245.368 48.7251 245.447 48.7045 245.516 48.6654C245.543 48.652 245.782 50.0891 245.722 50.0723C245.443 49.9286 245.192 49.7353 244.982 49.5019C244.798 49.1673 244.29 48.5533 244.146 48.4981C243.833 48.1903 242.746 47.9962 242.473 47.9745C242.075 47.9477 241.678 48.0202 241.315 48.1855C240.953 48.3508 240.637 48.6037 240.397 48.9214C240.297 49.0483 240.174 49.156 240.035 49.2392C239.881 49.3471 239.704 49.4186 239.519 49.4483C239.318 49.4679 239.116 49.4372 238.931 49.3589C238.746 49.2806 238.583 49.1572 238.458 49C238.378 48.8896 238.416 48.6436 238.436 48.4981C238.503 48.013 238.531 47.5245 238.207 47.0644C237.591 46.1995 236.844 46.4237 236.116 47.1514C235.614 47.6533 235.279 47.486 235.112 47.3187C235.084 47.2986 235.773 46.9925 235.781 46.9925Z" fill="#FBB03B"/>
<path d="M228.922 64.3911C229.536 63.65 229.915 63.3539 230.915 63.3873H230.943C231.263 63.3304 232.034 63.3873 232.529 63.3873C232.642 63.3869 232.751 63.3526 232.844 63.2891C232.936 63.2255 233.007 63.1356 233.048 63.031C233.224 62.5743 233.55 61.8716 233.607 61.7211C234.15 60.1017 233.618 57.5939 233.122 57.0536C233.111 57.0428 233.097 57.0342 233.083 57.0285C232.621 56.8277 231.029 54.9357 230.619 54.4204C229.849 53.4501 229.199 50.76 229.16 50.5977C229.008 49.9403 228.815 49.338 228.922 48.6722C228.968 48.3911 229.409 48.1703 229.592 48.1703C229.874 48.1308 230.153 48.075 230.428 48.003C230.763 48.003 230.763 47.5011 230.93 47.8357C231.208 48.3911 231.756 49.8148 232.091 50.3301C232.098 50.3404 232.106 50.3499 232.114 50.3585C232.272 50.5124 233.823 52.0314 234.958 53.1741C234.979 53.1941 235.007 53.2293 235.035 53.261C235.085 53.3174 235.129 53.3785 235.168 53.4434C235.333 53.7385 235.482 54.0423 235.614 54.3535C235.822 55.2452 235.964 56.1511 236.039 57.0636C236.116 58.0339 235.872 59.5345 235.782 60.2087C235.73 60.5918 234.726 63.9795 234.535 64.6487C234.276 65.5621 234.109 67.4024 234.276 68.0715C234.667 69.6407 234.958 70.4136 235.949 70.9155C236.618 71.2501 238.191 71.5663 239.797 72.2539C240.968 72.7557 242.54 73.3915 242.641 73.4249C243.644 73.7595 244.937 73.6173 245.317 73.2576C246.38 72.2539 246.656 70.9021 246.656 69.4099C246.656 66.3986 245.904 62.7014 244.983 60.7106C244.983 60.7106 244.722 60.2087 244.718 60.2087C244.131 58.7884 243.429 57.4149 242.982 55.9411C242.864 55.5917 242.85 55.2158 242.942 54.8587C242.98 54.6956 243.064 54.547 243.184 54.4304C243.274 54.3498 243.369 54.2744 243.467 54.2046C243.835 53.9269 244.648 53.6893 245.2 53.5672C245.592 53.4868 245.968 53.3421 246.313 53.1389C246.345 53.1237 246.38 53.1189 246.415 53.1253C246.45 53.1317 246.482 53.149 246.506 53.1747C246.531 53.2003 246.546 53.233 246.551 53.2681C246.555 53.3031 246.549 53.3387 246.532 53.3698C246.423 53.5371 246.334 53.6626 246.321 53.6893C246.272 53.7914 245.592 54.3284 245.031 54.6596C245.004 54.6775 244.983 54.7027 244.97 54.7323C244.957 54.7619 244.953 54.7946 244.959 54.8264C244.964 54.8582 244.978 54.8879 245 54.9117C245.022 54.9355 245.05 54.9526 245.081 54.9607C245.523 55.0461 246.155 55.195 246.321 55.195C247.157 55.195 248.82 54.6931 248.83 54.6931C249.834 54.1912 250.503 53.1874 251.34 51.8491C251.405 51.7437 252.242 48.2121 252.344 48.1686C252.521 48.0532 253.095 48.6003 253.347 48.6705C253.698 48.8042 254.034 48.9724 254.351 49.1724C254.701 49.1122 254.017 50.678 253.849 51.1799C253.682 51.6818 253.722 53.0971 253.682 53.1874C253.515 53.5672 253.034 54.9624 253.013 55.0277C252.29 57.0637 250.944 58.8199 249.165 60.0465C249.165 60.0465 247.51 60.9181 247.659 61.2175C247.994 61.8867 249.464 64.3258 249.5 64.3961C250.182 65.7227 250.741 66.3066 251.173 67.742C251.596 69.1489 251.855 71.1514 251.674 72.5935C251.524 73.7946 251.074 74.9356 250.001 75.6047C248.929 76.2739 248.019 76.8645 246.823 76.7758C246.632 76.7624 245.265 76.8712 245.15 76.7758C243.173 76.6085 242.44 74.8653 240.633 74.0991C240.578 74.0757 240.011 73.7913 239.964 73.7645C239.688 73.7043 239.462 73.4299 239.082 73.3513C238.236 73.184 236.872 72.565 236.116 72.9281C235.711 73.1221 236.193 74.4069 235.782 74.4337C235.58 74.314 235.347 74.2558 235.112 74.2664H234.928C234.107 74.0991 234.018 73.5487 232.603 73.2626C231.934 73.0954 229.831 70.5859 229.232 68.9448C229.228 68.9334 229.222 68.9227 229.215 68.913C228.73 68.2288 228.66 67.4893 228.588 66.7382C228.501 65.8114 228.421 64.893 228.922 64.3911ZM246.811 69.5136C246.826 69.4946 246.836 69.473 246.843 69.45C246.861 69.3781 246.876 69.3045 246.891 69.2292C246.843 69.3597 246.786 69.4868 246.724 69.6123L246.811 69.5136Z" fill="#FBB03B"/>
<path d="M243.289 45.542L244.162 44.6704C244.25 44.5825 244.356 44.5156 244.474 44.4751C244.591 44.4345 244.716 44.4212 244.839 44.4362C244.963 44.4512 245.081 44.4941 245.185 44.5616C245.289 44.6292 245.376 44.7196 245.44 44.826C245.674 45.1877 245.84 45.5883 245.932 46.0088C246.084 46.9289 245.621 48.6503 245.621 48.6503L245.872 49.9351C245.892 50.0354 245.934 50.1298 245.996 50.2112C246.421 50.7649 246.767 51.1463 246.906 51.4257C247.073 51.7603 247.073 52.5616 246.708 53.1572C246.242 53.9351 244.843 54.5558 244.843 54.5558" stroke="black" stroke-width="0.5" stroke-linecap="round" stroke-linejoin="round"/>
<path d="M242.357 46.3232C241.967 46.0704 241.551 45.8617 241.114 45.7008C240.654 45.5708 240.188 45.4669 239.716 45.3897C239.716 45.3897 239.893 44.6787 239.716 44.1467C239.647 43.9613 239.553 43.7862 239.436 43.6264C239.398 43.5722 239.348 43.5273 239.29 43.4947C239.232 43.4621 239.167 43.4427 239.101 43.4379C239.035 43.4331 238.968 43.4431 238.906 43.467C238.844 43.4909 238.788 43.5282 238.742 43.5762C238.307 44.0346 237.595 44.8125 237.384 45.2341" stroke="black" stroke-width="0.5" stroke-linecap="round" stroke-linejoin="round"/>
<path d="M241.58 46.3198L240.804 47.2516" stroke="black" stroke-width="0.5" stroke-linecap="round" stroke-linejoin="round"/>
<path d="M240.181 45.8533L239.716 46.9407" stroke="black" stroke-width="0.5" stroke-linecap="round" stroke-linejoin="round"/>
<path d="M244.999 46.1643C244.999 46.1643 244.688 46.9405 244.688 47.4073" stroke="black" stroke-width="0.5" stroke-linecap="round" stroke-linejoin="round"/>
<path d="M243.29 48.9614C243.34 49.017 243.373 49.0865 243.383 49.1609C243.393 49.2353 243.381 49.311 243.348 49.3783C243.314 49.4455 243.261 49.5011 243.196 49.5377C243.13 49.5744 243.055 49.5904 242.98 49.5837C242.825 49.5837 242.358 49.2726 242.514 48.9614C242.669 48.6502 243.134 48.8058 243.29 48.9614Z" stroke="black" stroke-width="0.5" stroke-linecap="round" stroke-linejoin="round"/>
<path d="M237.349 47.8958C237.225 48.3174 236.667 48.2672 236.655 47.9192C236.647 47.8579 236.654 47.7956 236.675 47.7376C236.696 47.6796 236.731 47.6275 236.777 47.5858C236.823 47.5441 236.878 47.5141 236.937 47.4981C236.997 47.4822 237.06 47.4809 237.12 47.4943C237.164 47.5003 237.207 47.5164 237.244 47.5414C237.281 47.5664 237.312 47.5996 237.334 47.6384C237.356 47.6773 237.369 47.7207 237.372 47.7653C237.374 47.8099 237.367 47.8546 237.349 47.8958V47.8958Z" stroke="black" stroke-width="0.5" stroke-linecap="round" stroke-linejoin="round"/>
<path d="M239.405 48.9614C239.094 48.8058 238.627 48.8058 238.472 48.9614C238.429 49.0219 238.398 49.0906 238.383 49.1633C238.367 49.236 238.366 49.3112 238.381 49.3841C238.396 49.457 238.425 49.5261 238.467 49.5872C238.51 49.6483 238.564 49.7001 238.627 49.7393C238.771 49.8149 238.931 49.8544 239.094 49.8544C239.257 49.8544 239.417 49.8149 239.561 49.7393C239.872 49.5837 239.716 49.117 239.405 48.9614Z" fill="black" stroke="black" stroke-width="0.5" stroke-linecap="round" stroke-linejoin="round"/>
<path d="M236.116 49.8364C236.732 50.7415 237.657 51.0426 238.563 51.322C239.427 51.5863 240.852 51.6014 241.426 51.322" stroke="black" stroke-width="0.5" stroke-linecap="round" stroke-linejoin="round"/>
<path d="M235.209 47.4075C234.898 47.4075 234.23 47.7571 233.964 48.3393C233.673 48.98 233.437 49.9018 233.809 50.8269C234.134 51.5995 234.552 52.3298 235.053 53.0018" stroke="black" stroke-width="0.5" stroke-linecap="round" stroke-linejoin="round"/>
<path d="M244.688 55.0227C245.31 55.1783 246.572 55.1063 247.743 54.939C249.108 54.7433 249.929 53.9353 250.587 53.0988C251.758 51.5932 252.26 48.2473 252.26 48.2473" stroke="black" stroke-width="0.5" stroke-linecap="round" stroke-linejoin="round"/>
<path d="M247.796 61.7141C247.796 61.7141 248.419 62.6459 248.885 63.4238C249.672 64.7354 251.216 67.464 251.683 69.9483C252.141 72.3958 251.527 74.2979 250.595 75.2314C249.954 75.8722 248.73 76.63 247.331 76.63" stroke="black" stroke-width="0.5" stroke-linecap="round" stroke-linejoin="round"/>
<path d="M234.432 52.692C233.965 52.5364 232.58 51.1763 232.018 50.4218C231.476 49.6958 231.014 48.4143 231.014 47.874C231.014 47.3336 231.014 46.7414 231.181 46.2395" stroke="black" stroke-width="0.5" stroke-linecap="round" stroke-linejoin="round"/>
<path d="M228.992 48.1853C228.992 48.6504 229.146 50.6713 229.302 51.2936C229.458 51.9159 229.822 53.3011 230.701 54.5558C232.017 56.4446 233.355 57.281 233.355 57.281" stroke="black" stroke-width="0.5" stroke-linecap="round" stroke-linejoin="round"/>
<path d="M233.655 57.9753C233.755 58.7487 233.806 59.5276 233.809 60.3074C233.789 61.2902 233.522 62.2521 233.032 63.1046" stroke="black" stroke-width="0.5" stroke-linecap="round" stroke-linejoin="round"/>
<path d="M232.566 63.5712C231.946 63.4156 230.701 63.4156 229.925 63.7268C229.48 63.9235 229.107 64.2531 228.856 64.6703C228.606 65.0875 228.491 65.5719 228.526 66.0572C228.682 68.0781 229.614 69.6322 230.392 70.7196C231.17 71.807 232.566 73.0517 232.566 73.0517" stroke="black" stroke-width="0.5" stroke-linecap="round" stroke-linejoin="round"/>
<path d="M251.028 67.7035C252.151 67.2635 253.164 66.4254 253.894 65.5906C254.983 64.3476 255.448 62.949 255.138 61.0837C254.839 59.2903 253.812 57.8533 253.096 56.9465" stroke="black" stroke-width="0.5" stroke-linecap="round" stroke-linejoin="round"/>
<path d="M262.754 47.0962C262.085 47.7654 262.599 49.271 263.686 50.8268C264.774 52.3827 266.333 55.2082 266.795 58.442C267.106 60.6168 266.795 63.2601 265.085 65.9016C263.492 68.3642 259.951 70.2178 257.314 70.7197C255.347 71.0944 253.21 70.9606 251.824 70.7966" stroke="black" stroke-width="0.5" stroke-linecap="round" stroke-linejoin="round"/>
<path d="M248.721 46.2896C248.735 46.2484 248.75 46.2065 248.767 46.1642C249.698 43.6765 252.34 41.1905 255.915 40.8794C259.953 40.5281 263.065 41.3461 265.707 42.7447C268.348 44.1433 270.451 46.9672 270.836 49.2691C271.145 51.1345 270.525 52.8442 268.971 53.4648C268.375 53.7024 266.95 53.9316 266.018 53.6204" stroke="black" stroke-width="0.5" stroke-linecap="round" stroke-linejoin="round"/>
<path d="M248.678 46.3967C247.841 48.8275 248.883 51.1495 249.36 52.1349C249.583 52.5966 249.75 52.9312 249.75 52.9312" stroke="black" stroke-width="0.5" stroke-linecap="round" stroke-linejoin="round"/>
<path d="M255.94 47.0762C255.606 47.4108 255.567 47.3756 255.271 47.7453C254.817 48.3479 254.477 49.0282 254.267 49.7529C254.1 50.5893 253.933 51.2869 253.766 52.095C253.623 52.8093 253.372 54.0423 253.096 54.7717C252.782 55.6081 252.414 56.9281 251.089 58.2848C249.764 59.6416 247.492 60.9281 247.492 60.9281" stroke="black" stroke-width="0.5" stroke-linecap="round" stroke-linejoin="round"/>
<path d="M255.241 54.8869C255.241 54.8986 254.582 54.4854 254.571 54.4971C254.523 54.579 256.646 57.5887 256.597 57.6756C256.587 57.6924 255.722 57.142 255.712 57.1587C255.676 57.224 257.139 59.7718 257.101 59.8354C257.093 59.8488 256.362 59.3854 256.353 59.3988C256.321 59.4523 257.158 61.674 257.126 61.7258C257.126 61.7375 256.457 61.3176 256.447 61.3293C256.42 61.3762 256.889 63.4355 256.86 63.4841C256.86 63.4941 256.223 63.0959 256.216 63.1077C256.193 63.1495 256.315 64.9964 256.291 65.0382C256.291 65.0483 255.671 64.6618 255.664 64.6719C255.642 64.7087 255.396 66.318 255.376 66.3548C255.376 66.3649 254.74 65.9684 254.734 65.9801C254.727 65.9918 254.14 67.4104 254.12 67.4439C254.1 67.4774 253.553 67.1093 253.548 67.1093" stroke="black" stroke-width="0.5" stroke-linecap="round" stroke-linejoin="round"/>
<path d="M256.293 52.1967C256.293 52.2068 255.801 51.7534 255.791 51.7651C255.734 51.8521 257.725 55.2933 257.67 55.382C257.656 55.4021 256.873 54.6593 256.86 54.6794C256.81 54.758 258.553 57.873 258.503 57.9533C258.493 57.9684 257.822 57.3377 257.812 57.3544C257.77 57.4196 258.913 60.2201 258.871 60.2854C258.871 60.2987 258.324 59.7935 258.317 59.8069C258.285 59.8554 258.844 62.067 258.819 62.1156C258.819 62.1256 258.317 61.6705 258.317 61.6806C258.29 61.7241 258.496 63.7433 258.468 63.7868C258.468 63.7868 258.011 63.3753 258.006 63.3853C257.983 63.4221 257.839 65.1319 257.819 65.1687C257.819 65.1787 257.37 64.7655 257.365 64.7755C257.36 64.7856 256.949 66.2628 256.929 66.2945C256.909 66.3263 256.477 65.8897 256.47 65.8997" stroke="black" stroke-width="0.5" stroke-linecap="round" stroke-linejoin="round"/>
<path d="M247.301 51.0928C247.157 50.6728 246.788 50.626 246.321 50.0037L246.015 48.6653C245.999 48.641 245.988 48.6136 245.983 48.5847C245.978 48.5559 245.979 48.5263 245.986 48.498C246.082 48.13 246.431 46.7047 246.298 45.9083C246.199 45.3111 245.729 44.6921 245.317 44.1501C245.11 43.8757 244.39 43.9058 244.146 44.1501L243.127 45.0635L243.112 45.0819L242.555 45.7778C242.526 45.8143 242.485 45.8398 242.439 45.8501C242.393 45.8604 242.345 45.855 242.303 45.8347C241.971 45.6699 241.629 45.5268 241.279 45.4065C240.944 45.296 240.491 45.1722 240.258 45.1103C240.216 45.1 240.178 45.0759 240.15 45.0417C240.123 45.0075 240.107 44.9652 240.106 44.9213C240.096 44.5752 240.04 44.2319 239.939 43.9008C239.845 43.6132 239.681 43.3533 239.462 43.1446C239.295 42.9774 238.554 43.1865 238.458 43.3119C238.08 43.8138 237.505 44.2555 237.264 44.7356L236.929 45.3914C236.924 45.4001 236.919 45.4085 236.912 45.4165C236.761 45.6454 236.597 45.865 236.419 46.074C236.267 46.2482 236.105 46.4124 235.932 46.5658L235.9 46.5859L235.582 46.7431C235.267 46.9053 234.928 47.0182 234.579 47.0777L234.017 47.0995C233.984 47.0995 233.952 47.0922 233.923 47.078C233.894 47.0637 233.869 47.0431 233.849 47.0175C232.375 45.0836 232.511 42.9907 233.747 41.9167C234.298 41.4349 235.234 40.6971 236.606 40.4746H236.631L237.583 40.4144H237.607C238.485 40.4445 239.564 40.7992 240.857 41.276C240.906 41.2944 240.959 41.2937 241.008 41.2742C241.056 41.2546 241.095 41.2176 241.117 41.1706L241.259 40.8678C241.27 40.8438 241.284 40.8218 241.302 40.8025C241.701 40.4547 242.169 40.1951 242.675 40.0409C243.182 39.8866 243.715 39.8412 244.24 39.9075C244.924 40.0196 245.62 40.5265 246.114 40.8293C246.938 41.3312 247.51 41.3847 247.832 41.905C248.206 42.5123 248.26 43.3922 248.191 43.9125C248.188 43.9412 248.178 43.9688 248.163 43.9933C248.147 44.0179 248.127 44.0388 248.103 44.0547C248.076 44.0738 248.054 44.0989 248.039 44.128C248.025 44.1571 248.017 44.1893 248.017 44.222C248.017 44.2547 248.025 44.287 248.039 44.3161C248.054 44.3452 248.076 44.3703 248.103 44.3893C249.329 45.286 250.278 46.3968 250.815 47.7619C252.344 51.5829 249.643 52.4462 248.138 52.4462L247.674 52.4294C247.622 52.427 247.573 52.405 247.536 52.3678C247.499 52.3306 247.477 52.281 247.475 52.2287C247.46 51.8447 247.402 51.4637 247.301 51.0928Z" fill="white"/>
<path d="M236.537 40.5317C235.16 40.7509 234.218 41.4937 233.666 41.9755C232.42 43.0662 232.291 45.2042 233.834 47.1616" stroke="black" stroke-width="0.5" stroke-linecap="round" stroke-linejoin="round"/>
<path d="M248.054 52.5131C249.559 52.5131 252.26 51.6499 250.731 47.8289C249.727 45.3195 247.385 43.6466 244.373 42.6428C241.362 41.6391 239.11 40.5165 237.514 40.468" stroke="black" stroke-width="0.5" stroke-linecap="round" stroke-linejoin="round"/>
<path d="M248.099 44.0665C248.186 43.5646 248.149 42.6044 247.753 41.962C247.431 41.4417 246.859 41.3932 246.035 40.8863C245.541 40.5835 244.845 40.0766 244.161 39.9645C243.115 39.7972 241.856 40.2355 241.195 40.8863" stroke="black" stroke-width="0.5" stroke-linecap="round" stroke-linejoin="round"/>
<path d="M244.373 40.8028C244.219 40.7123 244.048 40.6553 243.871 40.6355" stroke="black" stroke-width="0.5" stroke-linecap="round" stroke-linejoin="round"/>
<path d="M243.202 40.97C243.089 40.8941 242.958 40.848 242.822 40.8362" stroke="black" stroke-width="0.5" stroke-linecap="round" stroke-linejoin="round"/>
<path d="M236.91 41.3564C236.626 41.4056 236.349 41.494 236.089 41.6191" stroke="black" stroke-width="0.5" stroke-linecap="round" stroke-linejoin="round"/>
<path d="M237.849 41.9734C237.896 41.9734 237.347 41.9734 237.18 42.1407" stroke="black" stroke-width="0.5" stroke-linecap="round" stroke-linejoin="round"/>
<path d="M241.697 42.6429C241.456 42.5542 241.291 42.3719 241.08 42.4187" stroke="black" stroke-width="0.5" stroke-linecap="round" stroke-linejoin="round"/>
<path d="M242.198 43.6465C241.98 43.5797 241.767 43.4935 241.564 43.3889" stroke="black" stroke-width="0.5" stroke-linecap="round" stroke-linejoin="round"/>
<path d="M237.608 42.8302C237.504 42.814 237.398 42.8188 237.296 42.8444C237.193 42.87 237.097 42.9157 237.013 42.9791" stroke="black" stroke-width="0.5" stroke-linecap="round" stroke-linejoin="round"/>
<path d="M234.378 42.5474C234.169 42.6444 233.888 42.9037 233.858 43.0643" stroke="black" stroke-width="0.5" stroke-linecap="round" stroke-linejoin="round"/>
<path d="M235.507 42.8101C235.34 42.8101 235.005 43.1446 235.005 43.1446" stroke="black" stroke-width="0.5" stroke-linecap="round" stroke-linejoin="round"/>
<path d="M235.674 43.814C235.542 43.9813 235.339 43.9813 235.172 44.1486" stroke="black" stroke-width="0.5" stroke-linecap="round" stroke-linejoin="round"/>
<path d="M250.125 50.1911C250.27 49.9853 250.11 49.4868 250.023 49.3145" stroke="black" stroke-width="0.5" stroke-linecap="round" stroke-linejoin="round"/>
<path d="M249.081 49.0687C249.023 48.8177 248.986 48.3995 248.83 48.2439" stroke="black" stroke-width="0.5" stroke-linecap="round" stroke-linejoin="round"/>
<path d="M248.152 50.0186C248.152 49.838 248.203 49.6238 248.122 49.49" stroke="black" stroke-width="0.5" stroke-linecap="round" stroke-linejoin="round"/>
<path d="M252.678 47.1594C253.037 46.4267 256.628 47.0658 256.298 47.228C255.841 47.5586 255.414 47.9274 255.02 48.3305C254.685 48.6651 254.439 48.7922 254.183 49.167C254.016 49.4045 253.682 49.0532 253.514 48.9997C253.012 48.8324 252.678 48.6651 252.51 48.3305C252.405 48.1197 252.51 48.1632 252.343 47.9959C252.107 47.76 252.472 47.5794 252.678 47.1594Z" fill="white"/>
<path d="M252.427 47.5781C252.427 47.4108 252.26 46.8704 252.26 46.5743C252.26 46.407 252.26 45.9051 252.26 45.7378C252.275 45.2644 251.78 44.6906 251.847 44.3677C251.914 44.0448 252.26 44.0649 252.528 44.3393C252.759 44.5768 253.097 45.5705 253.933 45.4032C254.114 45.3132 254.282 45.2008 254.435 45.0687C254.79 44.714 255.439 44.2322 255.862 43.8842C256.402 43.4392 256.983 43.0327 257.112 43.2284C257.241 43.4242 255.628 45.0168 255.399 45.3062C255.169 45.5956 254.907 46.0473 255.298 45.7914C255.69 45.5354 256.719 44.9984 257.215 44.6705C257.801 44.2874 258.656 43.8692 258.785 44.0649C258.913 44.2606 257.567 45.4183 257.177 45.6743L256.192 46.3234C255.998 46.4522 255.802 46.5793 256.158 46.4907C256.514 46.402 257.277 46.1176 257.781 45.9888C258.139 45.8934 258.815 45.5605 258.952 45.7562C259.089 45.952 258.37 46.4455 257.426 46.9273C256.793 47.2754 256.185 47.6667 255.606 48.0983C255.606 48.0983 254.698 48.8763 254.435 49.2694" fill="white"/>
<path d="M252.427 47.5781C252.427 47.4108 252.26 46.8704 252.26 46.5743C252.26 46.407 252.26 45.9051 252.26 45.7378C252.275 45.2644 251.78 44.6906 251.847 44.3677C251.914 44.0448 252.26 44.0649 252.528 44.3393C252.759 44.5768 253.097 45.5705 253.933 45.4032C254.114 45.3132 254.282 45.2008 254.435 45.0687C254.79 44.714 255.439 44.2322 255.862 43.8842C256.402 43.4392 256.983 43.0327 257.112 43.2284C257.241 43.4242 255.628 45.0168 255.399 45.3062C255.169 45.5956 254.907 46.0473 255.298 45.7914C255.69 45.5354 256.719 44.9984 257.215 44.6705C257.801 44.2874 258.656 43.8692 258.785 44.0649C258.913 44.2606 257.567 45.4183 257.177 45.6743L256.192 46.3234C255.998 46.4522 255.802 46.5793 256.158 46.4907C256.514 46.402 257.277 46.1176 257.781 45.9888C258.139 45.8934 258.815 45.5605 258.952 45.7562C259.089 45.952 258.37 46.4455 257.426 46.9273C256.793 47.2754 256.185 47.6667 255.606 48.0983C255.606 48.0983 254.698 48.8763 254.435 49.2694" stroke="black" stroke-width="0.5" stroke-linecap="round" stroke-linejoin="round"/>
<path d="M222.547 47.4842C222.475 47.3217 222.436 47.1466 222.432 46.9689C222.432 46.9505 222.432 46.9321 222.432 46.9137C222.057 46.9037 221.7 46.7509 221.434 46.4866C221.168 46.2222 221.013 45.8663 221.001 45.4915C220.989 45.1168 221.121 44.7515 221.369 44.4704C221.617 44.1894 221.963 44.0137 222.336 43.9794C222.111 43.8371 221.933 43.6307 221.825 43.3865C221.718 43.1424 221.686 42.8717 221.733 42.6092C221.781 42.3467 221.906 42.1043 222.092 41.9133C222.278 41.7222 222.517 41.5912 222.778 41.5369C222.599 41.2521 222.534 40.9104 222.596 40.5798C222.658 40.2492 222.841 39.954 223.111 39.7528C223.38 39.5516 223.716 39.4593 224.05 39.4942C224.385 39.529 224.694 39.6885 224.916 39.9409C224.916 39.9108 224.961 39.8406 225.115 39.6867C225.19 39.6111 225.27 39.5407 225.354 39.4759C225.354 39.4207 225.374 39.3822 225.395 39.3705C225.286 39.195 225.218 38.9976 225.196 38.7927C225.173 38.5878 225.197 38.3804 225.264 38.1855C225.332 37.9907 225.442 37.8133 225.586 37.6663C225.731 37.5192 225.906 37.4061 226.1 37.3352C226.293 37.2643 226.5 37.2373 226.706 37.2563C226.911 37.2752 227.109 37.3396 227.287 37.4448C227.464 37.5499 227.616 37.6932 227.731 37.8642C227.846 38.0353 227.922 38.2298 227.952 38.4336L228.049 38.4236C228.045 38.241 228.077 38.0594 228.143 37.8891C228.209 37.7188 228.308 37.5632 228.434 37.4312C228.56 37.2991 228.711 37.1932 228.878 37.1195C229.045 37.0458 229.225 37.0057 229.408 37.0016C229.637 36.9904 229.864 37.038 230.069 37.1399C230.274 37.2418 230.45 37.3947 230.579 37.5838C230.697 37.7332 230.757 37.9206 230.746 38.1108L230.808 38.084C230.987 38.0047 231.18 37.9615 231.375 37.9569C231.568 37.9495 231.761 37.9802 231.942 38.0473C232.123 38.1143 232.289 38.2164 232.431 38.3477C232.573 38.4789 232.687 38.6368 232.768 38.8123C232.848 38.9878 232.894 39.1775 232.901 39.3705C232.908 39.5635 232.878 39.756 232.811 39.9372C232.744 40.1183 232.641 40.2844 232.51 40.4261C232.379 40.5678 232.221 40.6822 232.046 40.7629C231.87 40.8435 231.68 40.8888 231.487 40.8962C231.493 40.9401 231.495 40.9842 231.496 41.0284C231.501 41.2327 231.458 41.4354 231.372 41.6206C231.452 41.6048 231.533 41.5958 231.615 41.5938C231.947 41.5867 232.273 41.6925 232.537 41.894C232.802 42.0955 232.991 42.3808 233.073 42.7034C233.155 43.0259 233.125 43.3667 232.988 43.6701C232.852 43.9736 232.616 44.2218 232.32 44.3742C232.215 44.4213 232.101 44.4502 231.986 44.4595L231.688 44.5365C231.458 44.5421 231.23 44.4933 231.022 44.3942C230.814 44.2951 230.633 44.1484 230.492 43.966C230.374 44.153 230.212 44.3078 230.019 44.4167C229.827 44.5256 229.611 44.5852 229.39 44.59C229.213 44.5941 229.037 44.5628 228.873 44.498C228.89 44.584 228.9 44.6713 228.903 44.759C228.91 45.0246 228.84 45.2866 228.703 45.5139C228.565 45.7412 228.365 45.9243 228.127 46.0414C227.888 46.1585 227.621 46.2047 227.357 46.1746C227.093 46.1445 226.843 46.0393 226.638 45.8715C226.597 45.9035 226.554 45.9326 226.509 45.9585C226.612 46.144 226.67 46.3517 226.676 46.5641C226.682 46.7897 226.631 47.0132 226.528 47.2137C226.424 47.4143 226.272 47.5855 226.085 47.7114C225.897 47.8372 225.681 47.9137 225.456 47.9337C225.232 47.9536 225.006 47.9164 224.799 47.8255C224.799 47.8255 224.836 47.7385 224.737 47.8506C224.638 47.9627 224.389 47.8874 224.091 47.8874C223.991 47.8856 223.89 47.8744 223.792 47.8539C223.939 47.9568 224.069 48.0821 224.177 48.2253C224.289 48.4307 224.35 48.6604 224.354 48.8945C224.36 49.1735 224.288 49.4485 224.144 49.6876C224 49.9267 223.791 50.12 223.541 50.245C223.292 50.3699 223.012 50.4214 222.734 50.3934C222.457 50.3654 222.193 50.259 221.973 50.0867C221.754 49.9144 221.588 49.6833 221.495 49.4203C221.401 49.1573 221.385 48.8732 221.447 48.6011C221.509 48.3291 221.647 48.0803 221.845 47.8837C222.043 47.6871 222.293 47.5509 222.566 47.4909L222.547 47.4842Z" fill="#662D91"/>
<path d="M226.063 39.8322C226.204 39.884 226.352 39.9107 226.501 39.9109C226.73 39.9111 226.954 39.8489 227.15 39.7309C227.346 39.613 227.506 39.4438 227.612 39.2417" stroke="black" stroke-width="0.5" stroke-linecap="round" stroke-linejoin="round"/>
<path d="M223.78 44.0615C224.013 43.9747 224.215 43.8199 224.36 43.6171C224.505 43.4144 224.585 43.1729 224.591 42.9239C224.598 42.6749 224.529 42.4297 224.394 42.2201C224.26 42.0105 224.066 41.846 223.837 41.7478" stroke="black" stroke-width="0.5" stroke-linecap="round" stroke-linejoin="round"/>
<path d="M224.807 41.8881C224.764 42.0194 224.743 42.1566 224.743 42.2946C224.743 42.5593 224.822 42.8181 224.969 43.0382C225.116 43.2583 225.325 43.4298 225.569 43.5311C225.814 43.6324 226.083 43.6589 226.343 43.6073C226.602 43.5556 226.841 43.4282 227.028 43.241C227.215 43.0538 227.343 42.8154 227.394 42.5557C227.446 42.2961 227.419 42.027 227.318 41.7825C227.217 41.5379 227.045 41.3289 226.825 41.1819C226.605 41.0348 226.346 40.9563 226.082 40.9563C225.924 40.9566 225.767 40.9843 225.618 41.0383" stroke="black" stroke-width="0.5" stroke-linecap="round" stroke-linejoin="round"/>
<path d="M225.409 45.3194C225.236 45.2717 225.054 45.2644 224.877 45.2983C224.701 45.3322 224.534 45.4063 224.391 45.5149C224.248 45.6234 224.131 45.7635 224.051 45.9243C223.97 46.0851 223.928 46.2622 223.927 46.442C223.927 46.5264 223.937 46.6106 223.955 46.6929" stroke="black" stroke-width="0.5" stroke-linecap="round" stroke-linejoin="round"/>
<path d="M225.446 39.476C225.338 39.3005 225.27 39.1031 225.248 38.8982C225.225 38.6932 225.248 38.4858 225.316 38.291C225.383 38.0962 225.493 37.9188 225.638 37.7717C225.782 37.6247 225.958 37.5116 226.151 37.4407C226.345 37.3698 226.552 37.3428 226.757 37.3618C226.963 37.3807 227.161 37.4451 227.338 37.5502C227.516 37.6554 227.668 37.7987 227.783 37.9697C227.898 38.1407 227.974 38.3352 228.004 38.5391L228.101 38.5291C228.096 38.2323 228.185 37.9415 228.357 37.6993C228.529 37.457 228.773 37.276 229.055 37.1825C229.337 37.0891 229.641 37.0882 229.923 37.18C230.205 37.2718 230.451 37.4514 230.624 37.6926" stroke="black" stroke-width="0.5" stroke-linecap="round" stroke-linejoin="round"/>
<path d="M223.679 47.7754C223.828 47.7754 224.126 48.0732 224.225 48.2121C224.371 48.4833 224.428 48.7938 224.389 49.0994C224.349 49.4051 224.214 49.6906 224.004 49.9156C223.793 50.1405 223.517 50.2936 223.214 50.3531C222.912 50.4126 222.598 50.3756 222.318 50.2473C222.038 50.1189 221.805 49.9058 221.653 49.6379C221.5 49.37 221.436 49.061 221.468 48.7545C221.501 48.448 221.629 48.1595 221.835 47.9298C222.04 47.7 222.313 47.5407 222.614 47.4743C222.541 47.3121 222.502 47.1368 222.498 46.959C222.498 46.9406 222.498 46.9222 222.498 46.9022C222.121 46.8961 221.761 46.7452 221.492 46.4806C221.223 46.2161 221.066 45.8583 221.054 45.4813C221.041 45.1042 221.175 44.737 221.426 44.4555C221.677 44.1741 222.027 44.0001 222.403 43.9695C222.177 43.8276 221.998 43.6212 221.89 43.3769C221.782 43.1326 221.75 42.8616 221.797 42.5988C221.844 42.3359 221.969 42.0933 222.156 41.902C222.342 41.7107 222.581 41.5795 222.843 41.5254C222.658 41.2377 222.591 40.8904 222.654 40.5546C222.717 40.2187 222.907 39.9198 223.183 39.7192C223.46 39.5185 223.803 39.4312 224.142 39.4753C224.481 39.5194 224.79 39.6914 225.006 39.9561" stroke="black" stroke-width="0.5" stroke-linecap="round" stroke-linejoin="round"/>
<path d="M230.714 38.0322C230.892 37.9514 231.085 37.9081 231.281 37.9051C231.671 37.8904 232.05 38.0312 232.336 38.2965C232.622 38.5618 232.791 38.9298 232.806 39.3196C232.82 39.7093 232.68 40.089 232.414 40.3749C232.149 40.6609 231.781 40.8298 231.391 40.8444C231.398 40.8882 231.401 40.9323 231.401 40.9766C231.406 41.1804 231.364 41.3825 231.277 41.5671C231.358 41.5522 231.439 41.5432 231.52 41.5404C231.851 41.5355 232.174 41.6424 232.437 41.8436C232.699 42.0448 232.887 42.3287 232.968 42.6495C233.05 42.9702 233.021 43.3091 232.886 43.6114C232.752 43.9138 232.519 44.1619 232.226 44.3158" stroke="black" stroke-width="0.5" stroke-linecap="round" stroke-linejoin="round"/>
<path d="M222.698 44.183C222.345 44.1076 222.183 43.4679 222.336 42.7541C222.489 42.0404 222.898 41.5229 223.251 41.5983C223.603 41.6737 223.765 42.3135 223.612 43.0272C223.459 43.741 223.05 44.2584 222.698 44.183Z" fill="#662D91"/>
<path d="M222.96 41.5571C222.63 41.592 222.325 41.7482 222.103 41.9955C221.882 42.2428 221.76 42.5636 221.762 42.8955C221.762 43.3204 222.048 43.6918 222.358 43.9377" fill="#662D91"/>
<path d="M222.96 41.5571C222.63 41.592 222.325 41.7482 222.103 41.9955C221.882 42.2428 221.76 42.5636 221.762 42.8955C221.762 43.3204 222.048 43.6918 222.358 43.9377" stroke="black" stroke-width="0.5" stroke-linecap="round" stroke-linejoin="round"/>
<path d="M233.931 39.6314C234.497 39.7753 234.992 40.1187 235.326 40.5984C235.743 41.2258 235.98 42.9974 235.94 43.5528C235.911 43.9084 235.84 44.2593 235.729 44.5984C235.449 44.3789 235.19 44.1342 234.955 43.8673C234.779 43.6018 234.619 43.3265 234.474 43.0426L233.735 44.4729C233.498 44.8798 233.217 45.2601 232.899 45.6072C232.481 45.1203 232.155 44.5613 231.938 43.9576C231.656 43.0693 231.938 41.5687 231.938 41.5687C231.55 41.5657 231.164 41.6152 230.789 41.7159C230.382 41.8223 229.964 41.8829 229.543 41.8966C229.543 41.8966 230.61 40.4696 230.941 40.1467C231.429 39.7309 232.045 39.4948 232.686 39.4775C233.105 39.4888 233.522 39.5403 233.931 39.6314Z" fill="#2D9D60" stroke="black" stroke-width="0.5" stroke-linecap="round" stroke-linejoin="round"/>
<path d="M233.016 39.3622C233.016 39.3622 233.31 39.1514 233.362 39.6516C233.414 40.1518 233.529 40.9799 233.432 41.798C233.335 42.6161 233.143 43.0995 233.124 43.4274" stroke="black" stroke-width="0.5" stroke-linecap="round" stroke-linejoin="round"/>
<path d="M233.505 40.4846C233.505 40.4846 234.201 40.7975 234.509 41.1438C234.862 41.5912 235.115 42.11 235.248 42.6645" stroke="black" stroke-width="0.5" stroke-linecap="round" stroke-linejoin="round"/>
<path d="M233.292 40.3643C232.743 40.3699 232.199 40.47 231.684 40.6604L233.292 40.3643Z" fill="white"/>
<path d="M233.292 40.3643C232.743 40.3699 232.199 40.47 231.684 40.6604" stroke="black" stroke-width="0.5" stroke-linecap="round" stroke-linejoin="round"/>
<path d="M231.626 44.4831C231.396 44.4886 231.168 44.4399 230.96 44.3408C230.752 44.2416 230.57 44.095 230.43 43.9126C230.264 44.1759 230.012 44.3733 229.716 44.4707C229.421 44.5681 229.1 44.5595 228.81 44.4463C228.829 44.5316 228.839 44.6184 228.842 44.7056C228.848 44.9703 228.778 45.2311 228.64 45.4574C228.503 45.6838 228.304 45.8662 228.066 45.9834C227.829 46.1005 227.563 46.1475 227.3 46.1188C227.037 46.0901 226.787 45.987 226.58 45.8214C226.54 45.8515 226.497 45.8816 226.453 45.9084C226.563 46.1103 226.619 46.337 226.616 46.5668C226.612 46.7965 226.55 47.0216 226.435 47.2203C226.319 47.4189 226.154 47.5845 225.956 47.7011C225.758 47.8176 225.534 47.8813 225.304 47.8858C225.11 47.891 224.917 47.8533 224.739 47.7754" stroke="black" stroke-width="0.5" stroke-linecap="round" stroke-linejoin="round"/>
<path d="M229.626 46.5875C229.613 46.093 229.793 45.6129 230.128 45.2492C230.463 44.9146 230.69 44.7289 230.797 44.4127C230.965 43.9108 230.797 43.5762 230.797 42.907C230.797 42.2379 231.299 42.907 231.466 43.4089C231.575 43.6744 231.632 43.9584 231.634 44.2454C231.634 44.774 231.634 45.2492 231.466 45.5837L231.132 45.3646C231.132 45.3646 229.626 47.0894 229.626 46.5875Z" fill="white"/>
<path d="M229.549 46.452C229.536 45.9575 229.716 45.4774 230.051 45.1137C230.386 44.7791 230.615 44.595 230.72 44.2772C230.887 43.7753 230.72 43.4407 230.72 42.7715C230.72 42.1024 231.222 42.7715 231.389 43.2734C231.498 43.5389 231.555 43.8229 231.557 44.1099C231.537 44.5598 231.482 45.0074 231.389 45.4482C231.337 45.7163 231.267 45.9807 231.18 46.2395" stroke="black" stroke-width="0.5" stroke-linecap="round" stroke-linejoin="round"/>
</g>
</svg>
