<svg width="230" height="139" viewBox="0 0 230 139" fill="none" xmlns="http://www.w3.org/2000/svg">
<path d="M3.70797 61.0352V51.1419H0.103516V49H9.93853V51.1419H6.28258V60.9842H3.70797V61.0352Z" fill="#231815"/>
<path d="M21.3707 61.0352V56.0375H15.861V61.0352H13.3379V49H15.861V53.8447H21.3192V49H23.8423V61.0352H21.3707Z" fill="#231815"/>
<path d="M36.0445 61.0352H28.0117V49H36.0445V51.1419H30.5863V53.9467H35.787V55.9355H30.5863V58.8423H36.0445V61.0352Z" fill="#231815"/>
<path d="M8.70323 82.9142H0.773438V70.9302H3.29655V80.7723H8.70323V82.9142Z" fill="#231815"/>
<path d="M17.5088 70.6235C18.3842 70.6235 19.208 70.7765 19.9289 71.0825C20.6498 71.3885 21.2677 71.7965 21.7826 72.3575C22.2976 72.9185 22.658 73.5814 22.967 74.3464C23.2244 75.1114 23.3789 75.9783 23.3789 76.9983C23.3789 77.9673 23.2244 78.8342 22.967 79.6502C22.7095 80.4152 22.2976 81.0782 21.7826 81.6391C21.2677 82.2001 20.6498 82.6081 19.9289 82.9141C19.208 83.2201 18.3842 83.3731 17.5088 83.3731C16.5819 83.3731 15.8095 83.2201 15.0887 82.9141C14.3678 82.6081 13.7499 82.2001 13.2349 81.6391C12.72 81.0782 12.3596 80.4152 12.0506 79.6502C11.7931 78.8852 11.6387 78.0183 11.6387 76.9983C11.6387 76.0293 11.7931 75.1624 12.0506 74.3464C12.3081 73.5814 12.72 72.9185 13.2349 72.3575C13.7499 71.7965 14.3678 71.3885 15.0887 71.0825C15.8095 70.7765 16.6334 70.6235 17.5088 70.6235ZM17.5088 72.8165C16.9939 72.8165 16.5819 72.9185 16.17 73.1224C15.758 73.3264 15.4491 73.5814 15.1401 73.9384C14.8827 74.2954 14.6252 74.7034 14.4707 75.2134C14.3163 75.7234 14.2648 76.2843 14.2648 76.8963C14.2648 77.5083 14.3163 78.0693 14.4707 78.5792C14.6252 79.0892 14.8312 79.4972 15.1401 79.8542C15.3976 80.2112 15.758 80.4662 16.17 80.6702C16.5819 80.8742 17.0454 80.9762 17.5088 80.9762C18.0237 80.9762 18.4356 80.8742 18.8476 80.6702C19.2595 80.4662 19.5685 80.2112 19.8774 79.8542C20.1349 79.4972 20.3924 79.0892 20.5468 78.5792C20.7013 78.0693 20.7528 77.5083 20.7528 76.8963C20.7528 76.2843 20.7013 75.7234 20.5468 75.2134C20.3924 74.7034 20.1864 74.2954 19.8774 73.9384C19.62 73.5814 19.2595 73.3264 18.8476 73.1224C18.4871 72.9185 18.0237 72.8165 17.5088 72.8165Z" fill="#231815"/>
<path d="M32.1317 83.2199C31.2563 83.2199 30.4839 83.0669 29.763 82.7609C29.0421 82.4549 28.4757 82.047 27.9608 81.486C27.4459 80.925 27.0854 80.2621 26.828 79.4971C26.5705 78.7322 26.416 77.8142 26.416 76.8453C26.416 75.8764 26.5705 75.0094 26.828 74.1935C27.0854 73.4285 27.4459 72.7656 27.9608 72.2046C28.4757 71.6436 29.0421 71.2357 29.763 70.9297C30.4839 70.6237 31.2563 70.4707 32.1317 70.4707C32.8525 70.4707 33.5219 70.5727 34.1399 70.8277C34.7578 71.0317 35.3242 71.3886 35.7876 71.7456C36.251 72.1536 36.6115 72.6126 36.9204 73.1735C37.2294 73.7345 37.3839 74.3465 37.4354 74.9584H34.9637C34.9122 74.6014 34.8092 74.2955 34.6033 74.0405C34.4488 73.7345 34.2428 73.5305 33.9854 73.3265C33.7279 73.1225 33.4705 72.9695 33.1615 72.8676C32.8525 72.7656 32.4921 72.7146 32.1317 72.7146C31.6682 72.7146 31.2048 72.8166 30.8443 73.0205C30.4839 73.2245 30.1235 73.4795 29.866 73.8365C29.6085 74.1935 29.4026 74.6014 29.2481 75.1114C29.0936 75.6214 29.0421 76.1823 29.0421 76.7943C29.0421 77.4063 29.0936 78.0182 29.2481 78.5282C29.4026 79.0382 29.6085 79.4461 29.866 79.8031C30.1235 80.1601 30.4839 80.4151 30.8443 80.6191C31.2048 80.823 31.6682 80.925 32.1317 80.925C32.4921 80.925 32.8525 80.874 33.1615 80.772C33.4705 80.6701 33.7279 80.5171 33.9854 80.3131C34.2428 80.1091 34.4488 79.9051 34.6033 79.6501C34.7578 79.3951 34.8607 79.0892 34.9637 78.7322H37.4354C37.3839 79.3951 37.2294 79.9561 36.9204 80.5171C36.663 81.078 36.251 81.537 35.7876 81.894C35.3242 82.302 34.7578 82.5569 34.1399 82.8119C33.5219 83.1179 32.8525 83.2199 32.1317 83.2199Z" fill="#231815"/>
<path d="M47.7844 80.0588H43.5105L42.5837 82.9147H40.0605L44.2829 70.9302H47.2694L51.4918 82.9657H48.7627L47.7844 80.0588ZM44.0769 78.1209H47.2694L45.7762 73.4291H45.6217L44.0769 78.1209Z" fill="#231815"/>
<path d="M62.6661 82.9142H54.7363V70.9302H57.2594V80.7723H62.6661V82.9142Z" fill="#231815"/>
<path d="M5.81967 92.8589C6.43757 92.8589 7.00399 92.9609 7.51891 93.1649C8.03383 93.3688 8.49726 93.6238 8.8577 93.9808C9.21815 94.3377 9.5271 94.7967 9.73307 95.3066C9.93904 95.8165 10.042 96.3775 10.042 96.9894C10.042 97.6013 9.93904 98.1623 9.73307 98.6722C9.5271 99.1822 9.21815 99.5901 8.8577 99.9981C8.49726 100.355 8.03383 100.661 7.46742 100.814C6.95249 101.018 6.33459 101.12 5.71668 101.12H3.29655V104.843H0.773438V92.8589H5.81967ZM3.29655 99.0802H5.15027C5.87116 99.0802 6.43757 98.9272 6.84951 98.5702C7.26145 98.2133 7.46742 97.7033 7.46742 97.0404C7.46742 96.3775 7.26145 95.8165 6.84951 95.4596C6.43757 95.1026 5.87116 94.9496 5.15027 94.9496H3.29655V99.0802Z" fill="#231815"/>
<path d="M16.1169 104.843H13.5938V92.8589H18.6915C19.3609 92.8589 19.9788 92.9609 20.4937 93.1139C21.0086 93.2669 21.4721 93.5218 21.8325 93.8788C22.1929 94.2358 22.5019 94.5928 22.7079 95.1027C22.9138 95.5617 23.0168 96.1227 23.0168 96.7346C23.0168 97.1426 22.9653 97.4996 22.8623 97.8566C22.7594 98.2135 22.6049 98.5195 22.4504 98.8255C22.2444 99.1315 22.0385 99.3864 21.781 99.5904C21.5235 99.7944 21.2146 99.9984 20.8542 100.151L23.4288 104.894H20.5452L18.2795 100.559H16.2199V104.843H16.1169ZM16.1169 98.5705H18.331C19.0004 98.5705 19.4639 98.4175 19.8243 98.1115C20.1848 97.8056 20.3392 97.3466 20.3392 96.7346C20.3392 96.4286 20.2877 96.1737 20.1848 95.9697C20.0818 95.7147 19.9788 95.5617 19.7728 95.3577C19.6183 95.2047 19.3609 95.0517 19.1034 95.0007C18.846 94.8987 18.5885 94.8478 18.228 94.8478H16.0139V98.5705H16.1169Z" fill="#231815"/>
<path d="M32.0283 92.5527C32.9037 92.5527 33.7276 92.7057 34.4485 93.0117C35.1693 93.3177 35.7872 93.7257 36.3022 94.2866C36.8171 94.8476 37.1775 95.5106 37.4865 96.2755C37.744 97.0405 37.8984 97.9075 37.8984 98.8764C37.8984 99.8454 37.744 100.712 37.4865 101.528C37.229 102.293 36.8171 102.956 36.3022 103.517C35.7872 104.078 35.1693 104.486 34.4485 104.792C33.7276 105.098 32.9037 105.251 32.0283 105.251C31.1015 105.251 30.3291 105.098 29.6082 104.792C28.8873 104.486 28.2694 104.078 27.7545 103.517C27.2395 102.956 26.8791 102.293 26.5701 101.528C26.3127 100.763 26.1582 99.8454 26.1582 98.8764C26.1582 97.9075 26.3127 97.0405 26.5701 96.2755C26.8276 95.5106 27.2395 94.8476 27.7545 94.2866C28.2694 93.7257 28.8873 93.3177 29.6082 93.0117C30.3291 92.6547 31.1529 92.5527 32.0283 92.5527ZM32.0283 94.7456C31.5134 94.7456 31.1015 94.8476 30.6895 95.0516C30.2776 95.2556 29.9686 95.5106 29.6597 95.8676C29.4022 96.2245 29.1448 96.6325 28.9903 97.1425C28.8358 97.6525 28.7843 98.2134 28.7843 98.8254C28.7843 99.4374 28.8358 99.9983 28.9903 100.508C29.1448 101.018 29.3507 101.426 29.6597 101.783C29.9171 102.14 30.2776 102.395 30.6895 102.599C31.1015 102.803 31.5649 102.905 32.0283 102.905C32.5432 102.905 32.9552 102.803 33.3671 102.599C33.7791 102.395 34.088 102.14 34.397 101.783C34.6544 101.426 34.9119 101.018 35.0664 100.508C35.2208 99.9983 35.2723 99.4374 35.2723 98.8254C35.2723 98.2134 35.2208 97.6525 35.0664 97.1425C34.9119 96.6325 34.7059 96.2245 34.397 95.8676C34.1395 95.5106 33.7791 95.2556 33.3671 95.0516C32.9552 94.8476 32.5432 94.7456 32.0283 94.7456Z" fill="#231815"/>
<path d="M43.0986 101.324C43.0986 101.834 43.2531 102.191 43.562 102.497C43.871 102.803 44.2314 102.905 44.7463 102.905C45.2613 102.905 45.6732 102.752 45.9307 102.446C46.1881 102.14 46.3426 101.681 46.3426 101.12V92.8589H48.8657V101.12C48.8657 101.783 48.7627 102.344 48.6083 102.854C48.4023 103.364 48.1448 103.772 47.7844 104.129C47.4239 104.486 47.012 104.741 46.4971 104.894C45.9822 105.047 45.4157 105.149 44.7463 105.149C44.1284 105.149 43.562 105.047 43.0471 104.894C42.5322 104.741 42.1202 104.486 41.7598 104.129C41.3993 103.772 41.1419 103.415 40.9359 102.905C40.7299 102.446 40.627 101.885 40.627 101.324H43.0986Z" fill="#231815"/>
<path d="M61.0699 104.843H53.0371V92.8589H61.0699V95.0006H55.5602V97.8053H60.7609V99.7941H55.5602V102.701H61.0699V104.843Z" fill="#231815"/>
<path d="M70.0809 105.148C69.2055 105.148 68.4331 104.995 67.7122 104.689C66.9913 104.383 66.4249 103.975 65.91 103.414C65.3951 102.853 65.0346 102.19 64.7772 101.425C64.5197 100.66 64.3652 99.742 64.3652 98.773C64.3652 97.8041 64.5197 96.9372 64.7772 96.1212C65.0346 95.3563 65.3951 94.6933 65.91 94.1323C66.4249 93.5714 66.9913 93.1634 67.7122 92.8574C68.4331 92.5514 69.2055 92.3984 70.0809 92.3984C70.8017 92.3984 71.4711 92.5004 72.089 92.7554C72.7069 92.9594 73.2734 93.3164 73.7368 93.6734C74.2002 94.0813 74.5607 94.5403 74.8696 95.1013C75.1786 95.6622 75.333 96.2742 75.3845 96.8862H72.9129C72.8614 96.5292 72.7584 96.2232 72.5525 95.9682C72.398 95.6622 72.192 95.4582 71.9346 95.2543C71.6771 95.0503 71.4196 94.8973 71.1107 94.7953C70.8017 94.6933 70.4413 94.6423 70.0809 94.6423C69.6174 94.6423 69.154 94.7443 68.7936 94.9483C68.4331 95.1523 68.0727 95.4072 67.8152 95.7642C67.5577 96.1212 67.3518 96.5292 67.1973 97.0391C67.0428 97.5491 66.9913 98.1101 66.9913 98.722C66.9913 99.334 67.0428 99.946 67.1973 100.456C67.3518 100.966 67.5577 101.374 67.8152 101.731C68.0727 102.088 68.4331 102.343 68.7936 102.547C69.154 102.751 69.6174 102.853 70.0809 102.853C70.4413 102.853 70.8017 102.802 71.1107 102.7C71.4196 102.598 71.6771 102.445 71.9346 102.241C72.192 102.037 72.398 101.833 72.5525 101.578C72.7069 101.323 72.8099 101.017 72.9129 100.66H75.3845C75.333 101.323 75.1786 101.884 74.8696 102.445C74.6121 103.006 74.2002 103.465 73.7368 103.822C73.2734 104.23 72.7069 104.485 72.089 104.74C71.4711 105.046 70.8017 105.148 70.0809 105.148Z" fill="#231815"/>
<path d="M81.822 104.843V95.0006H78.166V92.8589H88.001V95.0006H84.3451V104.843H81.822Z" fill="#231815"/>
<path d="M2.47215 120.192C2.11171 120.192 1.75126 120.141 1.4938 119.988C1.18485 119.886 0.927389 119.682 0.721421 119.478C0.515452 119.274 0.360976 118.968 0.257992 118.662C0.155008 118.356 0.103516 117.948 0.103516 117.54C0.103516 117.132 0.155008 116.775 0.257992 116.418C0.360976 116.112 0.515452 115.806 0.721421 115.602C0.927389 115.398 1.18485 115.194 1.4938 115.092C1.80275 114.99 2.11171 114.888 2.47215 114.888C2.7811 114.888 3.03857 114.939 3.29603 115.041C3.55349 115.143 3.81095 115.245 3.96542 115.449C4.17139 115.602 4.32587 115.806 4.42885 116.061C4.53184 116.316 4.63482 116.52 4.63482 116.826H3.60498C3.55349 116.673 3.55349 116.571 3.4505 116.418C3.39901 116.316 3.29603 116.214 3.19304 116.112C3.09006 116.01 2.98707 115.959 2.8326 115.908C2.67812 115.857 2.57514 115.857 2.42066 115.857C2.21469 115.857 2.06022 115.908 1.90574 115.959C1.75126 116.061 1.59679 116.163 1.4938 116.316C1.39082 116.469 1.28783 116.622 1.23634 116.877C1.18485 117.081 1.13336 117.336 1.13336 117.591C1.13336 117.846 1.18485 118.101 1.23634 118.305C1.28783 118.509 1.39082 118.713 1.4938 118.866C1.59679 119.019 1.75126 119.121 1.90574 119.223C2.06022 119.325 2.26618 119.325 2.47215 119.325C2.62663 119.325 2.7811 119.325 2.88409 119.274C3.03857 119.223 3.14155 119.172 3.24453 119.07C3.34752 118.968 3.4505 118.917 3.50199 118.764C3.55349 118.662 3.60498 118.509 3.65647 118.407H4.68631C4.68631 118.662 4.58333 118.917 4.48034 119.172C4.37736 119.376 4.22288 119.58 4.01692 119.733C3.81095 119.886 3.60498 120.039 3.34752 120.09C3.03857 120.141 2.7811 120.192 2.47215 120.192Z" fill="#231815"/>
<path d="M8.39279 114.888C8.75324 114.888 9.11369 114.939 9.42264 115.092C9.73159 115.194 9.98906 115.398 10.195 115.602C10.401 115.806 10.5555 116.112 10.7099 116.418C10.8129 116.724 10.8644 117.132 10.8644 117.54C10.8644 117.948 10.8129 118.305 10.7099 118.662C10.607 118.968 10.4525 119.274 10.2465 119.478C10.0405 119.682 9.78309 119.886 9.47413 119.988C9.16518 120.09 8.85622 120.192 8.44429 120.192C8.08384 120.192 7.72339 120.141 7.41444 119.988C7.10549 119.886 6.84803 119.682 6.64206 119.478C6.43609 119.274 6.28161 118.968 6.12713 118.662C6.02415 118.356 5.97266 117.948 5.97266 117.54C5.97266 117.132 6.02415 116.775 6.12713 116.418C6.23012 116.112 6.38459 115.806 6.64206 115.602C6.84803 115.347 7.10549 115.194 7.41444 115.092C7.72339 114.99 8.03235 114.888 8.39279 114.888ZM8.39279 115.806C8.18682 115.806 7.98086 115.857 7.82638 115.908C7.6719 116.01 7.51742 116.112 7.41444 116.265C7.31146 116.418 7.20847 116.571 7.15698 116.826C7.10549 117.03 7.05399 117.285 7.05399 117.54C7.05399 117.795 7.10549 118.05 7.15698 118.254C7.20847 118.458 7.31146 118.662 7.41444 118.815C7.51742 118.968 7.6719 119.07 7.82638 119.172C7.98086 119.274 8.18682 119.274 8.39279 119.274C8.59876 119.274 8.80473 119.223 8.95921 119.172C9.11369 119.07 9.26816 118.968 9.37115 118.815C9.47413 118.662 9.57712 118.458 9.62861 118.254C9.6801 118.05 9.73159 117.795 9.73159 117.54C9.73159 117.285 9.6801 117.03 9.62861 116.826C9.57712 116.622 9.47413 116.418 9.37115 116.265C9.26816 116.112 9.11369 116.01 8.95921 115.908C8.80473 115.857 8.59876 115.806 8.39279 115.806Z" fill="#231815"/>
<path d="M12.3574 120.04V114.991H13.2328L15.6014 118.153H15.6529V114.991H16.6828V120.04H15.8074L13.4388 116.878H13.3873V120.04H12.3574Z" fill="#231815"/>
<path d="M18.4336 120.04V114.991H19.309L21.6776 118.153H21.7291V114.991H22.7589V120.04H21.8835L19.5149 116.878H19.4634V120.04H18.4336Z" fill="#231815"/>
<path d="M27.8575 120.04H24.459V114.991H27.8575V115.909H25.5403V117.082H27.703V117.898H25.5403V119.122H27.8575V120.04Z" fill="#231815"/>
<path d="M31.6675 120.192C31.307 120.192 30.9466 120.141 30.6891 119.988C30.3802 119.886 30.1227 119.682 29.9167 119.478C29.7108 119.274 29.5563 118.968 29.4533 118.662C29.3503 118.356 29.2988 117.948 29.2988 117.54C29.2988 117.132 29.3503 116.775 29.4533 116.418C29.5563 116.112 29.7108 115.806 29.9167 115.602C30.1227 115.398 30.3802 115.194 30.6891 115.092C30.9981 114.99 31.307 114.888 31.6675 114.888C31.9764 114.888 32.2339 114.939 32.4913 115.041C32.7488 115.143 33.0063 115.245 33.1607 115.449C33.3667 115.602 33.5212 115.806 33.6242 116.061C33.7271 116.316 33.8301 116.52 33.8301 116.826H32.8003C32.7488 116.673 32.7488 116.571 32.6458 116.418C32.5943 116.316 32.4913 116.214 32.3884 116.112C32.2854 116.01 32.1824 115.959 32.0279 115.908C31.8734 115.857 31.7704 115.857 31.616 115.857C31.41 115.857 31.2555 115.908 31.1011 115.959C30.9466 116.061 30.7921 116.163 30.6891 116.316C30.5861 116.469 30.4831 116.622 30.4317 116.877C30.3802 117.081 30.3287 117.336 30.3287 117.591C30.3287 117.846 30.3802 118.101 30.4317 118.305C30.4831 118.509 30.5861 118.713 30.6891 118.866C30.7921 119.019 30.9466 119.121 31.1011 119.223C31.2555 119.325 31.4615 119.325 31.6675 119.325C31.8219 119.325 31.9764 119.325 32.0794 119.274C32.2339 119.223 32.3369 119.172 32.4398 119.07C32.5428 118.968 32.6458 118.917 32.6973 118.764C32.7488 118.662 32.8003 118.509 32.8518 118.407H33.8816C33.8816 118.662 33.7786 118.917 33.6757 119.172C33.5727 119.376 33.4182 119.58 33.2122 119.733C33.0063 119.886 32.8003 120.039 32.5428 120.09C32.2339 120.141 31.9764 120.192 31.6675 120.192Z" fill="#231815"/>
<path d="M36.6112 120.04V115.909H35.0664V114.991H39.1858V115.909H37.641V120.04H36.6112Z" fill="#231815"/>
<path d="M44.2323 120.04V115.909H42.6875V114.991H46.8069V115.909H45.2621V120.04H44.2323Z" fill="#231815"/>
<path d="M51.6466 120.04V117.949H49.3294V120.04H48.248V114.991H49.3294V117.031H51.6466V114.991H52.7279V120.04H51.6466Z" fill="#231815"/>
<path d="M57.8262 120.04H54.4277V114.991H57.8262V115.909H55.5091V117.082H57.6717V117.898H55.5091V119.122H57.8262V120.04Z" fill="#231815"/>
<path d="M65.1888 120.04H61.8418V114.991H62.9231V119.122H65.1888V120.04Z" fill="#231815"/>
<path d="M68.8967 114.888C69.2571 114.888 69.6176 114.939 69.9265 115.092C70.2355 115.194 70.493 115.398 70.6989 115.602C70.9049 115.806 71.0594 116.112 71.2139 116.418C71.3168 116.724 71.3683 117.132 71.3683 117.54C71.3683 117.948 71.3168 118.305 71.2139 118.662C71.1109 118.968 70.9564 119.274 70.7504 119.478C70.5444 119.682 70.287 119.886 69.978 119.988C69.6691 120.09 69.3601 120.192 68.9482 120.192C68.5877 120.192 68.2273 120.141 67.9183 119.988C67.6094 119.886 67.3519 119.682 67.146 119.478C66.94 119.274 66.7855 118.968 66.631 118.662C66.528 118.356 66.4766 117.948 66.4766 117.54C66.4766 117.132 66.528 116.775 66.631 116.418C66.734 116.112 66.8885 115.806 67.146 115.602C67.3519 115.347 67.6094 115.194 67.9183 115.092C68.1758 114.939 68.4848 114.888 68.8967 114.888ZM68.8967 115.806C68.6907 115.806 68.4848 115.857 68.3303 115.908C68.1758 116.01 68.0213 116.112 67.9183 116.265C67.8154 116.418 67.7124 116.571 67.6609 116.826C67.6094 117.03 67.5579 117.285 67.5579 117.54C67.5579 117.795 67.6094 118.05 67.6609 118.254C67.7124 118.458 67.8154 118.662 67.9183 118.815C68.0213 118.968 68.1758 119.07 68.3303 119.172C68.4848 119.274 68.6907 119.274 68.8967 119.274C69.1027 119.274 69.3086 119.223 69.4631 119.172C69.6176 119.07 69.7721 118.968 69.875 118.815C69.978 118.662 70.081 118.458 70.1325 118.254C70.184 118.05 70.2355 117.795 70.2355 117.54C70.2355 117.285 70.184 117.03 70.1325 116.826C70.081 116.622 69.978 116.418 69.875 116.265C69.7721 116.112 69.6176 116.01 69.4631 115.908C69.2571 115.857 69.1027 115.806 68.8967 115.806Z" fill="#231815"/>
<path d="M75.0249 120.192C74.6644 120.192 74.304 120.141 74.0465 119.988C73.7376 119.886 73.4801 119.682 73.2742 119.478C73.0682 119.274 72.9137 118.968 72.8107 118.662C72.7077 118.356 72.6562 117.948 72.6562 117.54C72.6562 117.132 72.7077 116.775 72.8107 116.418C72.9137 116.112 73.0682 115.806 73.2742 115.602C73.4801 115.398 73.7376 115.194 74.0465 115.092C74.3555 114.99 74.6644 114.888 75.0249 114.888C75.3338 114.888 75.5913 114.939 75.8488 115.041C76.1062 115.143 76.3637 115.245 76.5182 115.449C76.6726 115.653 76.8786 115.806 76.9816 116.061C77.0846 116.316 77.1876 116.52 77.1876 116.826H76.1577C76.1062 116.673 76.1062 116.571 76.0032 116.418C75.9517 116.316 75.8488 116.214 75.7458 116.112C75.6428 116.01 75.5398 115.959 75.3853 115.908C75.2309 115.857 75.1279 115.857 74.9734 115.857C74.7674 115.857 74.613 115.908 74.4585 115.959C74.304 116.061 74.1495 116.163 74.0465 116.316C73.9436 116.469 73.8406 116.622 73.7891 116.877C73.7376 117.081 73.6861 117.336 73.6861 117.591C73.6861 117.846 73.7376 118.101 73.7891 118.305C73.8406 118.509 73.9436 118.713 74.0465 118.866C74.1495 119.019 74.304 119.121 74.4585 119.223C74.613 119.325 74.8189 119.325 75.0249 119.325C75.1794 119.325 75.3338 119.325 75.4368 119.274C75.5913 119.223 75.6943 119.172 75.7973 119.07C75.9002 118.968 76.0032 118.917 76.0547 118.764C76.1062 118.662 76.1577 118.509 76.2092 118.407H77.239C77.239 118.662 77.1361 118.917 77.0331 119.172C76.9301 119.376 76.7756 119.58 76.5696 119.733C76.3637 119.886 76.1577 120.039 75.9002 120.09C75.5913 120.141 75.3338 120.192 75.0249 120.192Z" fill="#231815"/>
<path d="M81.6158 118.868H79.8136L79.4016 120.092H78.3203L80.071 115.043H81.3068L83.0576 120.092H81.9248L81.6158 118.868ZM80.0195 118.052H81.3583L80.7404 116.063H80.6889L80.0195 118.052Z" fill="#231815"/>
<path d="M87.845 120.04H84.498V114.991H85.5794V119.122H87.845V120.04Z" fill="#231815"/>
<path d="M1.54476 131.717V127.536H0V126.618H4.11936V127.536H2.5746V131.666H1.54476V131.717Z" fill="#231815"/>
<path d="M7.82637 126.516C8.18681 126.516 8.54725 126.567 8.8562 126.72C9.16515 126.822 9.42261 127.026 9.62858 127.23C9.83455 127.434 9.98902 127.74 10.1435 128.046C10.2465 128.352 10.298 128.76 10.298 129.168C10.298 129.576 10.2465 129.933 10.1435 130.29C10.0405 130.596 9.88604 130.902 9.68007 131.106C9.4741 131.31 9.21665 131.514 8.90769 131.616C8.59874 131.718 8.28979 131.82 7.87786 131.82C7.51742 131.82 7.15697 131.769 6.84802 131.616C6.53907 131.514 6.28161 131.31 6.07564 131.106C5.86968 130.902 5.7152 130.596 5.56073 130.29C5.45774 129.984 5.40625 129.576 5.40625 129.168C5.40625 128.76 5.45774 128.403 5.56073 128.046C5.66371 127.74 5.81818 127.434 6.07564 127.23C6.28161 126.975 6.53907 126.822 6.84802 126.72C7.10548 126.567 7.41443 126.516 7.82637 126.516ZM7.82637 127.434C7.6204 127.434 7.41443 127.485 7.25996 127.536C7.10548 127.638 6.95101 127.74 6.84802 127.893C6.74504 128.046 6.64205 128.199 6.59056 128.454C6.53907 128.658 6.48758 128.913 6.48758 129.168C6.48758 129.423 6.53907 129.678 6.59056 129.882C6.64205 130.086 6.74504 130.29 6.84802 130.443C6.95101 130.596 7.10548 130.698 7.25996 130.8C7.41443 130.902 7.6204 130.902 7.82637 130.902C8.03233 130.902 8.2383 130.851 8.39278 130.8C8.54725 130.698 8.70173 130.596 8.80471 130.443C8.90769 130.29 9.01068 130.086 9.06217 129.882C9.11366 129.678 9.16515 129.423 9.16515 129.168C9.16515 128.913 9.11366 128.658 9.06217 128.454C9.01068 128.25 8.90769 128.046 8.80471 127.893C8.70173 127.74 8.54725 127.638 8.39278 127.536C8.18681 127.485 8.03233 127.434 7.82637 127.434Z" fill="#231815"/>
<path d="M15.3963 131.717V127.536H13.8516V126.618H17.9709V127.536H16.4262V131.666H15.3963V131.717Z" fill="#231815"/>
<path d="M22.7598 131.717V129.575H20.4427V131.666H19.3613V126.618H20.4427V128.657H22.7598V126.618H23.8412V131.666H22.7598V131.717Z" fill="#231815"/>
<path d="M28.9903 131.718H25.5918V126.669H28.9903V127.587H26.6731V128.76H28.8358V129.576H26.6731V130.8H28.9903V131.718Z" fill="#231815"/>
<path d="M35.0151 131.718H33.9853L32.6465 126.669H33.7793L34.5517 130.239H34.6032L35.53 126.669H36.4569L37.3838 130.239H37.4352L38.2076 126.669H39.289L37.9502 131.718H36.9718L35.9935 128.352H35.942L35.0151 131.718Z" fill="#231815"/>
<path d="M42.9963 126.516C43.3568 126.516 43.7172 126.567 44.0262 126.72C44.3351 126.822 44.5926 127.026 44.7985 127.23C45.0045 127.434 45.159 127.74 45.3135 128.046C45.4164 128.352 45.4679 128.76 45.4679 129.168C45.4679 129.576 45.4164 129.933 45.3135 130.29C45.2105 130.596 45.056 130.902 44.85 131.106C44.6441 131.31 44.3866 131.514 44.0776 131.616C43.7687 131.718 43.4597 131.82 43.0478 131.82C42.6874 131.82 42.3269 131.769 42.018 131.616C41.709 131.514 41.4515 131.31 41.2456 131.106C41.0396 130.902 40.8851 130.596 40.7306 130.29C40.6277 129.984 40.5762 129.576 40.5762 129.168C40.5762 128.76 40.6277 128.403 40.7306 128.046C40.8336 127.74 40.9881 127.434 41.2456 127.23C41.4515 126.975 41.709 126.822 42.018 126.72C42.2754 126.567 42.6359 126.516 42.9963 126.516ZM42.9963 127.434C42.7903 127.434 42.5844 127.485 42.4299 127.536C42.2754 127.638 42.1209 127.74 42.018 127.893C41.915 128.046 41.812 128.199 41.7605 128.454C41.709 128.658 41.6575 128.913 41.6575 129.168C41.6575 129.423 41.709 129.678 41.7605 129.882C41.812 130.086 41.915 130.29 42.018 130.443C42.1209 130.596 42.2754 130.698 42.4299 130.8C42.5844 130.902 42.7903 130.902 42.9963 130.902C43.2023 130.902 43.4082 130.851 43.5627 130.8C43.7172 130.698 43.8717 130.596 43.9747 130.443C44.0776 130.29 44.1806 130.086 44.2321 129.882C44.2836 129.678 44.3351 129.423 44.3351 129.168C44.3351 128.913 44.2836 128.658 44.2321 128.454C44.1806 128.25 44.0776 128.046 43.9747 127.893C43.8717 127.74 43.7172 127.638 43.5627 127.536C43.4082 127.485 43.2023 127.434 42.9963 127.434Z" fill="#231815"/>
<path d="M48.0423 131.718H46.9609V126.669H49.1236C49.3811 126.669 49.6385 126.72 49.896 126.771C50.102 126.822 50.3079 126.975 50.4624 127.077C50.6169 127.23 50.7199 127.383 50.8228 127.587C50.9258 127.791 50.9258 127.995 50.9258 128.25C50.9258 128.403 50.9258 128.556 50.8743 128.709C50.8228 128.862 50.7713 129.015 50.7199 129.117C50.6169 129.219 50.5654 129.372 50.4109 129.423C50.3079 129.525 50.1534 129.576 49.999 129.678L51.0803 131.667H49.896L48.9691 129.831H48.0938V131.718H48.0423ZM48.0423 129.066H48.9691C49.2266 129.066 49.4326 129.015 49.587 128.862C49.7415 128.709 49.793 128.556 49.793 128.301C49.793 128.199 49.793 128.097 49.7415 127.995C49.69 127.893 49.6385 127.791 49.587 127.74C49.5355 127.689 49.4326 127.638 49.3296 127.587C49.2266 127.536 49.1236 127.536 48.9691 127.536H48.0423V129.066Z" fill="#231815"/>
<path d="M55.817 131.718H52.5215V126.669H53.6028V130.8H55.8685V131.718H55.817Z" fill="#231815"/>
<path d="M59.3187 126.669C59.6792 126.669 60.0396 126.72 60.3486 126.822C60.6575 126.924 60.915 127.077 61.1209 127.332C61.3269 127.536 61.4814 127.791 61.5844 128.097C61.6873 128.403 61.7388 128.76 61.7388 129.168C61.7388 129.576 61.6873 129.933 61.5844 130.239C61.4814 130.545 61.3269 130.8 61.1209 131.055C60.915 131.259 60.6575 131.412 60.3486 131.565C60.0396 131.667 59.7307 131.718 59.3187 131.718H57.3105V126.669H59.3187ZM58.3919 130.8H59.1642C59.6277 130.8 59.9881 130.647 60.2456 130.392C60.503 130.137 60.606 129.729 60.606 129.168C60.606 128.913 60.5545 128.709 60.503 128.505C60.4515 128.301 60.3486 128.148 60.1941 127.995C60.0911 127.842 59.9366 127.74 59.7307 127.689C59.5247 127.638 59.3187 127.587 59.1128 127.587H58.3404V130.8H58.3919Z" fill="#231815"/>
<g clip-path="url(#clip0_87_20)">
<path d="M160.944 31.8572C161.399 31.1058 162.006 30.8053 162.31 29.9037C162.31 29.6031 162.461 29.3026 162.613 29.0021C162.917 28.5512 163.676 28.401 163.979 28.1004C164.89 27.3491 165.649 26.5977 165.952 25.3956C166.256 24.0431 166.256 22.841 166.256 21.4885C166.256 19.3848 165.8 16.9804 166.407 14.8767C166.559 14.4258 166.863 13.8248 167.166 13.374C167.47 12.9231 167.925 12.1718 168.38 12.0215C168.836 11.721 169.595 12.0215 170.05 11.8712C170.505 11.721 170.809 11.4204 171.112 11.1199C171.719 10.6691 172.478 10.5188 173.237 10.3685C174.451 10.068 175.817 10.2183 176.728 10.9696C177.487 11.5707 177.942 12.4723 178.549 13.2237C179.46 14.4258 180.37 15.4777 181.281 16.6799C181.736 17.281 182.192 17.7318 182.647 18.1826C183.254 18.7837 183.861 18.934 184.772 18.934C185.379 18.934 186.138 19.0842 186.745 18.934C187.2 18.7837 187.807 18.4831 188.262 18.4831C188.566 18.4831 188.869 18.934 189.021 19.2345C189.477 19.8356 189.628 19.9858 190.235 19.8356C190.842 19.6853 191.298 19.2345 191.905 19.535C192.36 19.6853 192.664 19.9858 192.816 20.2864C193.271 20.7372 193.574 21.0377 194.03 21.3383C194.333 21.6388 194.485 22.2399 194.789 21.7891C194.94 21.4885 194.94 20.8875 194.94 20.5869C194.94 20.1361 195.092 19.6853 195.092 19.0842C195.244 18.1826 195.092 17.281 195.092 16.5296C195.092 15.3275 194.789 14.2756 194.181 13.2237C193.726 12.3221 193.423 11.4204 192.664 10.5188C191.905 9.61719 191.146 8.71557 190.235 7.96422C189.78 7.51341 189.325 6.91233 189.021 6.46152C188.566 5.86044 188.262 5.40963 187.807 4.80854C186.441 3.30584 184.62 1.80314 182.495 1.35233C180.977 0.901517 179.46 0.901517 177.942 1.05179C176.88 1.05179 175.969 1.20206 174.907 1.35233C173.541 1.5026 172.175 1.80314 170.809 2.25395C169.291 2.70476 167.925 3.60638 166.711 4.80854C165.8 5.5599 164.586 6.01071 163.22 6.46152C161.854 6.91233 160.488 7.96422 159.426 8.86584C158.364 9.76746 157.301 10.8194 156.239 11.8712C155.48 12.7729 155.025 14.2756 154.873 15.4777C154.569 16.6799 154.418 18.0323 154.569 19.3848C154.569 20.2864 155.176 21.188 155.176 22.0896C155.176 22.6907 155.025 23.2918 155.176 23.8929C155.328 24.7945 155.783 25.6961 156.087 26.4475C156.239 27.3491 156.542 28.2507 156.998 29.0021C157.453 29.6031 158.06 30.054 158.667 30.655C158.971 30.9556 159.578 31.4064 160.033 31.5567C160.185 31.7069 160.337 31.7069 160.488 31.7069C160.64 31.8572 160.64 31.8572 160.64 32.1577" fill="#3E3A39"/>
<path d="M203.44 130.885C196.914 130.585 190.388 130.134 183.862 129.232C179.764 128.631 175.515 128.03 171.417 127.279H171.265L171.113 126.678L171.417 126.528C179.461 123.823 187.049 120.367 194.941 116.91L197.218 115.858L197.37 116.309C198.128 120.066 199.191 122.921 200.557 125.476C201.619 127.429 202.985 129.082 204.503 130.435L205.11 130.885H203.44ZM172.631 126.828C176.425 127.579 180.22 128.181 184.014 128.631C190.388 129.533 196.914 129.984 203.44 130.284C202.074 128.932 200.86 127.429 199.95 125.626C198.584 123.222 197.673 120.367 196.763 116.76L195.245 117.511C187.656 120.817 180.371 124.123 172.631 126.828Z" fill="#1D1A17"/>
<path d="M166.864 31.106H166.712C166.408 30.9558 166.408 30.8055 166.408 30.505C167.319 28.4012 169.747 26.8985 172.024 27.3493C172.327 27.3493 172.479 27.6498 172.479 27.9504C172.479 28.2509 172.175 28.4012 171.872 28.2509C170.051 27.9504 167.926 29.0023 167.319 30.8055C167.319 30.9558 167.015 31.106 166.864 31.106Z" fill="#3E3A39"/>
<path d="M166.864 31.256H166.712C166.56 31.256 166.408 31.1058 166.408 30.9555C166.408 30.8052 166.408 30.6549 166.408 30.5047C167.167 28.5512 169.14 27.1987 171.265 27.1987C171.568 27.1987 171.872 27.1987 172.175 27.1987C172.479 27.1987 172.783 27.4993 172.631 27.9501C172.631 28.2506 172.327 28.5512 171.872 28.4009C171.72 28.4009 171.417 28.4009 171.265 28.4009C169.595 28.4009 168.078 29.4528 167.471 30.9555C167.319 31.1058 167.167 31.256 166.864 31.256ZM171.265 27.349C169.292 27.349 167.319 28.7014 166.56 30.5047C166.56 30.6549 166.56 30.6549 166.56 30.8052C166.56 30.9555 166.712 30.9555 166.712 30.9555C166.864 30.9555 167.015 30.9555 167.167 30.8052C167.774 29.3025 169.444 28.1004 171.265 28.1004C171.568 28.1004 171.72 28.1004 171.872 28.1004C172.024 28.1004 172.175 27.9501 172.327 27.7998C172.327 27.6495 172.175 27.4993 172.024 27.349C171.72 27.4993 171.568 27.349 171.265 27.349Z" fill="#3E3A39"/>
<path d="M178.55 25.6963H178.398C178.246 25.5461 178.095 25.2455 178.246 25.0952C178.854 24.0434 179.916 23.1417 181.282 22.8412C182.648 22.5406 184.014 22.6909 185.076 23.292C185.228 23.4423 185.38 23.7428 185.228 23.8931C185.076 24.0433 184.773 24.1936 184.621 24.0434C183.71 23.5925 182.648 23.4423 181.585 23.7428C180.523 24.0434 179.612 24.6444 179.157 25.5461C178.854 25.6963 178.702 25.6963 178.55 25.6963Z" fill="#3E3A39"/>
<path d="M178.549 25.8465C178.398 25.8465 178.398 25.8465 178.246 25.8465C177.942 25.6962 177.791 25.3957 177.942 25.0951C178.549 23.893 179.764 23.1416 181.13 22.6908C182.495 22.3903 184.013 22.5405 185.076 23.1416C185.227 23.2919 185.379 23.2919 185.379 23.4421C185.379 23.5924 185.379 23.7427 185.379 23.893C185.227 24.1935 184.772 24.1935 184.62 24.0432C183.71 23.5924 182.647 23.4421 181.585 23.7427C180.522 24.0432 179.612 24.6443 179.157 25.5459C179.005 25.8465 178.853 25.8465 178.549 25.8465ZM182.647 22.6908C182.192 22.6908 181.737 22.6908 181.281 22.8411C179.915 23.1416 178.853 24.0432 178.246 25.0951C178.094 25.2454 178.246 25.3957 178.398 25.5459C178.549 25.6962 178.701 25.5459 178.853 25.3957C179.308 24.494 180.371 23.7427 181.433 23.4421C182.495 23.1416 183.71 23.2919 184.62 23.7427C184.772 23.893 184.924 23.7427 185.076 23.5924C185.076 23.4421 185.076 23.4421 185.076 23.2919C185.076 23.1416 184.924 23.1416 184.924 23.1416C184.317 22.9913 183.558 22.6908 182.647 22.6908Z" fill="#3E3A39"/>
<path d="M171.264 30.0542C171.264 30.9558 170.505 31.5569 169.746 31.5569C168.836 31.5569 168.229 30.8055 168.229 30.0542C168.229 29.1525 168.987 28.5515 169.746 28.5515C170.657 28.4012 171.264 29.1525 171.264 30.0542Z" fill="#3E3A39"/>
<path d="M183.104 25.3955C183.104 26.2971 182.345 26.8982 181.586 26.8982C180.675 26.8982 180.068 26.1468 180.068 25.3955C180.068 24.4939 180.827 23.8928 181.586 23.8928C182.345 23.7425 183.104 24.4939 183.104 25.3955Z" fill="#3E3A39"/>
<path d="M184.317 63.5646C184.165 63.5646 184.013 63.4144 183.861 63.2641C183.406 62.3625 182.951 61.6111 182.344 61.0101C181.888 60.5592 181.281 60.1084 180.826 59.8079C179.763 59.0565 178.549 58.1549 177.487 57.4036C176.425 56.6522 175.21 55.7506 174.148 54.9992C173.996 54.849 173.996 54.6987 173.996 54.6987C174.148 51.543 173.237 48.3874 171.416 45.8328C171.264 45.6825 171.264 45.3819 171.568 45.2317C171.72 45.0814 171.871 45.2317 172.023 45.3819C173.996 48.0868 175.21 51.2425 175.059 54.3982C176.121 55.1495 177.183 55.9009 178.246 56.6522C179.308 57.4036 180.522 58.3052 181.585 59.0565C182.192 59.5074 182.799 59.8079 183.254 60.409C184.013 61.0101 184.468 61.9117 184.924 62.9636C185.075 63.1138 184.924 63.4144 184.62 63.5646C184.468 63.4144 184.468 63.5646 184.317 63.5646Z" fill="#3E3A39"/>
<path d="M193.423 48.9878C193.271 48.9878 193.12 48.8376 192.968 48.6873C191.905 44.7803 191.45 40.723 191.146 36.6657C191.146 36.3651 191.146 36.2148 191.298 36.2148C191.602 36.2148 191.754 36.3651 191.754 36.6657C192.057 40.5727 192.664 44.63 193.727 48.537C193.727 48.8376 193.575 48.9878 193.423 49.1381C193.575 48.9878 193.423 48.9878 193.423 48.9878Z" fill="#3E3A39"/>
<path d="M182.799 107.443C182.495 107.443 182.343 107.293 182.343 106.993C182.495 97.3753 182.192 87.157 181.736 74.0835C181.584 71.5289 181.433 68.6737 182.495 66.1191C183.406 63.5645 185.379 61.611 187.2 59.8078C188.111 58.9062 189.021 57.8543 189.932 56.8024C192.664 53.3462 194.181 48.9883 193.878 44.6305C193.878 44.33 194.03 44.1797 194.333 44.1797C194.637 44.1797 194.788 44.33 194.788 44.6305C194.94 49.1386 193.423 53.797 190.539 57.4035C189.628 58.4554 188.718 59.5073 187.807 60.4089C185.986 62.3624 184.165 64.1656 183.254 66.4197C182.343 68.824 182.495 71.6791 182.495 74.0835C183.102 87.157 183.254 97.3753 183.102 107.143C183.406 107.143 183.102 107.443 182.799 107.443Z" fill="#3E3A39"/>
<path d="M204.502 59.2063C204.351 59.2063 204.351 59.2063 204.199 59.056C203.895 58.9057 203.592 58.6052 203.288 58.4549C202.226 57.7036 200.86 56.8019 199.798 56.2009C198.887 55.5998 197.825 55.149 196.762 54.9987C195.7 54.8484 194.637 55.2992 194.182 56.0506C194.03 56.2009 193.727 56.3511 193.575 56.2009C193.423 56.0506 193.271 55.7501 193.423 55.5998C194.182 54.5479 195.548 53.9468 196.914 54.2473C198.128 54.3976 199.342 54.9987 200.405 55.5998C201.467 56.2009 202.681 57.1025 203.895 57.8538C203.44 56.0506 202.681 54.5479 201.922 52.8949C200.405 50.0398 198.583 47.3349 196.61 44.9306C195.244 43.1273 193.878 42.376 192.816 42.6765C192.513 42.6765 192.361 42.5263 192.209 42.376C192.209 42.0755 192.361 41.9252 192.513 41.7749C194.03 41.4744 195.548 42.376 197.217 44.3295C199.342 46.8841 201.163 49.589 202.681 52.4441C203.744 54.5479 204.502 56.6517 205.11 58.9057C205.11 59.056 205.109 59.3565 204.958 59.3565C204.654 59.2063 204.502 59.2063 204.502 59.2063Z" fill="#3E3A39"/>
<path d="M162.614 60.2582H162.462C162.31 60.1079 162.158 59.9577 162.158 59.8074C162.31 57.5534 162.917 55.2993 164.131 53.3458C165.194 51.5425 166.408 49.7393 167.622 48.0863C168.533 46.8842 169.595 45.682 171.113 45.0809C171.416 44.9307 171.568 45.0809 171.72 45.3815C171.872 45.682 171.72 45.8323 171.416 45.9825C170.05 46.4334 169.14 47.6355 168.381 48.6874C167.167 50.3404 165.952 51.9934 165.042 53.7966C164.131 55.2993 163.524 56.9523 163.372 58.7555C165.345 57.1025 167.774 55.9004 170.202 55.149C170.809 54.9988 171.416 54.8485 172.175 54.9988C172.63 55.149 173.086 55.2993 173.389 55.5998L177.335 58.0042C177.487 58.1544 177.639 58.455 177.487 58.6052C177.335 58.7555 177.032 58.9058 176.88 58.7555L172.934 56.3512C172.63 56.2009 172.327 55.9004 172.023 55.9004C171.568 55.7501 170.961 55.9004 170.506 56.0507C167.774 56.802 165.345 58.3047 163.221 60.1079C162.917 60.2582 162.765 60.2582 162.614 60.2582Z" fill="#3E3A39"/>
<path d="M177.183 61.1597H177.031L169.443 57.5532C168.684 57.2527 168.38 56.6516 168.532 56.0505C168.684 55.75 168.987 55.75 169.139 55.75C169.443 55.9003 169.443 56.0505 169.443 56.3511C169.443 56.3511 169.594 56.5014 169.746 56.6516L177.335 60.2581C177.638 60.4084 177.638 60.7089 177.487 60.8592C177.487 61.0095 177.335 61.1597 177.183 61.1597Z" fill="#3E3A39"/>
<path d="M189.173 63.1139C189.021 63.1139 188.87 62.9636 188.718 62.8133C188.566 62.5128 188.718 62.3625 189.021 62.2123C192.36 60.8598 195.547 58.9063 198.431 56.6523C198.583 56.502 198.886 56.502 199.038 56.6523C199.19 56.8025 199.19 57.1031 199.038 57.2533C196.155 59.6577 192.816 61.6112 189.325 62.9636C189.173 63.1139 189.173 63.1139 189.173 63.1139Z" fill="#3E3A39"/>
<path d="M221.045 62.6626C220.894 62.6626 220.894 62.6626 220.742 62.5123C214.671 57.8539 207.69 54.3977 200.86 51.0918C200.708 51.0918 200.708 50.7912 200.86 50.4907C201.012 50.1901 201.315 50.1901 201.467 50.3404C208.297 53.6464 215.278 57.1026 221.501 61.761C221.653 61.9112 221.804 62.2118 221.653 62.362C221.349 62.5123 221.197 62.6626 221.045 62.6626Z" fill="#3E3A39"/>
<path d="M225.446 128.781C225.295 128.781 225.295 128.781 225.143 128.631C224.991 128.481 224.839 128.18 224.991 128.03C228.027 124.273 229.241 114.656 228.937 106.992C228.785 104.137 228.482 101.131 228.027 98.2762C227.723 96.1725 227.419 93.9184 227.268 91.8146C227.116 89.5606 226.964 87.1562 226.964 85.0524C226.812 82.4978 226.812 79.9433 226.509 77.3887C225.902 71.6784 224.536 67.3206 222.108 63.8643C221.956 63.7141 221.956 63.4135 222.259 63.2633C222.411 63.113 222.715 63.113 222.866 63.4135C225.295 67.02 226.812 71.5281 227.268 77.3887C227.571 79.9433 227.571 82.6481 227.723 85.2027C227.723 87.4568 227.875 89.7108 228.027 91.9649C228.178 94.0687 228.482 96.3227 228.785 98.4265C229.241 101.282 229.544 104.287 229.696 107.142C230 114.656 228.937 124.574 225.598 128.781C225.75 128.781 225.598 128.781 225.446 128.781Z" fill="#3E3A39"/>
<path d="M215.277 114.656C215.126 114.656 215.126 114.656 214.974 114.506L213.304 113.154C212.697 112.703 212.09 112.252 211.483 111.952C210.876 111.801 210.117 111.801 209.814 112.252C209.662 112.402 209.358 112.553 209.206 112.252C209.055 112.102 208.903 111.801 209.206 111.651C209.814 110.9 211.028 110.749 211.938 111.05C212.849 111.35 213.456 111.801 214.063 112.402L215.733 113.755C215.884 113.905 215.884 114.206 215.733 114.356C215.581 114.656 215.429 114.656 215.277 114.656Z" fill="#3E3A39"/>
<path d="M211.331 111.651C211.18 111.651 211.028 111.651 211.028 111.5C210.876 111.35 210.876 111.05 211.028 110.899C212.09 109.998 213.608 109.246 215.277 108.946C216.795 108.645 218.313 108.645 219.831 108.795C220.589 108.795 221.5 108.795 222.259 109.096C222.562 109.246 222.714 109.397 222.562 109.697C222.411 109.998 222.259 110.148 221.955 109.998C221.197 109.697 220.438 109.697 219.831 109.697C218.313 109.697 216.947 109.697 215.429 109.847C213.912 110.148 212.546 110.749 211.635 111.5C211.635 111.5 211.483 111.651 211.331 111.651Z" fill="#3E3A39"/>
<path d="M210.27 111.5C210.118 111.5 209.815 111.35 209.815 111.2C209.36 109.848 209.663 108.345 209.815 106.992C209.967 106.091 210.118 105.339 210.118 104.438C210.118 103.686 209.967 102.785 209.815 102.033C209.663 100.831 209.36 99.4789 209.663 98.2767C209.967 97.0745 210.574 95.8724 211.181 94.8205L214.672 88.8097C214.823 88.6594 215.127 88.5091 215.279 88.6594C215.43 88.8097 215.582 89.1102 215.43 89.2605L211.94 95.2713C211.333 96.3232 210.725 97.2248 210.574 98.427C210.422 99.6291 210.574 100.681 210.725 101.883C210.877 102.785 211.029 103.686 211.029 104.438C211.029 105.339 210.877 106.241 210.725 107.143C210.574 108.495 210.27 109.697 210.574 110.899C210.725 111.2 210.574 111.5 210.27 111.5Z" fill="#3E3A39"/>
<path d="M209.207 96.6238C209.055 96.6238 208.752 96.4735 208.752 96.3233C207.841 93.0173 209.055 89.7114 210.269 86.5557C210.573 85.8043 210.876 85.053 211.18 84.1514C211.939 82.0476 212.394 79.7935 212.849 77.5395C213.153 76.3373 213.305 74.9849 213.76 73.7827C214.822 69.4249 216.34 66.2692 218.465 64.1654C218.617 64.0152 218.92 64.0152 219.072 64.1654C219.224 64.3157 219.224 64.6162 219.072 64.7665C217.099 66.8703 215.581 69.8757 214.519 74.0833C214.215 75.2854 213.912 76.6379 213.76 77.84C213.305 80.0941 212.849 82.3481 212.09 84.4519C211.787 85.2033 211.483 86.1049 211.18 86.8562C209.966 89.8616 208.752 93.0173 209.662 96.0227C209.814 96.3233 209.662 96.6238 209.207 96.6238C209.359 96.6238 209.359 96.6238 209.207 96.6238Z" fill="#3E3A39"/>
<path d="M185.683 67.7716C185.531 67.7716 185.379 67.7716 185.228 67.7716C184.772 67.6214 184.469 67.4711 184.317 67.0203C184.165 66.7197 184.165 66.2689 184.317 65.9684C184.469 65.6678 184.62 65.3673 185.076 65.217C185.379 65.0668 185.531 65.217 185.683 65.3673C185.835 65.6678 185.683 65.8181 185.531 65.9684C185.379 65.9684 185.379 66.1186 185.228 66.2689C185.228 66.4192 185.228 66.5695 185.228 66.5695C185.228 66.7197 185.379 66.7197 185.531 66.7197C185.683 66.7197 185.835 66.7197 185.835 66.7197C185.986 66.7197 185.986 66.5695 185.986 66.4192C185.986 66.2689 185.986 66.1186 185.986 66.1186C185.835 65.9684 185.835 65.6678 185.986 65.5176C186.138 65.3673 186.442 65.3673 186.594 65.5176C186.897 65.8181 186.897 66.1186 186.897 66.5695C186.897 67.0203 186.594 67.3208 186.29 67.4711C186.138 67.6214 185.986 67.7716 185.683 67.7716Z" fill="#3E3A39"/>
<path d="M185.532 81.8972C184.925 81.8972 184.469 81.5967 184.317 81.2961C183.862 80.5448 184.014 79.4929 184.621 79.0421C184.773 78.8918 185.076 78.8918 185.228 79.1923C185.38 79.3426 185.38 79.6431 185.076 79.7934C184.773 79.9437 184.621 80.5448 184.925 80.695C185.076 80.8453 185.228 80.8453 185.38 80.9956C185.532 80.9956 185.683 80.9956 185.835 80.8453C185.987 80.695 185.987 80.5448 185.987 80.3945C185.987 80.2442 185.835 80.094 185.683 80.094C185.38 79.9437 185.38 79.7934 185.38 79.4929C185.532 79.1923 185.683 79.1923 185.987 79.1923C186.442 79.3426 186.746 79.6431 186.746 80.094C186.898 80.5448 186.746 80.9956 186.442 81.4464C186.29 81.7469 185.987 81.8972 185.532 81.8972Z" fill="#3E3A39"/>
<path d="M185.532 97.2248C184.925 97.2248 184.469 96.9243 184.317 96.6238C183.862 95.8724 184.014 94.8205 184.621 94.3697C184.773 94.2194 185.076 94.2194 185.228 94.52C185.38 94.6702 185.38 94.9708 185.076 95.1211C184.773 95.2713 184.621 95.8724 184.925 96.0227C185.076 96.173 185.228 96.1729 185.38 96.3232C185.532 96.3232 185.683 96.3232 185.835 96.1729C185.987 96.0227 185.987 95.8724 185.987 95.7221C185.987 95.5719 185.835 95.4216 185.683 95.4216C185.38 95.2713 185.38 95.1211 185.38 94.8205C185.532 94.52 185.683 94.52 185.987 94.52C186.442 94.6702 186.746 94.9708 186.746 95.4216C186.898 95.8724 186.746 96.3232 186.442 96.774C186.29 97.0746 185.987 97.2248 185.532 97.2248Z" fill="#3E3A39"/>
<path d="M216.644 131.186C215.885 131.186 215.126 131.186 214.367 131.036C214.064 131.036 213.912 130.735 213.912 130.585C213.912 130.284 214.216 130.134 214.367 130.134C217.403 130.585 220.438 130.134 223.17 128.932C223.474 128.782 223.625 128.932 223.777 129.233C223.929 129.533 223.777 129.683 223.474 129.834C221.501 130.735 219.072 131.186 216.644 131.186Z" fill="#3E3A39"/>
<path d="M165.498 109.247C165.195 109.247 165.043 109.096 165.043 108.796C165.043 108.495 165.195 108.345 165.498 108.345C176.881 107.594 188.871 106.842 199.495 102.184C199.798 102.034 199.95 102.184 200.102 102.484C200.254 102.785 200.102 102.935 199.798 103.086C194.942 105.189 189.478 106.692 182.952 107.744C177.185 108.495 170.962 108.796 165.498 109.247Z" fill="#3E3A39"/>
<path d="M201.467 102.184C201.316 102.184 201.164 102.034 201.012 101.884C200.86 101.733 201.012 101.433 201.164 101.283C203.744 99.9302 206.476 99.4794 209.359 99.6297C209.663 99.6297 209.815 99.9302 209.815 100.08C209.815 100.381 209.511 100.531 209.359 100.531C206.628 100.381 204.047 100.832 201.619 102.034C201.619 102.184 201.467 102.184 201.467 102.184Z" fill="#3E3A39"/>
<path d="M165.194 129.233C165.042 129.233 164.738 129.082 164.738 128.932C164.738 128.632 164.89 128.481 165.042 128.331C175.514 125.476 185.076 121.118 195.092 116.61C197.217 115.558 199.494 114.656 201.77 113.605C203.895 112.703 205.868 111.801 207.993 111.952C208.296 111.952 208.448 112.252 208.448 112.402C208.448 112.703 208.296 112.853 207.993 112.853C206.02 112.703 204.199 113.454 202.074 114.356C199.797 115.408 197.521 116.309 195.396 117.361C185.379 122.02 175.818 126.378 165.194 129.233Z" fill="#3E3A39"/>
<path d="M213.305 129.683C213.154 129.683 213.002 129.683 213.002 129.533C211.788 128.03 211.181 126.227 210.725 124.574C209.663 121.118 208.6 117.662 208.297 113.905C208.297 113.604 208.449 113.454 208.752 113.454C209.056 113.454 209.207 113.604 209.207 113.905C209.511 117.511 210.573 120.968 211.636 124.274C212.091 125.776 212.546 127.579 213.761 128.932C213.912 129.082 213.912 129.383 213.761 129.533C213.609 129.683 213.457 129.683 213.305 129.683Z" fill="#3E3A39"/>
<path d="M144.704 66.1192C144.704 66.1192 144.553 66.1192 144.401 66.1192C144.249 65.9689 144.249 65.6684 144.401 65.5181C150.016 59.0565 158.06 54.8489 165.194 51.2424C165.497 51.0921 165.649 51.2424 165.801 51.3927C165.952 51.6932 165.801 51.8435 165.649 51.9938C158.516 55.6003 150.624 59.6576 145.16 65.9689C145.008 66.1192 144.856 66.1192 144.704 66.1192Z" fill="#3E3A39"/>
<path d="M148.196 129.984C148.044 129.984 147.892 129.984 147.892 129.834C145.616 127.73 144.553 124.574 143.642 121.569C140.607 110.299 140 98.8783 140 88.0588C140 80.6956 140.911 74.0837 143.035 67.4718C143.187 67.1713 143.339 67.021 143.642 67.1713C143.946 67.3215 144.098 67.4718 143.946 67.7723C141.821 74.234 140.911 80.8458 140.911 88.0588C141.062 98.728 141.518 110.299 144.553 121.269C145.312 124.124 146.374 126.979 148.499 129.083C148.651 129.233 148.651 129.533 148.499 129.684C148.499 129.834 148.347 129.984 148.196 129.984Z" fill="#3E3A39"/>
<path d="M154.721 131.787C152.9 131.787 151.231 131.487 149.713 130.735C149.409 130.585 149.409 130.285 149.561 130.134C149.713 129.834 150.016 129.834 150.168 129.984C151.838 130.735 154.114 131.036 156.694 130.735C158.667 130.435 160.64 129.984 162.462 129.383C160.337 127.58 159.123 124.574 159.274 121.268C159.426 117.963 160.792 114.657 162.006 111.952C162.462 111.05 162.765 110.299 163.22 109.698C163.069 109.698 163.069 109.698 162.917 109.698C161.247 109.397 159.274 108.946 157.757 108.946C157.301 108.946 156.846 108.946 156.391 109.097C156.087 109.247 155.784 109.397 155.48 109.547C153.204 111.2 151.231 113.154 149.409 115.258C149.258 115.408 148.954 115.558 148.802 115.258C148.65 115.107 148.499 114.807 148.802 114.657C150.623 112.403 152.748 110.449 155.025 108.796C155.328 108.495 155.632 108.345 156.087 108.195C156.694 108.045 157.301 107.894 157.757 108.045C159.426 108.045 161.399 108.495 163.22 108.796C163.524 108.796 163.979 108.946 164.283 108.946C164.435 108.946 164.586 109.097 164.586 109.247C164.586 109.397 164.586 109.547 164.586 109.698C163.979 110.449 163.524 111.351 163.069 112.403C161.854 115.107 160.489 118.113 160.489 121.419C160.337 124.875 161.703 127.73 163.979 129.233C164.131 129.383 164.283 129.533 164.131 129.684C164.131 129.834 163.979 129.984 163.827 130.134C161.703 130.886 159.426 131.487 156.998 131.787C156.087 131.637 155.328 131.787 154.721 131.787Z" fill="#3E3A39"/>
<path d="M156.087 108.946C155.936 108.946 155.936 108.946 155.784 108.946C152.141 106.692 148.651 104.288 145.463 101.433C145.312 101.282 145.312 100.982 145.463 100.831C145.463 100.681 145.767 100.681 146.071 100.831C149.258 103.536 152.748 105.941 156.391 108.044C156.543 108.195 156.694 108.495 156.543 108.646C156.391 108.796 156.239 108.946 156.087 108.946Z" fill="#3E3A39"/>
<path d="M157.302 107.594C157.15 107.594 157.15 107.594 156.998 107.443L152.142 103.687C151.686 103.236 151.079 102.785 150.32 102.635C149.865 102.484 149.106 102.785 148.955 103.236C148.955 103.536 148.651 103.687 148.347 103.536C148.044 103.536 147.892 103.236 148.044 102.935C148.347 101.883 149.562 101.432 150.472 101.733C151.383 101.883 152.142 102.484 152.597 102.935L157.605 106.842C157.757 106.992 157.909 107.293 157.757 107.443C157.605 107.594 157.454 107.594 157.302 107.594Z" fill="#3E3A39"/>
<path d="M159.274 106.091C159.123 106.091 158.971 106.091 158.819 105.941C156.391 102.484 152.445 100.381 148.954 98.427C148.499 98.1265 148.043 97.9762 147.588 97.9762C147.284 97.9762 146.829 98.2767 146.829 98.427C146.829 98.7276 146.981 98.8778 147.284 99.1784L149.257 101.432C149.409 101.583 149.409 101.883 149.257 102.034C149.106 102.184 148.802 102.184 148.65 102.034L146.677 99.7795C146.526 99.4789 146.07 99.0281 146.07 98.427C146.07 97.5254 146.981 97.0746 147.74 96.9243C148.499 96.9243 149.106 97.2249 149.561 97.5254C153.052 99.4789 157.15 101.733 159.73 105.339C159.881 105.49 159.881 105.79 159.578 105.941C159.426 106.091 159.274 106.091 159.274 106.091Z" fill="#3E3A39"/>
<path d="M161.249 104.137C161.097 104.137 160.945 104.137 160.945 103.987C159.428 102.484 157.91 100.982 156.544 99.3287C154.875 97.3752 151.991 96.4735 149.107 95.5719C148.5 95.4216 147.893 95.2714 147.438 94.9708C147.286 94.9708 147.286 94.9708 147.134 94.9708C147.134 94.9708 146.982 95.1211 146.831 95.1211C146.527 95.5719 146.679 96.3233 146.982 96.6238C147.134 96.7741 147.134 97.0746 146.982 97.2249C146.831 97.3752 146.527 97.3752 146.375 97.2249C145.617 96.4735 145.465 95.2714 146.072 94.52C146.375 94.0692 146.679 93.9189 146.982 93.9189C147.286 93.9189 147.438 93.9189 147.59 94.0692C148.197 94.2195 148.652 94.3698 149.259 94.52C152.143 95.4216 155.178 96.3233 156.999 98.5773C158.365 100.23 159.731 101.733 161.249 103.085C161.401 103.236 161.401 103.536 161.249 103.687C161.552 104.137 161.401 104.137 161.249 104.137Z" fill="#3E3A39"/>
<path d="M166.863 108.946C166.711 108.946 166.56 108.946 166.408 108.796C165.801 107.894 165.042 106.843 164.283 105.941C163.524 104.889 162.765 103.987 162.158 103.086C161.399 102.034 160.337 100.832 159.426 99.7798C159.123 99.329 158.819 99.0285 158.516 98.5777C158.06 98.1269 157.757 97.676 157.302 97.2252C156.391 96.4739 155.329 96.0231 154.266 95.5723L151.534 94.3701C151.079 94.2198 150.624 94.0696 150.32 94.0696C150.168 94.0696 150.017 94.2198 149.865 94.3701C149.865 94.5204 149.865 94.5204 149.865 94.5204C150.017 94.8209 149.865 94.9712 149.713 95.1215C149.41 95.2717 149.258 95.1215 149.106 94.9712C148.954 94.6706 148.954 94.2198 149.106 93.9193C149.258 93.4685 149.713 93.1679 150.168 93.1679C150.927 92.8674 151.534 93.1679 152.141 93.4685L154.873 94.6706C155.936 95.1215 157.15 95.5723 158.06 96.4739C158.516 96.9247 158.971 97.3755 159.426 97.9766C159.73 98.2771 160.034 98.7279 160.337 99.1788C161.248 100.231 162.31 101.583 163.069 102.635C163.676 103.537 164.435 104.588 165.194 105.49C165.953 106.542 166.711 107.594 167.318 108.345C167.47 108.496 167.47 108.796 167.167 108.946C167.015 108.946 166.863 108.946 166.863 108.946Z" fill="#3E3A39"/>
<path d="M159.73 99.1783C159.427 99.1783 159.275 99.028 159.275 98.7275L158.516 82.4983C158.364 77.9902 158.061 72.4302 155.177 68.2226C154.874 67.9221 155.025 67.6215 155.177 67.4713C155.329 67.321 155.633 67.321 155.784 67.6215C158.82 71.9794 158.971 77.8399 159.275 82.348L160.034 98.5772C160.186 98.8777 159.882 99.1783 159.73 99.1783Z" fill="#3E3A39"/>
<path d="M159.427 95.1216C159.275 95.1216 159.123 95.1216 158.971 94.9713C156.088 90.6135 152.901 86.2556 149.713 82.1983C149.562 82.0481 149.562 81.7475 149.713 81.5972C149.865 81.447 150.169 81.447 150.321 81.7475C153.659 85.9551 156.695 90.1627 159.73 94.5205C159.882 94.6708 159.882 94.9713 159.579 95.1216C159.73 95.1216 159.579 95.1216 159.427 95.1216Z" fill="#3E3A39"/>
<path d="M156.998 129.984C156.846 129.984 156.695 129.984 156.543 129.834C155.329 128.181 154.57 126.227 154.418 124.124C154.418 123.823 154.418 123.372 154.266 123.072C154.266 121.719 154.115 120.667 153.659 119.766C153.507 119.465 153.204 119.165 152.9 118.864C152.749 118.714 152.597 118.564 152.445 118.413C151.231 116.911 150.472 115.107 150.32 113.154C150.32 112.853 150.472 112.703 150.776 112.703C151.079 112.703 151.231 112.853 151.231 113.154C151.383 114.807 151.99 116.61 153.052 117.812C153.204 117.963 153.356 118.113 153.356 118.263C153.659 118.564 153.963 118.864 154.266 119.315C155.025 120.367 155.025 121.719 155.177 122.922C155.177 123.222 155.177 123.673 155.329 123.973C155.632 125.927 156.239 127.73 157.302 129.233C157.454 129.383 157.454 129.684 157.15 129.834C157.302 129.984 157.15 129.984 156.998 129.984Z" fill="#3E3A39"/>
<path d="M207.84 132.99C207.385 132.99 207.082 132.839 206.778 132.689C204.046 131.186 201.618 128.782 199.797 125.626C198.431 123.072 197.368 120.066 196.609 116.31C196.609 116.009 196.761 115.859 196.913 115.708C197.216 115.708 197.368 115.859 197.52 116.009C198.279 119.766 199.341 122.621 200.707 125.176C202.377 128.181 204.653 130.585 207.385 131.938C207.84 132.238 208.599 132.088 209.51 131.637C210.421 131.186 211.483 130.736 212.394 130.435C212.697 130.285 212.849 130.435 213.001 130.736C213.152 131.036 213.001 131.186 212.697 131.337C211.786 131.637 210.724 132.088 209.813 132.539C209.055 132.839 208.447 132.99 207.84 132.99Z" fill="#3E3A39"/>
<path d="M203.743 131.036C192.967 130.735 182.04 129.383 171.416 127.429C171.112 127.429 170.961 127.129 171.112 126.828C171.112 126.528 171.416 126.377 171.719 126.528C182.343 128.631 193.119 129.834 203.895 130.134C204.198 130.134 204.35 130.284 204.35 130.585C204.198 130.886 204.047 131.036 203.743 131.036Z" fill="#3E3A39"/>
<path d="M154.115 138.849C153.811 138.849 153.66 138.699 153.66 138.399C153.356 135.994 153.508 133.59 153.811 131.186C153.811 130.885 154.115 130.735 154.418 130.735C154.722 130.735 154.874 131.035 154.874 131.336C154.57 133.59 154.418 135.994 154.722 138.248C154.57 138.549 154.418 138.849 154.115 138.849Z" fill="#3E3A39"/>
<path d="M213.61 138.85C213.306 138.85 213.154 138.7 213.154 138.399V131.938H213.61H214.065H213.61H214.065V138.399C214.065 138.549 213.761 138.85 213.61 138.85Z" fill="#3E3A39"/>
<path d="M183.709 139C183.406 139 183.254 138.7 183.254 138.549C183.557 135.544 183.709 132.388 183.557 129.233C183.557 128.932 183.709 128.782 184.013 128.782C184.316 128.782 184.468 128.932 184.468 129.233C184.62 132.388 184.62 135.544 184.165 138.7C184.165 138.85 183.861 139 183.709 139Z" fill="#3E3A39"/>
<path d="M187.201 136.595C187.05 136.595 186.898 136.595 186.594 136.445C186.139 136.295 185.835 135.994 185.684 135.543C185.532 135.243 185.532 134.792 185.835 134.341C186.139 133.89 186.443 133.59 186.898 133.59C187.201 133.59 187.353 133.74 187.353 134.041C187.353 134.341 187.201 134.491 186.898 134.642C186.746 134.642 186.594 134.792 186.443 134.942C186.291 135.093 186.291 135.243 186.443 135.393C186.443 135.543 186.594 135.694 186.898 135.694C187.05 135.694 187.353 135.694 187.353 135.694C187.505 135.543 187.657 135.393 187.657 135.243C187.657 135.093 187.657 134.942 187.505 134.792C187.353 134.642 187.353 134.341 187.505 134.191C187.657 134.041 187.96 134.041 188.112 134.191C188.416 134.491 188.567 134.942 188.567 135.393C188.567 135.844 188.264 136.295 187.808 136.445C187.657 136.595 187.353 136.595 187.201 136.595Z" fill="#3E3A39"/>
<path d="M160.642 32.7589C160.49 32.7589 160.338 32.7589 160.187 32.6086C159.883 32.4583 159.579 32.1578 159.124 32.0075C158.214 31.4064 157.151 30.8054 156.392 29.9037C155.633 28.8519 155.178 26.8983 155.33 25.6962C155.33 25.2454 155.785 24.9448 156.089 24.9448C156.544 24.9448 156.848 25.3956 156.848 25.6962C156.848 26.5978 157.151 28.2508 157.606 29.0021C158.062 29.7535 158.972 30.2043 159.883 30.8054C160.338 31.1059 160.642 31.2562 160.945 31.5567C161.249 31.8573 161.401 32.3081 161.097 32.6086C161.097 32.6086 160.794 32.7589 160.642 32.7589Z" fill="#3E3A39"/>
<path d="M160.489 30.2046C160.034 30.2046 159.73 29.904 159.73 29.4532C159.73 29.0024 160.034 28.7019 160.489 28.7019C162.766 28.7019 164.132 27.4997 165.042 24.9451C165.498 23.7429 165.194 22.3905 165.042 21.1883C165.042 20.7375 164.891 20.437 164.891 19.9862C164.891 19.2348 164.739 17.2813 164.891 15.4781C165.042 14.4262 165.953 12.9235 167.167 12.0219C167.926 11.4208 168.685 11.2705 169.292 11.2705C169.747 11.2705 170.051 11.7213 169.899 12.1721C169.899 12.6229 169.444 12.9235 168.988 12.7732C168.685 12.7732 168.381 12.9235 167.926 13.224C167.015 13.8251 166.408 15.0273 166.257 15.6283C166.105 17.131 166.257 19.0846 166.257 19.8359C166.257 20.2867 166.408 20.5873 166.408 21.0381C166.56 22.5408 166.712 24.0435 166.257 25.5462C165.498 28.5516 163.525 30.2046 160.489 30.2046Z" fill="#3E3A39"/>
<path d="M155.633 24.6442C155.33 24.6442 155.026 24.494 154.874 24.0432C150.776 10.068 162.463 5.55992 162.766 5.40965C162.766 5.40965 164.284 4.50802 166.257 4.50802C166.409 4.50802 167.016 3.90694 167.319 3.6064C167.623 3.30586 167.926 3.15559 168.078 3.00532C170.051 1.80316 172.024 0.901537 174.149 0.450727C178.399 -0.601165 182.041 -0.150354 185.987 2.40424C187.657 3.45613 188.871 4.95884 189.933 6.31127C190.844 7.51343 191.754 8.56532 192.969 9.46694C196.004 12.0215 196.611 16.5296 196.156 19.6853C196.004 20.5869 195.852 21.3383 195.701 21.9394C195.549 22.3902 195.093 22.5405 194.79 22.5405C194.335 22.3902 194.183 21.9394 194.183 21.6388C194.335 21.188 194.486 20.4367 194.486 19.5351C194.942 16.5296 194.183 12.7729 191.754 10.9696C190.389 9.91776 189.326 8.71559 188.416 7.51343C187.353 6.161 186.291 4.80856 184.773 3.90694C181.282 1.65289 178.095 1.20208 174.149 2.1037C172.48 2.55451 170.658 3.30586 168.837 4.50802C168.685 4.50802 168.534 4.80856 168.23 4.95884C167.168 5.86046 166.712 6.161 166.105 6.161C164.588 6.161 163.373 6.91235 163.222 6.91235C162.766 7.06262 152.598 10.9696 156.392 23.5924C156.544 24.0432 156.24 24.494 155.785 24.494C155.785 24.6442 155.785 24.6442 155.633 24.6442Z" fill="#3E3A39"/>
<path d="M156.087 25.6962C154.721 25.6962 153.962 25.2454 153.658 24.4941C153.507 24.0433 153.658 23.5924 154.114 23.4422C154.569 23.2919 155.024 23.4422 155.176 23.893C155.176 23.893 155.48 24.0433 156.694 24.0433C157.301 24.0433 157.605 23.893 158.06 23.4422C159.426 22.3903 160.336 21.3384 161.247 19.8357C161.854 18.6335 162.309 17.2811 162.461 15.9287C162.613 14.5762 163.068 13.5243 164.131 12.4724L164.434 12.1719C165.041 11.7211 165.497 11.12 166.255 10.6692C167.318 10.2184 168.987 10.3687 169.898 10.5189C170.353 10.6692 170.505 11.12 170.505 11.4205C170.353 12.0216 169.898 12.1719 169.594 12.1719C168.684 11.8714 167.621 12.0216 167.014 12.3222C166.559 12.6227 165.952 13.0735 165.497 13.5243L165.193 13.8249C164.434 14.5762 163.979 15.3276 163.979 16.2292C163.827 17.8822 163.372 19.3849 162.613 20.7373C161.702 22.3903 160.488 23.7427 158.97 24.7946C158.212 25.3957 157.605 25.546 156.694 25.6962C156.542 25.6962 156.239 25.6962 156.087 25.6962Z" fill="#3E3A39"/>
<path d="M173.39 27.6496H173.238C172.935 27.4993 172.783 27.1988 172.935 26.8982C172.935 26.8982 173.693 25.3955 175.666 25.3955C175.97 25.3955 176.122 25.696 176.122 25.9966C176.122 26.2971 175.818 26.4474 175.515 26.4474C174.149 26.4474 173.845 27.1988 173.845 27.349C173.693 27.4993 173.542 27.6496 173.39 27.6496Z" fill="#3E3A39"/>
<path d="M187.505 16.3794C187.201 16.3794 186.746 16.3794 186.442 16.2291C184.469 15.7783 182.951 14.2756 181.586 12.7729C180.827 12.0215 180.22 11.4204 179.461 10.9696C178.095 10.068 176.881 9.46692 175.97 9.31665C175.059 9.16638 173.542 9.16638 172.935 9.46692C172.631 9.61719 172.176 10.2183 172.024 10.5188C171.872 10.9696 171.569 11.2702 171.113 11.1199C170.658 10.9696 170.355 10.6691 170.506 10.2183C170.658 9.46692 171.569 8.41503 172.328 7.96422C173.542 7.51341 175.363 7.51341 176.274 7.81395C177.791 8.11449 179.309 9.01611 180.371 9.76746C180.978 10.068 181.737 10.8194 182.496 11.5707C183.559 12.6226 184.924 14.2756 186.594 14.5761C187.808 14.8767 189.174 14.4258 190.236 13.2237C190.54 12.9231 190.995 12.9231 191.299 13.2237C191.602 13.5242 191.602 13.975 191.299 14.2756C190.388 15.628 188.871 16.3794 187.505 16.3794Z" fill="#3E3A39"/>
<path d="M176.425 22.3904C176.273 22.3904 176.121 22.3904 175.969 22.2401C175.514 21.9396 175.362 21.4888 175.666 21.038C175.818 20.8877 177.639 17.5818 181.585 17.732C182.04 17.732 182.495 18.1828 182.495 18.6336C182.495 19.0845 182.04 19.5353 181.585 19.5353C178.701 19.5353 177.335 21.7893 177.335 21.9396C177.032 22.0899 176.728 22.3904 176.425 22.3904Z" fill="#3E3A39"/>
<path d="M164.891 27.6495C164.739 27.6495 164.587 27.6495 164.587 27.6495C164.132 27.4992 163.828 26.8981 164.132 26.4473C165.194 24.043 169.444 23.5922 169.899 23.4419C170.355 23.4419 170.81 23.7424 170.962 24.1932C170.962 24.6441 170.658 25.0949 170.203 25.2451C168.989 25.3954 166.409 25.9965 165.953 27.0484C165.65 27.4992 165.194 27.6495 164.891 27.6495Z" fill="#3E3A39"/>
<path d="M187.656 19.8358C188.264 20.8877 188.871 21.1883 189.022 22.3904C189.022 22.9915 189.326 24.6445 190.237 24.3439C190.388 23.4423 190.237 22.3904 190.237 21.3385C190.237 20.8877 190.237 20.4369 190.237 19.8358C190.237 19.385 190.54 18.9342 190.54 18.4834C189.174 18.4834 188.112 19.385 187.201 18.9342" fill="#3E3A39"/>
<path d="M186.291 20.136C185.987 20.136 185.684 20.136 185.228 20.136C183.862 19.9857 182.8 19.5349 181.889 18.9338C180.523 18.0322 179.613 16.8301 178.702 15.6279L178.399 15.1771C178.095 14.7263 177.792 14.2755 177.488 13.8247C177.033 12.923 176.426 12.1717 175.667 11.7209C174.453 10.9695 171.417 10.669 170.507 11.8711C170.203 12.1717 169.748 12.3219 169.444 12.0214C169.141 11.7209 168.989 11.2701 169.292 10.9695C170.81 9.016 174.756 9.31654 176.577 10.5187C177.64 11.2701 178.247 12.1717 178.854 13.0733C179.158 13.5241 179.309 13.8247 179.613 14.2755L179.916 14.7263C180.675 15.7782 181.586 16.9803 182.648 17.5814C183.407 18.0322 184.166 18.3328 185.228 18.483C186.746 18.7836 188.871 18.1825 189.781 16.9803C190.085 16.6798 190.54 16.5295 190.844 16.6798C191.147 16.9803 191.299 17.4311 191.147 17.7317C190.389 19.3847 188.112 20.136 186.291 20.136Z" fill="#3E3A39"/>
<path d="M176.122 40.4226C175.818 40.4226 175.666 40.4226 175.666 40.4226C175.363 40.4226 175.211 40.1221 175.211 39.8215C175.211 39.521 175.514 39.3707 175.818 39.3707C175.97 39.3707 180.826 39.8215 184.165 35.3134C184.317 35.0129 184.621 35.0129 184.924 35.1632C185.228 35.3134 185.228 35.614 185.076 35.9145C181.889 40.1221 177.639 40.4226 176.122 40.4226Z" fill="#3E3A39"/>
<path d="M177.79 36.065C177.183 36.065 176.576 35.9148 176.121 35.7645C175.817 35.6142 175.666 35.3137 175.817 35.0131C175.969 34.7126 176.273 34.5623 176.576 34.7126C177.183 35.0131 178.094 35.0131 178.701 34.7126C178.853 34.7126 178.853 34.4121 179.005 34.1115C179.156 33.811 179.156 33.3602 179.612 33.0596C179.915 32.9094 180.219 32.7591 180.674 33.0596C180.826 33.0596 180.826 33.0596 180.978 33.0596C180.978 32.7591 181.281 32.4585 181.585 32.6088C181.888 32.6088 182.04 32.9094 182.04 33.2099C182.04 33.6607 181.736 33.9613 181.433 34.1115C181.129 34.2618 180.522 34.2618 180.219 34.1115C180.067 34.1115 180.067 34.1115 180.067 34.1115C180.067 34.1115 180.067 34.2618 179.915 34.4121C179.763 34.8629 179.612 35.464 179.005 35.7645C178.701 36.065 178.246 36.065 177.79 36.065Z" fill="#3E3A39"/>
<path d="M175.514 33.661C175.363 33.661 175.363 33.661 175.514 33.661C175.211 33.661 174.907 33.3605 175.059 33.06C175.059 32.9097 175.059 32.9097 175.059 32.7594C175.211 32.0081 175.211 30.8059 174.907 30.0546C174.755 29.754 174.907 29.4535 175.211 29.4535C175.514 29.3032 175.818 29.4535 175.818 29.754C176.121 30.6556 176.273 32.0081 175.97 33.06C175.97 33.2102 175.97 33.3605 175.97 33.3605C175.97 33.5108 175.666 33.661 175.514 33.661Z" fill="#3E3A39"/>
<path d="M180.067 42.2265C179.309 42.2265 178.701 42.0763 178.398 41.926C178.094 41.7757 178.094 41.4752 178.246 41.1746C178.398 40.8741 178.701 40.8741 179.005 41.0244C179.309 41.1746 179.916 41.3249 180.826 41.1746C181.282 41.1746 181.889 40.7238 182.344 40.4233L182.496 40.273C182.799 40.1228 183.103 40.1228 183.255 40.4233C183.406 40.7238 183.406 41.0244 183.103 41.1746L182.951 41.3249C182.344 41.6255 181.737 42.0763 180.978 42.2265C180.371 42.2265 180.219 42.2265 180.067 42.2265Z" fill="#3E3A39"/>
<path d="M175.211 36.6661C175.059 36.6661 174.756 36.6661 174.604 36.5158C174.149 36.3655 173.693 35.9147 173.693 35.3136C173.693 35.0131 173.693 34.7126 173.997 34.412C174.149 34.2617 174.604 34.2617 174.756 34.412C174.908 34.5623 174.908 35.0131 174.756 35.1634L174.452 34.7126L174.756 35.1634L175.059 35.4639C175.363 35.6142 175.666 35.3136 175.818 35.1634C175.97 34.8628 176.273 34.8628 176.577 35.0131C176.881 35.1634 176.881 35.4639 176.729 35.7644C176.273 36.3655 175.666 36.6661 175.211 36.6661Z" fill="#3E3A39"/>
<path d="M169.596 35.9148C168.078 35.9148 166.408 35.464 165.194 34.5624C163.525 33.5105 162.766 32.0078 163.069 30.3548C163.221 29.6034 163.525 28.8521 164.132 28.251C165.042 27.1991 166.408 26.4478 167.774 25.8467C168.381 25.5461 169.596 25.2456 170.658 25.2456C172.631 25.2456 173.39 26.2975 173.693 27.0488C174.452 29.0024 174.452 31.557 173.693 33.3602C173.086 35.0132 171.569 35.9148 169.596 35.9148ZM170.81 26.2975C170.051 26.2975 169.14 26.4478 168.23 26.8986C167.015 27.3494 165.801 28.1007 165.042 29.0024C164.587 29.4532 164.284 30.0543 164.132 30.6553C163.828 32.3083 165.042 33.3602 165.801 33.811C166.864 34.5624 168.381 35.0132 169.596 35.0132C170.658 35.0132 172.176 34.7126 172.934 33.0597C173.542 31.557 173.542 29.1526 172.934 27.4997C172.479 26.598 171.872 26.2975 170.81 26.2975Z" fill="#3E3A39"/>
<path d="M181.89 30.0542C181.738 30.0542 181.434 30.0542 181.283 30.0542C178.247 29.7537 176.881 27.9504 175.819 26.2974C175.364 25.6964 175.212 24.945 175.364 24.1937C175.667 22.3904 177.64 21.038 178.247 20.7374C179.461 19.9861 180.979 19.385 182.345 19.2347C183.256 19.0845 184.014 19.2347 184.773 19.5353C186.443 20.2866 187.353 21.7893 187.353 23.7428C187.353 25.6964 186.595 27.4996 185.532 28.7018C184.47 29.6034 183.256 30.0542 181.89 30.0542ZM182.8 20.1364C182.649 20.1364 182.497 20.1364 182.345 20.1364C181.131 20.2866 179.765 20.7374 178.703 21.4888C177.64 22.0899 176.578 23.292 176.274 24.3439C176.122 24.7947 176.274 25.2455 176.578 25.6964C177.64 27.1991 178.703 28.7018 181.283 29.0023C181.434 29.0023 181.586 29.0023 181.89 29.0023C182.952 29.0023 183.863 28.7018 184.622 27.9504C185.684 26.8985 186.291 25.3958 186.139 23.7428C186.139 22.8412 185.836 21.1882 184.166 20.4369C183.863 20.2866 183.407 20.1364 182.8 20.1364Z" fill="#3E3A39"/>
<path d="M186.745 21.3383C186.594 21.3383 186.29 21.188 186.29 21.0377C186.138 20.7372 186.29 20.4366 186.594 20.4366L189.325 19.535C189.629 19.3848 189.932 19.535 189.932 19.8356C190.084 20.1361 189.932 20.4366 189.629 20.4366L186.897 21.3383C186.745 21.3383 186.745 21.3383 186.745 21.3383Z" fill="#3E3A39"/>
<path d="M163.524 31.7072C163.372 31.7072 163.372 31.7072 163.524 31.7072L160.489 31.1061C160.185 31.1061 160.033 30.8055 160.033 30.505C160.033 30.2045 160.337 30.0542 160.64 30.0542L163.524 30.6553C163.827 30.6553 163.979 30.9558 163.979 31.2564C163.979 31.4066 163.676 31.7072 163.524 31.7072Z" fill="#3E3A39"/>
<path d="M192.664 31.8568H192.512C192.208 31.8568 192.057 31.5563 192.057 31.2557C192.057 30.9552 192.36 30.8049 192.664 30.8049C192.967 30.8049 193.574 30.6547 193.726 30.3541C194.181 29.753 194.181 29.0017 194.03 28.1001C194.03 27.6492 194.03 27.3487 194.03 27.0482C194.03 26.4471 194.181 25.846 194.333 25.2449C194.485 24.3433 194.637 23.5919 194.485 22.6903C194.485 21.6384 194.181 21.0374 193.726 20.4363C193.574 20.286 192.512 19.2341 191.45 19.9855C190.843 20.4363 190.691 21.3379 190.539 22.0892C190.539 22.3898 190.235 22.5401 189.932 22.5401C189.628 22.5401 189.477 22.2395 189.477 21.939C189.628 21.0374 189.932 19.9855 190.843 19.2341C192.057 18.1822 193.574 18.7833 194.485 19.6849C195.092 20.4363 195.547 21.3379 195.547 22.5401C195.547 23.4417 195.396 24.3433 195.244 25.2449C195.092 25.846 195.092 26.2968 194.94 26.8979C194.94 27.1984 194.94 27.499 194.94 27.7995C194.94 28.7011 195.092 29.9033 194.333 30.8049C194.03 31.5563 193.271 31.8568 192.664 31.8568Z" fill="#3E3A39"/>
<path d="M179.461 48.3867C176.729 48.3867 174.908 47.3348 174.452 47.0343C171.265 46.4332 168.685 44.4797 166.712 41.0235L161.248 31.1056C161.097 30.8051 161.248 30.5045 161.4 30.3543C161.704 30.204 162.007 30.3543 162.159 30.5045L167.623 40.4224C169.444 43.578 171.721 45.3813 174.756 45.8321C174.756 45.8321 174.908 45.8321 174.908 45.9824C175.06 46.1326 178.095 48.2364 182.648 46.7337C183.103 46.5835 192.665 42.8267 191.451 29.4526C191.451 29.1521 191.603 28.8516 191.906 28.8516C192.21 28.8516 192.513 29.0018 192.513 29.3024C193.879 43.4278 183.103 47.6353 182.952 47.6353C181.737 48.2364 180.523 48.3867 179.461 48.3867Z" fill="#3E3A39"/>
<path d="M191.754 29.0022C191.451 29.0022 191.299 28.7017 191.299 28.4011C191.299 28.1006 191.299 27.4995 191.451 27.0487C191.602 26.5979 192.058 26.2974 192.209 26.1471C192.361 25.9968 192.513 25.9968 192.513 25.8465C192.513 25.6963 192.513 25.3957 192.361 25.3957H192.209C192.058 25.3957 191.754 25.546 191.451 25.3957C191.147 25.2455 191.147 24.7947 191.147 24.6444C190.995 23.893 190.995 23.1417 191.147 22.3903C191.299 21.9395 191.451 21.3384 191.906 21.0379C192.209 20.8876 193.12 20.5871 193.575 21.0379C193.727 21.1882 193.879 21.4887 193.575 21.7893C193.424 21.9395 193.12 22.0898 192.817 21.9395C192.665 21.9395 192.361 21.9395 192.361 22.0898C192.209 22.2401 192.058 22.3903 192.058 22.8411C191.906 23.4422 191.906 23.893 192.058 24.4941C192.361 24.4941 192.665 24.3438 192.968 24.4941C193.272 24.6444 193.424 24.9449 193.575 25.2455C193.727 25.546 193.727 25.9968 193.424 26.4476C193.272 26.7482 192.968 26.8984 192.817 27.0487C192.665 27.199 192.513 27.199 192.513 27.3493C192.361 27.6498 192.361 27.9503 192.361 28.2509C192.361 28.7017 192.058 29.0022 191.754 29.0022Z" fill="#3E3A39"/>
<path d="M165.498 39.8216C165.195 39.8216 164.739 39.6713 164.588 39.521C164.132 39.2205 163.981 38.7697 163.829 38.3189C163.677 38.1686 163.677 37.8681 163.525 37.7178C163.373 37.4173 163.07 37.267 162.615 37.1167C162.311 36.9665 161.856 36.6659 161.704 36.3654C161.097 35.7643 159.883 34.2616 160.034 32.7589C160.186 32.0075 160.49 31.4064 161.249 30.9556C161.552 30.8054 161.856 30.8054 162.008 31.1059C162.159 31.4065 162.159 31.707 161.856 31.8573C161.4 32.1578 161.249 32.4583 161.097 32.9092C160.945 33.6605 161.552 34.7124 162.463 35.614C162.615 35.7643 162.918 36.0648 163.222 36.2151C163.677 36.5156 163.981 36.6659 164.284 37.1167C164.436 37.4173 164.588 37.7178 164.739 38.0183C164.891 38.3189 164.891 38.6194 165.195 38.7697C165.346 38.92 165.498 38.92 165.65 38.7697C165.802 38.6194 166.105 38.4692 166.409 38.7697C166.561 38.92 166.712 39.2205 166.409 39.521C166.257 39.6713 165.954 39.8216 165.498 39.8216Z" fill="#3E3A39"/>
</g>
<defs>
<clipPath id="clip0_87_20">
<rect width="90" height="139" fill="white" transform="translate(140)"/>
</clipPath>
</defs>
</svg>
