<svg width="282" height="74" viewBox="0 0 282 74" fill="none" xmlns="http://www.w3.org/2000/svg">
<line x1="1" y1="-1" x2="281" y2="-1" transform="matrix(-1 0 0 1 282 10)" stroke="black" stroke-width="2" stroke-linecap="round"/>
<line x1="1" y1="-1" x2="281" y2="-1" transform="matrix(1 7.44024e-08 1.02722e-07 -1 0 64)" stroke="black" stroke-width="2" stroke-linecap="round"/>
<line x1="1" y1="-1" x2="229" y2="-1" transform="matrix(-1 0 0 1 256 6)" stroke="black" stroke-width="2" stroke-linecap="round"/>
<line x1="1" y1="-1" x2="229" y2="-1" transform="matrix(1 7.44024e-08 1.02722e-07 -1 26 68)" stroke="black" stroke-width="2" stroke-linecap="round"/>
<line x1="1" y1="-1" x2="187" y2="-1" transform="matrix(-1 0 0 1 235 2)" stroke="black" stroke-width="2" stroke-linecap="round"/>
<line x1="1" y1="-1" x2="187" y2="-1" transform="matrix(1 7.44024e-08 1.02722e-07 -1 47 72)" stroke="black" stroke-width="2" stroke-linecap="round"/>
<path d="M81.7154 22.182C80.7034 22.182 79.6914 22.226 78.7014 22.358C77.7774 22.468 75.9074 22.644 75.9074 23.942C75.9074 24.624 75.9514 25.262 75.9734 25.922L76.1274 29.464C76.2154 31.532 76.2814 33.556 76.3474 35.624C76.3694 36.592 76.3914 37.56 76.4354 38.55C76.4794 39.188 76.6554 39.694 77.3814 39.694C77.9534 39.694 78.4814 39.188 78.4814 38.594C78.4814 37.362 78.4154 36.108 78.3714 34.854C78.3494 34.04 78.3054 33.226 78.2834 32.412C78.5694 32.412 78.8554 32.412 79.1414 32.412L82.7274 32.39C83.3214 32.39 83.9374 32.39 84.5314 32.39C84.8834 32.39 85.7414 32.412 86.0494 32.302C86.4674 32.148 86.7974 31.752 86.7974 31.268C86.7974 30.718 86.3794 30.366 85.8734 30.366C85.2794 30.366 84.6634 30.366 84.0694 30.366L80.4834 30.388C79.8894 30.388 79.2734 30.388 78.6794 30.388C78.5694 30.388 78.3934 30.388 78.1954 30.388C78.1074 28.408 78.0194 26.428 77.9534 24.448C79.1194 24.228 80.3294 24.184 81.5174 24.184C82.3534 24.184 83.2114 24.184 84.0474 24.228C84.5314 24.25 85.0374 24.316 85.5214 24.316C86.0934 24.316 86.6214 23.81 86.6214 23.216C86.6214 22.842 86.4454 22.6 86.1594 22.424C85.7854 22.182 82.3974 22.182 81.7154 22.182ZM88.1699 31.378C88.1699 36.35 89.6219 39.782 94.9239 39.782C99.8519 39.782 101.216 34.678 101.216 30.454C101.216 29.464 101.194 28.496 100.996 27.55C100.336 24.382 98.0259 21.918 94.8139 21.918C89.4019 21.918 88.1699 26.67 88.1699 31.378ZM90.1939 31.202C90.1939 29.156 90.4139 25.922 92.1519 24.646C92.8779 24.096 93.7359 23.92 94.6159 23.92C96.9479 23.92 98.5539 25.9 99.0159 28.144C99.1919 28.958 99.1699 29.816 99.1699 30.652C99.1699 32.676 98.7739 36.02 97.0359 37.23C96.4639 37.604 95.7819 37.78 95.0999 37.78C90.8759 37.78 90.1939 34.964 90.1939 31.202ZM110.001 39.738C112.795 39.738 114.885 38.154 115.545 35.294C115.853 33.974 115.853 32.566 115.897 31.224C115.963 29.244 116.007 27.22 116.007 25.24V23.436C116.007 22.732 115.897 22.094 115.061 22.094C114.269 22.094 113.939 22.732 113.939 23.48C113.939 23.634 113.939 23.766 113.939 23.92L113.961 24.822C113.961 26.978 113.939 29.156 113.873 31.312C113.829 32.368 113.807 33.446 113.653 34.502C113.587 34.92 113.499 35.338 113.345 35.734C112.773 37.186 111.651 37.714 110.199 37.714C106.679 37.714 106.481 32.94 106.239 30.278C106.085 28.452 105.975 26.648 105.843 24.822C105.821 24.404 105.733 22.754 105.623 22.512C105.469 22.16 105.139 21.962 104.765 21.962C104.193 21.962 103.665 22.468 103.665 23.062C103.665 23.722 103.753 24.404 103.797 25.064C103.819 25.372 103.841 25.68 103.863 25.988L103.973 27.814C103.995 28.122 104.017 28.43 104.039 28.738C104.105 29.772 104.193 30.806 104.303 31.84C104.391 32.786 104.501 33.71 104.721 34.634C105.403 37.494 106.921 39.738 110.001 39.738ZM120.839 38.704C120.839 34.678 120.795 30.63 120.707 26.604C122.511 29.596 124.381 32.566 126.295 35.514C126.845 36.35 127.417 37.164 127.967 38.022C128.297 38.528 128.583 39.078 129.001 39.518C129.243 39.76 129.551 39.914 129.903 39.914C130.409 39.914 130.893 39.562 131.091 39.1C131.223 38.814 131.267 38.506 131.289 38.176C131.421 36.988 131.399 35.8 131.399 34.612C131.421 31.202 131.399 27.814 131.399 24.404C131.399 23.92 131.421 23.436 131.421 22.974C131.421 22.226 131.421 21.412 130.475 21.412C130.013 21.412 129.639 21.698 129.441 22.116C129.331 22.358 129.353 22.842 129.353 23.128C129.353 25.746 129.375 28.408 129.375 31.048C129.375 32.786 129.353 34.546 129.331 36.284C127.351 33.292 125.393 30.212 123.501 27.154C122.951 26.252 122.423 25.372 121.895 24.448C121.631 23.986 121.389 23.458 121.037 23.04C120.773 22.71 120.465 22.49 120.047 22.49C118.771 22.49 118.639 24.008 118.639 24.998C118.639 26.362 118.683 27.726 118.705 29.068C118.727 30.278 118.727 38.858 118.859 39.188C119.013 39.584 119.321 39.804 119.739 39.804C120.311 39.804 120.839 39.298 120.839 38.704ZM137.365 39.628C139.279 39.628 142.117 39.584 143.591 38.132C144.141 37.582 144.493 36.9 144.779 36.174C145.263 34.964 145.505 33.644 145.505 32.346C145.505 29.816 144.867 26.142 143.239 24.184C142.667 23.48 141.897 22.952 141.061 22.644C139.895 22.226 137.673 22.138 136.397 22.138C135.957 22.138 135.495 22.116 135.077 22.226C134.329 22.446 133.889 23.106 133.889 23.898C133.889 24.91 133.955 25.922 133.999 26.912C134.087 28.936 134.219 30.96 134.351 32.962L134.593 36.878C134.637 37.516 134.615 38.198 134.703 38.836C134.725 38.99 134.769 39.122 134.857 39.232C135.187 39.672 135.539 39.628 136.001 39.628H137.365ZM136.683 37.626C136.419 33.138 136.111 28.65 135.935 24.14C136.023 24.14 136.133 24.14 136.221 24.14C137.167 24.14 139.521 24.228 140.313 24.558C140.731 24.756 141.105 24.998 141.435 25.328C142.909 26.802 143.481 30.454 143.481 32.522C143.481 33.468 143.327 34.37 143.019 35.272C142.865 35.756 142.579 36.46 142.227 36.812C141.391 37.648 138.641 37.626 137.519 37.626C137.233 37.626 136.969 37.626 136.683 37.626ZM159.489 22.182C158.477 22.182 157.465 22.226 156.475 22.358C155.551 22.468 153.681 22.644 153.681 23.942C153.681 24.624 153.725 25.262 153.747 25.922L153.901 29.464C153.989 31.532 154.055 33.556 154.121 35.624C154.143 36.592 154.165 37.56 154.209 38.55C154.253 39.188 154.429 39.694 155.155 39.694C155.727 39.694 156.255 39.188 156.255 38.594C156.255 37.362 156.189 36.108 156.145 34.854C156.123 34.04 156.079 33.226 156.057 32.412C156.343 32.412 156.629 32.412 156.915 32.412L160.501 32.39C161.095 32.39 161.711 32.39 162.305 32.39C162.657 32.39 163.515 32.412 163.823 32.302C164.241 32.148 164.571 31.752 164.571 31.268C164.571 30.718 164.153 30.366 163.647 30.366C163.053 30.366 162.437 30.366 161.843 30.366L158.257 30.388C157.663 30.388 157.047 30.388 156.453 30.388C156.343 30.388 156.167 30.388 155.969 30.388C155.881 28.408 155.793 26.428 155.727 24.448C156.893 24.228 158.103 24.184 159.291 24.184C160.127 24.184 160.985 24.184 161.821 24.228C162.305 24.25 162.811 24.316 163.295 24.316C163.867 24.316 164.395 23.81 164.395 23.216C164.395 22.842 164.219 22.6 163.933 22.424C163.559 22.182 160.171 22.182 159.489 22.182ZM168.451 33.402C169.419 33.38 170.365 33.292 171.333 33.248C172.213 33.204 173.137 33.226 174.039 33.138C174.457 34.326 174.875 35.492 175.293 36.68C175.491 37.23 176.371 39.826 176.613 40.134C176.811 40.376 177.053 40.508 177.383 40.508C177.955 40.508 178.483 40.002 178.483 39.408C178.483 39.32 178.461 39.21 178.439 39.122C178.263 38.55 177.999 38 177.779 37.428C177.339 36.262 176.943 35.096 176.525 33.93C175.491 31.004 174.567 28.056 173.423 25.174C173.115 24.426 172.785 23.656 172.345 22.974C171.971 22.38 171.443 21.808 170.695 21.808C170.057 21.808 169.529 22.226 169.221 22.776C169.045 23.106 168.913 23.458 168.803 23.832C168.451 25.02 168.209 26.23 167.923 27.418C167.131 30.586 166.361 33.754 165.481 36.9C165.371 37.34 164.953 38.638 164.953 38.99C164.953 39.54 165.371 39.892 165.877 39.892C166.295 39.892 166.625 39.65 166.845 39.298C167.021 39.034 167.483 37.098 167.615 36.614C167.901 35.536 168.165 34.48 168.451 33.402ZM170.717 24.338C171.553 25.746 172.037 27.396 172.587 28.958C172.851 29.684 173.093 30.41 173.357 31.136C172.609 31.18 171.839 31.246 171.091 31.268C170.409 31.29 169.683 31.312 168.979 31.334C169.265 30.168 169.573 29.002 169.859 27.836C170.145 26.67 170.409 25.504 170.717 24.338ZM181.98 32.764V31.928C182.86 31.906 183.74 31.818 184.62 31.752C184.884 31.73 185.17 31.708 185.434 31.686C185.544 31.884 185.698 32.082 185.808 32.28C186.886 34.084 187.986 35.932 189.064 37.714C189.35 38.176 189.614 38.792 189.988 39.188C190.164 39.364 190.428 39.496 190.692 39.496C191.264 39.496 191.792 38.99 191.792 38.396C191.792 38.22 191.748 38.066 191.682 37.934C191.418 37.406 191.066 36.944 190.758 36.438C190.032 35.25 189.328 34.04 188.602 32.83L187.678 31.29C189.68 30.674 191.088 29.046 191.088 26.802C191.088 24.074 189.702 22.732 187.194 22.27C186.644 22.182 186.05 22.094 185.478 22.094C184.62 22.094 181.144 22.248 180.55 22.622C180.22 22.82 179.956 23.172 179.956 23.59V32.94C179.956 33.776 180.088 38.66 180.308 39.056C180.506 39.386 180.77 39.562 181.144 39.562C181.716 39.562 182.244 39.056 182.244 38.462C182.244 38.198 182.222 37.89 182.2 37.626L182.134 36.812C182.046 35.448 181.98 34.106 181.98 32.764ZM181.98 24.316C183.08 24.162 184.18 24.118 185.28 24.118C185.742 24.118 186.226 24.162 186.688 24.25C188.294 24.558 189.064 25.218 189.064 27C189.064 29.222 187.172 29.486 185.478 29.662C184.554 29.772 183.608 29.838 182.684 29.882C182.486 29.882 182.222 29.904 181.98 29.904V24.316ZM195.496 38.418C195.496 34.876 195.43 31.114 195.408 27.594V27.374L195.474 27.594C195.584 27.968 195.782 28.408 195.958 28.804L196.97 31.246C197.168 31.73 197.41 32.236 197.608 32.72L197.894 33.336C197.938 33.446 197.982 33.534 198.026 33.644C198.114 33.886 198.202 34.106 198.312 34.348C198.378 34.502 198.466 34.634 198.576 34.766C198.796 35.052 199.148 35.206 199.5 35.206C199.94 35.206 200.314 34.964 200.6 34.634C201.084 34.084 201.81 32.434 202.184 31.708C203.108 29.926 204.054 27.858 205 26.076C205.154 30.322 205.044 34.81 205.044 39.078C205.044 39.628 205.462 39.98 205.968 39.98C206.43 39.98 206.826 39.672 207.002 39.232C207.112 38.99 207.09 38.242 207.09 37.956C207.09 37.802 207.09 37.648 207.09 37.516L207.068 36.658C207.068 36.504 207.068 36.372 207.068 36.24C207.068 35.316 207.222 23.59 206.65 22.534C206.474 22.182 206.166 21.984 205.77 21.984C205.44 21.984 205.154 22.16 204.934 22.402C204.494 22.864 203.724 24.536 203.372 25.196C202.14 27.528 200.93 29.904 199.72 32.28C198.884 30.388 198.004 28.452 197.19 26.538C196.838 25.702 196.09 23.612 195.606 23.018C195.364 22.71 195.056 22.534 194.682 22.534C193.45 22.534 193.384 23.986 193.384 24.888L193.406 25.614C193.406 25.724 193.406 25.856 193.406 25.988C193.428 29.948 193.45 33.908 193.45 37.868C193.45 38.066 193.45 38.704 193.516 38.88C193.67 39.276 193.978 39.518 194.396 39.518C194.968 39.518 195.496 39.012 195.496 38.418Z" fill="black"/>
<path d="M123.873 59.246V55.704C123.873 54.78 123.859 53.842 123.845 52.918C124.097 52.904 124.363 52.904 124.615 52.89L125.245 52.862C125.595 52.848 125.903 52.862 126.113 52.54C126.183 52.428 126.225 52.316 126.225 52.19C126.225 51.854 125.959 51.63 125.637 51.63C125.189 51.63 124.755 51.658 124.307 51.672L123.817 51.7C123.789 50.72 123.747 49.726 123.677 48.746C123.663 48.536 123.663 48.102 123.579 47.934C123.481 47.724 123.271 47.612 123.033 47.612C122.683 47.612 122.333 47.906 122.333 48.27C122.333 48.648 122.389 49.012 122.417 49.376C122.473 50.188 122.501 51 122.529 51.812C122.613 54.192 122.571 56.586 122.585 58.966C122.585 59.134 122.557 59.302 122.585 59.456C122.641 59.736 122.893 59.904 123.173 59.904C123.523 59.904 123.873 59.61 123.873 59.246ZM120.667 48.578C120.667 48.242 120.401 48.018 120.079 48.018C119.799 48.018 119.519 48.06 119.239 48.074C119.099 48.074 118.973 48.088 118.833 48.088L118.007 48.13C117.867 48.13 117.741 48.13 117.601 48.144L115.361 48.228C115.025 48.242 114.689 48.228 114.353 48.27C114.297 48.27 114.227 48.284 114.157 48.312C113.905 48.41 113.709 48.648 113.709 48.928C113.709 49.264 113.975 49.488 114.297 49.488C114.507 49.488 114.731 49.488 114.941 49.474C114.955 50.384 114.997 51.294 115.025 52.204C115.053 52.792 115.067 54.836 115.165 55.914H114.955C114.815 55.914 114.661 55.914 114.521 55.914C114.171 55.914 113.821 56.222 113.821 56.586C113.821 57.104 114.283 57.146 114.689 57.146C115.165 57.146 115.641 57.16 116.103 57.16C116.341 57.16 116.579 57.16 116.817 57.16L118.259 57.118C118.497 57.118 118.735 57.118 118.973 57.118C119.113 57.118 119.239 57.118 119.379 57.118L120.191 57.146C120.331 57.146 120.457 57.146 120.597 57.146C120.947 57.146 121.297 56.838 121.297 56.474C121.297 55.942 120.821 55.914 120.415 55.914C120.303 55.914 120.205 55.914 120.093 55.914L119.463 55.9C119.463 55.676 119.463 55.48 119.463 55.27C119.463 54.766 119.463 54.262 119.463 53.758L119.421 50.748C119.421 50.258 119.421 49.768 119.421 49.278C119.827 49.25 120.135 49.222 120.219 49.194C120.471 49.096 120.667 48.858 120.667 48.578ZM118.161 55.914C117.601 55.928 117.041 55.928 116.495 55.928C116.439 55.55 116.397 55.158 116.397 54.78C116.369 54.248 116.299 50.818 116.243 49.404C116.635 49.39 117.391 49.376 118.119 49.348C118.119 51.35 118.175 53.38 118.175 55.382C118.175 55.466 118.175 55.564 118.175 55.648L118.161 55.914ZM132.422 47.262C130.994 47.262 129.244 47.766 128.698 49.25C128.6 49.544 128.53 49.852 128.53 50.16C128.53 50.496 128.712 50.902 128.908 51.182C129.832 52.498 131.484 52.652 132.954 52.652C134.746 52.652 136.944 52.092 136.944 49.894C136.944 49.572 136.846 49.25 136.706 48.956C136.566 48.648 136.342 48.354 136.076 48.13C135.194 47.43 133.528 47.262 132.422 47.262ZM132.296 48.494C133.08 48.494 134.578 48.606 135.194 49.11C135.334 49.222 135.446 49.39 135.53 49.558C135.586 49.712 135.642 49.866 135.642 50.034C135.642 50.314 135.572 50.622 135.362 50.846C134.928 51.294 133.682 51.42 133.066 51.42C132.058 51.42 130.686 51.378 130.028 50.468C129.958 50.37 129.818 50.132 129.818 50.02C129.818 49.754 129.944 49.39 130.112 49.194C130.21 49.068 130.336 48.998 130.476 48.914C131.078 48.578 131.61 48.494 132.296 48.494ZM132.506 56.978C132.506 57.314 132.772 57.538 133.094 57.538C133.416 57.538 133.738 57.286 133.794 56.964C133.822 56.81 133.808 56.642 133.808 56.488C133.822 55.97 133.822 55.396 133.822 54.878C133.878 54.878 133.948 54.878 134.004 54.878L136.65 54.906C137.084 54.906 137.532 54.906 137.966 54.906C138.33 54.906 138.666 54.598 138.666 54.234C138.666 53.982 138.526 53.814 138.302 53.716C138.134 53.646 135.376 53.646 135.026 53.646C134.55 53.646 134.074 53.646 133.584 53.646L130.686 53.66C130.21 53.66 129.72 53.66 129.23 53.66C128.628 53.66 128.012 53.618 127.41 53.66C127.34 53.66 127.27 53.674 127.214 53.702C126.948 53.8 126.738 54.038 126.738 54.332C126.738 54.962 127.424 54.892 127.844 54.892C128.25 54.892 128.642 54.892 129.048 54.892L131.484 54.878C131.834 54.878 132.17 54.878 132.52 54.878C132.506 55.564 132.506 56.292 132.506 56.978ZM128.824 57.944C128.824 58.238 128.824 58.532 128.894 58.826C129.118 59.722 129.916 60.016 130.812 60.016C132.646 60.016 134.494 59.946 136.328 59.946C136.496 59.946 136.664 59.946 136.818 59.89C137.07 59.792 137.266 59.554 137.266 59.274C137.266 58.938 137 58.714 136.678 58.714C134.76 58.714 132.842 58.798 130.924 58.798C130.77 58.798 130.574 58.798 130.434 58.742C130.322 58.686 130.224 58.602 130.182 58.49C130.07 58.224 130.126 57.104 130.126 56.712C130.126 56.264 130.084 55.83 129.524 55.83C129.09 55.83 128.81 56.18 128.81 56.586L128.824 57.944ZM149.304 47.99C149.052 47.99 148.786 47.99 148.534 47.99L146.994 48.018H145.118L142.934 47.99C142.57 47.99 142.192 47.99 141.828 47.99C141.268 47.99 141.1 48.48 141.1 48.956C141.1 50.258 141.128 52.764 141.52 53.926C141.618 54.22 141.772 54.5 142.01 54.682C142.402 54.99 142.92 55.018 143.396 55.018C144.642 55.018 145.874 54.976 147.12 54.948L148.394 54.934C148.59 54.92 148.8 54.934 149.01 54.906C149.066 54.906 149.136 54.892 149.206 54.864C149.458 54.766 149.654 54.528 149.654 54.248C149.654 53.912 149.388 53.688 149.066 53.688C147.218 53.688 145.384 53.786 143.536 53.786C143.396 53.786 143.018 53.8 142.906 53.716C142.472 53.394 142.416 49.922 142.402 49.222C143.27 49.236 144.124 49.236 144.992 49.236C146.322 49.236 147.652 49.222 148.996 49.222C149.416 49.222 149.892 49.054 149.892 48.55C149.892 48.214 149.626 47.99 149.304 47.99ZM150.984 59.442C151.334 59.442 151.684 59.134 151.684 58.77C151.684 58.504 151.544 58.35 151.32 58.252C151.082 58.154 145.874 58.154 145.146 58.154C143.536 58.154 141.926 58.028 140.316 58.028C139.966 58.028 139.616 58.336 139.616 58.7C139.616 59.008 139.854 59.232 140.148 59.26C140.736 59.302 141.338 59.288 141.94 59.302C143.284 59.344 144.628 59.372 145.972 59.372C147.638 59.372 149.318 59.442 150.984 59.442ZM165.594 54.528C165.944 54.528 166.294 54.22 166.294 53.856C166.294 53.59 166.266 53.324 166.252 53.058C166.238 52.82 166.224 52.204 166.196 51.462L166.672 51.448C166.784 51.448 166.896 51.448 167.008 51.448L167.68 51.462C167.792 51.462 167.904 51.462 168.016 51.462C168.366 51.462 168.716 51.154 168.716 50.79C168.716 50.51 168.52 50.286 168.24 50.244C168.114 50.216 167.974 50.23 167.848 50.23H166.952L166.28 50.216C166.238 50.216 166.196 50.216 166.154 50.216C166.098 48.998 166.042 47.85 165.972 47.71C165.86 47.486 165.664 47.374 165.426 47.374C165.076 47.374 164.726 47.682 164.726 48.046C164.726 48.284 164.754 48.522 164.768 48.76C164.796 49.18 164.824 49.614 164.838 50.034C164.866 50.594 164.936 53.968 165.034 54.178C165.146 54.402 165.342 54.528 165.594 54.528ZM156.858 49.208C156.998 49.208 157.264 49.194 157.6 49.194C157.628 49.544 157.684 49.908 157.698 50.244C157.768 51.126 157.838 52.022 157.866 52.904C157.67 52.904 157.474 52.904 157.278 52.904C156.83 52.904 156.27 53.03 156.27 53.59C156.27 53.926 156.536 54.15 156.858 54.15C157.754 54.15 162.934 54.01 163.424 53.828C163.676 53.73 163.872 53.492 163.872 53.212C163.872 52.876 163.606 52.652 163.284 52.652C163.032 52.652 162.794 52.694 162.542 52.722C162.374 52.736 162.192 52.736 162.01 52.75C161.982 51.868 161.912 50.048 161.842 49.026C162.262 48.998 162.556 48.956 162.654 48.914C162.892 48.816 163.074 48.578 163.074 48.312C163.074 47.976 162.808 47.752 162.486 47.752C162.318 47.752 162.136 47.78 161.954 47.794C161.576 47.822 161.198 47.85 160.82 47.864C159.616 47.934 158.398 47.962 157.194 47.962C156.774 47.962 156.27 48.13 156.27 48.648C156.27 48.984 156.536 49.208 156.858 49.208ZM159.168 52.876C159.14 52.092 159.042 50.202 158.93 49.166C159.462 49.152 160.022 49.138 160.54 49.11C160.554 49.362 160.568 49.614 160.582 49.866C160.638 50.846 160.708 51.84 160.736 52.82C160.218 52.848 159.686 52.862 159.168 52.876ZM166.336 56.208C166.336 55.69 166.112 55.046 165.496 55.046C165.02 55.046 164.558 55.074 164.082 55.102C162.57 55.144 161.058 55.214 159.546 55.214C159.462 55.214 159.378 55.214 159.294 55.214L158.804 55.186C158.72 55.186 158.636 55.186 158.552 55.186C158.202 55.186 157.852 55.494 157.852 55.858C157.852 56.516 157.922 57.16 157.964 57.818C157.992 58.126 157.992 58.854 158.062 59.134C158.216 59.82 159.168 60.1 159.784 60.1C161.534 60.1 163.298 60.03 165.062 59.96C165.524 59.946 166.098 59.96 166.238 59.386C166.308 59.134 166.266 58.826 166.266 58.56C166.266 57.776 166.336 56.992 166.336 56.208ZM164.964 58.742C163.886 58.798 162.794 58.812 161.702 58.84C161.1 58.854 160.498 58.868 159.896 58.868C159.686 58.868 159.504 58.84 159.336 58.7C159.28 57.944 159.224 57.202 159.182 56.446H159.42C160.064 56.446 160.694 56.418 161.324 56.39C162.556 56.362 163.802 56.32 165.034 56.278C165.034 56.306 165.034 56.32 165.034 56.348C165.034 56.642 165.02 56.95 165.006 57.244C164.978 57.748 164.978 58.252 164.964 58.742Z" fill="black"/>
<mask id="mask0_87_18" style="mask-type:alpha" maskUnits="userSpaceOnUse" x="216" y="36" width="55" height="28">
<rect width="55" height="28" transform="matrix(-1 0 0 1 271 36)" fill="#C4C4C4"/>
</mask>
<g mask="url(#mask0_87_18)">
<path d="M225.762 47.2299C225.762 47.2299 224.567 45.9398 224.013 45.5319C223.458 45.1241 222.678 44.421 222.53 44.5985C222.381 44.776 224.149 46.6326 224.357 46.9261C224.565 47.2196 224.792 47.6702 224.415 47.3988C224.038 47.1275 223.036 46.5456 222.559 46.1923C221.994 45.7845 220.907 45.2811 220.758 45.4585C220.61 45.636 222.123 46.8852 222.507 47.165L223.446 47.8476C223.634 47.9841 223.823 48.1207 223.466 48.0046C223.11 47.8886 222.359 47.5712 221.856 47.4074C221.499 47.2913 220.6 46.9261 220.451 47.1036C220.303 47.2811 221.222 47.8067 222.141 48.3306C223.059 48.8545 224.388 49.8272 224.596 50.1207" fill="white"/>
<path d="M225.762 47.2299C225.762 47.2299 224.567 45.9398 224.013 45.5319C223.458 45.1241 222.678 44.421 222.53 44.5985C222.381 44.776 224.149 46.6326 224.357 46.9261C224.565 47.2196 224.792 47.6702 224.415 47.3988C224.038 47.1275 223.036 46.5456 222.559 46.1923C221.994 45.7845 220.907 45.2811 220.758 45.4585C220.61 45.636 222.123 46.8852 222.507 47.165L223.446 47.8476C223.634 47.9841 223.823 48.1207 223.466 48.0046C223.11 47.8886 222.359 47.5712 221.856 47.4074C221.499 47.2913 220.6 46.9261 220.451 47.1036C220.303 47.2811 221.222 47.8067 222.141 48.3306C223.059 48.8545 224.388 49.8272 224.596 50.1207" stroke="black" stroke-width="0.5" stroke-linecap="round" stroke-linejoin="round"/>
<path d="M222.151 75.516C222.586 75.2668 223.624 75.2105 224.213 75.3573C224.846 75.516 225.955 75.9904 228.175 76.4665L228.81 76.3078C228.81 76.3078 227.383 75.0399 226.591 73.9307C225.8 72.8214 224.847 71.2344 224.689 69.1747C224.653 68.6796 224.771 68.1856 225.026 67.76C225.282 67.3343 225.662 66.9977 226.115 66.7959C226.909 66.4784 228.177 66.4784 228.812 66.6371L229.286 66.1627C229.785 65.2926 230.058 64.3109 230.079 63.3078C230.077 62.5128 230.024 61.7189 229.921 60.9307L229.615 60.2225C229.615 60.2225 228.25 59.3692 226.909 57.4426C226.011 56.1559 225.641 54.7481 225.482 54.1133C225.323 53.4784 225.165 51.4187 225.165 50.9426L226.911 50.5399C226.911 50.5399 227.225 50.0808 227.226 50.6252C227.228 51.1696 227.699 52.4836 228.25 53.2259C228.825 53.9955 230.238 55.3812 230.713 55.5399L231.347 55.8573C230.837 55.1718 230.411 54.4269 230.079 53.6388C229.699 52.6952 229.941 51.7532 230.238 51.1013C230.508 50.5074 231.189 50.1508 231.506 50.1508L232.201 49.8573C232.201 49.8573 232.713 49.516 232.883 49.1747C233.142 48.7457 233.424 48.3305 233.726 47.9307C233.941 47.5006 234.666 46.7054 235.11 46.2395C235.157 46.1905 235.214 46.1525 235.277 46.1281C235.341 46.1037 235.409 46.0936 235.476 46.0985C235.544 46.1034 235.61 46.1231 235.669 46.1564C235.728 46.1896 235.779 46.2355 235.818 46.2907C235.939 46.4528 236.035 46.6316 236.103 46.8214C236.284 47.3641 236.103 48.0894 236.103 48.0894C236.584 48.1682 237.061 48.2741 237.53 48.4068C237.975 48.5701 238.4 48.7825 238.798 49.0399L239.755 48.2481L240.644 47.359C240.734 47.2695 240.842 47.2015 240.962 47.1602C241.081 47.1188 241.209 47.1052 241.334 47.1203C241.46 47.1354 241.58 47.1789 241.687 47.2475C241.793 47.316 241.882 47.4078 241.948 47.516C242.187 47.8852 242.357 48.2945 242.45 48.7242C242.607 49.661 242.132 51.4187 242.132 51.4187L242.39 52.7276C242.409 52.8306 242.452 52.9277 242.516 53.0109C242.948 53.5757 243.301 53.9648 243.443 54.2498C243.613 54.5911 243.614 55.4085 243.243 56.016C242.767 56.8095 241.34 57.4426 241.34 57.4426L241.182 57.9187C241.815 58.0774 243.102 58.004 244.296 57.8334C245.456 57.6627 246.23 57.074 246.844 56.3829L246.344 55.7856C246.344 55.7856 246.173 55.4443 245.946 54.9733C245.46 53.9665 244.41 51.5996 245.252 49.1201L245.294 49.0091L245.34 48.8829C246.293 46.3453 248.987 43.8095 252.634 43.4921C256.752 43.1337 259.926 43.9682 262.62 45.3948C265.315 46.8214 267.46 49.702 267.852 52.0501C268.17 53.9511 267.535 55.6952 265.95 56.33C265.344 56.5723 263.122 56.6235 262.171 56.3061L261.938 55.9409C262.828 57.6519 263.433 59.4962 263.731 61.4016C264.047 63.6201 263.731 66.3163 261.987 69.0109C260.361 71.5211 256.748 73.4136 254.061 73.9255C252.054 74.3078 249.875 74.1713 248.46 74.0023L248.434 73.9836C248.632 76.0706 248.045 77.6832 247.206 78.5228C246.552 79.1764 245.303 79.9494 243.876 79.9494L244.511 80.2668C245.359 80.2499 246.207 80.3029 247.047 80.4255C248.315 80.5843 249.9 80.8999 250.694 81.8522C251.487 82.8044 251.327 83.4375 251.327 83.5962L250.535 84.0706C250.11 84.2122 249.741 83.9119 248.632 83.5962C247.523 83.2805 245.303 83.1201 244.195 82.9614C243.088 82.8027 241.183 82.9614 240.549 82.644C240.29 82.5216 240.083 82.3102 239.967 82.0484C239.851 81.7865 239.832 81.4916 239.916 81.2174C240.074 80.7412 240.231 79.9494 240.074 79.632C239.917 79.3146 238.172 77.888 236.428 76.9375C234.684 75.987 233.247 75.9324 232.66 76.1696C232.011 76.429 232.047 77.9307 232.352 78.6474C232.578 79.173 232.852 80.0484 232.694 80.5245C232.535 81.0006 231.975 81.2071 231.499 81.2071C231.023 81.2071 230.404 80.7412 228.977 79.7907C227.612 78.8863 225.178 78.1747 223.745 77.888C222.951 77.7293 222.16 77.4136 221.842 77.0962C221.325 76.5945 221.762 75.7412 222.151 75.516ZM244.346 64.7361C244.346 64.7361 244.979 65.6866 245.455 66.4784C246.306 67.8728 247.038 69.3371 247.641 70.8556V70.8556C248.786 70.4068 249.82 69.5501 250.564 68.7003C251.673 67.4324 252.149 66.0057 251.832 64.103C251.526 62.2737 250.479 60.8078 249.748 59.8829L249.153 59.1679C248.788 59.9374 248.297 60.6405 247.701 61.2481C246.351 62.632 244.026 63.9443 244.026 63.9443L244.346 64.7361Z" fill="white"/>
<path d="M246.409 70.9635C247.263 70.7928 248.628 70.0778 248.799 69.9396C251.046 68.1051 252.553 66.5266 251.017 61.9191C250.761 61.1495 249.684 60.1205 249.167 59.5147C248.527 58.7621 247.868 58.2212 247.263 57.4823C246.426 56.4739 245.789 55.3157 245.386 54.0693C244.874 52.7041 244.51 50.4993 244.703 49.9737C244.703 49.4618 245.237 48.1102 245.544 47.6034C246.568 45.9106 247.775 45.0249 249.652 44.3423C250.218 44.0249 251.063 43.8304 251.7 43.6597C252.932 43.3184 254.496 43.5198 255.763 43.5113C257.843 43.4677 259.904 43.9285 261.768 44.8543C262.264 45.0249 262.933 45.5556 263.386 45.7911C265.775 47.0369 267.31 49.9021 267.935 52.4191C268.36 54.1256 266.595 54.4806 265.693 53.0454C264.679 51.4328 264.409 49.1785 262.621 48.2672C261.134 47.5996 259.461 47.4698 257.889 47.9003C257.237 48.0829 256.307 48.9498 255.966 49.6324C255.283 50.9976 255.944 53.0079 256.648 54.2399C257.331 55.4345 258.053 56.356 258.664 57.6922C259.734 60.0317 260.722 62.3287 260.048 64.9413C259.592 66.7109 258.498 68.1495 257.112 69.2672C256.429 69.7799 255.703 70.2332 254.942 70.6222C252.923 71.7946 248.543 72.0215 246.239 72.158C245.769 72.1853 244.781 71.2894 246.409 70.9635Z" fill="#FBB03B"/>
<path d="M232.075 49.6319C232.928 48.9493 232.928 48.4373 233.44 47.9254C233.631 47.7343 234.235 48.1558 234.464 47.5841C234.805 46.7308 235.17 46.4373 235.317 46.2189C235.658 45.707 235.783 45.7513 236 46.3896C236.153 46.8401 236.17 47.4715 236.17 47.9254C236.17 48.0585 236.979 47.9868 237.365 48.096C237.592 48.1592 238.228 48.5534 238.594 48.7291C238.843 48.8486 239.085 48.8349 239.242 48.608C239.399 48.381 239.643 48.096 239.754 47.9254C240.206 47.2428 241.972 46.3896 241.46 47.4134C241.334 47.666 240.778 48.7786 240.607 49.2906C240.488 49.6343 240.491 50.0085 240.615 50.3503C240.74 50.6922 240.978 50.9808 241.29 51.1677C241.346 51.2018 241.437 51.2616 241.541 51.3384C241.612 51.3783 241.691 51.3993 241.773 51.3993C241.854 51.3993 241.934 51.3783 242.005 51.3384C242.032 51.3247 242.276 52.7906 242.215 52.7735C241.93 52.6269 241.674 52.4297 241.46 52.1916C241.273 51.8503 240.754 51.224 240.607 51.1677C240.288 50.8537 239.179 50.6558 238.901 50.6336C238.495 50.6062 238.089 50.6802 237.72 50.8488C237.35 51.0174 237.028 51.2754 236.783 51.5995C236.681 51.7289 236.556 51.8388 236.414 51.9237C236.257 52.0338 236.077 52.1067 235.887 52.137C235.683 52.157 235.477 52.1256 235.288 52.0458C235.099 51.9659 234.933 51.84 234.805 51.6797C234.723 51.567 234.763 51.3162 234.783 51.1677C234.851 50.6728 234.88 50.1745 234.549 49.7053C233.921 48.823 233.158 49.0517 232.416 49.794C231.904 50.3059 231.563 50.1353 231.392 49.9646C231.363 49.9442 232.066 49.6319 232.075 49.6319Z" fill="#FBB03B"/>
<path d="M225.079 67.3797C225.705 66.6237 226.09 66.3217 227.111 66.3558H227.14C227.466 66.2978 228.253 66.3558 228.758 66.3558C228.872 66.3554 228.984 66.3204 229.078 66.2556C229.173 66.1908 229.245 66.099 229.287 65.9923C229.466 65.5265 229.799 64.8097 229.857 64.6561C230.411 63.0043 229.869 60.4463 229.362 59.8951C229.351 59.884 229.337 59.8753 229.323 59.8695C228.852 59.6647 227.227 57.7347 226.809 57.2091C226.024 56.2193 225.36 53.4753 225.321 53.3097C225.166 52.6391 224.969 52.0247 225.079 51.3456C225.125 51.0589 225.575 50.8336 225.761 50.8336C226.049 50.7934 226.333 50.7364 226.614 50.663C226.956 50.663 226.956 50.151 227.126 50.4923C227.41 51.0589 227.969 52.5111 228.311 53.0367C228.317 53.0472 228.325 53.0569 228.334 53.0657C228.495 53.2227 230.077 54.7722 231.236 55.9377C231.256 55.9582 231.285 55.994 231.314 56.0265C231.365 56.084 231.41 56.1463 231.449 56.2125C231.617 56.5135 231.769 56.8234 231.904 57.1408C232.116 58.0504 232.261 58.9744 232.338 59.9053C232.416 60.8951 232.169 62.4309 232.075 63.1135C232.022 63.5043 230.998 66.9599 230.804 67.6425C230.539 68.5742 230.369 70.4514 230.539 71.134C230.939 72.7347 231.236 73.523 232.246 74.035C232.928 74.3763 234.532 74.6988 236.171 75.4002C237.365 75.9121 238.969 76.5606 239.072 76.5947C240.096 76.936 241.415 76.791 241.802 76.4241C242.886 75.4002 243.167 74.0213 243.167 72.4992C243.167 69.4275 242.401 65.6562 241.461 63.6254C241.461 63.6254 241.195 63.1135 241.191 63.1135C240.592 61.6647 239.875 60.2637 239.42 58.7602C239.3 58.4039 239.286 58.0204 239.379 57.6562C239.418 57.4898 239.504 57.3382 239.626 57.2193C239.718 57.1371 239.814 57.0601 239.915 56.9889C240.29 56.7056 241.119 56.4633 241.683 56.3387C242.082 56.2567 242.466 56.1091 242.817 55.9019C242.85 55.8863 242.887 55.8815 242.922 55.888C242.958 55.8946 242.99 55.9122 243.015 55.9383C243.04 55.9645 243.056 55.9978 243.06 56.0336C243.065 56.0694 243.058 56.1057 243.041 56.1374C242.93 56.308 242.84 56.436 242.826 56.4633C242.776 56.5674 242.082 57.1152 241.51 57.4531C241.483 57.4713 241.461 57.4971 241.448 57.5272C241.435 57.5574 241.431 57.5908 241.436 57.6232C241.442 57.6557 241.457 57.6859 241.479 57.7102C241.501 57.7345 241.53 57.7519 241.561 57.7602C242.012 57.8473 242.657 57.9992 242.826 57.9992C243.679 57.9992 245.375 57.4872 245.386 57.4872C246.41 56.9753 247.092 55.9514 247.945 54.5862C248.012 54.4787 248.865 50.8763 248.969 50.8319C249.15 50.7142 249.736 51.2722 249.993 51.3439C250.351 51.4803 250.694 51.6518 251.017 51.8558C251.374 51.7944 250.676 53.3916 250.505 53.9036C250.334 54.4155 250.375 55.8592 250.334 55.9514C250.164 56.3387 249.674 57.762 249.652 57.8285C248.915 59.9053 247.541 61.6968 245.727 62.948C245.727 62.948 244.039 63.837 244.191 64.1425C244.532 64.8251 246.032 67.3132 246.068 67.3848C246.765 68.7381 247.334 69.3336 247.775 70.7978C248.207 72.2329 248.471 74.2756 248.287 75.7466C248.133 76.9719 247.674 78.1357 246.58 78.8183C245.486 79.5009 244.558 80.1033 243.338 80.0128C243.143 79.9992 241.749 80.1101 241.631 80.0128C239.614 79.8422 238.867 78.064 237.024 77.2824C236.968 77.2585 236.389 76.9684 236.341 76.9411C236.06 76.8797 235.829 76.5998 235.442 76.5196C234.579 76.349 233.188 75.7176 232.416 76.0879C232.003 76.2859 232.495 77.5964 232.075 77.6237C231.869 77.5016 231.632 77.4423 231.393 77.4531H231.205C230.367 77.2824 230.276 76.721 228.833 76.4292C228.15 76.2585 226.005 73.6988 225.394 72.0247C225.39 72.0131 225.384 72.0022 225.377 71.9923C224.882 71.2944 224.811 70.5401 224.737 69.7739C224.648 68.8285 224.567 67.8916 225.079 67.3797ZM243.326 72.605C243.341 72.5856 243.352 72.5636 243.358 72.5401C243.377 72.4667 243.393 72.3916 243.408 72.3149C243.358 72.448 243.3 72.5777 243.237 72.7056L243.326 72.605Z" fill="#FBB03B"/>
<path d="M239.734 48.1532L240.625 47.2641C240.714 47.1744 240.823 47.1062 240.942 47.0648C241.062 47.0234 241.189 47.0098 241.315 47.0251C241.441 47.0404 241.561 47.0842 241.668 47.1531C241.774 47.222 241.863 47.3143 241.928 47.4228C242.166 47.7918 242.336 48.2004 242.43 48.6293C242.585 49.5679 242.113 51.3238 242.113 51.3238L242.369 52.6344C242.389 52.7367 242.432 52.833 242.495 52.916C242.928 53.4808 243.282 53.8699 243.423 54.1549C243.594 54.4962 243.594 55.3136 243.222 55.9211C242.746 56.7146 241.319 57.3477 241.319 57.3477" stroke="black" stroke-width="0.5" stroke-linecap="round" stroke-linejoin="round"/>
<path d="M238.783 48.9501C238.385 48.6923 237.96 48.4794 237.515 48.3153C237.046 48.1827 236.57 48.0767 236.089 47.9979C236.089 47.9979 236.27 47.2727 236.089 46.73C236.018 46.5409 235.922 46.3623 235.804 46.1993C235.764 46.144 235.713 46.0982 235.654 46.0649C235.595 46.0317 235.529 46.0119 235.462 46.0071C235.394 46.0022 235.326 46.0123 235.263 46.0367C235.2 46.061 235.142 46.0991 235.095 46.1481C234.652 46.6157 233.925 47.4092 233.71 47.8392" stroke="black" stroke-width="0.5" stroke-linecap="round" stroke-linejoin="round"/>
<path d="M237.99 48.9463L237.198 49.8968" stroke="black" stroke-width="0.5" stroke-linecap="round" stroke-linejoin="round"/>
<path d="M236.562 48.4707L236.088 49.5816" stroke="black" stroke-width="0.5" stroke-linecap="round" stroke-linejoin="round"/>
<path d="M241.479 48.7876C241.479 48.7876 241.161 49.5794 241.161 50.0555" stroke="black" stroke-width="0.5" stroke-linecap="round" stroke-linejoin="round"/>
<path d="M239.733 51.6413C239.785 51.698 239.818 51.7689 239.828 51.8448C239.839 51.9206 239.826 51.9979 239.792 52.0665C239.758 52.1351 239.704 52.1918 239.637 52.2292C239.57 52.2666 239.494 52.2829 239.418 52.2761C239.259 52.2761 238.783 51.9587 238.941 51.6413C239.1 51.3239 239.575 51.4826 239.733 51.6413Z" stroke="black" stroke-width="0.5" stroke-linecap="round" stroke-linejoin="round"/>
<path d="M233.674 50.5542C233.548 50.9842 232.978 50.933 232.966 50.578C232.958 50.5155 232.965 50.452 232.986 50.3928C233.008 50.3336 233.044 50.2805 233.09 50.238C233.137 50.1955 233.193 50.1648 233.254 50.1485C233.315 50.1323 233.379 50.1309 233.44 50.1446C233.485 50.1507 233.529 50.1672 233.566 50.1927C233.604 50.2182 233.636 50.252 233.658 50.2916C233.681 50.3313 233.694 50.3755 233.697 50.4211C233.699 50.4666 233.692 50.5121 233.674 50.5542V50.5542Z" stroke="black" stroke-width="0.5" stroke-linecap="round" stroke-linejoin="round"/>
<path d="M235.772 51.641C235.454 51.4823 234.978 51.4823 234.82 51.641C234.775 51.7027 234.745 51.7728 234.729 51.847C234.713 51.9211 234.712 51.9978 234.727 52.0721C234.742 52.1465 234.772 52.217 234.815 52.2794C234.858 52.3417 234.914 52.3945 234.978 52.4345C235.125 52.5116 235.289 52.5519 235.454 52.5519C235.62 52.5519 235.784 52.5116 235.931 52.4345C236.248 52.2758 236.089 51.7997 235.772 51.641Z" fill="black" stroke="black" stroke-width="0.5" stroke-linecap="round" stroke-linejoin="round"/>
<path d="M232.416 52.5332C233.044 53.4564 233.987 53.7636 234.912 54.0486C235.793 54.3182 237.247 54.3335 237.832 54.0486" stroke="black" stroke-width="0.5" stroke-linecap="round" stroke-linejoin="round"/>
<path d="M231.492 50.0552C231.175 50.0552 230.494 50.4118 230.223 51.0057C229.926 51.6593 229.685 52.5995 230.064 53.5432C230.396 54.3313 230.822 55.0762 231.333 55.7617" stroke="black" stroke-width="0.5" stroke-linecap="round" stroke-linejoin="round"/>
<path d="M241.161 57.8239C241.796 57.9826 243.083 57.9092 244.277 57.7385C245.67 57.5389 246.508 56.7146 247.178 55.8614C248.373 54.3256 248.885 50.9126 248.885 50.9126" stroke="black" stroke-width="0.5" stroke-linecap="round" stroke-linejoin="round"/>
<path d="M230.697 55.4467C230.221 55.288 228.808 53.9006 228.235 53.131C227.682 52.3903 227.211 51.0832 227.211 50.532C227.211 49.9808 227.211 49.3767 227.382 48.8647" stroke="black" stroke-width="0.5" stroke-linecap="round" stroke-linejoin="round"/>
<path d="M225.151 50.8491C225.151 51.3235 225.308 53.385 225.467 54.0198C225.625 54.6546 225.997 56.0676 226.893 57.3474C228.236 59.274 229.602 60.1273 229.602 60.1273" stroke="black" stroke-width="0.5" stroke-linecap="round" stroke-linejoin="round"/>
<path d="M229.905 60.8354C230.008 61.6243 230.06 62.4188 230.062 63.2143C230.042 64.2168 229.77 65.198 229.271 66.0675" stroke="black" stroke-width="0.5" stroke-linecap="round" stroke-linejoin="round"/>
<path d="M247.627 70.7588C248.772 70.31 249.806 69.4551 250.551 68.6035C251.661 67.3356 252.136 65.909 251.82 64.0063C251.515 62.1769 250.467 60.711 249.737 59.7861" stroke="black" stroke-width="0.5" stroke-linecap="round" stroke-linejoin="round"/>
<path d="M259.588 49.7383C258.906 50.4209 259.43 51.9567 260.539 53.5437C261.648 55.1308 263.238 58.013 263.709 61.3117C264.027 63.5301 263.709 66.2263 261.965 68.9209C260.341 71.4328 256.728 73.3236 254.039 73.8356C252.032 74.2178 249.853 74.0813 248.438 73.9141" stroke="black" stroke-width="0.5" stroke-linecap="round" stroke-linejoin="round"/>
<path d="M245.275 48.9161C245.289 48.874 245.304 48.8314 245.321 48.7881C246.272 46.2506 248.966 43.7148 252.613 43.3974C256.733 43.039 259.907 43.8735 262.601 45.3001C265.296 46.7267 267.441 49.6073 267.833 51.9554C268.149 53.8581 267.516 55.6021 265.931 56.2352C265.323 56.4776 263.869 56.7114 262.919 56.3939" stroke="black" stroke-width="0.5" stroke-linecap="round" stroke-linejoin="round"/>
<path d="M245.23 49.0254C244.377 51.5049 245.44 53.8735 245.927 54.8786C246.154 55.3496 246.324 55.6909 246.324 55.6909" stroke="black" stroke-width="0.5" stroke-linecap="round" stroke-linejoin="round"/>
<path d="M252.639 49.7178C252.297 50.0591 252.258 50.0232 251.956 50.4004C251.493 51.015 251.146 51.709 250.932 52.4482C250.762 53.3014 250.591 54.013 250.42 54.8372C250.275 55.5659 250.019 56.8236 249.738 57.5676C249.417 58.4208 249.041 59.7673 247.69 61.1512C246.338 62.5352 244.021 63.8475 244.021 63.8475" stroke="black" stroke-width="0.5" stroke-linecap="round" stroke-linejoin="round"/>
<path d="M251.925 57.685C251.925 57.6969 251.253 57.2754 251.243 57.2874C251.193 57.371 253.359 60.4409 253.309 60.5297C253.299 60.5467 252.417 59.9853 252.407 60.0024C252.369 60.0689 253.862 62.6679 253.823 62.7328C253.815 62.7464 253.069 62.2737 253.06 62.2874C253.028 62.342 253.881 64.6082 253.849 64.6611C253.849 64.673 253.166 64.2447 253.156 64.2566C253.129 64.3044 253.606 66.4051 253.577 66.4546C253.577 66.4648 252.927 66.0587 252.92 66.0706C252.896 66.1133 253.021 67.9973 252.997 68.0399C252.997 68.0502 252.364 67.656 252.357 67.6662C252.335 67.7037 252.084 69.3454 252.064 69.3829C252.064 69.3932 251.415 68.9887 251.408 69.0007C251.402 69.0126 250.803 70.4597 250.782 70.4939C250.762 70.528 250.204 70.144 250.199 70.1526" stroke="black" stroke-width="0.5" stroke-linecap="round" stroke-linejoin="round"/>
<path d="M252.998 54.941C252.998 54.9512 252.496 54.4888 252.486 54.5007C252.428 54.5895 254.459 58.0997 254.403 58.1901C254.389 58.2106 253.59 57.4529 253.577 57.4734C253.525 57.5536 255.304 60.7311 255.252 60.813C255.242 60.8284 254.558 60.185 254.548 60.2021C254.505 60.2686 255.67 63.1253 255.628 63.1918C255.628 63.2055 255.07 62.6901 255.063 62.7038C255.03 62.7533 255.6 65.0093 255.575 65.0587C255.575 65.069 255.063 64.6048 255.063 64.615C255.036 64.6594 255.246 66.7191 255.216 66.7635C255.216 66.772 254.751 66.3437 254.746 66.354C254.722 66.3915 254.575 68.1355 254.554 68.1731C254.554 68.1833 254.097 67.7618 254.092 67.772C254.087 67.7823 253.667 69.2891 253.647 69.3215C253.626 69.354 253.186 68.9086 253.179 68.9188" stroke="black" stroke-width="0.5" stroke-linecap="round" stroke-linejoin="round"/>
<path d="M243.826 53.8147C243.68 53.3864 243.302 53.3386 242.826 52.7038L242.514 51.3386C242.497 51.3138 242.486 51.2858 242.481 51.2564C242.476 51.227 242.478 51.1969 242.485 51.168C242.582 50.7926 242.939 49.3386 242.802 48.5264C242.702 47.9171 242.222 47.2857 241.802 46.7328C241.591 46.453 240.857 46.4837 240.608 46.7328L239.569 47.6646L239.553 47.6833L238.985 48.3932C238.955 48.4304 238.913 48.4564 238.866 48.4669C238.819 48.4775 238.771 48.4719 238.727 48.4513C238.389 48.2831 238.04 48.1372 237.683 48.0144C237.342 47.9018 236.879 47.7755 236.642 47.7124C236.598 47.7018 236.56 47.6772 236.532 47.6423C236.503 47.6075 236.488 47.5643 236.487 47.5195C236.477 47.1665 236.419 46.8163 236.316 46.4786C236.22 46.1851 236.053 45.9201 235.83 45.7072C235.659 45.5366 234.903 45.7499 234.806 45.8779C234.42 46.3898 233.833 46.8403 233.587 47.3301L233.246 47.999C233.241 48.008 233.235 48.0165 233.229 48.0246C233.075 48.2582 232.907 48.4821 232.726 48.6953C232.571 48.873 232.405 49.0406 232.229 49.197L232.197 49.2175L231.872 49.3779C231.551 49.5434 231.205 49.6585 230.848 49.7192L230.275 49.7414C230.242 49.7414 230.21 49.7339 230.18 49.7194C230.15 49.7049 230.125 49.6838 230.104 49.6578C228.601 47.6851 228.739 45.5502 230 44.4547C230.562 43.9632 231.517 43.2106 232.917 42.9837H232.942L233.913 42.9222H233.937C234.833 42.953 235.934 43.3147 237.253 43.8011C237.302 43.8198 237.357 43.8192 237.406 43.7992C237.455 43.7793 237.495 43.7416 237.517 43.6936L237.662 43.3847C237.674 43.3603 237.689 43.3378 237.707 43.3182C238.114 42.9633 238.591 42.6986 239.108 42.5412C239.624 42.3839 240.168 42.3375 240.703 42.4052C241.401 42.5195 242.111 43.0366 242.615 43.3455C243.456 43.8574 244.04 43.912 244.367 44.4427C244.75 45.0622 244.804 45.9598 244.734 46.4905C244.73 46.5198 244.72 46.5479 244.705 46.5729C244.689 46.598 244.668 46.6193 244.644 46.6356V46.6356C244.617 46.655 244.594 46.6806 244.579 46.7103C244.564 46.74 244.556 46.7728 244.556 46.8062C244.556 46.8396 244.564 46.8725 244.579 46.9021C244.594 46.9318 244.617 46.9574 244.644 46.9769C245.895 47.8915 246.862 49.0246 247.41 50.4171C248.97 54.3147 246.215 55.1953 244.68 55.1953L244.207 55.1782C244.154 55.1757 244.103 55.1533 244.065 55.1154C244.028 55.0774 244.006 55.0268 244.004 54.9734C243.988 54.5818 243.929 54.1931 243.826 53.8147V53.8147Z" fill="white"/>
<path d="M232.846 43.0415C231.441 43.2651 230.481 44.0227 229.917 44.5142C228.646 45.6268 228.515 47.8077 230.088 49.8043" stroke="black" stroke-width="0.5" stroke-linecap="round" stroke-linejoin="round"/>
<path d="M244.594 55.2637C246.129 55.2637 248.884 54.3832 247.324 50.4856C246.3 47.9259 243.911 46.2194 240.839 45.1955C237.768 44.1716 235.471 43.0265 233.843 42.9771" stroke="black" stroke-width="0.5" stroke-linecap="round" stroke-linejoin="round"/>
<path d="M244.64 46.6471C244.729 46.1351 244.691 45.1556 244.287 44.5003C243.959 43.9696 243.376 43.9201 242.534 43.403C242.031 43.0942 241.321 42.5771 240.623 42.4628C239.557 42.2921 238.272 42.7392 237.597 43.403" stroke="black" stroke-width="0.5" stroke-linecap="round" stroke-linejoin="round"/>
<path d="M240.84 43.3181C240.683 43.2258 240.509 43.1677 240.328 43.1475" stroke="black" stroke-width="0.5" stroke-linecap="round" stroke-linejoin="round"/>
<path d="M239.645 43.4891C239.529 43.4116 239.396 43.3646 239.257 43.3525" stroke="black" stroke-width="0.5" stroke-linecap="round" stroke-linejoin="round"/>
<path d="M233.227 43.8833C232.936 43.9334 232.654 44.0236 232.389 44.1512" stroke="black" stroke-width="0.5" stroke-linecap="round" stroke-linejoin="round"/>
<path d="M234.185 44.5127C234.232 44.5127 233.673 44.5127 233.502 44.6833" stroke="black" stroke-width="0.5" stroke-linecap="round" stroke-linejoin="round"/>
<path d="M238.109 45.1959C237.864 45.1054 237.695 44.9194 237.48 44.9672" stroke="black" stroke-width="0.5" stroke-linecap="round" stroke-linejoin="round"/>
<path d="M238.621 46.2193C238.398 46.1511 238.182 46.0632 237.974 45.9565" stroke="black" stroke-width="0.5" stroke-linecap="round" stroke-linejoin="round"/>
<path d="M233.939 45.387C233.833 45.3705 233.725 45.3754 233.62 45.4015C233.516 45.4276 233.418 45.4743 233.332 45.5389" stroke="black" stroke-width="0.5" stroke-linecap="round" stroke-linejoin="round"/>
<path d="M230.643 45.0986C230.429 45.1976 230.143 45.4621 230.112 45.6259" stroke="black" stroke-width="0.5" stroke-linecap="round" stroke-linejoin="round"/>
<path d="M231.795 45.3657C231.624 45.3657 231.283 45.707 231.283 45.707" stroke="black" stroke-width="0.5" stroke-linecap="round" stroke-linejoin="round"/>
<path d="M231.967 46.3896C231.832 46.5603 231.625 46.5603 231.455 46.7309" stroke="black" stroke-width="0.5" stroke-linecap="round" stroke-linejoin="round"/>
<path d="M246.706 52.8957C246.854 52.6858 246.69 52.1772 246.602 52.0015" stroke="black" stroke-width="0.5" stroke-linecap="round" stroke-linejoin="round"/>
<path d="M245.641 51.7495C245.581 51.4935 245.543 51.0669 245.385 50.9082" stroke="black" stroke-width="0.5" stroke-linecap="round" stroke-linejoin="round"/>
<path d="M244.695 52.7199C244.695 52.5356 244.746 52.3172 244.664 52.1807" stroke="black" stroke-width="0.5" stroke-linecap="round" stroke-linejoin="round"/>
<path d="M249.993 45.4997C249.993 45.4997 249.712 45.9451 249.838 46.1038C249.964 46.2625 252.171 49.1652 252.71 49.8751C252.75 49.9285 252.804 49.9705 252.865 49.9969C252.926 50.0232 252.994 50.033 253.06 50.0253C253.256 49.9969 253.443 49.9195 253.601 49.8C253.744 49.6663 253.843 49.4918 253.884 49.3C253.911 49.2139 253.917 49.1226 253.902 49.0337C253.887 48.9447 253.851 48.8606 253.797 48.7881C253.232 48.0134 251.289 45.3444 251.181 45.184C251.125 45.1149 251.054 45.0592 250.973 45.0211C250.893 44.983 250.804 44.9635 250.715 44.9639" fill="white"/>
<path d="M249.993 45.4997C249.993 45.4997 249.712 45.9451 249.838 46.1038C249.964 46.2625 252.171 49.1652 252.71 49.8751C252.75 49.9285 252.804 49.9705 252.865 49.9969C252.926 50.0232 252.994 50.033 253.06 50.0253C253.256 49.9969 253.443 49.9195 253.601 49.8C253.744 49.6663 253.843 49.4918 253.884 49.3C253.911 49.2139 253.917 49.1226 253.902 49.0337C253.887 48.9447 253.851 48.8606 253.797 48.7881C253.232 48.0134 251.289 45.3444 251.181 45.184C251.125 45.1149 251.054 45.0592 250.973 45.0211C250.893 44.983 250.804 44.9635 250.715 44.9639" stroke="black" stroke-width="0.5" stroke-linecap="round" stroke-linejoin="round"/>
<path d="M250.092 45.4212C249.973 45.2215 249.72 44.7591 249.507 44.2932C249.073 43.3529 248.718 41.5014 248.312 41.3119C247.906 41.1225 247.433 41.3239 246.957 41.7044C246.481 42.085 245.908 42.8512 245.45 43.7386C244.993 44.6259 244.345 45.9246 244.345 45.9246C244.345 45.9246 243.372 40.986 243.688 39.4399C244.003 37.8939 245.157 37.8717 245.633 38.1396C246.109 38.4075 247.358 40.4177 247.358 40.4177L247.884 40.4758C248.43 40.358 248.761 40.5713 248.897 40.9416C249.054 41.3666 249.409 42.37 249.734 43.4143C249.955 44.0855 250.265 44.7237 250.657 45.3119C250.673 45.336 250.679 45.3653 250.674 45.3938C250.669 45.4223 250.654 45.4479 250.631 45.4655L250.52 45.556C250.52 45.556 250.478 45.6311 250.302 45.6413C250.126 45.6515 250.092 45.4212 250.092 45.4212Z" fill="#B3B3B3"/>
<path d="M250.52 45.5575L250.631 45.4671C250.654 45.4494 250.669 45.4238 250.674 45.3953C250.679 45.3668 250.673 45.3376 250.657 45.3135C250.265 44.7252 249.955 44.087 249.734 43.4159C249.415 42.3715 249.051 41.3681 248.897 40.9432C248.761 40.5729 248.43 40.3595 247.884 40.4773" stroke="black" stroke-width="0.5" stroke-linecap="round" stroke-linejoin="round"/>
<path d="M247.359 40.4174C247.359 40.4174 246.101 38.3986 245.627 38.1307C245.152 37.8628 243.995 37.8799 243.682 39.4311C243.368 40.9823 244.338 45.9157 244.338 45.9157C244.338 45.9157 244.985 44.6171 245.444 43.7297C245.903 42.8423 246.468 42.0761 246.951 41.6956C247.434 41.315 247.895 41.1137 248.306 41.3031C248.717 41.4925 249.074 43.3509 249.501 44.2843C249.714 44.7502 249.966 45.2126 250.086 45.4123" stroke="black" stroke-width="0.5" stroke-linecap="round" stroke-linejoin="round"/>
<path d="M248.934 50.3815C249.033 50.0044 249.403 49.2108 249.325 47.9754C249.284 47.3576 249.337 46.7399 249.779 46.2808C250.105 45.9395 251.192 45.7962 250.789 46.6102C250.665 46.861 251.578 46.1665 251.607 46.0675C251.735 45.6306 252.306 45.3388 252.598 45.6818C253.368 46.5846 254.233 47.3644 253.173 48.4225C253.002 48.5931 252.11 48.7638 251.869 49.1204C251.767 49.274 252.304 49.7177 252.211 49.803C252.177 49.8337 251.724 50.2757 251.699 50.3149C251.445 50.6978 251.217 51.0969 251.016 51.5095C250.965 51.6375 250.798 51.8371 250.675 51.762C250.514 51.6597 250.356 51.6921 250.107 51.745C249.99 51.745 249.793 51.4992 249.485 51.3815C249.407 51.3303 249.339 51.2634 249.288 51.185C249.236 51.1066 249.201 51.0184 249.185 50.9259C249.149 50.5829 248.83 50.7808 248.934 50.3815Z" fill="white"/>
<path d="M252.137 48.2447C251.728 48.5553 251.606 48.7942 251.74 48.9273C251.873 49.0604 252.448 48.9529 252.67 48.8266C252.981 48.6502 253.257 48.4189 253.485 48.144C253.605 47.9661 253.71 47.7782 253.798 47.5826C253.874 47.4409 253.714 47.1662 253.356 47.2413C253.229 47.2687 253.114 47.3349 253.026 47.4307C252.752 47.7249 252.454 47.997 252.137 48.2447Z" stroke="black" stroke-width="0.5" stroke-linecap="round" stroke-linejoin="round"/>
<path d="M252.572 46.6137C252.383 46.7177 252.001 47.1631 251.678 47.4379C251.356 47.7126 250.707 48.2297 250.869 48.3918C251.031 48.5539 251.552 48.4413 252.219 48.0386C252.694 47.7502 253.262 47.2348 253.373 46.844C253.389 46.8007 253.395 46.7544 253.391 46.7083C253.388 46.6622 253.373 46.6176 253.35 46.5777C253.327 46.5378 253.295 46.5036 253.256 46.4776C253.218 46.4517 253.174 46.4346 253.129 46.4276C252.876 46.4089 252.876 46.4481 252.572 46.6137Z" stroke="black" stroke-width="0.5" stroke-linecap="round" stroke-linejoin="round"/>
<path d="M252.777 45.9024C252.784 45.9691 252.776 46.0366 252.754 46.0998C252.731 46.163 252.695 46.2203 252.647 46.2676C252.429 46.5014 252.065 47.0304 251.599 47.2676C250.963 47.5935 250.702 47.7505 250.529 47.5918C250.357 47.4331 250.432 47.1362 251.19 46.5816C251.42 46.4109 252.043 45.7096 252.214 45.6686C252.471 45.6072 252.756 45.7471 252.777 45.9024Z" stroke="black" stroke-width="0.5" stroke-linecap="round" stroke-linejoin="round"/>
<path d="M249.31 47.7549C249.209 48.2377 249.209 48.7363 249.31 49.2191C249.397 49.4431 249.397 49.6912 249.31 49.9153L249.165 50.2941" stroke="black" stroke-width="0.5" stroke-linecap="round" stroke-linejoin="round"/>
<path d="M250.746 48.5289C250.561 48.2864 250.438 48.0022 250.389 47.7012C250.316 47.0442 250.56 46.9862 250.911 46.319C251.131 45.906 250.288 45.9111 249.869 46.4231C249.606 46.7431 249.427 47.1229 249.346 47.5288C249.331 47.6039 249.317 47.679 249.304 47.7524" stroke="black" stroke-width="0.5" stroke-linecap="round" stroke-linejoin="round"/>
<path d="M251.211 50.1682C251.211 50.1273 251.224 50.0846 251.229 50.042C251.255 49.819 251.242 49.5934 251.192 49.3747C251.163 49.2485 251.118 49.1264 251.059 49.0112" stroke="black" stroke-width="0.5" stroke-linecap="round" stroke-linejoin="round"/>
<path d="M218.026 49.8324C218.507 49.032 219.22 47.3273 220.149 46.2249C221.077 45.1225 221.553 44.3204 222.162 44.032C222.772 43.7436 223.918 42.9945 225.111 42.7522C226.304 42.5098 226.9 42.387 227.483 42.4313C228.067 42.4757 228.751 42.2778 229.092 42.2197C229.434 42.1617 230.021 42.1242 229.925 42.2846C229.83 42.445 229.002 43.387 228.731 43.701C228.459 44.015 228.103 45.329 227.826 45.6429C227.55 45.9569 226.461 47.0457 225.826 47.6685C225.191 48.2914 224.07 48.7061 223.377 48.9877C222.685 49.2692 221.075 49.4808 220.818 49.4621C220.56 49.4433 219.778 49.8836 219.432 50.0252C219.021 50.1487 218.592 50.2007 218.164 50.1788C217.912 50.16 218.026 49.8324 218.026 49.8324Z" fill="#A20A67"/>
<path d="M218.11 49.8387C218.591 49.0367 219.304 47.3319 220.233 46.2295C221.161 45.1271 221.637 44.3268 222.246 44.0384C222.856 43.75 224.002 43.0008 225.195 42.7568C226.388 42.5128 226.984 42.3933 227.567 42.4377C228.151 42.4821 228.835 42.2841 229.175 42.2261C229.514 42.1681 230.105 42.1305 230.009 42.2909C229.914 42.4513 229.086 43.3933 228.815 43.7073C228.543 44.0213 228.187 45.3353 227.91 45.6493C227.634 45.9633 226.545 47.052 225.91 47.6732C225.275 48.2944 224.153 48.7124 223.461 48.994C222.77 49.2756 221.159 49.4872 220.902 49.4667C220.644 49.4462 219.862 49.8899 219.516 50.0316C219.105 50.1552 218.675 50.2072 218.246 50.1851C218.001 50.1647 218.11 49.8387 218.11 49.8387Z" stroke="black" stroke-width="0.5" stroke-linecap="round" stroke-linejoin="round"/>
<path d="M225.142 43.8594C225.391 44.0575 225.6 44.3014 225.758 44.5778" stroke="black" stroke-width="0.5" stroke-linecap="round" stroke-linejoin="round"/>
<path d="M224.699 45.2495C224.943 45.3519 225.16 45.787 225.16 45.787" stroke="black" stroke-width="0.5" stroke-linecap="round" stroke-linejoin="round"/>
<path d="M219.52 47.8525C219.691 47.9302 219.852 48.027 220 48.1409" stroke="black" stroke-width="0.5" stroke-linecap="round" stroke-linejoin="round"/>
<path d="M218.503 49.6582C218.586 49.6582 218.747 49.7606 218.74 49.8442" stroke="black" stroke-width="0.5" stroke-linecap="round" stroke-linejoin="round"/>
<path d="M225.798 49.2192C225.784 48.7148 225.968 48.225 226.31 47.854C226.651 47.5127 226.883 47.3233 226.992 47.0008C227.163 46.4888 226.992 46.1475 226.992 45.4649C226.992 44.7823 227.504 45.4649 227.675 45.9769C227.786 46.2477 227.844 46.5374 227.846 46.8301C227.846 47.3694 227.846 47.854 227.675 48.1953L227.334 47.9718C227.334 47.9718 225.798 49.7312 225.798 49.2192Z" fill="white"/>
<path d="M225.718 49.0815C225.704 48.5771 225.888 48.0873 226.23 47.7163C226.571 47.375 226.805 47.1873 226.912 46.8631C227.083 46.3511 226.912 46.0098 226.912 45.3272C226.912 44.6446 227.424 45.3272 227.595 45.8392C227.706 46.11 227.764 46.3997 227.766 46.6924C227.746 47.1514 227.689 47.608 227.595 48.0576C227.542 48.3311 227.47 48.6007 227.382 48.8648" stroke="black" stroke-width="0.5" stroke-linecap="round" stroke-linejoin="round"/>
</g>
<mask id="mask1_87_18" style="mask-type:alpha" maskUnits="userSpaceOnUse" x="6" y="23" width="67" height="41">
<rect x="6" y="23" width="67" height="40.9444" fill="#C4C4C4"/>
</mask>
<g mask="url(#mask1_87_18)">
<path d="M58.1658 74.2534C57.6923 73.9834 56.5676 73.9223 55.9313 74.0814C55.2432 74.2534 54.0409 74.7695 51.6344 75.2856L50.9481 75.1136C50.9481 75.1136 52.4945 73.7392 53.3528 72.535C54.2111 71.3308 55.2432 69.6143 55.4152 67.3798C55.4544 66.8433 55.3269 66.3078 55.0501 65.8466C54.7733 65.3853 54.3607 65.0209 53.8689 64.8031C53.0106 64.4591 51.6344 64.4591 50.9481 64.6311L50.432 64.115C49.8917 63.1721 49.5966 62.1088 49.5738 61.0223C49.5762 60.1606 49.6336 59.2999 49.7458 58.4456L50.0751 57.6761C50.0751 57.6761 51.5548 56.7512 53.0106 54.6647C53.9817 53.2682 54.3849 51.7421 54.557 51.0559C54.729 50.3696 54.901 48.1351 54.901 47.6191L53.0069 47.1825C53.0069 47.1825 52.6684 46.6849 52.6665 47.275C52.6647 47.8651 52.1542 49.2894 51.5567 50.0922C50.9352 50.9264 49.4036 52.4302 48.8875 52.6023L48.1994 52.9463C48.753 52.2029 49.2151 51.3955 49.5756 50.5416C49.9863 49.5206 49.7254 48.5069 49.4036 47.7929C49.1095 47.1474 48.3714 46.7608 48.0292 46.7608L47.2746 46.4445C47.2746 46.4445 46.7196 46.0745 46.5347 45.7046C46.2541 45.2397 45.9497 44.7896 45.6227 44.3561C45.3897 43.89 44.6035 43.028 44.1207 42.5212C44.0699 42.4681 44.008 42.4268 43.9394 42.4004C43.8708 42.374 43.7972 42.363 43.7239 42.3683C43.6505 42.3736 43.5793 42.395 43.5152 42.4311C43.4511 42.4671 43.3958 42.5168 43.3531 42.5767C43.2243 42.7534 43.1204 42.947 43.0442 43.1519C42.8481 43.7402 43.0442 44.5281 43.0442 44.5281C42.5228 44.6136 42.0066 44.7278 41.4978 44.8704C41.016 45.049 40.5552 45.2797 40.1235 45.5585L39.0987 44.6983L38.1332 43.7328C38.0361 43.6358 37.9183 43.5623 37.7886 43.5176C37.659 43.4729 37.5208 43.4583 37.3847 43.4749C37.2486 43.4915 37.118 43.5388 37.0028 43.6133C36.8876 43.6877 36.7909 43.7874 36.72 43.9048C36.4621 44.3048 36.2779 44.7477 36.1761 45.2126C36.0078 46.2299 36.5202 48.1351 36.5202 48.1351L36.2427 49.5539C36.2208 49.6652 36.174 49.7702 36.1058 49.8609C35.636 50.4732 35.2531 50.8949 35.0996 51.202C34.9146 51.5719 34.9146 52.458 35.3179 53.1183C35.8339 53.9766 37.3803 54.6647 37.3803 54.6647L37.5523 55.1789C36.8642 55.351 35.4695 55.2714 34.1747 55.0864C32.9187 54.9015 32.0808 54.2652 31.4149 53.516L31.955 52.8668C31.955 52.8668 32.14 52.4968 32.386 51.9881C32.9132 50.8968 34.0508 48.3294 33.1407 45.6435L33.0926 45.5233C33.0778 45.4777 33.0612 45.4314 33.0427 45.3846C32.0124 42.6359 29.0916 39.8853 25.1388 39.5431C20.6735 39.1547 17.2348 40.0573 14.3122 41.6037C11.3897 43.1501 9.06639 46.2743 8.6428 48.8177C8.29875 50.8801 8.985 52.7706 10.7034 53.4568C11.3619 53.7213 13.7684 53.7768 14.8006 53.4328L15.054 53.0369C14.0883 54.8911 13.4317 56.8904 13.1099 58.9561C12.7659 61.3608 13.1099 64.2833 15.0003 67.2041C16.7613 69.9269 20.6772 71.9764 23.5924 72.5313C25.7677 72.9457 28.1298 72.7995 29.6632 72.6164L29.6891 72.5961C29.4764 74.8564 30.1108 76.6044 31.0209 77.5145C31.7294 78.2248 33.0834 79.0627 34.6297 79.0627L33.9435 79.4049C33.0235 79.3865 32.1035 79.4441 31.1929 79.577C29.8186 79.749 28.1002 80.093 27.2419 81.1233C26.3836 82.1536 26.5538 82.8417 26.5538 83.0138L27.4139 83.5299C27.8745 83.6834 28.2722 83.3578 29.4745 83.0138C30.6769 82.6697 33.0834 82.4996 34.2838 82.3275C35.4843 82.1555 37.5486 82.3275 38.2349 81.9835C38.516 81.8512 38.7403 81.6222 38.8666 81.3383C38.9929 81.0544 39.0129 80.7345 38.923 80.4371C38.751 79.921 38.5789 79.0627 38.751 78.7187C38.923 78.3746 40.8134 76.8282 42.7038 75.7961C44.5943 74.7639 46.1499 74.7084 46.7881 74.9637C47.4891 75.2449 47.4503 76.8726 47.1192 77.6495C46.8769 78.2193 46.5772 79.17 46.7492 79.6842C46.9212 80.1985 47.528 80.4241 48.044 80.4241C48.5601 80.4241 49.2334 79.921 50.7798 78.8907C52.2596 77.9085 54.8973 77.139 56.4511 76.8283C57.3094 76.6562 58.1695 76.3122 58.5117 75.9681C59.0518 75.4354 58.5875 74.4957 58.1658 74.2534ZM34.1044 62.5686C34.1044 62.5686 33.4163 63.6008 32.9002 64.4591C31.9764 65.97 31.1837 67.5574 30.5307 69.2037V69.2037C29.2896 68.7172 28.1686 67.7886 27.3621 66.8674C26.158 65.4912 25.6437 63.9448 25.9859 61.8842C26.317 59.8995 27.4528 58.3105 28.2445 57.308L28.89 56.5329C29.2861 57.3675 29.8195 58.1297 30.4678 58.7878C31.9328 60.2879 34.4503 61.7122 34.4503 61.7122L34.1044 62.5686Z" fill="white"/>
<path d="M31.8854 69.3309C30.9606 69.1459 29.4808 68.3709 29.2958 68.221C26.8597 66.2326 25.2264 64.5216 26.8911 59.5273C27.1686 58.693 28.3358 57.5776 28.8962 56.921C29.5899 56.1053 30.3039 55.5189 30.9606 54.718C31.8672 53.6249 32.5577 52.3695 32.9953 51.0185C33.5502 49.5387 33.9442 47.1488 33.7352 46.5791C33.7352 46.0242 33.1562 44.5592 32.8232 44.0098C31.7134 42.1749 30.4056 41.2149 28.3709 40.475C27.7568 40.1309 26.8412 39.9201 26.1512 39.7351C24.8157 39.3651 23.1195 39.5834 21.747 39.5742C19.4916 39.5269 17.2582 40.0264 15.2378 41.0299C14.6995 41.2149 13.9744 41.7901 13.4842 42.0454C10.8946 43.3957 9.22985 46.5014 8.55284 49.2298C8.09226 51.0795 10.0049 51.4643 10.9834 49.9086C12.0821 48.1606 12.3744 45.7171 14.3129 44.7294C15.9248 44.0057 17.7381 43.8651 19.4422 44.3317C20.1488 44.5296 21.1569 45.4693 21.5269 46.2092C22.2668 47.689 21.5509 49.8679 20.787 51.2035C20.0471 52.4983 19.2647 53.4971 18.6025 54.9455C17.4427 57.4815 16.3717 59.9712 17.1023 62.8032C17.5962 64.7213 18.7819 66.2807 20.2839 67.4923C21.0249 68.0479 21.8121 68.5393 22.6367 68.9609C24.825 70.2317 29.5733 70.4777 32.0704 70.6257C32.5791 70.6553 33.6501 69.6842 31.8854 69.3309Z" fill="#FBB03B"/>
<path d="M47.4237 46.2095C46.4989 45.4696 46.4989 44.9146 45.9439 44.3597C45.7368 44.1525 45.082 44.6094 44.8341 43.9898C44.4641 43.0649 44.0683 42.7467 43.9092 42.51C43.5393 41.9551 43.4042 42.0032 43.1693 42.695C43.0029 43.1833 42.9844 43.8677 42.9844 44.3597C42.9844 44.504 42.1076 44.4263 41.6895 44.5447C41.4435 44.6131 40.7536 45.0404 40.3577 45.2309C40.0877 45.3604 39.825 45.3456 39.6548 45.0996C39.4847 44.8536 39.2201 44.5447 39.0999 44.3597C38.6097 43.6198 36.6953 42.695 37.2502 43.8048C37.3871 44.0786 37.9901 45.2846 38.175 45.8395C38.3041 46.2121 38.3011 46.6177 38.1663 46.9882C38.0316 47.3588 37.7734 47.6716 37.4351 47.8742C37.3741 47.9112 37.2761 47.976 37.1632 48.0592C37.0865 48.1025 36.9998 48.1252 36.9117 48.1252C36.8235 48.1252 36.7369 48.1025 36.6601 48.0592C36.6305 48.0444 36.366 49.6333 36.4326 49.6148C36.7411 49.4559 37.0182 49.2422 37.2502 48.9841C37.4536 48.6141 38.016 47.9353 38.175 47.8742C38.5209 47.5339 39.7233 47.3193 40.0248 47.2953C40.4642 47.2656 40.9041 47.3458 41.3049 47.5286C41.7056 47.7113 42.0546 47.9909 42.3203 48.3422C42.4312 48.4825 42.5665 48.6016 42.7198 48.6937C42.8904 48.813 43.0859 48.892 43.2914 48.9249C43.5127 48.9466 43.7359 48.9126 43.9408 48.826C44.1456 48.7394 44.3255 48.603 44.4641 48.4291C44.5529 48.3071 44.5104 48.0351 44.4882 47.8742C44.4142 47.3378 44.3828 46.7977 44.7416 46.289C45.4223 45.3327 46.2491 45.5805 47.0538 46.3852C47.6087 46.9401 47.9786 46.7551 48.1636 46.5702C48.1951 46.548 47.433 46.2095 47.4237 46.2095Z" fill="#FBB03B"/>
<path d="M55.0077 65.4458C54.3289 64.6264 53.9108 64.299 52.8047 64.336H52.7732C52.4199 64.2731 51.5672 64.336 51.0197 64.336C50.8956 64.3355 50.7745 64.2977 50.6722 64.2274C50.57 64.1571 50.4912 64.0577 50.4463 63.942C50.2613 63.437 49.8913 62.6601 49.8284 62.4937C49.2273 60.7031 49.8155 57.9304 50.3649 57.3329C50.3771 57.3209 50.3915 57.3115 50.4074 57.3051C50.9179 57.0832 52.6789 54.9911 53.1321 54.4214C53.9829 53.3486 54.7025 50.3742 54.745 50.1948C54.9134 49.4678 55.1261 48.8019 55.0077 48.0657C54.9578 47.755 54.4694 47.5108 54.2678 47.5108C53.9562 47.4672 53.6474 47.4054 53.3429 47.3258C52.973 47.3258 52.973 46.7709 52.788 47.1408C52.481 47.755 51.8743 49.3291 51.5043 49.8988C51.4969 49.9102 51.4882 49.9208 51.4784 49.9302C51.3045 50.1004 49.5898 51.78 48.3339 53.0434C48.3117 53.0656 48.2802 53.1044 48.2488 53.1395C48.1937 53.2019 48.1448 53.2694 48.1026 53.3412C47.92 53.6674 47.7551 54.0034 47.6088 54.3474C47.379 55.3334 47.222 56.335 47.1389 57.344C47.0538 58.4168 47.322 60.0816 47.4238 60.8215C47.4811 61.2451 48.591 64.9908 48.8018 65.7307C49.0885 66.7407 49.2735 68.7754 49.0885 69.5153C48.6557 71.2503 48.3339 72.1049 47.2388 72.6598C46.4989 73.0298 44.7602 73.3794 42.9844 74.1396C41.6896 74.6945 39.9508 75.3974 39.8399 75.4344C38.73 75.8044 37.3002 75.6471 36.8803 75.2494C35.7057 74.1396 35.4005 72.645 35.4005 70.9951C35.4005 67.6655 36.231 63.5776 37.2502 61.3764C37.2502 61.3764 37.5388 60.8215 37.5425 60.8215C38.1917 59.2511 38.9686 57.7324 39.4625 56.1028C39.5925 55.7165 39.6079 55.3009 39.5069 54.906C39.4648 54.7257 39.3717 54.5614 39.2387 54.4325C39.1394 54.3434 39.035 54.26 38.9261 54.1828C38.5192 53.8757 37.6202 53.6131 37.0098 53.478C36.5764 53.3892 36.1608 53.2291 35.7797 53.0045C35.7444 52.9876 35.7047 52.9824 35.6663 52.9895C35.6278 52.9966 35.5926 53.0157 35.5657 53.044C35.5388 53.0724 35.5215 53.1085 35.5165 53.1473C35.5114 53.1861 35.5187 53.2254 35.5374 53.2598C35.6576 53.4447 35.7556 53.5835 35.7704 53.6131C35.8241 53.7259 36.5769 54.3197 37.1966 54.6859C37.2263 54.7057 37.2497 54.7336 37.2639 54.7663C37.2781 54.799 37.2825 54.8352 37.2766 54.8704C37.2708 54.9055 37.2548 54.9383 37.2308 54.9646C37.2068 54.991 37.1756 55.0098 37.1411 55.0189C36.6528 55.1132 35.9536 55.2778 35.7704 55.2778C34.8456 55.2778 33.0069 54.7229 32.9958 54.7229C31.886 54.168 31.1461 53.0582 30.2212 51.5784C30.1491 51.4618 29.2242 47.557 29.1114 47.5089C28.9153 47.3813 28.2809 47.9862 28.0015 48.0639C27.6142 48.2117 27.2424 48.3976 26.8917 48.6188C26.5051 48.5522 27.2617 50.2836 27.4466 50.8385C27.6316 51.3934 27.5872 52.9583 27.6316 53.0582C27.8166 53.478 28.3474 55.0207 28.3715 55.0929C29.1706 57.3441 30.6594 59.2859 32.6259 60.6421C32.6259 60.6421 34.4553 61.6058 34.2907 61.9369C33.9207 62.6768 32.2948 65.3737 32.2559 65.4514C31.5012 66.9182 30.8834 67.5638 30.4062 69.1509C29.9382 70.7065 29.6515 72.9206 29.8513 74.5151C30.0178 75.8432 30.5153 77.1047 31.701 77.8446C32.8867 78.5845 33.893 79.2375 35.2155 79.1394C35.4264 79.1247 36.9376 79.2449 37.0653 79.1394C39.2516 78.9545 40.0618 77.027 42.0595 76.1799C42.1206 76.154 42.7476 75.8395 42.7994 75.8099C43.1046 75.7433 43.3544 75.44 43.7743 75.353C44.7102 75.1681 46.2178 74.4837 47.0538 74.8851C47.5015 75.0996 46.9687 76.5202 47.4238 76.5498C47.6472 76.4175 47.9043 76.3532 48.1637 76.3648H48.3672C49.2754 76.1799 49.3734 75.5713 50.9383 75.255C51.6782 75.07 54.0033 72.2954 54.6655 70.4808C54.6698 70.4682 54.676 70.4564 54.684 70.4457C55.2204 69.6891 55.2981 68.8716 55.3777 68.041C55.4738 67.0163 55.5626 66.0008 55.0077 65.4458ZM35.2285 71.1097C35.2124 71.0887 35.2005 71.0649 35.1933 71.0394C35.173 70.9599 35.1563 70.8785 35.1397 70.7953C35.1933 70.9396 35.2562 71.0801 35.3247 71.2189L35.2285 71.1097Z" fill="#FBB03B"/>
<path d="M39.1223 44.6058L38.1567 43.6421C38.0598 43.5448 37.942 43.471 37.8123 43.4261C37.6826 43.3812 37.5444 43.3665 37.4081 43.3831C37.2718 43.3997 37.1412 43.4471 37.026 43.5218C36.9108 43.5965 36.8142 43.6965 36.7435 43.8141C36.4856 44.2141 36.3014 44.657 36.1997 45.1219C36.0314 46.1392 36.5437 48.0426 36.5437 48.0426L36.2663 49.4632C36.2445 49.5741 36.1977 49.6785 36.1294 49.7684C35.6596 50.3807 35.2767 50.8024 35.1231 51.1113C34.9382 51.4813 34.9382 52.3673 35.3414 53.0258C35.8575 53.8859 37.4039 54.5722 37.4039 54.5722" stroke="black" stroke-width="0.5" stroke-linecap="round" stroke-linejoin="round"/>
<path d="M40.1523 45.4688C40.5836 45.1893 41.0445 44.9585 41.5267 44.7807C42.0353 44.6369 42.5515 44.5221 43.0731 44.4366C43.0731 44.4366 42.877 43.6505 43.0731 43.0623C43.1493 42.8573 43.2532 42.6638 43.382 42.487C43.4246 42.4271 43.48 42.3774 43.5441 42.3414C43.6082 42.3054 43.6794 42.2839 43.7527 42.2786C43.8261 42.2733 43.8997 42.2843 43.9683 42.3107C44.0369 42.3372 44.0988 42.3784 44.1496 42.4315C44.6306 42.9383 45.4185 43.7985 45.6516 44.2646" stroke="black" stroke-width="0.5" stroke-linecap="round" stroke-linejoin="round"/>
<path d="M41.0117 45.4653L41.87 46.4956" stroke="black" stroke-width="0.5" stroke-linecap="round" stroke-linejoin="round"/>
<path d="M42.5586 44.9492L43.0728 46.1515" stroke="black" stroke-width="0.5" stroke-linecap="round" stroke-linejoin="round"/>
<path d="M37.2305 45.2935C37.2305 45.2935 37.5745 46.1517 37.5745 46.6678" stroke="black" stroke-width="0.5" stroke-linecap="round" stroke-linejoin="round"/>
<path d="M39.1207 48.3866C39.0649 48.4481 39.029 48.525 39.0176 48.6072C39.0062 48.6894 39.0199 48.7732 39.0568 48.8476C39.0938 48.9219 39.1523 48.9833 39.2248 49.0239C39.2973 49.0644 39.3803 49.0821 39.4629 49.0747C39.635 49.0747 40.1511 48.7307 39.979 48.3866C39.807 48.0426 39.2928 48.2146 39.1207 48.3866Z" stroke="black" stroke-width="0.5" stroke-linecap="round" stroke-linejoin="round"/>
<path d="M45.6893 47.2085C45.8262 47.6746 46.444 47.6191 46.457 47.2344C46.4657 47.1666 46.458 47.0977 46.4345 47.0336C46.411 46.9694 46.3724 46.9118 46.322 46.8658C46.2716 46.8197 46.2108 46.7864 46.1447 46.7688C46.0787 46.7512 46.0094 46.7497 45.9427 46.7645C45.8937 46.7712 45.8469 46.789 45.806 46.8166C45.765 46.8443 45.7309 46.881 45.7064 46.9239C45.6819 46.9669 45.6676 47.0148 45.6646 47.0642C45.6617 47.1135 45.6701 47.1629 45.6893 47.2085V47.2085Z" stroke="black" stroke-width="0.5" stroke-linecap="round" stroke-linejoin="round"/>
<path d="M43.4162 48.3859C43.7603 48.2138 44.2763 48.2138 44.4484 48.3859C44.4961 48.4528 44.5297 48.5287 44.547 48.6091C44.5642 48.6895 44.5648 48.7726 44.5487 48.8532C44.5325 48.9338 44.5001 49.0103 44.4532 49.0778C44.4064 49.1454 44.3462 49.2026 44.2763 49.246C44.1172 49.3296 43.9401 49.3733 43.7603 49.3733C43.5805 49.3733 43.4034 49.3296 43.2442 49.246C42.9001 49.074 43.0722 48.5579 43.4162 48.3859Z" fill="black" stroke="black" stroke-width="0.5" stroke-linecap="round" stroke-linejoin="round"/>
<path d="M47.0527 49.3535C46.372 50.3542 45.3491 50.6872 44.3465 50.9961C43.3921 51.2883 41.8161 51.305 41.1816 50.9961" stroke="black" stroke-width="0.5" stroke-linecap="round" stroke-linejoin="round"/>
<path d="M48.0566 46.6675C48.4007 46.6675 49.1387 47.0541 49.4328 47.6978C49.7547 48.4062 50.0155 49.4254 49.6049 50.4483C49.245 51.3026 48.7829 52.11 48.2287 52.853" stroke="black" stroke-width="0.5" stroke-linecap="round" stroke-linejoin="round"/>
<path d="M37.575 55.0881C36.8869 55.2601 35.4922 55.1806 34.1974 54.9956C32.688 54.7792 31.7798 53.8858 31.0529 52.9609C29.758 51.2962 29.2031 47.5967 29.2031 47.5967" stroke="black" stroke-width="0.5" stroke-linecap="round" stroke-linejoin="round"/>
<path d="M34.1386 62.4868C34.1386 62.4868 33.4505 63.5171 32.9344 64.3772C32.065 65.8274 30.3577 68.8444 29.8416 71.5912C29.3348 74.2974 30.0137 76.4005 31.044 77.4327C31.7524 78.1411 33.1064 78.9791 34.6528 78.9791" stroke="black" stroke-width="0.5" stroke-linecap="round" stroke-linejoin="round"/>
<path d="M48.916 52.5114C49.4321 52.3394 50.9637 50.8355 51.5852 50.0013C52.1845 49.1985 52.695 47.7816 52.695 47.1841C52.695 46.5867 52.695 45.9319 52.5101 45.377" stroke="black" stroke-width="0.5" stroke-linecap="round" stroke-linejoin="round"/>
<path d="M54.9296 47.5278C54.9296 48.0421 54.7594 50.2765 54.5874 50.9646C54.4154 51.6527 54.0121 53.1843 53.041 54.5716C51.5853 56.66 50.1055 57.5849 50.1055 57.5849" stroke="black" stroke-width="0.5" stroke-linecap="round" stroke-linejoin="round"/>
<path d="M49.7737 58.3525C49.6628 59.2076 49.6059 60.0688 49.6035 60.9311C49.6255 62.0177 49.9206 63.0813 50.4618 64.0238" stroke="black" stroke-width="0.5" stroke-linecap="round" stroke-linejoin="round"/>
<path d="M30.5647 69.1087C29.3236 68.6222 28.2026 67.6955 27.3961 66.7724C26.192 65.3981 25.6777 63.8517 26.0199 61.7892C26.351 59.8063 27.4868 58.2174 28.2785 57.2148" stroke="black" stroke-width="0.5" stroke-linecap="round" stroke-linejoin="round"/>
<path d="M17.6008 46.3232C18.3407 47.0631 17.7728 48.7279 16.5705 50.4482C15.3681 52.1684 13.6442 55.2926 13.1336 58.8682C12.7896 61.2728 13.1336 64.1954 15.0241 67.1161C16.785 69.8389 20.7009 71.8884 23.6161 72.4434C25.7914 72.8577 28.1535 72.7097 29.6869 72.5285" stroke="black" stroke-width="0.5" stroke-linecap="round" stroke-linejoin="round"/>
<path d="M33.1152 45.4318C33.1004 45.3861 33.0837 45.3399 33.0652 45.293C32.0349 42.5425 29.1142 39.7938 25.1613 39.4497C20.696 39.0613 17.2555 39.9658 14.3348 41.5122C11.4141 43.0586 9.08894 46.1809 8.6635 48.7262C8.3213 50.7886 9.00756 52.679 10.726 53.3653C11.3845 53.628 12.9604 53.8814 13.9907 53.5373" stroke="black" stroke-width="0.5" stroke-linecap="round" stroke-linejoin="round"/>
<path d="M33.1642 45.5503C34.0891 48.238 32.9367 50.8054 32.4095 51.8949C32.1635 52.4054 31.9785 52.7754 31.9785 52.7754" stroke="black" stroke-width="0.5" stroke-linecap="round" stroke-linejoin="round"/>
<path d="M25.1328 46.3013C25.5028 46.6712 25.5453 46.6324 25.8727 47.0412C26.3745 47.7074 26.7506 48.4596 26.9825 49.2608C27.1675 50.1857 27.3525 50.9571 27.5375 51.8505C27.6947 52.6403 27.9722 54.0036 28.2774 54.8101C28.6251 55.7349 29.0321 57.1944 30.497 58.6945C31.962 60.1946 34.474 61.6171 34.474 61.6171" stroke="black" stroke-width="0.5" stroke-linecap="round" stroke-linejoin="round"/>
<path d="M25.9079 54.9381C25.9079 54.951 26.6367 54.4942 26.6478 54.5071C26.7014 54.5977 24.3541 57.9254 24.4078 58.0216C24.4189 58.0401 25.3752 57.4315 25.3863 57.45C25.427 57.5222 23.8084 60.3393 23.851 60.4096C23.8602 60.4244 24.6686 59.912 24.6778 59.9268C24.713 59.986 23.7881 62.4425 23.8232 62.4998C23.8232 62.5128 24.5631 62.0485 24.5742 62.0614C24.6038 62.1132 24.0859 64.3903 24.1174 64.4439C24.1174 64.455 24.8221 64.0148 24.8295 64.0277C24.8554 64.074 24.7204 66.1161 24.7463 66.1623C24.7463 66.1734 25.4325 65.7461 25.4399 65.7572C25.464 65.7979 25.7359 67.5773 25.7581 67.618C25.7581 67.6291 26.461 67.1908 26.4684 67.2037C26.4758 67.2166 27.125 68.7852 27.1472 68.8222C27.1694 68.8592 27.7743 68.4523 27.7798 68.4523" stroke="black" stroke-width="0.5" stroke-linecap="round" stroke-linejoin="round"/>
<path d="M24.7443 51.9638C24.7443 51.9749 25.2881 51.4736 25.2992 51.4866C25.3621 51.5828 23.1609 55.3877 23.2219 55.4857C23.2367 55.5079 24.1024 54.6866 24.1172 54.7088C24.1727 54.7958 22.2453 58.24 22.3008 58.3287C22.3119 58.3454 23.0536 57.648 23.0647 57.6665C23.1109 57.7387 21.8476 60.8351 21.8938 60.9073C21.8938 60.9221 22.4987 60.3635 22.5061 60.3782C22.5412 60.4319 21.9234 62.8773 21.9512 62.9309C21.9512 62.942 22.5061 62.4389 22.5061 62.45C22.5357 62.4981 22.3082 64.7307 22.3396 64.7788C22.3396 64.788 22.8446 64.3237 22.8501 64.3348C22.876 64.3755 23.0351 66.266 23.0573 66.3067C23.0573 66.3178 23.553 65.8609 23.5586 65.872C23.5641 65.8831 24.0192 67.5164 24.0414 67.5515C24.0636 67.5867 24.5408 67.1039 24.5482 67.115" stroke="black" stroke-width="0.5" stroke-linecap="round" stroke-linejoin="round"/>
<path d="M28.7413 46.3941C28.3436 45.5839 24.374 46.2905 24.7384 46.4699C25.2432 46.8354 25.716 47.2432 26.1516 47.6889C26.5216 48.0589 26.7935 48.1994 27.0765 48.6138C27.2615 48.8764 27.6407 48.488 27.8164 48.4288C28.3713 48.2438 28.7413 48.0589 28.9263 47.6889C29.0428 47.4558 28.9263 47.5039 29.1112 47.319C29.372 47.0582 28.9688 46.8584 28.7413 46.3941Z" fill="white"/>
<path d="M29.0183 46.8568C29.0183 46.6718 29.2033 46.0744 29.2033 45.747C29.2033 45.562 29.2033 45.0071 29.2033 44.8221C29.1866 44.2986 29.7341 43.6642 29.6602 43.3072C29.5862 42.9502 29.2033 42.9724 28.9073 43.2757C28.6521 43.5384 28.2784 44.6371 27.3535 44.4521C27.1538 44.3526 26.9673 44.2283 26.7986 44.0822C26.4065 43.6901 25.6888 43.1573 25.2208 42.7726C24.6233 42.2806 23.9815 41.8311 23.839 42.0475C23.6966 42.2639 25.4798 44.0249 25.7332 44.3449C25.9866 44.6649 26.277 45.1643 25.8442 44.8813C25.4113 44.5983 24.2737 44.0045 23.7244 43.642C23.0769 43.2184 22.1317 42.7559 21.9893 42.9724C21.8469 43.1888 23.3359 44.4688 23.7669 44.7518L24.8564 45.4695C25.071 45.6119 25.2874 45.7525 24.8934 45.6545C24.4994 45.5564 23.6559 45.242 23.0991 45.0996C22.7033 44.9941 21.956 44.626 21.8136 44.8424C21.6711 45.0589 22.4573 45.6045 23.5005 46.1373C24.2003 46.5221 24.8727 46.9548 25.5131 47.4321C25.5131 47.4321 26.5175 48.2922 26.8079 48.7269" fill="white"/>
<path d="M29.0183 46.8568C29.0183 46.6718 29.2033 46.0744 29.2033 45.747C29.2033 45.562 29.2033 45.0071 29.2033 44.8221C29.1866 44.2986 29.7341 43.6642 29.6602 43.3072C29.5862 42.9502 29.2033 42.9724 28.9073 43.2757C28.6521 43.5384 28.2784 44.6371 27.3535 44.4521C27.1538 44.3526 26.9673 44.2283 26.7986 44.0822C26.4065 43.6901 25.6888 43.1573 25.2208 42.7726C24.6233 42.2806 23.9815 41.8311 23.839 42.0475C23.6966 42.2639 25.4798 44.0249 25.7332 44.3449C25.9866 44.6649 26.277 45.1643 25.8442 44.8813C25.4113 44.5983 24.2737 44.0045 23.7244 43.642C23.0769 43.2184 22.1317 42.7559 21.9893 42.9724C21.8469 43.1888 23.3359 44.4688 23.7669 44.7518L24.8564 45.4695C25.071 45.6119 25.2874 45.7525 24.8934 45.6545C24.4994 45.5564 23.6559 45.242 23.0991 45.0996C22.7033 44.9941 21.956 44.626 21.8136 44.8424C21.6711 45.0589 22.4573 45.6045 23.5005 46.1373C24.2003 46.5221 24.8727 46.9548 25.5131 47.4321C25.5131 47.4321 26.5175 48.2922 26.8079 48.7269" stroke="black" stroke-width="0.5" stroke-linecap="round" stroke-linejoin="round"/>
<path d="M34.6853 50.7433C34.8444 50.279 35.2532 50.2272 35.7692 49.5391L36.1077 48.0594C36.1257 48.0325 36.1378 48.0021 36.1432 47.9702C36.1487 47.9384 36.1473 47.9057 36.1392 47.8744C36.0337 47.4674 35.6472 45.8915 35.7951 45.011C35.9043 44.3506 36.424 43.6662 36.8791 43.0669C37.1084 42.7636 37.9038 42.7969 38.1739 43.0669L39.3004 44.0769L39.317 44.0972L39.933 44.8667C39.9657 44.907 40.0111 44.9352 40.0617 44.9466C40.1124 44.958 40.1654 44.952 40.2123 44.9296C40.579 44.7474 40.9571 44.5892 41.3443 44.4561C41.7143 44.334 42.2156 44.1971 42.4727 44.1287C42.5199 44.1173 42.5619 44.0906 42.5924 44.0528C42.6228 44.015 42.6399 43.9682 42.641 43.9196C42.6518 43.5369 42.7141 43.1574 42.826 42.7913C42.9298 42.4733 43.1109 42.186 43.3532 41.9552C43.5381 41.7702 44.3576 42.0015 44.463 42.1402C44.881 42.6951 45.5174 43.1834 45.7837 43.7143L46.1444 44.4394L46.1629 44.4672C46.3299 44.7203 46.5121 44.9631 46.7086 45.1941C46.8762 45.3867 47.056 45.5684 47.2469 45.7379L47.282 45.7601L47.6335 45.934C47.9823 46.1134 48.3566 46.2381 48.7433 46.304L49.3648 46.328C49.4005 46.3281 49.4358 46.3199 49.4678 46.3042C49.4999 46.2885 49.5279 46.2656 49.5498 46.2374C51.1794 44.0991 51.0203 41.785 49.6626 40.5975C49.054 40.0648 48.0182 39.2491 46.5014 39.003H46.4737L45.4212 38.9364H45.3953C44.4242 38.9697 43.2311 39.3619 41.8012 39.8891C41.7475 39.9094 41.6882 39.9087 41.635 39.8871C41.5818 39.8654 41.5388 39.8245 41.5145 39.7725L41.3573 39.4377C41.3481 39.4118 41.335 39.3875 41.3184 39.3656C40.8774 38.981 40.36 38.694 39.8002 38.5235C39.2404 38.3529 38.6509 38.3027 38.0703 38.376C37.3138 38.4999 36.5443 39.0604 35.9986 39.3952C35.0867 39.9501 34.4541 40.0093 34.0989 40.5846C33.6846 41.256 33.6254 42.229 33.7012 42.8043C33.7053 42.836 33.7161 42.8664 33.7331 42.8936C33.75 42.9207 33.7726 42.9439 33.7993 42.9615V42.9615C33.8287 42.9825 33.8526 43.0103 33.8692 43.0425C33.8857 43.0746 33.8943 43.1103 33.8943 43.1465C33.8943 43.1826 33.8857 43.2183 33.8692 43.2504C33.8526 43.2826 33.8287 43.3104 33.7993 43.3314C32.4434 44.3229 31.3946 45.5511 30.8008 47.0605C29.1102 51.2853 32.0957 52.2398 33.7604 52.2398L34.2728 52.2213C34.3306 52.2185 34.3853 52.1942 34.4261 52.1531C34.4668 52.112 34.4907 52.0571 34.4929 51.9993C34.5099 51.5748 34.5744 51.1535 34.6853 50.7433V50.7433Z" fill="white"/>
<path d="M46.5879 39.0654C48.1102 39.3077 49.1516 40.129 49.762 40.6618C51.1401 41.8678 51.2825 44.2317 49.5771 46.3959" stroke="black" stroke-width="0.5" stroke-linecap="round" stroke-linejoin="round"/>
<path d="M33.8542 52.3132C32.1894 52.3132 29.2039 51.3588 30.8946 47.134C32.0044 44.3594 34.5941 42.5096 37.9236 41.3998C41.2531 40.2899 43.7429 39.0488 45.5075 38.9951" stroke="black" stroke-width="0.5" stroke-linecap="round" stroke-linejoin="round"/>
<path d="M33.8026 42.974C33.7065 42.4191 33.7472 41.3574 34.1855 40.6471C34.5407 40.0718 35.1733 40.0182 36.0852 39.4577C36.6401 39.1229 37.4004 38.5624 38.1569 38.4385C39.313 38.2535 40.7059 38.7381 41.4365 39.4577" stroke="black" stroke-width="0.5" stroke-linecap="round" stroke-linejoin="round"/>
<path d="M37.9238 39.3656C38.0937 39.2656 38.2828 39.2026 38.4787 39.1807" stroke="black" stroke-width="0.5" stroke-linecap="round" stroke-linejoin="round"/>
<path d="M39.2168 39.5503C39.342 39.4664 39.4865 39.4154 39.6367 39.4023" stroke="black" stroke-width="0.5" stroke-linecap="round" stroke-linejoin="round"/>
<path d="M46.1738 39.9775C46.4885 40.0319 46.7942 40.1296 47.082 40.2679" stroke="black" stroke-width="0.5" stroke-linecap="round" stroke-linejoin="round"/>
<path d="M45.1359 40.6597C45.0841 40.6597 45.6909 40.6597 45.8758 40.8446" stroke="black" stroke-width="0.5" stroke-linecap="round" stroke-linejoin="round"/>
<path d="M40.8828 41.3998C41.1492 41.3018 41.3323 41.1001 41.5654 41.1519" stroke="black" stroke-width="0.5" stroke-linecap="round" stroke-linejoin="round"/>
<path d="M40.3281 42.5104C40.5698 42.4365 40.8044 42.3412 41.0292 42.2256" stroke="black" stroke-width="0.5" stroke-linecap="round" stroke-linejoin="round"/>
<path d="M45.4023 41.607C45.5175 41.5891 45.6352 41.5945 45.7483 41.6228C45.8614 41.651 45.9676 41.7017 46.0609 41.7717" stroke="black" stroke-width="0.5" stroke-linecap="round" stroke-linejoin="round"/>
<path d="M48.9746 41.2949C49.2058 41.4022 49.5166 41.6889 49.5499 41.8665" stroke="black" stroke-width="0.5" stroke-linecap="round" stroke-linejoin="round"/>
<path d="M47.7266 41.5845C47.9115 41.5845 48.2815 41.9544 48.2815 41.9544" stroke="black" stroke-width="0.5" stroke-linecap="round" stroke-linejoin="round"/>
<path d="M47.541 42.6943C47.6871 42.8793 47.911 42.8793 48.0959 43.0643" stroke="black" stroke-width="0.5" stroke-linecap="round" stroke-linejoin="round"/>
<path d="M31.5629 49.7461C31.402 49.5186 31.5795 48.9674 31.6757 48.7769" stroke="black" stroke-width="0.5" stroke-linecap="round" stroke-linejoin="round"/>
<path d="M32.7188 48.5052C32.7835 48.2277 32.8242 47.7653 32.9962 47.5933" stroke="black" stroke-width="0.5" stroke-linecap="round" stroke-linejoin="round"/>
<path d="M33.7437 49.5552C33.7437 49.3555 33.6882 49.1187 33.777 48.9707" stroke="black" stroke-width="0.5" stroke-linecap="round" stroke-linejoin="round"/>
<path d="M55.7349 55.2731C55.7349 52.9758 56.3175 48.9637 56.029 45.7784C55.7404 42.5932 55.7182 41.5629 55.7182 41.5629C55.7182 41.5629 55.5333 35.5568 55.6979 34.1917C55.8625 32.8266 55.7571 32.1699 55.7571 32.1699C55.4131 33.1018 55.1766 34.07 55.0523 35.0555C54.8156 36.7998 55.143 42.6579 55.167 43.6919C55.191 44.7259 55.4186 52.0509 55.4204 52.7926C55.4223 53.1293 55.7349 55.2731 55.7349 55.2731Z" fill="#8CAE3F" stroke="black" stroke-width="0.5" stroke-linecap="round" stroke-linejoin="round"/>
<path d="M55.456 56.9723C55.8259 56.8668 51.8546 39.9547 57.3187 36.6825C59.814 35.1879 64.6658 36.4568 66.1974 38.3473C69.342 42.2317 69.1385 48.7465 69.342 50.5555" stroke="black" stroke-width="0.5" stroke-linecap="round" stroke-linejoin="round"/>
<path d="M57.875 36.4982C60.1687 36.1949 60.9844 38.1149 61.7594 39.6428C62.6307 41.3593 63.4372 43.9397 63.8552 45.734C64.2732 47.5282 64.4841 50.1733 64.4841 50.1733" stroke="black" stroke-width="0.5" stroke-linecap="round" stroke-linejoin="round"/>
<path d="M62.6836 36.498C64.3077 37.8465 65.3639 40.3104 66.1981 43.897C67.0323 47.4836 66.5255 52.6222 66.6013 53.0754" stroke="black" stroke-width="0.5" stroke-linecap="round" stroke-linejoin="round"/>
<path d="M65.1663 51.4645C65.2019 51.8864 65.0993 52.3084 64.8741 52.6668C64.5564 52.3864 64.3394 52.0095 64.2563 51.594C64.1675 50.9669 64.2988 50.4286 64.5504 50.3917C64.8019 50.3547 65.0775 50.8337 65.1663 51.4645Z" fill="#D2AC0C" stroke="black" stroke-width="0.5" stroke-linecap="round" stroke-linejoin="round"/>
<path d="M64.3765 50.2917C64.3278 50.7121 64.1441 51.1054 63.853 51.4126C63.5972 51.0752 63.4588 50.6633 63.459 50.2399C63.4941 49.6055 63.7272 49.1042 63.9806 49.119C64.234 49.1338 64.4116 49.6573 64.3765 50.2917Z" fill="#D2AC0C" stroke="black" stroke-width="0.5" stroke-linecap="round" stroke-linejoin="round"/>
<path d="M65.3153 49.6132C65.4229 50.0226 65.3937 50.4558 65.2321 50.847C64.8722 50.6247 64.5949 50.2908 64.4423 49.8962C64.2462 49.2932 64.2832 48.7402 64.5255 48.6625C64.7678 48.5848 65.1211 49.0102 65.3153 49.6132Z" fill="#D2AC0C" stroke="black" stroke-width="0.5" stroke-linecap="round" stroke-linejoin="round"/>
<path d="M65.1247 47.7816C65.2323 48.1909 65.203 48.6241 65.0415 49.0153C64.6825 48.7904 64.4065 48.4547 64.2554 48.059C64.0611 47.4541 64.0981 46.9029 64.3386 46.8234C64.5791 46.7439 64.9287 47.1767 65.1247 47.7816Z" fill="#D2AC0C" stroke="black" stroke-width="0.5" stroke-linecap="round" stroke-linejoin="round"/>
<path d="M64.8234 46.0393C64.9702 46.4367 64.9838 46.871 64.8623 47.2768C64.4822 47.0903 64.1731 46.7851 63.9818 46.4074C63.7284 45.8266 63.7099 45.2717 63.9429 45.1699C64.176 45.0682 64.57 45.4585 64.8234 46.0393Z" fill="#D2AC0C" stroke="black" stroke-width="0.5" stroke-linecap="round" stroke-linejoin="round"/>
<path d="M64.3965 44.226C64.5622 44.6157 64.5966 45.0488 64.4945 45.4598C64.1042 45.2926 63.7794 45.0022 63.5697 44.6329C63.2885 44.0651 63.2441 43.512 63.4716 43.3992C63.6992 43.2863 64.1153 43.6563 64.3965 44.226Z" fill="#D2AC0C" stroke="black" stroke-width="0.5" stroke-linecap="round" stroke-linejoin="round"/>
<path d="M63.8734 42.6242C64.0901 42.9875 64.183 43.4114 64.1379 43.8321C63.7302 43.7189 63.3705 43.4761 63.1131 43.1403C62.7561 42.615 62.6378 42.073 62.8486 41.9306C63.0595 41.7881 63.5164 42.0989 63.8734 42.6242Z" fill="#D2AC0C" stroke="black" stroke-width="0.5" stroke-linecap="round" stroke-linejoin="round"/>
<path d="M64.146 48.2331C64.0981 48.6538 63.9143 49.0473 63.6225 49.3541C63.3667 49.0166 63.2284 48.6047 63.2285 48.1813C63.2637 47.5487 63.4986 47.0456 63.752 47.0604C64.0054 47.0752 64.1811 47.5987 64.146 48.2331Z" fill="#D2AC0C" stroke="black" stroke-width="0.5" stroke-linecap="round" stroke-linejoin="round"/>
<path d="M63.7441 46.5888C63.6635 47.0046 63.4491 47.3827 63.1337 47.6654C62.9063 47.3083 62.8011 46.887 62.8341 46.4649C62.921 45.836 63.1948 45.3551 63.4463 45.3883C63.6979 45.4216 63.8311 45.9618 63.7441 46.5888Z" fill="#D2AC0C" stroke="black" stroke-width="0.5" stroke-linecap="round" stroke-linejoin="round"/>
<path d="M63.2358 44.8904C63.1874 45.3115 63.0037 45.7055 62.7124 46.0132C62.4566 45.6758 62.3182 45.2639 62.3184 44.8405C62.3535 44.206 62.5866 43.7048 62.84 43.7196C63.0934 43.7344 63.271 44.2578 63.2358 44.8904Z" fill="#D2AC0C" stroke="black" stroke-width="0.5" stroke-linecap="round" stroke-linejoin="round"/>
<path d="M62.8765 43.4348C62.8285 43.8554 62.6448 44.249 62.353 44.5557C62.0981 44.2178 61.9598 43.8063 61.959 43.383C61.9941 42.7485 62.229 42.2472 62.4825 42.262C62.7359 42.2768 62.9116 42.804 62.8765 43.4348Z" fill="#D2AC0C" stroke="black" stroke-width="0.5" stroke-linecap="round" stroke-linejoin="round"/>
<path d="M70.1118 54.1729C70.0987 54.5962 69.9473 55.0035 69.6808 55.3327C69.3993 55.0172 69.2285 54.6184 69.1943 54.1969C69.1777 53.5625 69.3793 53.0427 69.6253 53.0372C69.8713 53.0316 70.097 53.5384 70.1118 54.1729Z" fill="#D2AC0C" stroke="black" stroke-width="0.5" stroke-linecap="round" stroke-linejoin="round"/>
<path d="M69.4644 52.9143C69.3678 53.3267 69.1392 53.6962 68.8133 53.9668C68.5986 53.6022 68.5089 53.1773 68.558 52.7571C68.6672 52.1318 68.9594 51.6602 69.2091 51.7046C69.4588 51.7489 69.5735 52.2891 69.4644 52.9143Z" fill="#D2AC0C" stroke="black" stroke-width="0.5" stroke-linecap="round" stroke-linejoin="round"/>
<path d="M70.4789 52.3498C70.5368 52.7695 70.4569 53.1966 70.2514 53.567C69.9193 53.3039 69.6822 52.9395 69.5762 52.5293C69.4523 51.9077 69.554 51.3621 69.8037 51.314C70.0534 51.2659 70.3605 51.7283 70.4789 52.3498Z" fill="#D2AC0C" stroke="black" stroke-width="0.5" stroke-linecap="round" stroke-linejoin="round"/>
<path d="M70.5005 50.5101C70.5595 50.929 70.4802 51.3556 70.2748 51.7254C69.943 51.4628 69.706 51.0991 69.5997 50.6895C69.4757 50.0662 69.5775 49.5224 69.8272 49.4724C70.0769 49.4225 70.3784 49.8886 70.5005 50.5101Z" fill="#D2AC0C" stroke="black" stroke-width="0.5" stroke-linecap="round" stroke-linejoin="round"/>
<path d="M70.4034 48.7448C70.5035 49.156 70.4665 49.5886 70.298 49.9767C69.9423 49.7472 69.671 49.4083 69.5248 49.0112C69.3398 48.4044 69.3879 47.8532 69.6302 47.7792C69.8725 47.7052 70.2203 48.1381 70.4034 48.7448Z" fill="#D2AC0C" stroke="black" stroke-width="0.5" stroke-linecap="round" stroke-linejoin="round"/>
<path d="M70.1916 46.8936C70.3117 47.3001 70.2954 47.7347 70.1454 48.1311C69.7796 47.9193 69.4922 47.5949 69.326 47.2063C69.1133 46.6088 69.141 46.0557 69.3741 45.9706C69.6071 45.8855 69.9789 46.2962 70.1916 46.8936Z" fill="#D2AC0C" stroke="black" stroke-width="0.5" stroke-linecap="round" stroke-linejoin="round"/>
<path d="M69.8579 45.2419C70.0312 45.6285 70.0734 46.061 69.9782 46.4738C69.5869 46.3129 69.2584 46.0292 69.0422 45.6655C68.7499 45.1106 68.6944 44.5556 68.9201 44.4336C69.1458 44.3115 69.5657 44.6796 69.8579 45.2419Z" fill="#D2AC0C" stroke="black" stroke-width="0.5" stroke-linecap="round" stroke-linejoin="round"/>
<path d="M69.4761 50.8441C69.3799 51.2562 69.152 51.6257 68.8268 51.8966C68.6124 51.5312 68.5228 51.1059 68.5716 50.6851C68.6807 50.0598 68.9711 49.59 69.2208 49.6326C69.4706 49.6751 69.5852 50.2189 69.4761 50.8441Z" fill="#D2AC0C" stroke="black" stroke-width="0.5" stroke-linecap="round" stroke-linejoin="round"/>
<path d="M69.2685 49.1686C69.1372 49.5728 68.8773 49.9229 68.5286 50.1656C68.344 49.7849 68.2888 49.3543 68.3713 48.9393C68.5304 48.3252 68.8578 47.8775 69.1112 47.9423C69.3646 48.007 69.4349 48.5508 69.2685 49.1686Z" fill="#D2AC0C" stroke="black" stroke-width="0.5" stroke-linecap="round" stroke-linejoin="round"/>
<path d="M68.9606 47.4196C68.8644 47.8317 68.6364 48.2012 68.3113 48.4721C68.0966 48.1075 68.007 47.6827 68.0561 47.2624C68.1652 46.6372 68.4556 46.1655 68.7053 46.2099C68.955 46.2543 69.0642 46.7944 68.9606 47.4196Z" fill="#D2AC0C" stroke="black" stroke-width="0.5" stroke-linecap="round" stroke-linejoin="round"/>
<path d="M68.7729 45.9338C68.6767 46.3459 68.4488 46.7154 68.1237 46.9863C67.9093 46.6215 67.8197 46.1969 67.8684 45.7766C67.9775 45.1514 68.2679 44.6797 68.5177 44.7241C68.7674 44.7685 68.8802 45.3086 68.7729 45.9338Z" fill="#D2AC0C" stroke="black" stroke-width="0.5" stroke-linecap="round" stroke-linejoin="round"/>
<path d="M69.5363 43.4665C69.7403 43.8374 69.8175 44.2648 69.7565 44.6836C69.3516 44.5528 69.0007 44.2929 68.7576 43.9437C68.4209 43.4055 68.3229 42.8616 68.5375 42.7266C68.752 42.5916 69.1997 42.9282 69.5363 43.4665Z" fill="#D2AC0C" stroke="black" stroke-width="0.5" stroke-linecap="round" stroke-linejoin="round"/>
<path d="M68.5106 44.2426C68.4489 44.6643 68.2508 45.0541 67.9465 45.3525C67.7032 45.0061 67.5798 44.5898 67.595 44.1668C67.6542 43.5342 67.9058 43.0422 68.1592 43.057C68.4126 43.0718 68.5698 43.6193 68.5106 44.2426Z" fill="#D2AC0C" stroke="black" stroke-width="0.5" stroke-linecap="round" stroke-linejoin="round"/>
<path d="M66.7944 53.3216C66.7505 53.7423 66.5706 54.1371 66.282 54.4463C66.0233 54.1111 65.8811 53.7006 65.877 53.2772C65.9065 52.6446 66.1359 52.1396 66.3893 52.1526C66.6427 52.1655 66.824 52.6835 66.7944 53.3216Z" fill="#D2AC0C" stroke="black" stroke-width="0.5" stroke-linecap="round" stroke-linejoin="round"/>
<path d="M66.3318 51.8882C66.2064 52.2923 65.9525 52.6443 65.6085 52.8907C65.4206 52.5118 65.3615 52.0818 65.4402 51.6662C65.5937 51.0502 65.9174 50.6008 66.1634 50.6618C66.4095 50.7228 66.4853 51.2722 66.3318 51.8882Z" fill="#D2AC0C" stroke="black" stroke-width="0.5" stroke-linecap="round" stroke-linejoin="round"/>
<path d="M67.3072 51.6435C67.3349 52.0659 67.2245 52.4859 66.9928 52.8403C66.6806 52.5538 66.4708 52.1732 66.3953 51.7563C66.3158 51.1274 66.4563 50.591 66.7079 50.5595C66.9595 50.5281 67.2277 51.0183 67.3072 51.6435Z" fill="#D2AC0C" stroke="black" stroke-width="0.5" stroke-linecap="round" stroke-linejoin="round"/>
<path d="M67.4635 49.809C67.4911 50.2315 67.3808 50.6515 67.149 51.0058C66.8369 50.7194 66.627 50.3387 66.5515 49.9219C66.472 49.293 66.6126 48.7565 66.8641 48.7251C67.1157 48.6936 67.3839 49.1783 67.4635 49.809Z" fill="#D2AC0C" stroke="black" stroke-width="0.5" stroke-linecap="round" stroke-linejoin="round"/>
<path d="M67.4921 48.0405C67.5624 48.4583 67.4942 48.8877 67.2979 49.2632C66.959 49.0093 66.7127 48.6513 66.5969 48.244C66.4563 47.6261 66.5432 47.0786 66.7818 47.0231C67.0205 46.9676 67.3516 47.4227 67.4921 48.0405Z" fill="#D2AC0C" stroke="black" stroke-width="0.5" stroke-linecap="round" stroke-linejoin="round"/>
<path d="M67.3196 46.3124C67.4096 46.7255 67.3622 47.1568 67.1846 47.5406C66.834 47.3036 66.5703 46.9588 66.4336 46.5584C66.2652 45.9461 66.3244 45.3967 66.5686 45.3283C66.8128 45.2599 67.1494 45.7001 67.3196 46.3124Z" fill="#D2AC0C" stroke="black" stroke-width="0.5" stroke-linecap="round" stroke-linejoin="round"/>
<path d="M67.2161 44.6226C67.3615 45.0198 67.3732 45.4537 67.2494 45.8582C66.87 45.6702 66.5623 45.3637 66.3727 44.9851C66.1211 44.4024 66.1063 43.8494 66.3394 43.7495C66.5724 43.6496 66.9664 44.0399 67.2161 44.6226Z" fill="#D2AC0C" stroke="black" stroke-width="0.5" stroke-linecap="round" stroke-linejoin="round"/>
<path d="M66.3028 50.0937C66.1764 50.4978 65.9219 50.8497 65.5777 51.0963C65.3906 50.7164 65.3322 50.2859 65.4112 49.8699C65.5648 49.2558 65.8885 48.8063 66.1345 48.8674C66.3805 48.9284 66.4564 49.4722 66.3028 50.0937Z" fill="#D2AC0C" stroke="black" stroke-width="0.5" stroke-linecap="round" stroke-linejoin="round"/>
<path d="M66.329 48.3795C66.1707 48.7721 65.8889 49.1026 65.5262 49.321C65.3702 48.9274 65.3462 48.4938 65.4578 48.0854C65.6613 47.4842 66.0127 47.0625 66.2606 47.1438C66.5084 47.2252 66.5306 47.7783 66.329 48.3795Z" fill="#D2AC0C" stroke="black" stroke-width="0.5" stroke-linecap="round" stroke-linejoin="round"/>
<path d="M66.1482 46.6162C66.0228 47.0203 65.7689 47.3724 65.4249 47.6188C65.237 47.2398 65.1779 46.8098 65.2566 46.3942C65.4101 45.7783 65.7338 45.3288 65.9798 45.3898C66.2259 45.4509 66.3017 46.0002 66.1482 46.6162Z" fill="#D2AC0C" stroke="black" stroke-width="0.5" stroke-linecap="round" stroke-linejoin="round"/>
<path d="M66.0665 45.1196C65.9405 45.5243 65.686 45.877 65.3414 46.124C65.1543 45.7441 65.0959 45.3136 65.1749 44.8976C65.3284 44.2816 65.6522 43.8321 65.8982 43.895C66.1442 43.9579 66.22 44.5054 66.0665 45.1196Z" fill="#D2AC0C" stroke="black" stroke-width="0.5" stroke-linecap="round" stroke-linejoin="round"/>
<path d="M67.044 42.9385C67.221 43.3231 67.2678 43.755 67.1772 44.1686C66.7835 44.0122 66.4516 43.7316 66.2319 43.3695C65.936 42.8146 65.8768 42.2597 66.1006 42.1394C66.3244 42.0192 66.748 42.378 67.044 42.9385Z" fill="#D2AC0C" stroke="black" stroke-width="0.5" stroke-linecap="round" stroke-linejoin="round"/>
<path d="M65.9213 43.4138C65.8285 43.8266 65.6038 44.198 65.2813 44.4719C65.0634 44.109 64.9699 43.6849 65.015 43.264C65.1185 42.637 65.4053 42.1542 65.6568 42.206C65.9084 42.2578 66.0305 42.7886 65.9213 43.4138Z" fill="#D2AC0C" stroke="black" stroke-width="0.5" stroke-linecap="round" stroke-linejoin="round"/>
<path d="M55.489 57.5739C55.6998 53.4749 55.304 43.0091 55.1616 39.7221C55.0358 37.0048 53.0122 32.5507 51.7026 30.1238C51.0403 28.8919 49.9102 26.7222 49.9102 26.7222C49.9102 26.7222 51.3529 30.1035 52.0614 31.9014C52.7698 33.6994 53.6022 35.427 54.1738 38.2664C54.5715 40.2382 54.4309 44.3169 54.6436 46.4293C54.8064 48.0441 54.8286 50.4376 55.0136 51.7103C55.1986 52.9829 55.489 57.5739 55.489 57.5739Z" fill="#8CAE3F" stroke="black" stroke-width="0.5" stroke-linecap="round" stroke-linejoin="round"/>
<path d="M55.4925 58.4567C54.8913 55.1475 54.2494 45.1034 53.3875 42.6581C52.5255 40.2127 51.5636 37.5713 50.6906 35.692C49.8175 33.8127 49.627 32.8545 49.627 32.8545C49.627 32.8545 53.1415 39.8095 53.9257 41.9385C56.1177 47.9298 55.7755 54.3318 55.7755 54.3318L55.4925 58.4567Z" fill="#8CAE3F" stroke="black" stroke-width="0.5" stroke-linecap="round" stroke-linejoin="round"/>
<path d="M55.3031 44.9736C54.7815 45.1752 54.4707 45.1585 54.4041 44.9939C54.3376 44.8293 54.7204 44.3817 54.9591 44.254C55.3056 44.0693 55.6808 43.9443 56.0689 43.8841C56.3152 43.8661 56.5625 43.8661 56.8088 43.8841C56.9938 43.8841 57.2065 44.1504 56.9549 44.4187C56.858 44.5158 56.7332 44.5805 56.5979 44.6036C56.1583 44.6968 55.7256 44.8204 55.3031 44.9736V44.9736Z" fill="white" stroke="black" stroke-width="0.5" stroke-linecap="round" stroke-linejoin="round"/>
<path d="M56.4387 43.5142C56.2389 43.627 55.5878 43.7417 55.1439 43.8841C54.6999 44.0265 53.7566 44.4686 53.6641 44.254C53.5716 44.0395 54.034 43.5142 54.7739 43.1442C55.3066 42.8778 56.1187 42.6392 56.5904 42.7317C56.8086 42.7743 56.9936 42.9592 56.9085 43.1331C56.7994 43.3532 56.7587 43.3347 56.4387 43.5142Z" fill="white" stroke="black" stroke-width="0.5" stroke-linecap="round" stroke-linejoin="round"/>
<path d="M56.3115 41.8474C56.1769 41.7707 56.0182 41.7482 55.8676 41.7845C55.5161 41.8604 54.7855 41.9196 54.312 42.2026C53.6646 42.5892 53.3963 43.2939 53.4796 43.514C53.5628 43.7341 54.0123 43.157 54.9594 42.7741C55.2479 42.6576 56.3134 42.53 56.4392 42.4042C56.6241 42.2192 56.4651 41.938 56.3115 41.8474Z" fill="white" stroke="black" stroke-width="0.5" stroke-linecap="round" stroke-linejoin="round"/>
<path d="M53.7663 47.1765C53.7663 47.1765 54.3212 46.4366 54.3212 45.8817C54.3361 45.335 54.137 44.8041 53.7663 44.4019C53.3964 44.032 53.143 43.8285 53.0264 43.4771C52.8415 42.9221 53.0264 42.5522 53.0264 41.8123C53.0264 41.0724 52.4715 41.8123 52.2865 42.3672C52.1662 42.6608 52.1034 42.9748 52.1016 43.2921C52.1016 43.8784 52.1016 44.4019 52.2865 44.7719L52.6472 44.5314L53.7663 47.1765Z" fill="white"/>
<path d="M52.3686 44.6239C52.1836 44.254 52.1836 43.7286 52.1836 43.1441C52.1854 42.8268 52.2482 42.5128 52.3686 42.2193C52.5535 41.6643 53.1085 40.9244 53.1085 41.6643C53.1085 42.4042 52.9235 42.7742 53.1085 43.3291C53.225 43.6806 53.4784 43.884 53.8484 44.254C54.219 44.6561 54.4181 45.187 54.4033 45.7338C54.4033 46.2887 53.8484 47.0286 53.8484 47.0286" stroke="black" stroke-width="0.5" stroke-linecap="round" stroke-linejoin="round"/>
</g>
</svg>
